<svg xmlns="http://www.w3.org/2000/svg" viewBox="0 0 449.79 236.44"><defs><style>.cls-1{opacity:0;}.cls-2{fill:#fff;}.cls-3{fill:#2c4987;}.cls-4{fill:#ffaba4;}.cls-5{fill:#ff776b;}.cls-6{fill:#e5e5e5;}.cls-7{fill:#944f38;}.cls-8{fill:#5f3324;}.cls-9{fill:#263238;}</style></defs><g id="OBJECTS"><g class="cls-1"><path class="cls-2" d="M339,220.81c-3.77,8.47-7.73,16.71-11.79,24.61a48.65,48.65,0,0,1,23.71,20.52c4.26-5.81,8.05-11.15,11.17-15.58Z" transform="translate(-25.11 -131.78)"/><path class="cls-2" d="M433.61,203.46a24.51,24.51,0,0,0-14.8-10.35A80.08,80.08,0,0,0,342,216a14.35,14.35,0,0,0-2.11,16.89,41.45,41.45,0,0,0,8.11,9.86c25.61,23.54,40.57,72.83,36.72,107.4,27.59,9.63,67.51,10.41,89.66-8.63C478.55,301.36,456.1,237.55,433.61,203.46Z" transform="translate(-25.11 -131.78)"/></g><g class="cls-1"><path class="cls-3" d="M313.55,243a4,4,0,0,1-.87,2.49,5.47,5.47,0,0,1-1.15,1.26l-.17.11a1.55,1.55,0,0,1-.4.18h0l-4.63,1.27L270.7,258l.43-.68a7.53,7.53,0,0,0-2.64.1,1.15,1.15,0,0,1-.64,1h0a2.45,2.45,0,0,1-.93-.52,2.32,2.32,0,0,1-.52-.68c-1.77-3.47-3.7-6.64-5.35-10-.18-.37-.36-.74-.52-1.11a36.65,36.65,0,0,1-2.44-6.59s0,0,0,0c-.25-1.08,1.9-3.19,2.89-3.67,2.52-1.19,5.12-2.38,7.79-3.54h0a307.25,307.25,0,0,1,29.65-11.2c1.87-.59,3.73-1.15,5.56-1.68a2.29,2.29,0,0,1,2.76,1.33c.29.71.58,1.41.85,2.11v0c1.2,3,2.25,6,3.15,8.9.7,2.25,1.31,4.48,1.84,6.75h0c.08.29.15.58.21.88h0c.12.47.22.95.32,1.43C313.27,241.59,313.41,242.29,313.55,243Z" transform="translate(-25.11 -131.78)"/><path class="cls-3" d="M312,245.14a2.27,2.27,0,0,1-.61,1.51,1.8,1.8,0,0,1-.44.38h0a1.93,1.93,0,0,1-.65.3l-4,1.13c-12.28,3.52-24.24,7.6-36.55,11l1-1.52.43-.68a7.53,7.53,0,0,0-2.64.1,1.15,1.15,0,0,1-.64,1h0a1.47,1.47,0,0,1-1.41-.32,9.86,9.86,0,0,0-1.54.93.75.75,0,0,1-.07-.12,69.09,69.09,0,0,1-2.95-6.69q-.45-1.18-.87-2.4c-.39-1.1-.75-2.21-1.09-3.33-.63-2-1.21-4.13-1.76-6.25a2,2,0,0,1-.06-.68s0,0,0,0a2.31,2.31,0,0,1,1.3-2c2.64-1.25,5.38-2.49,8.19-3.72h0a306.46,306.46,0,0,1,32.63-12.06h0l2.16-.63a2.3,2.3,0,0,1,2.77,1.33c1.11,2.7,2.09,5.29,3,7.85h0c.79,2.32,1.5,4.6,2.12,6.9h0c.11.41.22.81.32,1.22.16.59.31,1.19.44,1.79.36,1.45.67,2.92,1,4.42A2.28,2.28,0,0,1,312,245.14Z" transform="translate(-25.11 -131.78)"/></g><path class="cls-4" d="M319.12,260.45A319.51,319.51,0,0,1,294.06,299c-5.33-1.37-32.59-13.93-37.78-28.16a45.05,45.05,0,0,0-10.12,6.43c9,21.24,23.4,36.72,39.45,49.76a7.81,7.81,0,0,0,9.26.43c8.5-5.74,17.79-14.78,26.88-24.95C324.83,288.47,323.9,272.93,319.12,260.45Z" transform="translate(-25.11 -131.78)"/><path class="cls-5" d="M327.21,245.42q-4,7.76-8.09,15c4.78,12.48,5.71,28,2.63,42,10.52-11.78,20.76-25.07,29.17-36.53A48.65,48.65,0,0,0,327.21,245.42Z" transform="translate(-25.11 -131.78)"/><path class="cls-6" d="M423.73,247.63c.07-3.34.13-6.68.27-10-12,20.7-23.88,43.24-41.25,58.79a119.8,119.8,0,0,1,2.83,15.28C406.43,298.47,415.76,271.56,423.73,247.63Z" transform="translate(-25.11 -131.78)"/><path class="cls-7" d="M308.74,148.55a25.16,25.16,0,0,1,9-13.45c2.72-2.06,6.45-3.57,9.49-2,1.11.57,2,1.52,3.24,1.88,1.82.53,3.7-.4,5.45-1.12a27.23,27.23,0,0,1,15.35-1.6c2.55.48,5.45,1.81,5.77,4.38.19,1.51-.59,3.15.1,4.5.83,1.63,3.08,1.66,4.79,2.32a7,7,0,0,1,4.11,6,10.61,10.61,0,0,1-2.47,7.11c-.54.69-1.19,1.46-1,2.32.25,1.5,2.34,1.58,3.66,2.32,2,1.11,2.21,4,1.15,6.06s-3,3.37-4.78,4.82a36.85,36.85,0,0,0-11.34,16.38c-.06.18-11.91-4.87-13-5.37q-6.4-3-12.54-6.48c-4.05-2.32-8-4.8-11.83-7.46a15.67,15.67,0,0,1-3.37-2.86,8.29,8.29,0,0,1-1.45-3.16,29.42,29.42,0,0,1-.74-12.89Q308.52,149.39,308.74,148.55Z" transform="translate(-25.11 -131.78)"/><path class="cls-8" d="M309.11,151.38a23.47,23.47,0,0,1,8.41-12.53c2.53-1.92,6-3.32,8.84-1.87a19,19,0,0,0,3,1.74c1.69.5,3.44-.36,5.07-1a25.36,25.36,0,0,1,14.3-1.49c2.37.45,5.08,1.69,5.38,4.08.18,1.4-.55,2.93.09,4.19.77,1.52,2.87,1.55,4.46,2.17a6.46,6.46,0,0,1,3.83,5.6,9.88,9.88,0,0,1-2.3,6.63,3,3,0,0,0-1,2.17c.24,1.39,2.18,1.47,3.41,2.15,1.85,1,2.06,3.77,1.07,5.65s-2.82,3.13-4.45,4.49a34.34,34.34,0,0,0-10.56,15.26c-.06.16-11.1-4.55-12.09-5-4-1.85-7.87-3.87-11.67-6.05s-7.46-4.46-11-6.94a14.76,14.76,0,0,1-3.13-2.66,7.65,7.65,0,0,1-1.35-2.94,27.27,27.27,0,0,1-.69-12C308.85,152.44,309,151.91,309.11,151.38Z" transform="translate(-25.11 -131.78)"/><path class="cls-4" d="M351.82,180.52c2.29-.48,3.8-3.08,4.81-5.15a5.11,5.11,0,0,0-.67-5.67c-2.61-2.88-7-1.32-10,.78a41,41,0,0,0-4.35-6,7.66,7.66,0,0,1-1.84-5.36c.12-2.69.42-5.62.42-5.62A180.4,180.4,0,0,0,311.86,151c-4.09,13.9-5.85,54.14,10.42,55.27,8.79.61,17.17-6.43,19.51-8.66,7.51,5.64,17.07,10.82,25,16.36,4.53,3.17,11.79,2.89,16-.73a16.57,16.57,0,0,0,3.69-4.67,7.54,7.54,0,0,0-3.76-10.43A164.44,164.44,0,0,1,351.82,180.52Z" transform="translate(-25.11 -131.78)"/><path class="cls-5" d="M333,203.81a38.58,38.58,0,0,0,8.79-6.16c2.94,2.21,6.2,4.35,9.55,6.47A48.38,48.38,0,0,0,345.18,191C341.68,195.49,337,199.49,333,203.81Z" transform="translate(-25.11 -131.78)"/><path class="cls-5" d="M353.48,170.51a1.45,1.45,0,0,0-.41-.33,2.6,2.6,0,0,0-.46-.12,3.49,3.49,0,0,0-1,0,6.16,6.16,0,0,0-1.89.51,5.76,5.76,0,0,0-2.82,2.73.66.66,0,0,0,.43.94,1.54,1.54,0,0,1,1.29,1.19,1.83,1.83,0,0,1-.76,1.64c-.38.32.07,1,.53.83a2.54,2.54,0,0,0,1.41-2.68,2.72,2.72,0,0,0-1.35-1.95,4.82,4.82,0,0,1,1.76-1.43,5,5,0,0,1,1.45-.42c.28,0,.56,0,.84,0h.4a2.16,2.16,0,0,0,.45-.15A.41.41,0,0,0,353.48,170.51Z" transform="translate(-25.11 -131.78)"/><path class="cls-9" d="M327.73,168.77a1.82,1.82,0,0,0,.13,3.63A1.82,1.82,0,0,0,327.73,168.77Z" transform="translate(-25.11 -131.78)"/><path class="cls-9" d="M311.86,167.85a1.82,1.82,0,0,0,.13,3.63A1.82,1.82,0,0,0,311.86,167.85Z" transform="translate(-25.11 -131.78)"/><path class="cls-5" d="M330,189.81a15.67,15.67,0,0,1-6.69,3.52c-.95.23-2.22.38-2.53-.8-.22-.89,0-1.84-.21-2.75a2.36,2.36,0,0,0-1.7-1.88A10,10,0,0,0,316,188c-1.16,0-1.52-.79-1.52-1.83a29.53,29.53,0,0,1,.42-4.09c.22-1.58.44-3.16.71-4.74s.64-3.28.9-4.93a.55.55,0,0,0-1.07-.25,45.71,45.71,0,0,0-1,4.78c-.27,1.54-.53,3.07-.73,4.62a35.77,35.77,0,0,0-.46,4.49,3.13,3.13,0,0,0,1.23,2.8c1,.6,2.12.29,3.19.17a1.88,1.88,0,0,1,1.32.18,1.62,1.62,0,0,1,.48,1.23,7,7,0,0,0,.45,3.06,2.72,2.72,0,0,0,2.81,1.17,15.2,15.2,0,0,0,8.23-4C331.46,190.11,330.55,189.29,330,189.81Z" transform="translate(-25.11 -131.78)"/><path class="cls-5" d="M330,194.3a3,3,0,0,0-.9.6c-.31.22-.62.46-.94.67a10.35,10.35,0,0,1-2,1,11,11,0,0,1-2.11.57,11.11,11.11,0,0,1-1.16.11,1.39,1.39,0,0,0-1,.27.33.33,0,0,0,0,.39c.45.59,1.59.4,2.24.34a10.57,10.57,0,0,0,2.48-.54,10.75,10.75,0,0,0,2.23-1.1,7.32,7.32,0,0,0,1-.76,2.3,2.3,0,0,0,.78-1A.48.48,0,0,0,330,194.3Z" transform="translate(-25.11 -131.78)"/><path class="cls-8" d="M316.46,161.19a4.49,4.49,0,0,0-1.84-.45,6.58,6.58,0,0,0-1.66.06,6.86,6.86,0,0,0-1.77.55,2.86,2.86,0,0,0-1.47,1.15.7.7,0,0,0,.81,1,2.32,2.32,0,0,0,.72-.36l.35-.2.16-.08h.06c.22-.1.44-.18.67-.26l.35-.09.17,0,.12,0a5.38,5.38,0,0,1,.69-.07h.6a14.46,14.46,0,0,1,1.48.34A.81.81,0,0,0,316.46,161.19Z" transform="translate(-25.11 -131.78)"/><path class="cls-8" d="M332.78,164.12a1.84,1.84,0,0,0-.32-.6,5.09,5.09,0,0,0-.79-.75,7.49,7.49,0,0,0-2.12-1.14,6.74,6.74,0,0,0-4.52.05.77.77,0,0,0,.46,1.47,5.66,5.66,0,0,1,3.59,0,5.83,5.83,0,0,1,1.49.76,6.59,6.59,0,0,1,.75.65,3.6,3.6,0,0,0,.4.28,1.82,1.82,0,0,0,.23.15s.43.13.27.07a.44.44,0,0,0,.63-.4A1.65,1.65,0,0,0,332.78,164.12Z" transform="translate(-25.11 -131.78)"/><path class="cls-6" d="M390.39,203.11c-.2-.9-1.55-.47-1.36.42a13.79,13.79,0,0,1-3.73,12.35,13.11,13.11,0,0,1-12.22,3.38,13.42,13.42,0,0,1-6.59-3.59c-.64-.64-1.6.39-1,1a15.21,15.21,0,0,0,13.76,4,14.92,14.92,0,0,0,11.1-17.65Z" transform="translate(-25.11 -131.78)"/><path class="cls-6" d="M463.68,306.63c-1.54,2.18-2.89,4.5-4.46,6.67s-3.23,4.26-5,6.27a85.38,85.38,0,0,1-11.66,11,88.12,88.12,0,0,1-28.33,14.75,87.07,87.07,0,0,1-17.8,3.49.42.42,0,0,0,0,.83,81.92,81.92,0,0,0,31.46-8.31A88,88,0,0,0,454,322a82,82,0,0,0,5.78-7,45.79,45.79,0,0,0,5-7.8A.6.6,0,0,0,463.68,306.63Z" transform="translate(-25.11 -131.78)"/><path class="cls-6" d="M464.82,326.74c-1.09,1-2.07,2.19-3.08,3.3s-2.06,2.19-3.1,3.28a81.14,81.14,0,0,1-6.44,6.14A41,41,0,0,1,436.8,348a28.55,28.55,0,0,1-9.69,1c-.4,0-.47.66-.07.71,5.88.78,11.84-.82,17.06-3.47a56.5,56.5,0,0,0,14.35-11.11c1.2-1.22,2.35-2.48,3.49-3.75s2.42-2.63,3.48-4.05A.41.41,0,0,0,464.82,326.74Z" transform="translate(-25.11 -131.78)"/><path class="cls-6" d="M370.88,272.21a39.42,39.42,0,0,0-4.68-8.75,93.54,93.54,0,0,0-6-8.28A76.77,76.77,0,0,0,345.87,241c-.16-.11-.36.09-.21.23a186.09,186.09,0,0,1,13.52,14.84c2,2.59,3.94,5.23,5.75,8s3.39,5.8,5.41,8.42C370.54,272.72,371,272.56,370.88,272.21Z" transform="translate(-25.11 -131.78)"/><path class="cls-5" d="M267.49,260.13l2.23-.62a108.57,108.57,0,0,1-11.62,14.95,23,23,0,0,1-6.58,5.08,18.38,18.38,0,0,0,3.32-8.05,15.17,15.17,0,0,0-.71-7.73,9.59,9.59,0,0,0-.45-1c-.5-.46-1-1.41-1.77-2.2-.13-.13-.26-.26-.4-.38l3-3.38.89-1,.22-.25,4.42-5,.25,2.64.06.65.74,8.06.16,1.67c.17-.34.34-.67.52-1a12.77,12.77,0,0,1,2.23-2.84,9.52,9.52,0,0,1,.86-.73A2.32,2.32,0,0,0,267.49,260.13Z" transform="translate(-25.11 -131.78)"/><path class="cls-5" d="M268.49,257.41a1.15,1.15,0,0,1-.64,1h0a1.47,1.47,0,0,1-1.41-.32,5.16,5.16,0,0,1,.49-.21A8.82,8.82,0,0,1,268.49,257.41Z" transform="translate(-25.11 -131.78)"/><path class="cls-4" d="M253.67,262.72a27.53,27.53,0,0,0-2.17-2.58L244,268.58s-.55,14.39,7.49,11l.08,0C255.05,274.72,256.21,267.9,253.67,262.72Z" transform="translate(-25.11 -131.78)"/><path class="cls-2" d="M268.85,246.34c-2.56.09-2.42,4.08.14,4S271.41,246.24,268.85,246.34Z" transform="translate(-25.11 -131.78)"/><path class="cls-4" d="M320.44,234.82q-4.62-8.61-9.26-17.21l-15.29-.28a1.6,1.6,0,0,0-.87.16,1,1,0,0,0-.24,1.27,2.64,2.64,0,0,0,1,1,17,17,0,0,0,11.57,2.6,95.09,95.09,0,0,0,7,13.42Z" transform="translate(-25.11 -131.78)"/><path class="cls-4" d="M315.6,234.55l-8.83-5c-1.24-.7-2.73-1.41-4-.81a4.42,4.42,0,0,0-1.9,2.63,58.35,58.35,0,0,0-2.34,8c-.18.83-.2,2,.58,2.27a1.78,1.78,0,0,0,1.71-.56,10.65,10.65,0,0,0,3.48-6.17,46,46,0,0,0,11.61,5.68Z" transform="translate(-25.11 -131.78)"/><path class="cls-4" d="M318.73,242l-8.84-5c-1.24-.7-2.73-1.42-4-.81a4.38,4.38,0,0,0-1.89,2.63,55.65,55.65,0,0,0-2.34,8c-.18.83-.21,1.94.58,2.27a1.78,1.78,0,0,0,1.71-.56,10.58,10.58,0,0,0,3.47-6.17A45.7,45.7,0,0,0,319,248.07Z" transform="translate(-25.11 -131.78)"/><path class="cls-4" d="M322.72,246.28l-8.84-5c-1.24-.7-2.73-1.42-4-.81a4.38,4.38,0,0,0-1.89,2.63,55.65,55.65,0,0,0-2.34,8c-.18.83-.21,1.94.58,2.27a1.78,1.78,0,0,0,1.71-.56,10.58,10.58,0,0,0,3.47-6.17A45.7,45.7,0,0,0,323,252.32Z" transform="translate(-25.11 -131.78)"/><path class="cls-4" d="M314,245.49c.55,3.09,1.22,6.41,3.5,8.57s5.37,2.6,8.36,3c1.34-2,2.75-4,4.1-6a124.25,124.25,0,0,0-16.32-27.45C313.49,230.7,312.8,238.52,314,245.49Z" transform="translate(-25.11 -131.78)"/><path class="cls-4" d="M432.92,235.06c-4.66-9.85-15.42-16.32-26.32-16.56-7.12,18.34-18.16,35.33-30.57,50.59a270.37,270.37,0,0,1-52.57-27.29c-1.28,2.32-3.63,4.31-4.91,6.62a167.66,167.66,0,0,0,59.75,50.34,6.91,6.91,0,0,0,8-1.32C405,278.67,423.07,259.65,432.92,235.06Z" transform="translate(-25.11 -131.78)"/><path class="cls-5" d="M380.12,276.6a16.78,16.78,0,0,0-.67-2.82,15.69,15.69,0,0,0-1.08-2.57,8.3,8.3,0,0,0-1.68-2.37.36.36,0,0,0-.59.38c.31.86.82,1.64,1.18,2.49a21.47,21.47,0,0,1,.91,2.47,17.08,17.08,0,0,1,.57,2.55c.11.82,0,2,.48,2.67a.47.47,0,0,0,.81,0C380.55,278.63,380.25,277.41,380.12,276.6Z" transform="translate(-25.11 -131.78)"/><path class="cls-6" d="M431.7,232.29a31.93,31.93,0,0,0-9.21-9c-4.74-3.06-10.75-5.3-16.46-5-.55,0-.69.94-.1,1,5.66.63,10.92,2,15.76,5.1a31.74,31.74,0,0,1,6.36,5.43,29,29,0,0,1,2.56,3.29c.68,1,1.22,2.47,2.25,3.17.27.18.57-.09.58-.36C433.5,234.71,432.37,233.29,431.7,232.29Z" transform="translate(-25.11 -131.78)"/><path class="cls-6" d="M408.44,206.27a.58.58,0,0,0-1.05-.1,3.43,3.43,0,0,0-.29,1.46c-.06.56-.11,1.11-.17,1.67-.12,1-.25,2.09-.39,3.13s-.29,2.09-.46,3.12a24.26,24.26,0,0,0-.48,3.17.57.57,0,0,0,1.07.24,16.93,16.93,0,0,0,.77-3.08c.2-1.07.38-2.15.55-3.23s.27-2.14.37-3.21c.05-.54.1-1.08.14-1.63A3.62,3.62,0,0,0,408.44,206.27Z" transform="translate(-25.11 -131.78)"/><path class="cls-6" d="M438.38,224.18a.43.43,0,0,0-.85-.08,14.58,14.58,0,0,0-.35,1.62c-.12.54-.29,1.07-.42,1.61-.26,1-.58,2.08-.94,3.1a30,30,0,0,1-1.27,3c-.49,1-1.16,1.93-1.58,2.94a.57.57,0,0,0,.92.65,11,11,0,0,0,1.91-2.8,23.84,23.84,0,0,0,1.45-3.22,22.3,22.3,0,0,0,.9-3.32,14.86,14.86,0,0,0,.18-1.62A8.27,8.27,0,0,0,438.38,224.18Z" transform="translate(-25.11 -131.78)"/><path class="cls-4" d="M255,255.75q.06-9.76.11-19.55l13.38-7.41a1.45,1.45,0,0,1,.84-.27,1,1,0,0,1,.81,1,2.74,2.74,0,0,1-.42,1.32,16.93,16.93,0,0,1-9,7.72,95.66,95.66,0,0,1,.1,15.14Z" transform="translate(-25.11 -131.78)"/><path class="cls-4" d="M268.49,257.41a1.15,1.15,0,0,1-.64,1h0a1.47,1.47,0,0,1-1.41-.32,3.4,3.4,0,0,1-.3-.23,10.61,10.61,0,0,1-3.51-6.15l-.75.5a1.5,1.5,0,0,1-.23.15c-.26.18-.52.35-.79.5a4.23,4.23,0,0,1-.53.33c-1.11.68-2.27,1.31-3.45,1.88-.48.24-1,.46-1.44.68-1.44.64-2.92,1.21-4.4,1.71l.14-3.28,0-.7a3.75,3.75,0,0,1,1.89-3.09L255,249.3l4.89-2.8.18-.1.44-.24c.17-.09.34-.18.52-.26a3.64,3.64,0,0,1,3.06-.33,4.38,4.38,0,0,1,1.91,2.62,56.63,56.63,0,0,1,2.39,8A3.74,3.74,0,0,1,268.49,257.41Z" transform="translate(-25.11 -131.78)"/><path class="cls-4" d="M247.15,258.5a3.75,3.75,0,0,1,1.89-3.09l7-4c1.24-.7,2.73-1.43,4-.83a4.42,4.42,0,0,1,1.91,2.62,56.63,56.63,0,0,1,2.39,8c.18.83.22,1.94-.57,2.27a1.75,1.75,0,0,1-1.71-.55,10.61,10.61,0,0,1-3.51-6.15A45.93,45.93,0,0,1,247,262.48Z" transform="translate(-25.11 -131.78)"/><path class="cls-4" d="M244.12,264.6a3.74,3.74,0,0,1,1.89-3.09l7-4c1.24-.7,2.73-1.43,4-.83a4.42,4.42,0,0,1,1.91,2.62,56.63,56.63,0,0,1,2.39,8c.18.83.22,1.94-.57,2.27a1.75,1.75,0,0,1-1.71-.55,10.63,10.63,0,0,1-3.52-6.15A45.87,45.87,0,0,1,244,268.58Z" transform="translate(-25.11 -131.78)"/><g class="cls-1"><path d="M89.19,354.21h-.14l-1.45,4.31h3Zm0,0h-.14l-1.45,4.31h3Zm9.45-6a3.75,3.75,0,0,0-2.74-.9H82.33a3.75,3.75,0,0,0-2.74.9,3.67,3.67,0,0,0-.92,2.71v13.67a3.64,3.64,0,0,0,.92,2.71,3.75,3.75,0,0,0,2.74.9H95.9a3.75,3.75,0,0,0,2.74-.9,3.64,3.64,0,0,0,.91-2.71V350.94A3.67,3.67,0,0,0,98.64,348.23Zm-5,14.79a1,1,0,0,1-.72.25,1,1,0,0,1-.6-.19,1.23,1.23,0,0,1-.41-.66l-.79-2.32H87.08l-.77,2.32a1.24,1.24,0,0,1-.42.66,1,1,0,0,1-.61.19,1,1,0,0,1-.71-.25.87.87,0,0,1-.27-.66,1.71,1.71,0,0,1,.15-.68l3.18-8.63A1.46,1.46,0,0,1,89.1,352a1.5,1.5,0,0,1,1.51,1.05l3.18,8.63a1.88,1.88,0,0,1,.14.68A.87.87,0,0,1,93.66,363Zm-4.61-8.81-1.45,4.31h3l-1.45-4.31Zm.14,0h-.14l-1.45,4.31h3Zm0,0h-.14l-1.45,4.31h3Z" transform="translate(-25.11 -131.78)"/><path d="M125.25,348.23a3.75,3.75,0,0,0-2.74-.9H108.94a3.75,3.75,0,0,0-2.74.9,3.67,3.67,0,0,0-.92,2.71v13.67a3.64,3.64,0,0,0,.92,2.71,3.75,3.75,0,0,0,2.74.9h13.57a3.75,3.75,0,0,0,2.74-.9,3.64,3.64,0,0,0,.91-2.71V350.94A3.67,3.67,0,0,0,125.25,348.23Zm-11.63,12.23a2.53,2.53,0,0,0,2.14,1.07,3,3,0,0,0,1.58-.4,2.86,2.86,0,0,0,1.07-1.2,1,1,0,0,1,.87-.63.84.84,0,0,1,.91.9,1.27,1.27,0,0,1,0,.28,2.6,2.6,0,0,1-.07.31,3.78,3.78,0,0,1-1.65,1.82,5.33,5.33,0,0,1-2.71.66,4.73,4.73,0,0,1-3.7-1.52,6.89,6.89,0,0,1,0-8.22,4.7,4.7,0,0,1,3.7-1.53,5.33,5.33,0,0,1,2.71.66,3.73,3.73,0,0,1,1.65,1.84,1.9,1.9,0,0,1,.07.28,1.29,1.29,0,0,1,0,.29.84.84,0,0,1-.91.9.8.8,0,0,1-.5-.15,1.38,1.38,0,0,1-.37-.48,2.8,2.8,0,0,0-2.65-1.6,2.56,2.56,0,0,0-2.14,1.07,4.66,4.66,0,0,0-.8,2.84A4.59,4.59,0,0,0,113.62,360.46Z" transform="translate(-25.11 -131.78)"/><path d="M151.86,348.23a3.74,3.74,0,0,0-2.74-.9H135.55a3.75,3.75,0,0,0-2.74.9,3.67,3.67,0,0,0-.92,2.71v13.67a3.64,3.64,0,0,0,.92,2.71,3.75,3.75,0,0,0,2.74.9h13.57a3.74,3.74,0,0,0,2.74-.9,3.64,3.64,0,0,0,.91-2.71V350.94A3.67,3.67,0,0,0,151.86,348.23Zm-5,5.6a.89.89,0,0,1-.64.24h-2.79V362a1.32,1.32,0,0,1-.28.89,1,1,0,0,1-.8.32,1,1,0,0,1-.78-.33,1.37,1.37,0,0,1-.26-.88v-7.91h-2.79a.87.87,0,0,1-.63-.24.81.81,0,0,1-.25-.62.82.82,0,0,1,.25-.65.9.9,0,0,1,.63-.23h7.7a.93.93,0,0,1,.64.23.82.82,0,0,1,.25.65A.81.81,0,0,1,146.82,353.83Z" transform="translate(-25.11 -131.78)"/><path d="M178.47,348.23a3.74,3.74,0,0,0-2.74-.9H162.16a3.75,3.75,0,0,0-2.74.9,3.67,3.67,0,0,0-.92,2.71v13.67a3.64,3.64,0,0,0,.92,2.71,3.75,3.75,0,0,0,2.74.9h13.57a3.74,3.74,0,0,0,2.74-.9,3.64,3.64,0,0,0,.91-2.71V350.94A3.67,3.67,0,0,0,178.47,348.23ZM170,361.92a1.38,1.38,0,0,1-.27.9,1,1,0,0,1-.8.32.9.9,0,0,1-.78-.34,1.36,1.36,0,0,1-.27-.88v-8.57a1.36,1.36,0,0,1,.27-.88.9.9,0,0,1,.78-.34,1,1,0,0,1,.8.32,1.38,1.38,0,0,1,.27.9Z" transform="translate(-25.11 -131.78)"/><path d="M205.08,348.23a3.74,3.74,0,0,0-2.74-.9H188.77a3.77,3.77,0,0,0-2.74.9,3.67,3.67,0,0,0-.91,2.71v13.67a3.64,3.64,0,0,0,.91,2.71,3.77,3.77,0,0,0,2.74.9h13.57a3.74,3.74,0,0,0,2.74-.9,3.64,3.64,0,0,0,.91-2.71V350.94A3.67,3.67,0,0,0,205.08,348.23Zm-4.79,5.48-3.18,8.3a2.19,2.19,0,0,1-.62,1,1.44,1.44,0,0,1-.93.3,1.5,1.5,0,0,1-.94-.28,2.19,2.19,0,0,1-.62-1l-3.2-8.32a1.83,1.83,0,0,1-.1-.55,1,1,0,0,1,.31-.73,1.09,1.09,0,0,1,.77-.28,1,1,0,0,1,.7.22,1.64,1.64,0,0,1,.43.69l2.59,7.67h.09l2.59-7.67a1.74,1.74,0,0,1,.43-.69,1.21,1.21,0,0,1,1.47.06.92.92,0,0,1,.31.73A1.56,1.56,0,0,1,200.29,353.71Z" transform="translate(-25.11 -131.78)"/><path d="M231.7,348.23a3.78,3.78,0,0,0-2.75-.9H215.38a3.77,3.77,0,0,0-2.74.9,3.67,3.67,0,0,0-.91,2.71v13.67a3.64,3.64,0,0,0,.91,2.71,3.77,3.77,0,0,0,2.74.9H229a3.78,3.78,0,0,0,2.75-.9,3.68,3.68,0,0,0,.91-2.71V350.94A3.71,3.71,0,0,0,231.7,348.23Zm-8.47,13.69a1.38,1.38,0,0,1-.27.9,1,1,0,0,1-.8.32.9.9,0,0,1-.78-.34,1.36,1.36,0,0,1-.27-.88v-8.57a1.36,1.36,0,0,1,.27-.88.9.9,0,0,1,.78-.34,1,1,0,0,1,.8.32,1.38,1.38,0,0,1,.27.9Z" transform="translate(-25.11 -131.78)"/><path d="M258.31,348.23a3.78,3.78,0,0,0-2.75-.9H242a3.79,3.79,0,0,0-2.74.9,3.67,3.67,0,0,0-.91,2.71v13.67a3.64,3.64,0,0,0,.91,2.71,3.79,3.79,0,0,0,2.74.9h13.57a3.78,3.78,0,0,0,2.75-.9,3.68,3.68,0,0,0,.91-2.71V350.94A3.71,3.71,0,0,0,258.31,348.23Zm-5.05,5.6a.89.89,0,0,1-.64.24h-2.79V362a1.37,1.37,0,0,1-.27.89,1,1,0,0,1-.8.32,1,1,0,0,1-.79-.33,1.44,1.44,0,0,1-.26-.88v-7.91h-2.78a.89.89,0,0,1-.64-.24.81.81,0,0,1-.25-.62.82.82,0,0,1,.25-.65.93.93,0,0,1,.64-.23h7.69a.93.93,0,0,1,.64.23.82.82,0,0,1,.25.65A.81.81,0,0,1,253.26,353.83Z" transform="translate(-25.11 -131.78)"/><path d="M284.92,348.23a3.76,3.76,0,0,0-2.75-.9H268.6a3.74,3.74,0,0,0-2.73.9,3.63,3.63,0,0,0-.92,2.71v13.67a3.6,3.6,0,0,0,.92,2.71,3.74,3.74,0,0,0,2.73.9h13.57a3.76,3.76,0,0,0,2.75-.9,3.68,3.68,0,0,0,.91-2.71V350.94A3.71,3.71,0,0,0,284.92,348.23Zm-5.27,5.44-3.18,5.48v2.77a1.38,1.38,0,0,1-.27.9,1,1,0,0,1-.8.32.94.94,0,0,1-.79-.34,1.42,1.42,0,0,1-.26-.88v-2.74l-3.2-5.51a1.22,1.22,0,0,1-.18-.61.9.9,0,0,1,.28-.66.93.93,0,0,1,.69-.27,1,1,0,0,1,.59.15,1.63,1.63,0,0,1,.43.53l2.42,4.38h.07l2.45-4.38a1.53,1.53,0,0,1,.4-.52.91.91,0,0,1,.56-.16.94.94,0,0,1,.7.27,1.06,1.06,0,0,1,.09,1.27Z" transform="translate(-25.11 -131.78)"/></g><g class="cls-1"><path d="M119.44,312.62a3.22,3.22,0,0,0-2.37-.78H105.32a3.25,3.25,0,0,0-2.37.78,3.18,3.18,0,0,0-.79,2.34V326.8a3.18,3.18,0,0,0,.79,2.34,3.25,3.25,0,0,0,2.37.78h11.75a3.22,3.22,0,0,0,2.37-.78,3.14,3.14,0,0,0,.79-2.34V315A3.14,3.14,0,0,0,119.44,312.62ZM113.37,320a.8.8,0,0,1,.54.18.65.65,0,0,1,.22.54.62.62,0,0,1-.22.52.85.85,0,0,1-.54.17h-3.53v2.49h3.8a.77.77,0,0,1,.54.2.79.79,0,0,1,0,1.09.72.72,0,0,1-.54.2h-4.73a.81.81,0,0,1-.68-.28,1.21,1.21,0,0,1-.23-.76v-7.17a1.23,1.23,0,0,1,.23-.76.81.81,0,0,1,.68-.28h4.73a.76.76,0,0,1,.54.19.68.68,0,0,1,.22.55.67.67,0,0,1-.22.54.73.73,0,0,1-.54.21h-3.8V320Z" transform="translate(-25.11 -131.78)"/><path d="M142.47,312.62a3.22,3.22,0,0,0-2.37-.78H128.35a3.25,3.25,0,0,0-2.37.78,3.18,3.18,0,0,0-.79,2.34V326.8a3.18,3.18,0,0,0,.79,2.34,3.25,3.25,0,0,0,2.37.78H140.1a3.22,3.22,0,0,0,2.37-.78,3.14,3.14,0,0,0,.79-2.34V315A3.14,3.14,0,0,0,142.47,312.62Zm-4.15,4.74-2.75,7.18a1.89,1.89,0,0,1-.53.83,1.29,1.29,0,0,1-.81.26,1.31,1.31,0,0,1-.82-.24,2,2,0,0,1-.53-.83l-2.77-7.2a1.65,1.65,0,0,1-.08-.47.87.87,0,0,1,.26-.64A1,1,0,0,1,131,316a.91.91,0,0,1,.61.19,1.54,1.54,0,0,1,.37.6l2.24,6.63h.08l2.24-6.63a1.44,1.44,0,0,1,.37-.6.91.91,0,0,1,.61-.19.92.92,0,0,1,.66.24.81.81,0,0,1,.27.64A1.39,1.39,0,0,1,138.32,317.36Z" transform="translate(-25.11 -131.78)"/><path d="M165.5,312.62a3.22,3.22,0,0,0-2.37-.78H151.38a3.21,3.21,0,0,0-2.36.78,3.14,3.14,0,0,0-.8,2.34V326.8a3.14,3.14,0,0,0,.8,2.34,3.21,3.21,0,0,0,2.36.78h11.75a3.22,3.22,0,0,0,2.37-.78,3.14,3.14,0,0,0,.79-2.34V315A3.14,3.14,0,0,0,165.5,312.62ZM159.43,320a.8.8,0,0,1,.54.18.65.65,0,0,1,.22.54.62.62,0,0,1-.22.52.85.85,0,0,1-.54.17H155.9v2.49h3.81a.8.8,0,0,1,.54.2.81.81,0,0,1,0,1.09.76.76,0,0,1-.54.2H155a.83.83,0,0,1-.68-.28,1.21,1.21,0,0,1-.23-.76v-7.17a1.23,1.23,0,0,1,.23-.76.83.83,0,0,1,.68-.28h4.74a.79.79,0,0,1,.54.19.71.71,0,0,1,.21.55.7.7,0,0,1-.21.54.76.76,0,0,1-.54.21H155.9V320Z" transform="translate(-25.11 -131.78)"/><path d="M188.53,312.62a3.22,3.22,0,0,0-2.37-.78H174.41a3.21,3.21,0,0,0-2.36.78,3.14,3.14,0,0,0-.8,2.34V326.8a3.14,3.14,0,0,0,.8,2.34,3.21,3.21,0,0,0,2.36.78h11.75a3.22,3.22,0,0,0,2.37-.78,3.14,3.14,0,0,0,.79-2.34V315A3.14,3.14,0,0,0,188.53,312.62Zm-4.36,12a1,1,0,0,1-.23.69.87.87,0,0,1-.65.24.85.85,0,0,1-.46-.12,1.48,1.48,0,0,1-.4-.42l-4.23-5.82h-.08v5.44a.94.94,0,0,1-.23.68.83.83,0,0,1-.64.24.79.79,0,0,1-.62-.25,1,1,0,0,1-.22-.67v-7.68a1,1,0,0,1,.22-.67.81.81,0,0,1,.64-.26.89.89,0,0,1,.47.12,1.39,1.39,0,0,1,.42.42l4.22,6h.08v-5.57a1,1,0,0,1,.23-.66.78.78,0,0,1,.62-.26.83.83,0,0,1,.64.25.93.93,0,0,1,.22.67Z" transform="translate(-25.11 -131.78)"/><path d="M211.56,312.62a3.22,3.22,0,0,0-2.37-.78H197.44a3.23,3.23,0,0,0-2.36.78,3.14,3.14,0,0,0-.8,2.34V326.8a3.14,3.14,0,0,0,.8,2.34,3.23,3.23,0,0,0,2.36.78h11.75a3.22,3.22,0,0,0,2.37-.78,3.14,3.14,0,0,0,.79-2.34V315A3.14,3.14,0,0,0,211.56,312.62Zm-4.36,4.84a.77.77,0,0,1-.55.21h-2.42v6.84a1.15,1.15,0,0,1-.24.77,1,1,0,0,1-1.37,0,1.24,1.24,0,0,1-.23-.77v-6.84H200a.74.74,0,0,1-.55-.21.67.67,0,0,1-.22-.54.68.68,0,0,1,.22-.55.73.73,0,0,1,.55-.2h6.66a.76.76,0,0,1,.55.2.71.71,0,0,1,.22.55A.71.71,0,0,1,207.2,317.46Z" transform="translate(-25.11 -131.78)"/></g><g class="cls-1"><path d="M45.72,273.79a3.86,3.86,0,0,0-2.83-.93h-14a3.89,3.89,0,0,0-2.83.93,3.76,3.76,0,0,0-.94,2.8V290.7a3.79,3.79,0,0,0,.94,2.8,3.89,3.89,0,0,0,2.83.93h14a3.86,3.86,0,0,0,2.83-.93,3.79,3.79,0,0,0,.94-2.8V276.59A3.76,3.76,0,0,0,45.72,273.79Zm-5.21,5.78a.92.92,0,0,1-.65.24H37V288a1.4,1.4,0,0,1-.28.92,1,1,0,0,1-.83.34,1,1,0,0,1-.8-.35,1.39,1.39,0,0,1-.28-.91v-8.17H31.91a1,1,0,0,1-.66-.24,1,1,0,0,1,0-1.31,1,1,0,0,1,.66-.24h8a.92.92,0,0,1,.65.24,1,1,0,0,1,0,1.31Z" transform="translate(-25.11 -131.78)"/><path d="M63.44,280h-.15l-1.5,4.45h3.14Zm0,0h-.15l-1.5,4.45h3.14Zm9.75-6.17a3.86,3.86,0,0,0-2.83-.93h-14a3.91,3.91,0,0,0-2.83.93,3.76,3.76,0,0,0-.94,2.8V290.7a3.79,3.79,0,0,0,.94,2.8,3.91,3.91,0,0,0,2.83.93h14a3.86,3.86,0,0,0,2.83-.93,3.79,3.79,0,0,0,.94-2.8V276.59A3.76,3.76,0,0,0,73.19,273.79Zm-5.14,15.26a1.06,1.06,0,0,1-.74.26,1,1,0,0,1-.62-.19,1.36,1.36,0,0,1-.43-.68l-.81-2.4H61.26l-.8,2.4a1.36,1.36,0,0,1-.43.68,1.15,1.15,0,0,1-1.36-.07.86.86,0,0,1-.28-.67,1.85,1.85,0,0,1,.15-.71l3.28-8.91a1.64,1.64,0,0,1,3.08,0l3.29,8.91a2,2,0,0,1,.14.71A.86.86,0,0,1,68.05,289.05ZM63.29,280l-1.5,4.45h3.14L63.44,280Zm.15,0h-.15l-1.5,4.45h3.14Zm0,0h-.15l-1.5,4.45h3.14Z" transform="translate(-25.11 -131.78)"/><path d="M100.66,273.79a3.86,3.86,0,0,0-2.83-.93h-14a3.87,3.87,0,0,0-2.82.93,3.72,3.72,0,0,0-1,2.8V290.7a3.75,3.75,0,0,0,1,2.8,3.87,3.87,0,0,0,2.82.93h14a3.86,3.86,0,0,0,2.83-.93,3.79,3.79,0,0,0,.94-2.8V276.59A3.76,3.76,0,0,0,100.66,273.79ZM94,288.38a5.48,5.48,0,0,1-3.33.93,5.08,5.08,0,0,1-2.76-.67,3.49,3.49,0,0,1-1.4-1.49,1.56,1.56,0,0,1-.16-.65.93.93,0,0,1,1-1,1.12,1.12,0,0,1,1,.71,2.18,2.18,0,0,0,.94,1,3.19,3.19,0,0,0,1.49.32,2.94,2.94,0,0,0,1.55-.37A1.23,1.23,0,0,0,93,286a1.06,1.06,0,0,0-.4-.9,4.41,4.41,0,0,0-1.39-.61l-1.77-.5a5.33,5.33,0,0,1-2.16-1.1,2.47,2.47,0,0,1-.76-1.88,2.92,2.92,0,0,1,1.2-2.41,4.88,4.88,0,0,1,3.11-.94,5,5,0,0,1,2.6.63,3.12,3.12,0,0,1,1.41,1.57,1.47,1.47,0,0,1,.15.61.88.88,0,0,1-.28.69,1,1,0,0,1-.69.24,1,1,0,0,1-.62-.17,1.17,1.17,0,0,1-.38-.5,2.39,2.39,0,0,0-.88-1,2.76,2.76,0,0,0-1.4-.32,2.22,2.22,0,0,0-1.42.4,1.31,1.31,0,0,0-.5,1.11,1.14,1.14,0,0,0,.35.85,2.9,2.9,0,0,0,1.17.55l1.6.43a6.31,6.31,0,0,1,2.47,1.16,2.42,2.42,0,0,1,.89,2A3,3,0,0,1,94,288.38Z" transform="translate(-25.11 -131.78)"/><path d="M128.14,273.79a3.9,3.9,0,0,0-2.84-.93h-14a3.87,3.87,0,0,0-2.82.93,3.76,3.76,0,0,0-1,2.8V290.7a3.79,3.79,0,0,0,1,2.8,3.87,3.87,0,0,0,2.82.93h14a3.9,3.9,0,0,0,2.84-.93,3.83,3.83,0,0,0,.93-2.8V276.59A3.8,3.8,0,0,0,128.14,273.79Zm-5.38,15.1a1.08,1.08,0,0,1-.77.29,1,1,0,0,1-.5-.14,1.46,1.46,0,0,1-.43-.4l-3.33-4.45-1.45,1.5v2.23a1.37,1.37,0,0,1-.29.92,1,1,0,0,1-.82.34,1,1,0,0,1-.79-.34,1.37,1.37,0,0,1-.29-.92v-8.85a1.37,1.37,0,0,1,.29-.92,1,1,0,0,1,.79-.33,1,1,0,0,1,.82.33,1.37,1.37,0,0,1,.29.92v3.85h.07l4.57-4.68a1.91,1.91,0,0,1,.43-.32.93.93,0,0,1,.45-.1,1,1,0,0,1,.71.27.87.87,0,0,1,.29.67.91.91,0,0,1-.08.41,1.36,1.36,0,0,1-.26.38l-3.15,3.24,3.43,4.52a1.75,1.75,0,0,1,.23.42,1,1,0,0,1,.08.41A1,1,0,0,1,122.76,288.89Z" transform="translate(-25.11 -131.78)"/></g><g class="cls-1"><path d="M156.42,250.06a2,2,0,0,0-1.43-.47h-7.1a2,2,0,0,0-1.44.47,1.92,1.92,0,0,0-.48,1.42v7.15a1.92,1.92,0,0,0,.48,1.42,2,2,0,0,0,1.44.47H155a2,2,0,0,0,1.43-.47,1.92,1.92,0,0,0,.48-1.42v-7.15A1.92,1.92,0,0,0,156.42,250.06ZM153.78,253a.48.48,0,0,1-.33.12H152v4.14a.7.7,0,0,1-.15.47.51.51,0,0,1-.42.17.46.46,0,0,1-.4-.18.67.67,0,0,1-.14-.46v-4.14h-1.46a.48.48,0,0,1-.33-.12.48.48,0,0,1,0-.66.48.48,0,0,1,.33-.12h4a.48.48,0,0,1,.33.12.48.48,0,0,1,0,.66Z" transform="translate(-25.11 -131.78)"/><path d="M166.51,253.47a1.44,1.44,0,0,0-2.29,0,2.88,2.88,0,0,0,0,3,1.44,1.44,0,0,0,2.29,0,2.88,2.88,0,0,0,0-3Zm0,0a1.44,1.44,0,0,0-2.29,0,2.88,2.88,0,0,0,0,3,1.44,1.44,0,0,0,2.29,0,2.88,2.88,0,0,0,0-3Zm3.83-3.41a2,2,0,0,0-1.43-.47h-7.1a2,2,0,0,0-1.43.47,1.92,1.92,0,0,0-.48,1.42v7.15a1.92,1.92,0,0,0,.48,1.42,2,2,0,0,0,1.43.47h7.1a2,2,0,0,0,1.43-.47,1.92,1.92,0,0,0,.48-1.42v-7.15A1.92,1.92,0,0,0,170.34,250.06Zm-2.63,6.45a2.68,2.68,0,0,1-3.74,1,2.52,2.52,0,0,1-.95-1,3.24,3.24,0,0,1-.34-1.52,3.32,3.32,0,0,1,.34-1.54,2.68,2.68,0,0,1,3.74-1,2.65,2.65,0,0,1,1,1,3.32,3.32,0,0,1,.34,1.54A3.24,3.24,0,0,1,167.71,256.51Zm-2.35-3.61a1.37,1.37,0,0,0-1.14.57,2.88,2.88,0,0,0,0,3,1.44,1.44,0,0,0,2.29,0,2.88,2.88,0,0,0,0-3A1.37,1.37,0,0,0,165.36,252.9Zm1.15.57a1.44,1.44,0,0,0-2.29,0,2.88,2.88,0,0,0,0,3,1.44,1.44,0,0,0,2.29,0,2.88,2.88,0,0,0,0-3Zm0,0a1.44,1.44,0,0,0-2.29,0,2.88,2.88,0,0,0,0,3,1.44,1.44,0,0,0,2.29,0,2.88,2.88,0,0,0,0-3Z" transform="translate(-25.11 -131.78)"/><path d="M183.61,253.53a1.7,1.7,0,0,0-1.32-.5h-.9v3.9h.9a1.71,1.71,0,0,0,1.33-.49,2.08,2.08,0,0,0,.45-1.46A2.1,2.1,0,0,0,183.61,253.53Zm0,0a1.7,1.7,0,0,0-1.32-.5h-.9v3.9h.9a1.71,1.71,0,0,0,1.33-.49,2.08,2.08,0,0,0,.45-1.46A2.1,2.1,0,0,0,183.61,253.53Zm3.8-3.47a2,2,0,0,0-1.43-.47h-7.1a2,2,0,0,0-1.43.47,1.92,1.92,0,0,0-.48,1.42v7.15a1.92,1.92,0,0,0,.48,1.42,2,2,0,0,0,1.43.47H186a2,2,0,0,0,1.43-.47,1.92,1.92,0,0,0,.48-1.42v-7.15A1.92,1.92,0,0,0,187.41,250.06Zm-2.95,7a2.73,2.73,0,0,1-2.05.73h-1.55a.46.46,0,0,1-.4-.18.64.64,0,0,1-.14-.45v-4.34a.64.64,0,0,1,.14-.45.46.46,0,0,1,.4-.18h1.55a2.74,2.74,0,0,1,2.05.72,3.39,3.39,0,0,1,0,4.15Zm-2.17-4h-.9v3.9h.9a1.71,1.71,0,0,0,1.33-.49,2.08,2.08,0,0,0,.45-1.46,2.1,2.1,0,0,0-.46-1.45A1.7,1.7,0,0,0,182.29,253Zm1.32.5a1.7,1.7,0,0,0-1.32-.5h-.9v3.9h.9a1.71,1.71,0,0,0,1.33-.49,2.08,2.08,0,0,0,.45-1.46A2.1,2.1,0,0,0,183.61,253.53Zm0,0a1.7,1.7,0,0,0-1.32-.5h-.9v3.9h.9a1.71,1.71,0,0,0,1.33-.49,2.08,2.08,0,0,0,.45-1.46A2.1,2.1,0,0,0,183.61,253.53Z" transform="translate(-25.11 -131.78)"/><path d="M197.5,253.47a1.44,1.44,0,0,0-2.29,0,2.88,2.88,0,0,0,0,3,1.44,1.44,0,0,0,2.29,0,2.88,2.88,0,0,0,0-3Zm0,0a1.44,1.44,0,0,0-2.29,0,2.88,2.88,0,0,0,0,3,1.44,1.44,0,0,0,2.29,0,2.88,2.88,0,0,0,0-3Zm3.83-3.41a2,2,0,0,0-1.43-.47h-7.1a2,2,0,0,0-1.43.47,1.92,1.92,0,0,0-.48,1.42v7.15a1.92,1.92,0,0,0,.48,1.42,2,2,0,0,0,1.43.47h7.1a2,2,0,0,0,1.43-.47,1.92,1.92,0,0,0,.48-1.42v-7.15A1.92,1.92,0,0,0,201.33,250.06Zm-2.63,6.45a2.68,2.68,0,0,1-3.74,1,2.52,2.52,0,0,1-1-1,3.24,3.24,0,0,1-.34-1.52,3.32,3.32,0,0,1,.34-1.54,2.68,2.68,0,0,1,3.74-1,2.65,2.65,0,0,1,.95,1A3.32,3.32,0,0,1,199,255,3.24,3.24,0,0,1,198.7,256.51Zm-2.35-3.61a1.37,1.37,0,0,0-1.14.57,2.88,2.88,0,0,0,0,3,1.44,1.44,0,0,0,2.29,0,2.88,2.88,0,0,0,0-3A1.36,1.36,0,0,0,196.35,252.9Zm1.15.57a1.44,1.44,0,0,0-2.29,0,2.88,2.88,0,0,0,0,3,1.44,1.44,0,0,0,2.29,0,2.88,2.88,0,0,0,0-3Zm0,0a1.44,1.44,0,0,0-2.29,0,2.88,2.88,0,0,0,0,3,1.44,1.44,0,0,0,2.29,0,2.88,2.88,0,0,0,0-3Z" transform="translate(-25.11 -131.78)"/></g><g class="cls-1"><path d="M113.84,194.63a1.94,1.94,0,0,0-3.08,0,3.92,3.92,0,0,0,0,4.07,1.94,1.94,0,0,0,3.08,0,3.92,3.92,0,0,0,0-4.07Zm0,0a1.94,1.94,0,0,0-3.08,0,3.92,3.92,0,0,0,0,4.07,1.94,1.94,0,0,0,3.08,0,3.92,3.92,0,0,0,0-4.07Zm5.13-4.55a2.61,2.61,0,0,0-1.93-.64h-9.5a2.6,2.6,0,0,0-1.92.64A2.53,2.53,0,0,0,105,192v9.58a2.54,2.54,0,0,0,.64,1.9,2.64,2.64,0,0,0,1.92.63H117a2.65,2.65,0,0,0,1.93-.63,2.58,2.58,0,0,0,.63-1.9V192A2.57,2.57,0,0,0,119,190.08Zm-3.53,8.64a3.4,3.4,0,0,1-3.14,1.89,3.4,3.4,0,0,1-3.14-1.89,4.82,4.82,0,0,1,0-4.11,3.61,3.61,0,0,1,5-1.39,3.49,3.49,0,0,1,1.27,1.39,4.82,4.82,0,0,1,0,4.11Zm-3.14-4.85a1.86,1.86,0,0,0-1.54.76,3.92,3.92,0,0,0,0,4.07,1.94,1.94,0,0,0,3.08,0,3.92,3.92,0,0,0,0-4.07A1.86,1.86,0,0,0,112.3,193.87Zm1.54.76a1.94,1.94,0,0,0-3.08,0,3.92,3.92,0,0,0,0,4.07,1.94,1.94,0,0,0,3.08,0,3.92,3.92,0,0,0,0-4.07Zm0,0a1.94,1.94,0,0,0-3.08,0,3.92,3.92,0,0,0,0,4.07,1.94,1.94,0,0,0,3.08,0,3.92,3.92,0,0,0,0-4.07Z" transform="translate(-25.11 -131.78)"/><path d="M137.61,190.08a2.59,2.59,0,0,0-1.92-.64h-9.51a2.6,2.6,0,0,0-1.92.64,2.53,2.53,0,0,0-.64,1.89v9.58a2.54,2.54,0,0,0,.64,1.9,2.64,2.64,0,0,0,1.92.63h9.51a2.63,2.63,0,0,0,1.92-.63,2.54,2.54,0,0,0,.64-1.9V192A2.53,2.53,0,0,0,137.61,190.08Zm-8.15,8.57a1.81,1.81,0,0,0,1.5.74,2.08,2.08,0,0,0,1.11-.28,2.06,2.06,0,0,0,.75-.84.67.67,0,0,1,.61-.44.6.6,0,0,1,.46.17.64.64,0,0,1,.17.46,1.34,1.34,0,0,1,0,.2,1.15,1.15,0,0,1-.06.21,2.64,2.64,0,0,1-1.15,1.28,3.84,3.84,0,0,1-1.9.46,3.3,3.3,0,0,1-2.59-1.07,4.83,4.83,0,0,1,0-5.75,3.27,3.27,0,0,1,2.59-1.07,3.74,3.74,0,0,1,1.9.46,2.6,2.6,0,0,1,1.15,1.28,1.08,1.08,0,0,1,.06.2,1.34,1.34,0,0,1,0,.21.65.65,0,0,1-.17.46.64.64,0,0,1-.46.17.56.56,0,0,1-.35-.11.91.91,0,0,1-.26-.33,2.06,2.06,0,0,0-.75-.84,2.08,2.08,0,0,0-1.11-.29,1.79,1.79,0,0,0-1.5.75,3.3,3.3,0,0,0-.56,2A3.25,3.25,0,0,0,129.46,198.65Z" transform="translate(-25.11 -131.78)"/><path d="M156.25,190.08a2.57,2.57,0,0,0-1.92-.64h-9.51a2.58,2.58,0,0,0-1.91.64,2.53,2.53,0,0,0-.65,1.89v9.58a2.54,2.54,0,0,0,.65,1.9,2.62,2.62,0,0,0,1.91.63h9.51a2.61,2.61,0,0,0,1.92-.63,2.54,2.54,0,0,0,.64-1.9V192A2.53,2.53,0,0,0,156.25,190.08Zm-8.14,8.57a1.78,1.78,0,0,0,1.49.74,2.08,2.08,0,0,0,1.11-.28,2.06,2.06,0,0,0,.75-.84.68.68,0,0,1,.61-.44.58.58,0,0,1,.46.17.6.6,0,0,1,.18.46,1.36,1.36,0,0,1,0,.2c0,.06,0,.13-.05.21a2.69,2.69,0,0,1-1.15,1.28,3.88,3.88,0,0,1-1.91.46,3.31,3.31,0,0,1-2.59-1.07,4.83,4.83,0,0,1,0-5.75,3.28,3.28,0,0,1,2.59-1.07,3.78,3.78,0,0,1,1.91.46,2.64,2.64,0,0,1,1.15,1.28c0,.08,0,.14.05.2a1.25,1.25,0,0,1,0,.21.6.6,0,0,1-.64.63.58.58,0,0,1-.35-.11,1,1,0,0,1-.26-.33,2.06,2.06,0,0,0-.75-.84,2.08,2.08,0,0,0-1.11-.29,1.76,1.76,0,0,0-1.49.75,3.24,3.24,0,0,0-.56,2A3.19,3.19,0,0,0,148.11,198.65Z" transform="translate(-25.11 -131.78)"/><path d="M168.28,194.26h-.1l-1,3h2.13Zm0,0h-.1l-1,3h2.13Zm6.62-4.18a2.6,2.6,0,0,0-1.92-.64h-9.51a2.6,2.6,0,0,0-1.92.64,2.53,2.53,0,0,0-.64,1.89v9.58a2.54,2.54,0,0,0,.64,1.9,2.64,2.64,0,0,0,1.92.63H173a2.64,2.64,0,0,0,1.92-.63,2.58,2.58,0,0,0,.64-1.9V192A2.57,2.57,0,0,0,174.9,190.08Zm-3.49,10.35a.7.7,0,0,1-.5.18.75.75,0,0,1-.42-.13,1,1,0,0,1-.3-.46l-.55-1.63H166.8l-.54,1.63a.89.89,0,0,1-.29.46.78.78,0,0,1-.43.13.68.68,0,0,1-.5-.18.6.6,0,0,1-.19-.45,1.48,1.48,0,0,1,.1-.49l2.23-6a1.11,1.11,0,0,1,2.09,0l2.23,6a1.26,1.26,0,0,1,.1.49A.57.57,0,0,1,171.41,200.43Zm-3.23-6.17-1,3h2.13l-1-3Zm.1,0h-.1l-1,3h2.13Zm0,0h-.1l-1,3h2.13Z" transform="translate(-25.11 -131.78)"/><path d="M193.54,190.08a2.57,2.57,0,0,0-1.92-.64h-9.51a2.6,2.6,0,0,0-1.92.64,2.57,2.57,0,0,0-.64,1.89v9.58a2.58,2.58,0,0,0,.64,1.9,2.64,2.64,0,0,0,1.92.63h9.51a2.61,2.61,0,0,0,1.92-.63,2.54,2.54,0,0,0,.64-1.9V192A2.53,2.53,0,0,0,193.54,190.08ZM190,194a.64.64,0,0,1-.45.16h-2v5.54a1,1,0,0,1-.19.63.68.68,0,0,1-.56.23.66.66,0,0,1-.55-.24,1,1,0,0,1-.18-.62v-5.54h-2a.64.64,0,0,1-.45-.16.6.6,0,0,1-.17-.44.61.61,0,0,1,.17-.45.64.64,0,0,1,.45-.16h5.39a.64.64,0,0,1,.45.16.57.57,0,0,1,.17.45A.57.57,0,0,1,190,194Z" transform="translate(-25.11 -131.78)"/><path d="M212.19,190.08a2.61,2.61,0,0,0-1.93-.64h-9.5a2.6,2.6,0,0,0-1.92.64,2.53,2.53,0,0,0-.64,1.89v9.58a2.54,2.54,0,0,0,.64,1.9,2.64,2.64,0,0,0,1.92.63h9.5a2.65,2.65,0,0,0,1.93-.63,2.58,2.58,0,0,0,.63-1.9V192A2.57,2.57,0,0,0,212.19,190.08Zm-5.93,9.58a1,1,0,0,1-.19.63.72.72,0,0,1-.57.23.63.63,0,0,1-.54-.24.94.94,0,0,1-.19-.62v-6A1,1,0,0,1,205,193a.65.65,0,0,1,.54-.23.71.71,0,0,1,.57.22,1,1,0,0,1,.19.63Z" transform="translate(-25.11 -131.78)"/><path d="M225.7,194.63a1.93,1.93,0,0,0-3.07,0,3.86,3.86,0,0,0,0,4.07,1.93,1.93,0,0,0,3.07,0,3.86,3.86,0,0,0,0-4.07Zm0,0a1.93,1.93,0,0,0-3.07,0,3.86,3.86,0,0,0,0,4.07,1.93,1.93,0,0,0,3.07,0,3.86,3.86,0,0,0,0-4.07Zm5.13-4.55a2.59,2.59,0,0,0-1.92-.64H219.4a2.6,2.6,0,0,0-1.92.64,2.53,2.53,0,0,0-.64,1.89v9.58a2.54,2.54,0,0,0,.64,1.9,2.64,2.64,0,0,0,1.92.63h9.51a2.63,2.63,0,0,0,1.92-.63,2.54,2.54,0,0,0,.64-1.9V192A2.53,2.53,0,0,0,230.83,190.08Zm-3.53,8.64a3.55,3.55,0,0,1-1.27,1.39,3.75,3.75,0,0,1-3.74,0,3.55,3.55,0,0,1-1.27-1.39,4.82,4.82,0,0,1,0-4.11,3.49,3.49,0,0,1,1.27-1.39,3.75,3.75,0,0,1,3.74,0,3.49,3.49,0,0,1,1.27,1.39,4.82,4.82,0,0,1,0,4.11Zm-3.14-4.85a1.83,1.83,0,0,0-1.53.76,3.86,3.86,0,0,0,0,4.07,1.93,1.93,0,0,0,3.07,0,3.86,3.86,0,0,0,0-4.07A1.85,1.85,0,0,0,224.16,193.87Zm1.54.76a1.93,1.93,0,0,0-3.07,0,3.86,3.86,0,0,0,0,4.07,1.93,1.93,0,0,0,3.07,0,3.86,3.86,0,0,0,0-4.07Zm0,0a1.93,1.93,0,0,0-3.07,0,3.86,3.86,0,0,0,0,4.07,1.93,1.93,0,0,0,3.07,0,3.86,3.86,0,0,0,0-4.07Z" transform="translate(-25.11 -131.78)"/><path d="M249.47,190.08a2.57,2.57,0,0,0-1.92-.64H238a2.56,2.56,0,0,0-1.91.64,2.53,2.53,0,0,0-.65,1.89v9.58a2.54,2.54,0,0,0,.65,1.9,2.6,2.6,0,0,0,1.91.63h9.51a2.61,2.61,0,0,0,1.92-.63,2.54,2.54,0,0,0,.64-1.9V192A2.53,2.53,0,0,0,249.47,190.08ZM246,199.76a.75.75,0,0,1-.2.56.69.69,0,0,1-.52.2.64.64,0,0,1-.37-.1,1,1,0,0,1-.33-.33l-3.42-4.72h-.06v4.4a.78.78,0,0,1-.19.55.69.69,0,0,1-.52.2.65.65,0,0,1-.5-.2.81.81,0,0,1-.18-.55v-6.21a.81.81,0,0,1,.18-.55.66.66,0,0,1,.51-.2.8.8,0,0,1,.39.09,1.36,1.36,0,0,1,.34.34l3.41,4.82h.07v-4.51a.8.8,0,0,1,.18-.54.65.65,0,0,1,.5-.2.68.68,0,0,1,.52.19.8.8,0,0,1,.19.55Z" transform="translate(-25.11 -131.78)"/></g><g class="cls-1"><path d="M96.67,152.84a3.38,3.38,0,0,0-2.49-.82H81.89a3.37,3.37,0,0,0-2.48.82,3.3,3.3,0,0,0-.83,2.45v12.38a3.3,3.3,0,0,0,.83,2.45,3.37,3.37,0,0,0,2.48.82H94.18a3.38,3.38,0,0,0,2.49-.82,3.3,3.3,0,0,0,.82-2.45V155.29A3.3,3.3,0,0,0,96.67,152.84Zm-4.37,9.95a3.65,3.65,0,0,1-.5,1.91,3.41,3.41,0,0,1-1.45,1.3,5.12,5.12,0,0,1-2.28.46,4.32,4.32,0,0,1-3.38-1.36,5.36,5.36,0,0,1-1.24-3.74,5.42,5.42,0,0,1,1.23-3.74A4.26,4.26,0,0,1,88,156.24a5.29,5.29,0,0,1,1.74.27,3.75,3.75,0,0,1,1.35.78A3.21,3.21,0,0,1,92,158.5a1.61,1.61,0,0,1,.09.26,1,1,0,0,1,0,.27.78.78,0,0,1-.23.6.85.85,0,0,1-.6.22.77.77,0,0,1-.45-.14,1.29,1.29,0,0,1-.34-.43,2.56,2.56,0,0,0-1-1.1,2.7,2.7,0,0,0-1.43-.37,2.31,2.31,0,0,0-1.94,1,4.83,4.83,0,0,0,0,5.14,2.37,2.37,0,0,0,2,1,2.54,2.54,0,0,0,1.73-.51,1.69,1.69,0,0,0,.57-1.32v-.72H88.66a.63.63,0,0,1-.5-.21.72.72,0,0,1-.18-.48.6.6,0,0,1,.68-.67h2.61a.91.91,0,0,1,1,1Z" transform="translate(-25.11 -131.78)"/><path d="M112.21,158.25h-.13l-1.31,3.91h2.75Zm0,0h-.13l-1.31,3.91h2.75Zm8.56-5.41a3.38,3.38,0,0,0-2.49-.82H106a3.39,3.39,0,0,0-2.48.82,3.3,3.3,0,0,0-.83,2.45v12.38a3.3,3.3,0,0,0,.83,2.45,3.39,3.39,0,0,0,2.48.82h12.29a3.38,3.38,0,0,0,2.49-.82,3.3,3.3,0,0,0,.82-2.45V155.29A3.3,3.3,0,0,0,120.77,152.84Zm-4.51,13.38a.89.89,0,0,1-.65.23.88.88,0,0,1-.55-.17,1.16,1.16,0,0,1-.37-.59l-.72-2.11H110.3l-.7,2.11a1.16,1.16,0,0,1-.38.59,1,1,0,0,1-1.2-.06.76.76,0,0,1-.24-.59,1.64,1.64,0,0,1,.13-.62l2.88-7.81a1.43,1.43,0,0,1,2.7,0l2.88,7.81a1.64,1.64,0,0,1,.13.62A.76.76,0,0,1,116.26,166.22Zm-4.18-8-1.31,3.91h2.75l-1.31-3.91Zm.13,0h-.13l-1.31,3.91h2.75Zm0,0h-.13l-1.31,3.91h2.75Z" transform="translate(-25.11 -131.78)"/><path d="M144.87,152.84a3.38,3.38,0,0,0-2.49-.82H130.09a3.39,3.39,0,0,0-2.48.82,3.3,3.3,0,0,0-.83,2.45v12.38a3.3,3.3,0,0,0,.83,2.45,3.39,3.39,0,0,0,2.48.82h12.29a3.38,3.38,0,0,0,2.49-.82,3.3,3.3,0,0,0,.82-2.45V155.29A3.3,3.3,0,0,0,144.87,152.84Zm-4.57,5.07a.83.83,0,0,1-.58.21h-2.53v7.16a1.21,1.21,0,0,1-.25.81.87.87,0,0,1-.72.3.84.84,0,0,1-.71-.31,1.25,1.25,0,0,1-.24-.8v-7.16h-2.52a.84.84,0,0,1-.58-.21.77.77,0,0,1-.22-.57.75.75,0,0,1,.22-.58.84.84,0,0,1,.58-.21h7a.83.83,0,0,1,.58.21.75.75,0,0,1,.23.58A.78.78,0,0,1,140.3,157.91Z" transform="translate(-25.11 -131.78)"/><path d="M169,152.84a3.38,3.38,0,0,0-2.49-.82H154.19a3.39,3.39,0,0,0-2.48.82,3.3,3.3,0,0,0-.83,2.45v12.38a3.3,3.3,0,0,0,.83,2.45,3.39,3.39,0,0,0,2.48.82h12.29a3.38,3.38,0,0,0,2.49-.82,3.3,3.3,0,0,0,.82-2.45V155.29A3.3,3.3,0,0,0,169,152.84Zm-4.33,12.41a1.21,1.21,0,0,1-.25.8.92.92,0,0,1-.72.29.86.86,0,0,1-.7-.29,1.16,1.16,0,0,1-.25-.8V162H158v3.3a1.17,1.17,0,0,1-.26.8.92.92,0,0,1-.72.29.88.88,0,0,1-.69-.29,1.17,1.17,0,0,1-.26-.8v-7.79a1.18,1.18,0,0,1,.26-.81.88.88,0,0,1,.69-.28.91.91,0,0,1,.72.28,1.18,1.18,0,0,1,.26.81v3h4.76v-3a1.17,1.17,0,0,1,.25-.81.86.86,0,0,1,.7-.28.91.91,0,0,1,.72.28,1.22,1.22,0,0,1,.25.81Z" transform="translate(-25.11 -131.78)"/><path d="M193.07,152.84a3.38,3.38,0,0,0-2.49-.82H178.29a3.39,3.39,0,0,0-2.48.82,3.3,3.3,0,0,0-.83,2.45v12.38a3.3,3.3,0,0,0,.83,2.45,3.39,3.39,0,0,0,2.48.82h12.29a3.38,3.38,0,0,0,2.49-.82,3.3,3.3,0,0,0,.82-2.45V155.29A3.3,3.3,0,0,0,193.07,152.84Zm-6.35,7.71a.83.83,0,0,1,.56.19.68.68,0,0,1,.23.56.65.65,0,0,1-.23.54.83.83,0,0,1-.56.19H183v2.61h4a.81.81,0,0,1,.57.2.85.85,0,0,1,0,1.14.82.82,0,0,1-.57.21h-5a.84.84,0,0,1-.7-.3,1.22,1.22,0,0,1-.24-.79v-7.5a1.22,1.22,0,0,1,.24-.79.84.84,0,0,1,.7-.3h5a.86.86,0,0,1,.57.2.75.75,0,0,1,.22.58.73.73,0,0,1-.22.56.78.78,0,0,1-.57.22h-4v2.48Z" transform="translate(-25.11 -131.78)"/><path d="M210.07,158.41a2.17,2.17,0,0,0-1.45-.46h-1.84v3.52h1.79a2.37,2.37,0,0,0,1.5-.44,1.56,1.56,0,0,0,.55-1.29A1.63,1.63,0,0,0,210.07,158.41Zm0,0a2.17,2.17,0,0,0-1.45-.46h-1.84v3.52h1.79a2.37,2.37,0,0,0,1.5-.44,1.56,1.56,0,0,0,.55-1.29A1.63,1.63,0,0,0,210.07,158.41Zm7.1-5.57a3.38,3.38,0,0,0-2.49-.82H202.39a3.39,3.39,0,0,0-2.48.82,3.3,3.3,0,0,0-.83,2.45v12.38a3.3,3.3,0,0,0,.83,2.45,3.39,3.39,0,0,0,2.48.82h12.29a3.38,3.38,0,0,0,2.49-.82,3.3,3.3,0,0,0,.82-2.45V155.29A3.3,3.3,0,0,0,217.17,152.84Zm-5.17,12a1.29,1.29,0,0,1,.19.67.78.78,0,0,1-.24.6.88.88,0,0,1-.63.24.9.9,0,0,1-.53-.15,1.52,1.52,0,0,1-.42-.49l-1.76-2.86h-1.83v2.41a1.15,1.15,0,0,1-.25.79.87.87,0,0,1-.72.3.84.84,0,0,1-.7-.3,1.24,1.24,0,0,1-.24-.79V157.6a1.27,1.27,0,0,1,.24-.8.84.84,0,0,1,.7-.3h3.07a3.92,3.92,0,0,1,2.66.86,3.1,3.1,0,0,1-1,5.2ZM208.62,158h-1.84v3.52h1.79a2.37,2.37,0,0,0,1.5-.44,1.56,1.56,0,0,0,.55-1.29,1.63,1.63,0,0,0-.55-1.33A2.17,2.17,0,0,0,208.62,158Zm1.45.46a2.17,2.17,0,0,0-1.45-.46h-1.84v3.52h1.79a2.37,2.37,0,0,0,1.5-.44,1.56,1.56,0,0,0,.55-1.29A1.63,1.63,0,0,0,210.07,158.41Zm0,0a2.17,2.17,0,0,0-1.45-.46h-1.84v3.52h1.79a2.37,2.37,0,0,0,1.5-.44,1.56,1.56,0,0,0,.55-1.29A1.63,1.63,0,0,0,210.07,158.41Z" transform="translate(-25.11 -131.78)"/><path d="M241.27,152.84a3.38,3.38,0,0,0-2.49-.82H226.49a3.39,3.39,0,0,0-2.48.82,3.3,3.3,0,0,0-.83,2.45v12.38a3.3,3.3,0,0,0,.83,2.45,3.39,3.39,0,0,0,2.48.82h12.29a3.38,3.38,0,0,0,2.49-.82,3.3,3.3,0,0,0,.82-2.45V155.29A3.3,3.3,0,0,0,241.27,152.84Zm-7.66,12.39a1.22,1.22,0,0,1-.25.81.9.9,0,0,1-.73.3.85.85,0,0,1-.7-.31,1.2,1.2,0,0,1-.25-.8v-7.76a1.22,1.22,0,0,1,.25-.8.84.84,0,0,1,.7-.3.93.93,0,0,1,.73.29,1.22,1.22,0,0,1,.25.81Z" transform="translate(-25.11 -131.78)"/><path d="M265.37,152.84a3.38,3.38,0,0,0-2.49-.82H250.59a3.36,3.36,0,0,0-2.47.82,3.26,3.26,0,0,0-.84,2.45v12.38a3.26,3.26,0,0,0,.84,2.45,3.36,3.36,0,0,0,2.47.82h12.29a3.38,3.38,0,0,0,2.49-.82,3.3,3.3,0,0,0,.82-2.45V155.29A3.3,3.3,0,0,0,265.37,152.84Zm-4.56,12.52a1,1,0,0,1-.25.72.89.89,0,0,1-.67.26.94.94,0,0,1-.49-.13,1.72,1.72,0,0,1-.42-.43l-4.43-6.1h-.08v5.69a1,1,0,0,1-.24.71.87.87,0,0,1-.66.26.83.83,0,0,1-.65-.26,1,1,0,0,1-.24-.71v-8a1,1,0,0,1,.24-.71.84.84,0,0,1,.66-.26,1,1,0,0,1,.5.12,1.39,1.39,0,0,1,.43.44l4.42,6.23H259v-5.83a1.05,1.05,0,0,1,.23-.7.84.84,0,0,1,.65-.26.87.87,0,0,1,.67.25,1,1,0,0,1,.24.71Z" transform="translate(-25.11 -131.78)"/><path d="M289.47,152.84A3.37,3.37,0,0,0,287,152h-12.3a3.36,3.36,0,0,0-2.47.82,3.26,3.26,0,0,0-.83,2.45v12.38a3.26,3.26,0,0,0,.83,2.45,3.36,3.36,0,0,0,2.47.82H287a3.37,3.37,0,0,0,2.48-.82,3.3,3.3,0,0,0,.82-2.45V155.29A3.3,3.3,0,0,0,289.47,152.84Zm-4.37,9.95a3.56,3.56,0,0,1-.5,1.91,3.38,3.38,0,0,1-1.44,1.3,5.17,5.17,0,0,1-2.29.46,4.33,4.33,0,0,1-3.38-1.36,6.26,6.26,0,0,1,0-7.48,4.24,4.24,0,0,1,3.34-1.38,5.36,5.36,0,0,1,1.75.27,3.92,3.92,0,0,1,1.35.78,3.21,3.21,0,0,1,.85,1.21c0,.09.06.18.08.26a.7.7,0,0,1,0,.27.81.81,0,0,1-.23.6.85.85,0,0,1-.6.22.73.73,0,0,1-.45-.14,1.31,1.31,0,0,1-.35-.43,2.5,2.5,0,0,0-1-1.1,2.67,2.67,0,0,0-1.43-.37,2.32,2.32,0,0,0-1.94,1,4.86,4.86,0,0,0,0,5.14,2.35,2.35,0,0,0,2,1,2.51,2.51,0,0,0,1.72-.51,1.67,1.67,0,0,0,.58-1.32v-.72h-1.73a.64.64,0,0,1-.51-.21.72.72,0,0,1-.18-.48.6.6,0,0,1,.69-.67h2.61a.9.9,0,0,1,1,1Z" transform="translate(-25.11 -131.78)"/></g><g class="cls-1"><path d="M65.11,227.09a1.67,1.67,0,0,0-2.66,0,3.37,3.37,0,0,0,0,3.53,1.67,1.67,0,0,0,2.66,0,3.37,3.37,0,0,0,0-3.53Zm0,0a1.67,1.67,0,0,0-2.66,0,3.37,3.37,0,0,0,0,3.53,1.67,1.67,0,0,0,2.66,0,3.37,3.37,0,0,0,0-3.53Zm4.46-4a2.32,2.32,0,0,0-1.67-.55H59.65a2.32,2.32,0,0,0-1.67.55,2.24,2.24,0,0,0-.56,1.65v8.31a2.24,2.24,0,0,0,.56,1.65,2.27,2.27,0,0,0,1.67.55H67.9a2.27,2.27,0,0,0,1.67-.55,2.24,2.24,0,0,0,.55-1.65v-8.31A2.24,2.24,0,0,0,69.57,223.13Zm-3.07,7.5a2.93,2.93,0,0,1-2.72,1.64,2.93,2.93,0,0,1-2.73-1.64,3.85,3.85,0,0,1-.39-1.77,3.93,3.93,0,0,1,.39-1.79,3,3,0,0,1,1.1-1.21,3.08,3.08,0,0,1,1.63-.44,3,3,0,0,1,1.62.44,2.93,2.93,0,0,1,1.1,1.21,3.81,3.81,0,0,1,.4,1.79A3.73,3.73,0,0,1,66.5,230.63Zm-2.72-4.2a1.57,1.57,0,0,0-1.33.66,3.37,3.37,0,0,0,0,3.53,1.67,1.67,0,0,0,2.66,0,3.37,3.37,0,0,0,0-3.53A1.59,1.59,0,0,0,63.78,226.43Zm1.33.66a1.67,1.67,0,0,0-2.66,0,3.37,3.37,0,0,0,0,3.53,1.67,1.67,0,0,0,2.66,0,3.37,3.37,0,0,0,0-3.53Zm0,0a1.67,1.67,0,0,0-2.66,0,3.37,3.37,0,0,0,0,3.53,1.67,1.67,0,0,0,2.66,0,3.37,3.37,0,0,0,0-3.53Z" transform="translate(-25.11 -131.78)"/><path d="M85.75,223.13a2.32,2.32,0,0,0-1.67-.55H75.83a2.32,2.32,0,0,0-1.67.55,2.24,2.24,0,0,0-.55,1.65v8.31a2.24,2.24,0,0,0,.55,1.65,2.27,2.27,0,0,0,1.67.55h8.25a2.27,2.27,0,0,0,1.67-.55,2.24,2.24,0,0,0,.55-1.65v-8.31A2.24,2.24,0,0,0,85.75,223.13Zm-2.93,6.65a2.28,2.28,0,0,1-.79,1.81,3.52,3.52,0,0,1-4.16,0,2.27,2.27,0,0,1-.78-1.81v-3.55c0-.48.21-.73.64-.73a.62.62,0,0,1,.48.19.81.81,0,0,1,.17.54v3.42a1.58,1.58,0,0,0,.42,1.15,1.56,1.56,0,0,0,1.15.42,1.46,1.46,0,0,0,1.57-1.57v-3.42a.76.76,0,0,1,.17-.54.62.62,0,0,1,.47-.19c.44,0,.66.25.66.73Z" transform="translate(-25.11 -131.78)"/><path d="M101.93,223.13a2.32,2.32,0,0,0-1.67-.55H92a2.33,2.33,0,0,0-1.67.55,2.24,2.24,0,0,0-.55,1.65v8.31a2.24,2.24,0,0,0,.55,1.65,2.29,2.29,0,0,0,1.67.55h8.25a2.27,2.27,0,0,0,1.67-.55,2.24,2.24,0,0,0,.55-1.65v-8.31A2.24,2.24,0,0,0,101.93,223.13Zm-3.07,3.4a.53.53,0,0,1-.39.15H96.78v4.81a.81.81,0,0,1-.17.54.6.6,0,0,1-.49.2.54.54,0,0,1-.47-.21.8.8,0,0,1-.16-.53v-4.81H93.8a.53.53,0,0,1-.39-.15.48.48,0,0,1-.15-.37.54.54,0,0,1,.15-.4.56.56,0,0,1,.39-.14h4.67a.56.56,0,0,1,.39.14.54.54,0,0,1,.16.4A.49.49,0,0,1,98.86,226.53Z" transform="translate(-25.11 -131.78)"/><path d="M118.11,223.13a2.3,2.3,0,0,0-1.67-.55h-8.25a2.29,2.29,0,0,0-1.66.55,2.2,2.2,0,0,0-.56,1.65v8.31a2.2,2.2,0,0,0,.56,1.65,2.25,2.25,0,0,0,1.66.55h8.25a2,2,0,0,0,2.23-2.2v-8.31A2.24,2.24,0,0,0,118.11,223.13ZM113,231.45a.82.82,0,0,1-.17.55.6.6,0,0,1-.49.19.55.55,0,0,1-.47-.2.85.85,0,0,1-.16-.54v-5.21a.8.8,0,0,1,.16-.53.55.55,0,0,1,.47-.21.6.6,0,0,1,.49.2.81.81,0,0,1,.17.54Z" transform="translate(-25.11 -131.78)"/><path d="M134.29,223.13a2.27,2.27,0,0,0-1.66-.55h-8.26a2.31,2.31,0,0,0-1.66.55,2.24,2.24,0,0,0-.56,1.65v8.31a2,2,0,0,0,2.22,2.2h8.26a2,2,0,0,0,2.22-2.2v-8.31A2.24,2.24,0,0,0,134.29,223.13Zm-3.06,8.41a.65.65,0,0,1-.16.48.6.6,0,0,1-.46.17.55.55,0,0,1-.32-.08,1,1,0,0,1-.29-.29l-3-4.1h0v3.83a.68.68,0,0,1-.16.47.57.57,0,0,1-.45.17.55.55,0,0,1-.44-.17.7.7,0,0,1-.15-.47v-5.39a.73.73,0,0,1,.15-.48.65.65,0,0,1,.78-.09.8.8,0,0,1,.29.29l3,4.18H130v-3.91a.67.67,0,0,1,.16-.47.54.54,0,0,1,.43-.18.61.61,0,0,1,.45.17.66.66,0,0,1,.16.48Z" transform="translate(-25.11 -131.78)"/><path d="M150.48,223.13a2.32,2.32,0,0,0-1.67-.55h-8.25a2.32,2.32,0,0,0-1.67.55,2.24,2.24,0,0,0-.56,1.65v8.31a2.24,2.24,0,0,0,.56,1.65,2.27,2.27,0,0,0,1.67.55h8.25a1.95,1.95,0,0,0,2.22-2.2v-8.31A2.28,2.28,0,0,0,150.48,223.13Zm-2.94,6.69a2.49,2.49,0,0,1-.33,1.28,2.35,2.35,0,0,1-1,.87,3.47,3.47,0,0,1-1.54.31,2.89,2.89,0,0,1-2.27-.92,3.61,3.61,0,0,1-.83-2.5,3.66,3.66,0,0,1,.83-2.52,2.85,2.85,0,0,1,2.25-.92,3.59,3.59,0,0,1,1.17.18,2.64,2.64,0,0,1,.91.52,2.3,2.3,0,0,1,.57.81,1.67,1.67,0,0,1,0,.18.5.5,0,0,1,0,.18.52.52,0,0,1-.55.55.49.49,0,0,1-.3-.09.67.67,0,0,1-.23-.3,1.81,1.81,0,0,0-.66-.73,1.76,1.76,0,0,0-1-.25,1.55,1.55,0,0,0-1.3.66,2.8,2.8,0,0,0-.49,1.73,2.76,2.76,0,0,0,.49,1.72,1.6,1.6,0,0,0,1.32.65,1.69,1.69,0,0,0,1.16-.35,1.11,1.11,0,0,0,.38-.88v-.49H145.1a.46.46,0,0,1-.34-.14.47.47,0,0,1-.12-.32.4.4,0,0,1,.46-.45h1.76a.61.61,0,0,1,.68.69Z" transform="translate(-25.11 -131.78)"/></g></g></svg>