<svg id="Layer_1" data-name="Layer 1" xmlns="http://www.w3.org/2000/svg" viewBox="0 0 420 417.7"><defs><style>.cls-1{fill:#ffc800;}</style></defs><rect class="cls-1" x="243.8" y="402.8" width="174" height="8.1"/><rect class="cls-1" x="243.8" y="392.8" width="174" height="8.1"/><rect class="cls-1" x="243.8" y="362.8" width="174" height="8.1"/><rect class="cls-1" x="243.8" y="382.8" width="174" height="8.1"/><rect class="cls-1" x="243.8" y="372.8" width="174" height="8.1"/><rect class="cls-1" x="243.8" y="352.8" width="174" height="8.1"/><rect class="cls-1" x="243.8" y="342.8" width="174" height="8.1"/><path class="cls-1" d="M149.92,388.6c-.21-1.16-.5-2.6-.85-4.2s-.68-3.06-1.06-4.7c-.32-1.39-.65-2.8-1-4.2-.24-1-.48-2-.72-3a.13.13,0,0,1-.1,0h0c-.9-.93-1.83-1.83-2.8-2.69-1.2-1.09-2.46-2.13-3.75-3.11-1-.8-2.08-1.57-3.15-2.3-.1-.1-.1-.3.1-.3a11.91,11.91,0,0,1,5.5,2.6,12.85,12.85,0,0,1,1.3,1.16,16.76,16.76,0,0,1,2.3,2.83l.1.15,0,.06a2.39,2.39,0,0,1,.13.21c0-.07,0-.14-.05-.21-.07-.3-.15-.6-.22-.89-.11-.46-.22-.9-.32-1.33a.8.8,0,0,0-.13-.13c-.6-.62-1.22-1.21-1.85-1.79l-.07-.06a65.54,65.54,0,0,0-7.33-5.8c-.1-.1-.1-.3.1-.3a10.06,10.06,0,0,1,2,.55,11.15,11.15,0,0,1,1.78.85,16.31,16.31,0,0,1,4.87,4.53l.16.23c-.21-.82-.39-1.56-.54-2.19l-.14-.14q-1.28-1.24-2.64-2.43c-1.12-1-2.29-1.91-3.49-2.8-.82-.62-1.65-1.22-2.5-1.8-.1-.1-.1-.3.1-.3a10.15,10.15,0,0,1,2.4.7,14.71,14.71,0,0,1,5.3,4,4.82,4.82,0,0,1,.36.43l.37-.25.15-.13-.88-1.09-2.42-3-5.28-6.53-1.91-2.37L129,343l-6.71-8.3L120.9,333,118.52,330l0,0-.3.2-.8.68-2.1,1.8v.07l-1.9,1.62v-.06c-1.1.94-2.13,1.85-3.1,2.7-1.53,1.36-2.88,2.58-4,3.65a31.06,31.06,0,0,0-3,3.11c-.34.43-.52.75-.5.93a3.92,3.92,0,0,0,.5,1.09c.58,1,1.62,2.52,3,4.47.9,1.26,1.93,2.68,3.08,4.24l.92,1.24c1,1.3,2,2.68,3.1,4.12l1.9,2.51,0,0c.67.89,1.36,1.79,2.07,2.71,1.14,1.49,2.31,3,3.5,4.54l1.4,1.8,3.3,4.23c2.38,3,4.72,6,6.9,8.72l3.2,4c1.47,1.83,2.82,3.48,4,4.91,1.49,1.82,2.71,3.26,3.54,4.2a9.59,9.59,0,0,0,1.16,1.2,1.31,1.31,0,0,0,.72.2h.15a3.72,3.72,0,0,0,2.21-1.39,12.23,12.23,0,0,0,2.45-4.2,6.71,6.71,0,0,0,.37-2A18.84,18.84,0,0,0,149.92,388.6Zm-6.52,5.33-.52-.63-3.83-4.7-1-1.17-2.4-3,0-.06-3.78-4.7-1.47-1.83-4.8-6-3.3-4.15L120.9,366l-3.5-4.44-2.1-2.67-1.9-2.42c-1.11-1.42-2.15-2.76-3.1-4-.82-1.06-1.57-2-2.24-2.93s-1.26-1.66-1.76-2.34l-.7-1s0-.1.1,0l.6.69c.62.73,1.36,1.6,2.19,2.61l1.81,2.17,3.1,3.81c.62.75,1.25,1.53,1.9,2.34l2.1,2.61c1.14,1.41,2.31,2.87,3.5,4.36l1.4,1.76,3.3,4.14c1.62,2,3.23,4.07,4.8,6.06l2.32,2.95c1.9,2.41,3.72,4.73,5.38,6.86l1.59,2c1.35,1.74,2.58,3.33,3.63,4.7l.08.1c.91,1.19,1.69,2.21,2.3,3v.27C145.08,396,144.31,395,143.4,393.93Z"/><path class="cls-1" d="M237,408v0a4.36,4.36,0,0,0-.06-.49.35.35,0,0,0,0-.17,2.58,2.58,0,0,0-.06-.37,11.27,11.27,0,0,0-.59-2.12,8.59,8.59,0,0,0-2.4-3.62,9.06,9.06,0,0,0-1-.6l-1.41-.74h0l-.66-.35-.37-.18-.44-.22-.52-.25-.86-.42-1.12-.53c-1.83-.88-3.91-1.84-6-2.8l-2.1-1-.21-.09h0l-1.58-.71-1-.45h-.1l-.12,0h0l-.27,0a64.17,64.17,0,0,0-7,1.26c-1.69.39-3.36.86-5,1.39-.2.1-.3-.1-.2-.2a11.65,11.65,0,0,1,5.2-2.79,16.51,16.51,0,0,1,5.59-.45h0l.35,0-2.28-1-.2,0c-1.16.15-2.32.33-3.47.55a60.73,60.73,0,0,0-6.3,1.49c-.6.17-1.2.36-1.8.55-.2.1-.3-.1-.2-.2a10.45,10.45,0,0,1,2-1.5,14.27,14.27,0,0,1,6.3-1.77,14.07,14.07,0,0,1,1.45,0h.34l-.27-.12-1.61-.71H209l-.19,0q-3,.42-6,1.14c-1.62.38-3.23.83-4.8,1.34-.2.1-.3-.1-.2-.2a11.46,11.46,0,0,1,5-2.73,16.07,16.07,0,0,1,4.08-.57l-.11-.46-4,.09-25.8.58L166,389l0,.14c.05,1.23.09,2.43.15,3.6.06,1.46.13,2.87.2,4.2.08,1.52.16,3,.25,4.27,0,.05,0,.11,0,.17s0,.1,0,.16c0,.25,0,.5.05.75.09,1.28.19,2.44.3,3.45.07.71.14,1.34.22,1.9,0,0,0,0,0,0v.08a4.7,4.7,0,0,0,.27,1.37,1.9,1.9,0,0,0,.43,1v.1c.41.26,2.6.45,6,.6h1.25l2.82.1c4.37.13,9.81.2,15.59.23a1.09,1.09,0,0,1,.05-.17s0,0,0-.06l0,.06a1.09,1.09,0,0,1,0,.17c4.43,0,9.05,0,13.55,0l4.15,0,1.81,0,4.26,0,1.37,0,2.64,0,2,0,.84,0,1,0h.84l3.35-.09.72,0,.74,0,.62,0,2.9-.14.84-.07a4.37,4.37,0,0,0,.79-.12.88.88,0,0,0,.24-.11,1,1,0,0,0,.2-.16.65.65,0,0,0,.15-.18,1.26,1.26,0,0,0,.13-.23,1.69,1.69,0,0,0,.1-.27,1.87,1.87,0,0,0,.08-.34,2.1,2.1,0,0,0,0-.37.68.68,0,0,1,0,.14c0-.08,0-.17,0-.25v-.33A2.72,2.72,0,0,0,237,408Zm-1.73.28c-5.38.2-19,.45-32.5.6-9.62.11-19.21.16-25.8.11-2.59,0-4.72-.06-6.2-.11-.1,0-.1-.1,0-.1,1.49-.1,3.61-.19,6.2-.28,6.6-.2,16.19-.36,25.8-.46,13.53-.13,27.12-.16,32.5-.06Q235.75,408,235.3,408.3Z"/><polygon class="cls-1" points="400.8 13.9 361.8 39.4 358.71 24.02 358.8 24 358 20.5 346 26.6 353.7 14 339.2 0 400.8 13.9"/><path class="cls-1" d="M224.2,116.3v.1l3.1,1-.33.23-3-.9h-.1l3,.93-.35.24L223.7,117l2.82.89-.34.22-2.68-.81,2.66.83-.38.24-2.48-.77h-.1l2.56.78-.68.42-2.88-.9-1-.3,1.69-.6h0l1-1.3,4,1.23q-.27.19-.54.36Z"/><path class="cls-1" d="M251.35,98l-.15,0-2.5-.8a.37.37,0,0,0-.5.2l-.1.1a.65.65,0,0,1-.9.2l-5.9-1.8c-.4-.1-.6-.2-.3-.6l.1-.1c.2-.2.1-.4,0-.4l-2.5-.8a2.53,2.53,0,0,0-.72-.12c-.49,0-1,.29-1.68,1.22l-1.37,1.81.47.14L250,101.5l1.4-1.8c.13-.16.24-.31.33-.44a.43.43,0,0,1,0-.07C252.11,98.44,251.84,98.12,251.35,98Zm-11.46-2.82s0,0-.09.07S239.84,95.12,239.89,95.13Zm-2.29.67-.6.2.2.4h-.1l-.2-.5.7-.2Zm.4-1.3c0,.1-.1.1-.2.1v-.1a.35.35,0,0,1,.2-.1Zm.3.1c0,.1-.1.1-.2.1v-.1c0-.1.1-.1.2-.1Zm.4.1a.35.35,0,0,1-.2.1c-.1,0-.1,0,0-.1s.1-.1.2-.1S238.8,94.7,238.7,94.7Zm.3.2c-.1,0-.2,0-.2-.1a.14.14,0,0,1,.2,0Zm.3,0c0,.1-.1.1-.2.1v-.1a.35.35,0,0,1,.2-.1Zm.6.4h-.1a.23.23,0,0,1,.14-.08s.06,0,.06.08Zm.2,0a.09.09,0,0,0,0-.08.34.34,0,0,1,.14.08Zm0-.3h.1l.1.2Zm1.9,2.6a.62.62,0,0,1,.7-.2.35.35,0,0,1,.2.1v.1h-.1a.1.1,0,0,0-.1-.1h-.2a.35.35,0,0,0-.2.1.19.19,0,0,0,0,.3l.1.1h.3a.1.1,0,0,1-.1.1h-.3C241.9,98,241.9,97.9,242,97.6Zm1,.9v-.1l.2-.2-.3-.1-.3.1c.1.1,0,.1,0,0l.4-.6h.1v.1l-.2.2.3.1.2-.2h.1v.1l-.4.6Zm.8.1v-.2l-.3-.1-.1.1h-.1v-.1l.7-.5h.1l-.2.7A.1.1,0,0,1,243.8,98.6Zm1.1-.3h-.1l-.52.29-.08.11h-.1l.4-.5h-.2v-.1h.1l.5.1Zm4.6,2s-.1-.1,0-.1a.1.1,0,0,0,.1.1S249.5,100.4,249.5,100.3Zm.3-.2h-.1s-.1-.1,0-.1.1-.1.1,0S249.9,100,249.8,100.1Zm.1-.3s-.1-.1,0-.1a.1.1,0,0,1,.1.1S249.9,99.9,249.9,99.8Zm1-1.1h-.1l-.8-.2.2-.3.8.2-.2.3.2-.2h.1Z"/><path class="cls-1" d="M236.4,99.1l-1.26,1.72-1.64.58,1,.3,10.9,3.3,1.9-2.5Zm8.3,3.1v.1l-8-2.5Zm-8.2-2.1,9.6,3-9.7-2.9Zm-.5.6,8.9,2.7-.1.1-8.8-2.7Zm6.6,2.9-7.1-2.2v-.1l7.2,2.2Zm2.8.5-9.7-3,.1-.1,9.6,3Zm.4-.7-9.6-2.9v-.1l9.7,3Z"/><path class="cls-1" d="M234.2,102.1l-.76,1-1.68.59,1,.28.06,0,10.74,3.28,1.5-1.9Zm7.9,3.4v.1l-7.9-2.5Zm-1.7.3-6.7-2,.1-.1,6.7,2.1Zm-6.5-2.4h.1l8.7,2.7Zm.5-.6h.1l9.6,2.9-.1.1Z"/><path class="cls-1" d="M102.4,130.63a13.6,13.6,0,0,0-3.4-.43H42.9a16.41,16.41,0,0,0-16.4,16.4v30.7h86.1V143.8A13.75,13.75,0,0,0,102.4,130.63Zm-44.2,44H32.3V149H43.36l.74-1.8,1.1-2.5,4-9.6,5.2,2.2a13,13,0,0,1,3.2,6,11.93,11.93,0,0,1,.6,3.7Z"/><path class="cls-1" d="M190.63,136.58l-2.38.58c-2.94-5-6-10-8.75-14.55l-.78-1.28L180.8,120l.74,1.24Z"/><path class="cls-1" d="M210,163.4s-8.35,2.15-18,4.08l-1-2.34c-2.08-5-4.21-10.13-6.25-15.08,0,0,0-.08,0-.11-.24-.58-.47-1.15-.71-1.72-1-2.53-2-5-3-7.33l-.36-.89,2.24-.55,1-.23.37.9.67,1.64v0l2,4.84.88,2.16,0,.11,6.25,15.34,1,2.56c3-.6,5.8-1.3,8.2-1.8-.44-1.1-.9-2.21-1.36-3.34s-1-2.55-1.56-3.84c.36.84.78,1.62,1.12,2.48a14.12,14.12,0,0,0,.62,1.3,16.86,16.86,0,0,1,.78,1.6c0,.1.2,0,.1,0-.22-.6-.38-1.16-.54-1.72s-.28-.92-.46-1.38c-.4-1-.8-2-1.2-2.9-.55-1.36-2.91-7.2-5-11.91l.59-.3-.6.29c-.55-1.26-1.09-2.43-1.57-3.42-.35-.74-.67-1.37-.94-1.86h-.1v.1c.1.35.24.75.39,1.2-.49-1.19-1-2.36-1.43-3.5-.09-.21-.18-.41-.26-.62,2.23-.58,4.07-1.08,5-1.36a6.33,6.33,0,0,0,.67-.22.4.4,0,0,0,.1-.15h0c.08-.18,0-.39-.16-.35l0-.09-.57.17h0l-.32.06c-3.55-6-7.19-12.11-10.35-17.53l-.53-.91c3-1.92,5.5-3.6,5.5-3.6l.29.43.29.42L199,124.62h0l5.11,7.52-.18.25a5.53,5.53,0,0,0-.6,1.08q-1.37.61-2.7,1.32l0,0-1.91.71-1.21-2c-1.1-1.8-7.8-12.4-10.4-15.6-.1-.1-.2,0-.1.1,1.9,3.7,8.8,14.1,9.9,15.9.42.63.83,1.25,1.25,1.84l-.28.1,1.15,2.63,1.4,3.17h0l.45,1-.69.39.7-.37,7.33,16.65Z"/><path class="cls-1" d="M177.14,170.19c-1.69.21-3.91.4-6,.5-1.33.06-2.61.09-3.7.05-.43,0-.83,0-1.19-.08l-.54-.07a3.3,3.3,0,0,1-.49-.09,7.73,7.73,0,0,1-2.38-1.12,20.88,20.88,0,0,1-4-3.69l-.07-.08h0c-1-1.12-1.92-2.37-2.86-3.7-.68-1-1.35-2-2-3-.5-.78-1-1.56-1.45-2.35-3.67-6.1-6.4-12-6.65-12.48A109.26,109.26,0,0,1,141,133a19.21,19.21,0,0,1-2.9-5c0-.1.1-.2.1-.1a36.23,36.23,0,0,0,2.4,4.3,108.36,108.36,0,0,1-3.7-11.4v-.1h.1v.1c.66,1.79,1.33,3.6,2,5.41,1.19,3.14,2.44,6.28,3.77,9.39,1,2.5,2.1,4.9,3.2,7.3.92,1.89,3.79,7.79,7.36,13.57.48.79,1,1.57,1.48,2.34.66,1,1.35,2,2,3s1.57,2.08,2.35,3l.06.06c.25.25.49.5.74.72h0l.09.08H160a15.51,15.51,0,0,0,4.33,3.52l0,0a5.41,5.41,0,0,0,1.12.33l.49.08c.43.07.91.12,1.43.16,1.13.08,2.43.11,3.76.1,2,0,4.08-.09,5.76-.14,1,0,1.8,0,2.41,0v0c3.57-.49,7.39-1.16,11.08-1.89l-1.15.21-.88-2.15-6.13-15,0-.1-.57-1.4-3.23-7.92h0l-.32-.8c-2,.47-3.33.77-3.52.77a3.52,3.52,0,0,1-2.94-1.47h0c-.25-.25-.49-.53-.76-.82-1.2-1.3-13.5-17.1-14.1-18-.3-.6,0-.5.3-.2.17.15.75.83,1.6,1.86l.44.53c3.34,4.06,9.72,12.06,12,14.82-1.86-6.5-3.84-13.09-5.77-19l16.84,19.53,4.07-1-8.4-14.16-.69-1.17-.2.1c-.5.2-10.5-12.9-15.1-18.6a21.59,21.59,0,0,0-4.22-3.94h0c0,.15,0,.31-.07.46v1.2c.1,1.68,1.77,6.11-1.5,6.87a.29.29,0,0,1-.1,0,8.76,8.76,0,0,1-4.1-.61A17.21,17.21,0,0,1,150,107a.67.67,0,0,1-.12-.06c-3-1.41-6-3.7-7.1-6.27a14.93,14.93,0,0,1,.4-2.56A9.64,9.64,0,0,0,141,99.3c-8.12,7-14.91,26.06-18.7,39.61-1.4,5-2.39,9.19-2.9,11.79C118.23,156.35,117,162,116,166.9c-.14.67-.27,1.32-.4,2-.08.38-.16.76-.23,1.13,0,.18-.06.36-.1.54-.28,1.44-.55,2.8-.81,4l0,.13c0,.14,0,.28-.08.41s0,.26-.07.39c-.82,4.34-1.26,7.15-1,7.4a8.82,8.82,0,0,0,1-.08l1-.1,1.55-.17.51-.06,4.94-.55c5.28-.61,12.34-1.45,19.72-2.35h0l4.41-.54.6-.07c4.37-.53,8.72-1.07,12.77-1.59l.89-.11,5.79-.75.8-.1h.05l3.27-.44c3.81-.51,6.76-.93,8.33-1.2a5.89,5.89,0,0,0,1.26-.28c.13-.16-.18-1.85-.79-4.65C178.91,170,178.11,170.07,177.14,170.19ZM142,103.1a38,38,0,0,0,4.9,4.1,29.53,29.53,0,0,0,3.63,2.26l.09.05c.39.21.79.4,1.18.59a6.71,6.71,0,0,0,.85.42,9.11,9.11,0,0,0,4.55.68,3.74,3.74,0,0,0,1-.34c2.48-1.29,1.8-5.27,1-8.16l-.25-.82h0c-.12-.39-.24-.75-.35-1.07a12.27,12.27,0,0,1,.67,1.42,0,0,0,0,1,0,0,15.7,15.7,0,0,1,.69,2.14,15.86,15.86,0,0,1,.43,3.73,3.71,3.71,0,0,1-1.67,3.32,3.67,3.67,0,0,1-1.13.48,8.68,8.68,0,0,1-4.7-.55c-.38-.14-.74-.29-1.1-.45l-.9-.4-.08,0a22.12,22.12,0,0,1-4.32-2.75c-1.7-1.4-3.1-3-4.6-4.5C141.9,103.1,141.9,103,142,103.1Z"/></svg>