<?xml version="1.0" encoding="utf-8"?>
<!-- Generator: Adobe Illustrator 25.3.1, SVG Export Plug-In . SVG Version: 6.00 Build 0)  -->
<svg version="1.1" id="Layer_1" xmlns="http://www.w3.org/2000/svg" xmlns:xlink="http://www.w3.org/1999/xlink" x="0px" y="0px"
	 viewBox="0 0 420 417.7" style="enable-background:new 0 0 420 417.7;" xml:space="preserve">
<style type="text/css">
	.st0{opacity:0.2;enable-background:new    ;}
	.st1{opacity:0.1;enable-background:new    ;}
	.st2{opacity:0.1;}
</style>
<path class="st0" d="M58.2,147v27.9h-30v-27.6c0-8.1,6.6-14.7,14.7-14.8h0.8C51.7,132.5,58.2,139,58.2,147z"/>
<path class="st0" d="M69,145.7v31.6h-2.1v-31c0-8.9-7.2-16.1-16.1-16.1l0,0h2.8C62.1,130.2,69,137.1,69,145.7L69,145.7z"/>
<path class="st0" d="M107.7,145.7v31.6h-2.1v-31c0-8.9-7.2-16.1-16.1-16.1l0,0h2.8C100.8,130.3,107.7,137.2,107.7,145.7z"/>
<rect x="243.8" y="402.8" class="st0" width="38" height="8.1"/>
<rect x="243.8" y="392.8" class="st0" width="38" height="8.1"/>
<rect x="243.8" y="382.8" class="st0" width="38" height="8.1"/>
<rect x="243.8" y="372.8" class="st0" width="38" height="8.1"/>
<rect x="243.8" y="362.8" class="st0" width="38" height="8.1"/>
<rect x="243.8" y="352.8" class="st0" width="38" height="8.1"/>
<rect x="243.8" y="342.8" class="st0" width="38" height="8.1"/>
<polygon class="st0" points="353.7,14 346,26.7 358.1,20.6 400.8,14 "/>
<g>
	<path class="st1" d="M112.6,143.8v33.5H59.9v-31c0-8.9-7.2-16.1-16.1-16.1H99C106.5,130.1,112.6,136.2,112.6,143.8z"/>
	<g class="st2">
		<path d="M80.8,169v-5l-1.8,3.6h-1l-1.8-3.6v5h-1.9v-8.4h2.1l2.2,4.4l2.2-4.4h2.1v8.4H80.8z"/>
		<path d="M86.6,160.6h1.7l3,8.4h-2l-0.6-1.9h-2.6l-0.6,1.9h-2L86.6,160.6z M88.4,165.8l-1-3l-1,3H88.4z"/>
		<path d="M92.2,169v-8.4h1.9v8.4H92.2z"/>
		<path d="M95.7,169v-8.4h1.9v6.7h4.1v1.7H95.7z"/>
	</g>
</g>
</svg>
