<svg id="Layer_1" data-name="Layer 1" xmlns="http://www.w3.org/2000/svg" viewBox="0 0 512 512"><path d="M366.6,124.83a133.78,133.78,0,0,1,26.26,5.82,116.46,116.46,0,0,1,30,15q15.27,10.35,28.2,29-1.29.78-9.7,7t-19,18q-10.61,11.78-18.49,29.75T396,272.17q0,28.45,10,48.12t23.28,31.82q13.32,12.17,23.8,17.72t11.26,5.83q-.27,1-3.88,11.51t-11.26,26.91a244.48,244.48,0,0,1-19.79,34.28q-11.13,15.76-22.9,30.27a115.67,115.67,0,0,1-25.61,23.67,55.15,55.15,0,0,1-31.17,9.18q-13.2,0-22.51-3.1a153.33,153.33,0,0,1-17.72-7.12,136.68,136.68,0,0,0-18.5-7.11q-10.1-3.11-25.1-3.11-19.66,0-32.73,5.31t-24.7,10.48Q196.75,512,181,512q-24.06,0-42.3-19.15a430.06,430.06,0,0,1-37.38-45.79,289.51,289.51,0,0,1-26.91-48.9A333.8,333.8,0,0,1,55,339.44a272.49,272.49,0,0,1-7.25-62.1q0-49.66,18.89-83.56T115,142.55q29.49-17.33,61.32-17.33A91.71,91.71,0,0,1,208,130.65q14.87,5.43,27.81,11t23.54,5.56q10.09,0,23.81-5.82t30.39-11.77a106.68,106.68,0,0,1,36.1-6Q355.09,123.67,366.6,124.83Zm-67.52-17q-19.54,10.37-36.87,10.35a31.39,31.39,0,0,1-7-.77c-.17-.69-.38-1.9-.64-3.62a38.49,38.49,0,0,1-.39-5.7,90.88,90.88,0,0,1,8.54-38.29q8.53-18.63,19.66-31,13.71-16.3,34.8-27.17T357.68,0a59.36,59.36,0,0,1,.77,10.09A103.31,103.31,0,0,1,351,48.77a121.26,121.26,0,0,1-19.4,33A104.62,104.62,0,0,1,299.08,107.88Z"/></svg>