<svg id="Layer_1" data-name="Layer 1" xmlns="http://www.w3.org/2000/svg" viewBox="0 0 420 417.7"><defs><style>.cls-1{fill:#ececec;}.cls-2{fill:#dcdcdc;}.cls-3{fill:#a8a8a8;}.cls-4{fill:#c8c8c8;}.cls-5{fill:#fff;}.cls-6{fill:#1a2e35;}.cls-12,.cls-13,.cls-7,.cls-8{fill:none;stroke-miterlimit:10;}.cls-7,.cls-8{stroke:#1a2e35;stroke-width:0.75px;}.cls-8{stroke-dasharray:4.05 5.06;}.cls-9{fill:#2b454e;}.cls-10{fill:#375a64;}.cls-11{fill:#ff9581;}.cls-12{stroke:#fff;stroke-width:0.5px;}.cls-13{stroke:#ececec;}.cls-14{fill:#ff9bbe;}</style></defs><path class="cls-1" d="M411,212.3H290.6s11.9-32.6,30.3-32.6S345,202.2,345,202.2,357.4,190,367.6,190s19,16.2,19,16.2S401,197.5,411,212.3Z"/><path class="cls-1" d="M268,42.7H211.7s12.6-18.2,22.5-18.2S247,36.6,247,36.6s7-5.7,13.5-4.7S268,42.7,268,42.7Z"/><path class="cls-1" d="M375,80.7H318.7s12.6-18.2,22.5-18.2S354,74.6,354,74.6s7-5.7,13.5-4.7S375,80.7,375,80.7Z"/><path class="cls-1" d="M295.8,171.7H239.5s12.6-18.2,22.5-18.2,12.8,12.1,12.8,12.1,7-5.7,13.5-4.6S295.8,171.7,295.8,171.7Z"/><path class="cls-1" d="M65.2,210.6H9s12.6-18.2,22.5-18.2,12.8,12.1,12.8,12.1,7-5.7,13.5-4.6S65.2,210.6,65.2,210.6Z"/><path class="cls-1" d="M139.9,97.7H30.3s15-33.5,31.1-35.6S85.1,87,85.1,87s10.4-9.5,18.5-9.5S118,90,118,90,134.3,81.4,139.9,97.7Z"/><rect class="cls-2" x="298" y="237" width="33.2" height="105.8"/><rect class="cls-2" x="298" y="390.9" width="33.2" height="1.9"/><rect class="cls-2" x="298" y="400.9" width="33.2" height="1.9"/><rect class="cls-2" x="298" y="380.9" width="33.2" height="1.9"/><rect class="cls-2" x="298" y="370.9" width="33.2" height="1.9"/><rect class="cls-2" x="298" y="360.9" width="33.2" height="1.9"/><rect class="cls-2" x="298" y="350.9" width="33.2" height="1.9"/><rect class="cls-1" x="303.2" y="242.7" width="6.5" height="6.6"/><rect class="cls-1" x="311.4" y="242.7" width="6.5" height="6.6"/><rect class="cls-1" x="303.2" y="254" width="6.5" height="6.6"/><rect class="cls-1" x="311.4" y="254" width="6.5" height="6.6"/><rect class="cls-1" x="303.2" y="265.2" width="6.5" height="6.6"/><rect class="cls-1" x="311.4" y="265.2" width="6.5" height="6.6"/><rect class="cls-1" x="303.2" y="276.5" width="6.5" height="6.6"/><rect class="cls-1" x="311.4" y="276.5" width="6.5" height="6.6"/><rect class="cls-1" x="303.2" y="287.8" width="6.5" height="6.6"/><rect class="cls-1" x="311.4" y="287.8" width="6.5" height="6.6"/><rect class="cls-1" x="303.2" y="299" width="6.5" height="6.6"/><rect class="cls-1" x="311.4" y="299" width="6.5" height="6.6"/><rect class="cls-1" x="303.2" y="310.3" width="6.5" height="6.6"/><rect class="cls-1" x="311.4" y="310.3" width="6.5" height="6.6"/><rect class="cls-1" x="303.2" y="321.6" width="6.5" height="6.6"/><rect class="cls-1" x="311.4" y="321.6" width="6.5" height="6.6"/><rect class="cls-1" x="303.2" y="332.9" width="6.5" height="6.6"/><rect class="cls-1" x="311.4" y="332.9" width="6.5" height="6.6"/><rect class="cls-1" x="303.2" y="360.9" width="6.5" height="1.1"/><rect class="cls-1" x="311.4" y="360.9" width="6.5" height="1.1"/><rect class="cls-1" x="303.2" y="370.9" width="6.5" height="1.9"/><rect class="cls-1" x="311.4" y="370.9" width="6.5" height="1.9"/><rect class="cls-1" x="303.2" y="380.9" width="6.5" height="1.9"/><rect class="cls-1" x="311.4" y="380.9" width="6.5" height="1.9"/><rect class="cls-1" x="303.2" y="390.9" width="6.5" height="1.9"/><rect class="cls-1" x="319.6" y="390.9" width="6.5" height="1.9"/><rect class="cls-1" x="319.6" y="380.9" width="6.5" height="1.9"/><rect class="cls-1" x="319.6" y="370.9" width="6.5" height="1.9"/><rect class="cls-1" x="319.6" y="360.9" width="6.5" height="1.1"/><rect class="cls-1" x="319.6" y="332.8" width="6.5" height="6.6"/><rect class="cls-1" x="319.6" y="321.6" width="6.5" height="6.6"/><rect class="cls-1" x="319.6" y="310.3" width="6.5" height="6.6"/><rect class="cls-1" x="319.6" y="299" width="6.5" height="6.6"/><rect class="cls-1" x="319.6" y="287.8" width="6.5" height="6.6"/><rect class="cls-1" x="319.6" y="276.5" width="6.5" height="6.6"/><rect class="cls-1" x="319.6" y="265.2" width="6.5" height="6.6"/><rect class="cls-1" x="319.6" y="254" width="6.5" height="6.6"/><rect class="cls-1" x="319.6" y="242.7" width="6.5" height="6.6"/><rect class="cls-1" x="311.4" y="390.9" width="6.5" height="1.9"/><rect class="cls-3" x="331.2" y="360.9" width="26.1" height="1.9"/><rect class="cls-3" x="331.2" y="400.9" width="26.1" height="1.9"/><rect class="cls-3" x="331.2" y="390.9" width="26.1" height="1.9"/><rect class="cls-3" x="331.2" y="380.9" width="26.1" height="1.9"/><rect class="cls-3" x="331.2" y="370.9" width="26.1" height="1.9"/><rect class="cls-3" x="331.2" y="350.9" width="26.1" height="1.9"/><rect class="cls-3" x="331.2" y="237" width="26.1" height="105.8"/><rect class="cls-4" x="349.3" y="390.9" width="5.3" height="1.9"/><rect class="cls-4" x="342.5" y="390.9" width="5.3" height="1.9"/><rect class="cls-4" x="349.3" y="380.9" width="5.3" height="1.9"/><rect class="cls-4" x="342.5" y="380.9" width="5.3" height="1.9"/><rect class="cls-4" x="349.3" y="370.9" width="5.3" height="1.9"/><rect class="cls-4" x="342.5" y="370.9" width="5.3" height="1.9"/><rect class="cls-4" x="349.3" y="360.9" width="5.3" height="1.1"/><rect class="cls-4" x="342.5" y="360.9" width="5.3" height="1.1"/><rect class="cls-4" x="349.3" y="332.8" width="5.3" height="6.6"/><rect class="cls-4" x="342.5" y="332.8" width="5.3" height="6.6"/><rect class="cls-4" x="349.3" y="321.6" width="5.3" height="6.6"/><rect class="cls-4" x="342.5" y="321.6" width="5.3" height="6.6"/><rect class="cls-4" x="349.3" y="310.3" width="5.3" height="6.6"/><rect class="cls-4" x="342.5" y="310.3" width="5.3" height="6.6"/><rect class="cls-4" x="349.3" y="299" width="5.3" height="6.6"/><rect class="cls-4" x="342.5" y="299" width="5.3" height="6.6"/><rect class="cls-4" x="349.3" y="287.8" width="5.3" height="6.6"/><rect class="cls-4" x="342.5" y="287.8" width="5.3" height="6.6"/><rect class="cls-4" x="349.3" y="276.5" width="5.3" height="6.6"/><rect class="cls-4" x="342.5" y="276.5" width="5.3" height="6.6"/><rect class="cls-4" x="349.3" y="265.2" width="5.3" height="6.6"/><rect class="cls-4" x="342.5" y="265.2" width="5.3" height="6.6"/><rect class="cls-4" x="349.3" y="254" width="5.3" height="6.6"/><rect class="cls-4" x="342.5" y="254" width="5.3" height="6.6"/><rect class="cls-4" x="349.3" y="242.7" width="5.3" height="6.6"/><rect class="cls-4" x="335.8" y="242.7" width="5.3" height="6.6"/><rect class="cls-4" x="335.8" y="254" width="5.3" height="6.6"/><rect class="cls-4" x="335.8" y="265.2" width="5.3" height="6.6"/><rect class="cls-4" x="335.8" y="276.5" width="5.3" height="6.6"/><rect class="cls-4" x="335.8" y="287.8" width="5.3" height="6.6"/><rect class="cls-4" x="335.8" y="299" width="5.3" height="6.6"/><rect class="cls-4" x="335.8" y="310.3" width="5.3" height="6.6"/><rect class="cls-4" x="335.8" y="321.6" width="5.3" height="6.6"/><rect class="cls-4" x="335.8" y="332.9" width="5.3" height="6.6"/><rect class="cls-4" x="335.8" y="360.9" width="5.3" height="1.1"/><rect class="cls-4" x="335.8" y="370.9" width="5.3" height="1.9"/><rect class="cls-4" x="335.8" y="380.9" width="5.3" height="1.9"/><rect class="cls-4" x="335.8" y="390.9" width="5.3" height="1.9"/><rect class="cls-4" x="342.5" y="242.7" width="5.3" height="6.6"/><rect class="cls-1" x="56.5" y="227.7" width="39.2" height="183.2"/><rect class="cls-4" x="55.6" y="223.7" width="40.2" height="4"/><rect class="cls-5" x="60" y="233.6" width="4" height="177.3"/><rect class="cls-5" x="67.1" y="233.6" width="4" height="177.3"/><rect class="cls-5" x="74.1" y="233.6" width="4" height="177.3"/><rect class="cls-5" x="81.2" y="233.6" width="4" height="177.3"/><rect class="cls-5" x="88.2" y="233.6" width="4" height="177.3"/><rect class="cls-1" x="60" y="238.6" width="4" height="7.9"/><rect class="cls-1" x="67.1" y="238.6" width="4" height="7.9"/><rect class="cls-1" x="74.1" y="238.6" width="4" height="7.9"/><rect class="cls-1" x="81.2" y="238.6" width="4" height="7.9"/><rect class="cls-1" x="88.2" y="238.6" width="4" height="7.9"/><rect class="cls-1" x="60" y="251.5" width="4" height="7.9"/><rect class="cls-1" x="67.1" y="251.5" width="4" height="7.9"/><rect class="cls-1" x="74.1" y="251.5" width="4" height="7.9"/><rect class="cls-1" x="81.2" y="251.5" width="4" height="7.9"/><rect class="cls-1" x="88.2" y="251.5" width="4" height="7.9"/><rect class="cls-1" x="60" y="264.4" width="4" height="7.9"/><rect class="cls-1" x="67.1" y="264.4" width="4" height="7.9"/><rect class="cls-1" x="74.1" y="264.4" width="4" height="7.9"/><rect class="cls-1" x="81.2" y="264.4" width="4" height="7.9"/><rect class="cls-1" x="88.2" y="264.4" width="4" height="7.9"/><rect class="cls-1" x="60" y="277.3" width="4" height="7.9"/><rect class="cls-1" x="67.1" y="277.3" width="4" height="7.9"/><rect class="cls-1" x="74.1" y="277.3" width="4" height="7.9"/><rect class="cls-1" x="81.2" y="277.3" width="4" height="7.9"/><rect class="cls-1" x="88.2" y="277.3" width="4" height="7.9"/><rect class="cls-1" x="60" y="290.1" width="4" height="7.9"/><rect class="cls-1" x="67.1" y="290.1" width="4" height="7.9"/><rect class="cls-1" x="74.1" y="290.1" width="4" height="7.9"/><rect class="cls-1" x="81.2" y="290.1" width="4" height="7.9"/><rect class="cls-1" x="88.2" y="290.1" width="4" height="7.9"/><rect class="cls-1" x="60" y="303" width="4" height="7.9"/><rect class="cls-1" x="67.1" y="303" width="4" height="7.9"/><rect class="cls-1" x="74.1" y="303" width="4" height="7.9"/><rect class="cls-1" x="81.2" y="303" width="4" height="7.9"/><rect class="cls-1" x="88.2" y="303" width="4" height="7.9"/><rect class="cls-1" x="60" y="315.9" width="4" height="7.9"/><rect class="cls-1" x="67.1" y="315.9" width="4" height="7.9"/><rect class="cls-1" x="74.1" y="315.9" width="4" height="7.9"/><rect class="cls-1" x="81.2" y="315.9" width="4" height="7.9"/><rect class="cls-1" x="88.2" y="315.9" width="4" height="7.9"/><rect class="cls-1" x="60" y="328.7" width="4" height="7.9"/><rect class="cls-1" x="67.1" y="328.7" width="4" height="7.9"/><rect class="cls-1" x="74.1" y="328.7" width="4" height="7.9"/><rect class="cls-1" x="81.2" y="328.7" width="4" height="7.9"/><rect class="cls-1" x="88.2" y="328.7" width="4" height="7.9"/><rect class="cls-1" x="60" y="341.6" width="4" height="7.9"/><rect class="cls-1" x="67.1" y="341.6" width="4" height="7.9"/><rect class="cls-1" x="74.1" y="341.6" width="4" height="7.9"/><rect class="cls-1" x="81.2" y="341.6" width="4" height="7.9"/><rect class="cls-1" x="88.2" y="341.6" width="4" height="7.9"/><rect class="cls-1" x="60" y="354.5" width="4" height="7.9"/><rect class="cls-1" x="67.1" y="354.5" width="4" height="7.9"/><rect class="cls-1" x="74.1" y="354.5" width="4" height="7.9"/><rect class="cls-1" x="81.2" y="354.5" width="4" height="7.9"/><rect class="cls-1" x="88.2" y="354.5" width="4" height="7.9"/><rect class="cls-1" x="60" y="367.4" width="4" height="7.9"/><rect class="cls-1" x="67.1" y="367.4" width="4" height="7.9"/><rect class="cls-1" x="74.1" y="367.4" width="4" height="7.9"/><rect class="cls-1" x="81.2" y="367.4" width="4" height="7.9"/><rect class="cls-1" x="88.2" y="367.4" width="4" height="7.9"/><rect class="cls-1" x="60" y="380.2" width="4" height="7.9"/><rect class="cls-1" x="67.1" y="380.2" width="4" height="7.9"/><rect class="cls-1" x="74.1" y="380.2" width="4" height="7.9"/><rect class="cls-1" x="81.2" y="380.2" width="4" height="7.9"/><rect class="cls-1" x="88.2" y="380.2" width="4" height="7.9"/><rect class="cls-1" x="60" y="393.1" width="4" height="7.9"/><rect class="cls-1" x="67.1" y="393.1" width="4" height="7.9"/><rect class="cls-1" x="74.1" y="393.1" width="4" height="7.9"/><rect class="cls-1" x="81.2" y="393.1" width="4" height="7.9"/><rect class="cls-1" x="88.2" y="393.1" width="4" height="7.9"/><rect class="cls-1" x="60" y="406" width="4" height="4.9"/><rect class="cls-1" x="67.1" y="406" width="4" height="4.9"/><rect class="cls-1" x="74.1" y="406" width="4" height="4.9"/><rect class="cls-1" x="81.2" y="406" width="4" height="4.9"/><rect class="cls-1" x="88.2" y="406" width="4" height="4.9"/><path class="cls-2" d="M120.9,364.8V366c-1.2-1.5-2.4-3-3.5-4.4l-2.1-2.7c-.6-.8-1.3-1.6-1.9-2.4-1.1-1.4-2.2-2.8-3.1-4s-1.6-2-2.2-2.9-1.3-1.7-1.8-2.3a6.07,6.07,0,0,1-.7-1s0-.1.1,0a4.35,4.35,0,0,1,.6.7c.6.7,1.4,1.6,2.2,2.6.6.7,1.2,1.4,1.8,2.2,1,1.2,2,2.5,3.1,3.8.6.8,1.2,1.5,1.9,2.3s1.4,1.7,2.1,2.6C118.5,361.8,119.7,363.3,120.9,364.8Z"/><path class="cls-2" d="M120.9,227.7V333l-2.4-2.9h0l-.3.2c-.3.2-.5.5-.8.7l-2.1,1.8v.1l-1.9,1.6v-.1c-1.1.9-2.1,1.8-3.1,2.7-1.5,1.4-2.9,2.6-4,3.6a38.23,38.23,0,0,0-3,3.1,2.79,2.79,0,0,0-.5.9,4.13,4.13,0,0,0,.5,1.1q.9,1.5,3,4.5c.9,1.3,1.9,2.7,3.1,4.2l.9,1.2c1,1.3,2,2.7,3.1,4.1.6.8,1.2,1.7,1.9,2.5h0l2.1,2.7c1.1,1.5,2.3,3,3.5,4.5v41.2H95.7v-183Z"/><rect class="cls-4" x="95.7" y="223.7" width="26.3" height="4"/><path class="cls-4" d="M103.3,233.6V343.8a2.79,2.79,0,0,0-.5.9,4.13,4.13,0,0,0,.5,1.1v65.1h-4V233.6Z"/><path class="cls-4" d="M110.3,355.7v55.2h-4V350.3c.9,1.3,1.9,2.7,3.1,4.2Z"/><path class="cls-4" d="M110.3,351.7v.8c-.8-1.1-1.6-2-2.2-2.9s-1.3-1.7-1.8-2.3V347c.6.7,1.4,1.6,2.2,2.6C109,350.2,109.7,350.9,110.3,351.7Z"/><path class="cls-4" d="M110.3,233.6V337c-1.5,1.4-2.9,2.6-4,3.6v-107Z"/><path class="cls-4" d="M117.4,365.1v45.8h-4v-51c.6.8,1.2,1.7,1.9,2.5h0Z"/><path class="cls-4" d="M117.4,360.4v1.1l-2.1-2.7c-.6-.8-1.3-1.6-1.9-2.4v-1c.6.8,1.2,1.5,1.9,2.3C116,358.7,116.7,359.5,117.4,360.4Z"/><path class="cls-4" d="M117.4,233.6v97.3l-2.1,1.8v.1l-1.9,1.6V233.6Z"/><rect class="cls-2" x="99.3" y="238.6" width="4" height="7.9"/><rect class="cls-2" x="106.3" y="238.6" width="4" height="7.9"/><rect class="cls-2" x="113.4" y="238.6" width="4" height="7.9"/><rect class="cls-2" x="99.3" y="251.5" width="4" height="7.9"/><rect class="cls-2" x="106.3" y="251.5" width="4" height="7.9"/><rect class="cls-2" x="113.4" y="251.5" width="4" height="7.9"/><rect class="cls-2" x="99.3" y="264.4" width="4" height="7.9"/><rect class="cls-2" x="106.3" y="264.4" width="4" height="7.9"/><rect class="cls-2" x="113.4" y="264.4" width="4" height="7.9"/><rect class="cls-2" x="99.3" y="277.3" width="4" height="7.9"/><rect class="cls-2" x="106.3" y="277.3" width="4" height="7.9"/><rect class="cls-2" x="113.4" y="277.3" width="4" height="7.9"/><rect class="cls-2" x="99.3" y="290.1" width="4" height="7.9"/><rect class="cls-2" x="106.3" y="290.1" width="4" height="7.9"/><rect class="cls-2" x="113.4" y="290.1" width="4" height="7.9"/><rect class="cls-2" x="99.3" y="303" width="4" height="7.9"/><rect class="cls-2" x="106.3" y="303" width="4" height="7.9"/><rect class="cls-2" x="113.4" y="303" width="4" height="7.9"/><rect class="cls-2" x="99.3" y="315.9" width="4" height="7.9"/><rect class="cls-2" x="106.3" y="315.9" width="4" height="7.9"/><rect class="cls-2" x="113.4" y="315.9" width="4" height="7.9"/><rect class="cls-2" x="99.3" y="328.7" width="4" height="7.9"/><rect class="cls-2" x="106.3" y="328.7" width="4" height="7.9"/><path class="cls-2" d="M117.4,328.7v2.2l-2.1,1.8v.1l-1.9,1.6v-5.7Z"/><path class="cls-2" d="M103.3,343.8a2.79,2.79,0,0,0-.5.9,4.13,4.13,0,0,0,.5,1.1v3.7h-4v-7.9h4Z"/><path class="cls-2" d="M108.5,349.5h-.4c-.7-.9-1.3-1.7-1.8-2.3v-.3C106.9,347.6,107.7,348.5,108.5,349.5Z"/><rect class="cls-2" x="99.3" y="354.5" width="4" height="7.9"/><path class="cls-2" d="M110.3,355.7v6.7h-4v-7.9h3.1Z"/><path class="cls-2" d="M115.3,362.4h-1.9v-2.5c.6.8,1.3,1.6,1.9,2.5Z"/><path class="cls-2" d="M117.4,360.4v1.1l-2.1-2.7c-.6-.8-1.3-1.6-1.9-2.4v-1c.6.8,1.2,1.5,1.9,2.3C116,358.7,116.7,359.5,117.4,360.4Z"/><rect class="cls-2" x="99.3" y="367.4" width="4" height="7.9"/><rect class="cls-2" x="106.3" y="367.4" width="4" height="7.9"/><rect class="cls-2" x="113.4" y="367.4" width="4" height="7.9"/><rect class="cls-2" x="99.3" y="380.2" width="4" height="7.9"/><rect class="cls-2" x="106.3" y="380.2" width="4" height="7.9"/><rect class="cls-2" x="113.4" y="380.2" width="4" height="7.9"/><rect class="cls-2" x="99.3" y="393.1" width="4" height="7.9"/><rect class="cls-2" x="106.3" y="393.1" width="4" height="7.9"/><rect class="cls-2" x="113.4" y="393.1" width="4" height="7.9"/><rect class="cls-2" x="99.3" y="406" width="4" height="4.9"/><rect class="cls-2" x="106.3" y="406" width="4" height="4.9"/><rect class="cls-2" x="113.4" y="406" width="4" height="4.9"/><rect class="cls-1" x="7.2" y="295" width="39.1" height="115.9"/><rect class="cls-4" x="12.8" y="285.2" width="33.5" height="9.8"/><rect class="cls-2" x="11.5" y="300.1" width="30.5" height="110.8"/><rect class="cls-5" x="11.5" y="310.7" width="30.5" height="2.6"/><rect class="cls-5" x="11.5" y="321.5" width="30.5" height="2.6"/><rect class="cls-5" x="11.5" y="332.4" width="30.5" height="2.6"/><rect class="cls-5" x="11.5" y="343.2" width="30.5" height="2.6"/><rect class="cls-5" x="11.5" y="354.1" width="30.5" height="2.6"/><rect class="cls-5" x="11.5" y="364.9" width="30.5" height="2.6"/><rect class="cls-5" x="11.5" y="375.8" width="30.5" height="2.6"/><rect class="cls-5" x="11.5" y="386.6" width="30.5" height="2.6"/><rect class="cls-5" x="11.5" y="397.4" width="30.5" height="2.6"/><rect class="cls-5" x="11.5" y="408.3" width="30.5" height="2.6"/><rect class="cls-2" x="46.3" y="295" width="24.5" height="115.9"/><rect class="cls-3" x="46.3" y="285.2" width="20.8" height="9.8"/><rect class="cls-4" x="49.7" y="300.1" width="18.8" height="110.8"/><rect class="cls-5" x="49.7" y="310.7" width="18.8" height="2.6"/><rect class="cls-5" x="49.7" y="321.5" width="18.8" height="2.6"/><rect class="cls-5" x="49.7" y="332.4" width="18.8" height="2.6"/><rect class="cls-5" x="49.7" y="343.2" width="18.8" height="2.6"/><rect class="cls-5" x="49.7" y="354.1" width="18.8" height="2.6"/><rect class="cls-5" x="49.7" y="364.9" width="18.8" height="2.6"/><rect class="cls-5" x="49.7" y="375.8" width="18.8" height="2.6"/><rect class="cls-5" x="49.7" y="386.6" width="18.8" height="2.6"/><rect class="cls-5" x="49.7" y="397.4" width="18.8" height="2.6"/><rect class="cls-5" x="49.7" y="408.3" width="18.8" height="2.6"/><path class="cls-2" d="M145.7,396.4v.3c-.6-.7-1.4-1.7-2.3-2.8-.2-.2-.3-.4-.5-.6-1.1-1.4-2.4-3-3.8-4.7a10.59,10.59,0,0,0-1-1.2c-.8-1-1.6-1.9-2.4-3v-.1c-1.2-1.5-2.5-3.1-3.8-4.7l-1.5-1.8-4.8-6v-1.2c1.6,2,3.2,4.1,4.8,6.1.8,1,1.6,2,2.3,3q2.85,3.6,5.4,6.9c.6.7,1.1,1.4,1.6,2,1.3,1.7,2.6,3.3,3.6,4.7a.1.1,0,0,0,.1.1C144.3,394.6,145.1,395.6,145.7,396.4Z"/><path class="cls-2" d="M155.8,343v67.8H125.6V375.7c2.4,3,4.7,6,6.9,8.7,1.1,1.4,2.2,2.7,3.2,4,1.5,1.8,2.8,3.5,4,4.9,1.5,1.8,2.7,3.3,3.5,4.2a6.16,6.16,0,0,0,1.2,1.2,1.85,1.85,0,0,0,.7.2h.2a3.44,3.44,0,0,0,2.2-1.4,12.67,12.67,0,0,0,2.5-4.2,7.87,7.87,0,0,0,.4-2,13.14,13.14,0,0,0-.4-2.7c-.2-1.2-.5-2.6-.8-4.2s-.7-3.1-1.1-4.7c-.3-1.4-.7-2.8-1-4.2-.2-1-.5-2-.7-3h-.1c-.9-.9-1.8-1.8-2.8-2.7-1.2-1.1-2.5-2.1-3.8-3.1a37.12,37.12,0,0,0-3.2-2.3c-.1-.1-.1-.3.1-.3a11.68,11.68,0,0,1,5.5,2.6,4.89,4.89,0,0,1,1.3,1.2,20.11,20.11,0,0,1,2.3,2.8.35.35,0,0,1,.1.2v.1c0,.1.1.1.1.2V371c-.1-.3-.1-.6-.2-.9-.1-.5-.2-.9-.3-1.3l-.1-.1-1.8-1.8-.1-.1a80.71,80.71,0,0,0-7.3-5.8c-.1-.1-.1-.3.1-.3a6.64,6.64,0,0,1,2,.6,14.17,14.17,0,0,1,1.8.8,16.18,16.18,0,0,1,4.9,4.5l.2.2c-.2-.8-.4-1.6-.5-2.2l-.1-.1c-.8-.8-1.7-1.6-2.6-2.4-1.1-1-2.3-1.9-3.5-2.8-.8-.6-1.6-1.2-2.5-1.8-.1-.1-.1-.3.1-.3a10.88,10.88,0,0,1,2.4.7,15.81,15.81,0,0,1,5.3,4c.1.1.2.3.4.4l.4-.2.2-.1-.9-1.1-2.4-3-5.3-6.5-1.9-2.4-5.2-6Z"/><polygon class="cls-4" points="135.7 348.9 135.7 351.3 133.8 348.9 135.7 348.9"/><path class="cls-4" d="M132.7,379.7h-.8l-1.5-1.8v-1.1C131.2,377.8,132,378.7,132.7,379.7Z"/><path class="cls-4" d="M135.7,388.4v.2h-5.3v-4.2h2.1C133.6,385.8,134.7,387.1,135.7,388.4Z"/><rect class="cls-4" x="130.4" y="393.3" width="5.3" height="4.2"/><rect class="cls-4" x="130.4" y="402.2" width="5.3" height="4.2"/><rect class="cls-4" x="138.1" y="348.9" width="5.3" height="4.2"/><path class="cls-4" d="M139.9,362h-1.8v-.8A14.17,14.17,0,0,1,139.9,362Z"/><polygon class="cls-4" points="143.4 357.8 143.4 360.8 141 357.8 143.4 357.8"/><path class="cls-4" d="M143.4,361.8v.2h-1.8c-1.1-1-2.3-1.9-3.5-2.8v-1.4A15.81,15.81,0,0,1,143.4,361.8Z"/><path class="cls-4" d="M143.4,367.9v2c-1.2-1.1-2.5-2.1-3.8-3.1H142A3.6,3.6,0,0,1,143.4,367.9Z"/><path class="cls-4" d="M139.7,388.6H139a10.59,10.59,0,0,0-1-1.2v-.9A26.23,26.23,0,0,1,139.7,388.6Z"/><path class="cls-4" d="M143.2,397.5h-5.1v-4.2h1.6C141.2,395.1,142.4,396.6,143.2,397.5Z"/><path class="cls-4" d="M143.4,393.4v.5c-.2-.2-.3-.4-.5-.6h.4Z"/><rect class="cls-4" x="138.1" y="402.2" width="5.3" height="4.2"/><rect class="cls-4" x="145.7" y="348.9" width="5.3" height="4.2"/><rect class="cls-4" x="145.7" y="357.8" width="5.3" height="4.2"/><path class="cls-4" d="M145.8,370.9h-.1v-.2a.35.35,0,0,1,.1.2Z"/><path class="cls-4" d="M151,366.7v4.2h-5.1c-.1-.3-.1-.6-.2-.9v-3.3Z"/><path class="cls-4" d="M151,375.5v4.2h-3c-.3-1.4-.7-2.8-1-4.2Z"/><path class="cls-4" d="M151,384.4v4.2h-1.1c-.2-1.2-.5-2.6-.8-4.2Z"/><path class="cls-4" d="M151,393.3v4.2h-3.5a12.67,12.67,0,0,0,2.5-4.2Z"/><rect class="cls-4" x="145.7" y="402.2" width="5.3" height="4.2"/><path class="cls-3" d="M177,343v45.7l-11,.2v.1c0,1.2.1,2.4.2,3.6.1,1.5.1,2.9.2,4.2.1,1.5.2,2.9.2,4.3v1.2c.1,1.3.2,2.4.3,3.5.1.7.1,1.3.2,1.9h0v.1h0a3.53,3.53,0,0,0,.3,1.4,1.91,1.91,0,0,0,.4,1v.1c.4.3,2.6.5,6,.6H155.7V343Z"/><path class="cls-3" d="M177,408.5v.5c-2.6,0-4.7-.1-6.2-.1-.1,0-.1-.1,0-.1C172.3,408.7,174.4,408.6,177,408.5Z"/><rect class="cls-4" x="170.5" y="383.8" width="4.4" height="4.2"/><rect class="cls-4" x="170.5" y="374.9" width="4.4" height="4.2"/><rect class="cls-4" x="170.5" y="366" width="4.4" height="4.2"/><rect class="cls-4" x="170.5" y="357.1" width="4.4" height="4.2"/><rect class="cls-4" x="170.5" y="348.3" width="4.4" height="4.2"/><path class="cls-4" d="M167,405.7h-2.8v-4.2h2.4v.8C166.8,403.5,166.9,404.7,167,405.7Z"/><path class="cls-4" d="M166.3,396.9h-2.1v-4.2h2C166.2,394.2,166.3,395.6,166.3,396.9Z"/><rect class="cls-4" x="164.2" y="383.8" width="4.4" height="4.2"/><rect class="cls-4" x="164.2" y="374.9" width="4.4" height="4.2"/><rect class="cls-4" x="164.2" y="366" width="4.4" height="4.2"/><rect class="cls-4" x="164.2" y="357.1" width="4.4" height="4.2"/><rect class="cls-4" x="164.2" y="348.3" width="4.4" height="4.2"/><rect class="cls-4" x="158" y="401.5" width="4.3" height="4.2"/><rect class="cls-4" x="158" y="392.7" width="4.3" height="4.2"/><rect class="cls-4" x="158" y="383.8" width="4.3" height="4.2"/><rect class="cls-4" x="158" y="374.9" width="4.3" height="4.2"/><rect class="cls-4" x="158" y="366" width="4.3" height="4.2"/><rect class="cls-4" x="158" y="357.1" width="4.3" height="4.2"/><rect class="cls-4" x="158" y="348.3" width="4.3" height="4.2"/><rect class="cls-2" x="359.6" y="265.2" width="20.9" height="24.6"/><rect class="cls-4" x="380.5" y="265.2" width="13.2" height="25.5"/><rect class="cls-2" x="381.5" y="276.1" width="13.1" height="14.7"/><rect class="cls-4" x="394.6" y="276.1" width="8.2" height="14.7"/><rect class="cls-1" x="351.6" y="400.9" width="33.7" height="1.9"/><rect class="cls-1" x="351.6" y="390.9" width="33.7" height="1.9"/><rect class="cls-1" x="351.6" y="380.9" width="33.7" height="1.9"/><rect class="cls-1" x="351.6" y="370.9" width="33.7" height="1.9"/><rect class="cls-1" x="351.6" y="360.9" width="33.7" height="1.9"/><rect class="cls-1" x="351.6" y="350.9" width="33.7" height="1.9"/><rect class="cls-1" x="351.6" y="288.3" width="33.7" height="54.5"/><rect class="cls-5" x="355.5" y="293.5" width="10.6" height="4.3"/><rect class="cls-5" x="369.1" y="293.5" width="10.6" height="4.3"/><rect class="cls-5" x="355.5" y="300.9" width="10.6" height="4.3"/><rect class="cls-5" x="369.1" y="300.9" width="10.6" height="4.3"/><rect class="cls-5" x="355.5" y="308.3" width="10.6" height="4.3"/><rect class="cls-5" x="369.1" y="308.3" width="10.6" height="4.3"/><rect class="cls-5" x="355.5" y="315.6" width="10.6" height="4.3"/><rect class="cls-5" x="369.1" y="315.6" width="10.6" height="4.3"/><rect class="cls-5" x="355.5" y="323" width="10.6" height="4.3"/><rect class="cls-5" x="369.1" y="323" width="10.6" height="4.3"/><rect class="cls-5" x="355.5" y="330.4" width="10.6" height="4.3"/><rect class="cls-5" x="369.1" y="330.4" width="10.6" height="4.3"/><rect class="cls-5" x="355.5" y="337.7" width="10.6" height="4.3"/><rect class="cls-5" x="369.1" y="337.7" width="10.6" height="4.3"/><rect class="cls-5" x="355.5" y="352.4" width="10.6" height="0.4"/><rect class="cls-5" x="369.1" y="352.4" width="10.6" height="0.4"/><rect class="cls-5" x="355.5" y="360.9" width="10.6" height="1.9"/><rect class="cls-5" x="369.1" y="360.9" width="10.6" height="1.9"/><rect class="cls-5" x="355.5" y="370.9" width="10.6" height="0.5"/><rect class="cls-5" x="369.1" y="370.9" width="10.6" height="0.5"/><rect class="cls-5" x="355.5" y="381.9" width="10.6" height="0.9"/><rect class="cls-5" x="369.1" y="381.9" width="10.6" height="0.9"/><rect class="cls-5" x="355.5" y="390.9" width="10.6" height="1.9"/><rect class="cls-5" x="369.1" y="390.9" width="10.6" height="1.9"/><rect class="cls-4" x="385.4" y="400.9" width="27.3" height="1.9"/><rect class="cls-4" x="385.4" y="390.9" width="27.3" height="1.9"/><rect class="cls-4" x="385.4" y="380.9" width="27.3" height="1.9"/><rect class="cls-4" x="385.4" y="370.9" width="27.3" height="1.9"/><rect class="cls-4" x="385.4" y="360.9" width="27.3" height="1.9"/><rect class="cls-4" x="385.4" y="350.9" width="27.3" height="1.9"/><rect class="cls-4" x="385.4" y="288.3" width="27.3" height="54.5"/><rect class="cls-1" x="401.2" y="390.9" width="8.7" height="1.9"/><rect class="cls-1" x="390.1" y="390.9" width="8.7" height="1.9"/><rect class="cls-1" x="401.2" y="381.9" width="8.7" height="0.9"/><rect class="cls-1" x="390.1" y="381.9" width="8.7" height="0.9"/><rect class="cls-1" x="401.2" y="370.9" width="8.7" height="0.5"/><rect class="cls-1" x="390.1" y="370.9" width="8.7" height="0.5"/><rect class="cls-1" x="401.2" y="360.9" width="8.7" height="1.9"/><rect class="cls-1" x="390.1" y="360.9" width="8.7" height="1.9"/><rect class="cls-1" x="401.2" y="352.4" width="8.7" height="0.4"/><rect class="cls-1" x="390.1" y="352.4" width="8.7" height="0.4"/><rect class="cls-1" x="401.2" y="337.7" width="8.7" height="4.3"/><rect class="cls-1" x="390.1" y="337.7" width="8.7" height="4.3"/><rect class="cls-1" x="401.2" y="330.3" width="8.7" height="4.3"/><rect class="cls-1" x="390.1" y="330.3" width="8.7" height="4.3"/><rect class="cls-1" x="401.2" y="323" width="8.7" height="4.3"/><rect class="cls-1" x="390.1" y="323" width="8.7" height="4.3"/><rect class="cls-1" x="401.2" y="315.6" width="8.7" height="4.3"/><rect class="cls-1" x="390.1" y="315.6" width="8.7" height="4.3"/><rect class="cls-1" x="401.2" y="308.3" width="8.7" height="4.3"/><rect class="cls-1" x="390.1" y="308.3" width="8.7" height="4.3"/><rect class="cls-1" x="401.2" y="300.9" width="8.7" height="4.3"/><rect class="cls-1" x="390.1" y="300.9" width="8.7" height="4.3"/><rect class="cls-1" x="401.2" y="293.6" width="8.7" height="4.3"/><rect class="cls-1" x="390.1" y="293.6" width="8.7" height="4.3"/><path class="cls-4" d="M235.3,408.3c-5.4.2-19,.5-32.5.6v-.8c13.5-.1,27.1-.2,32.5-.1Q235.75,408,235.3,408.3Z"/><path class="cls-4" d="M242.6,331v79.9H226.1c1.2,0,2.3-.1,3.3-.1h2c1.2,0,2.1-.1,2.9-.1.3,0,.6-.1.8-.1a5.38,5.38,0,0,0,.8-.1.35.35,0,0,0,.2-.1c.1,0,.1-.1.2-.2s.1-.1.2-.2.1-.1.1-.2.1-.2.1-.3.1-.2.1-.3v-1.1h0a.9.9,0,0,0-.1-.5v-.2a.76.76,0,0,0-.1-.4,8.3,8.3,0,0,0-.6-2.1,9.06,9.06,0,0,0-2.4-3.6,2.89,2.89,0,0,0-1-.6c-.4-.2-.9-.5-1.4-.7h0a4.88,4.88,0,0,0-.7-.3c-.1-.1-.2-.1-.4-.2a.76.76,0,0,0-.4-.2c-.2-.1-.3-.2-.5-.2s-.6-.3-.9-.4-.7-.3-1.1-.5c-1.8-.9-3.9-1.8-6-2.8l-2.1-.9c-.1,0-.1-.1-.2-.1h0c-.5-.2-1.1-.5-1.6-.7-.3-.2-.7-.3-1-.5h-.5a57.34,57.34,0,0,0-7,1.3c-1.7.4-3.4.9-5,1.4-.2.1-.3-.1-.2-.2a11,11,0,0,1,5.2-2.8,17.74,17.74,0,0,1,5.6-.5h.3a22.88,22.88,0,0,0-2.3-1h-.2c-1.2.1-2.3.3-3.5.5q-3.15.6-6.3,1.5v-1.2a15.28,15.28,0,0,1,6.3-1.8h1.9c-.1,0-.2-.1-.3-.1-.6-.3-1.1-.5-1.6-.7h-.3c-2,.3-4,.7-6,1.1v-1.6a18.44,18.44,0,0,1,4.1-.6l-.1-.5-4,.1V331Z"/><rect class="cls-2" x="209.1" y="337.9" width="7" height="4.9"/><rect class="cls-2" x="209.1" y="348.4" width="7" height="4.9"/><rect class="cls-2" x="209.1" y="358.8" width="7" height="4.9"/><rect class="cls-2" x="209.1" y="369.3" width="7" height="4.9"/><rect class="cls-2" x="209.1" y="379.7" width="7" height="4.9"/><path class="cls-2" d="M216.1,390.2V393a57.34,57.34,0,0,0-7,1.3v-1.6a17.74,17.74,0,0,1,5.6-.5h.3a22.88,22.88,0,0,0-2.3-1h-.2c-1.2.1-2.3.3-3.5.5v-1.4h1.9c-.1,0-.2-.1-.3-.1Z"/><rect class="cls-2" x="219.2" y="337.9" width="7" height="4.9"/><rect class="cls-2" x="219.2" y="348.4" width="7" height="4.9"/><rect class="cls-2" x="219.2" y="358.8" width="7" height="4.9"/><rect class="cls-2" x="219.2" y="369.3" width="7" height="4.9"/><rect class="cls-2" x="219.2" y="379.7" width="7" height="4.9"/><path class="cls-2" d="M226.2,390.2v4.9h-4.7l-2.1-.9c-.1,0-.1-.1-.2-.1v-3.9Z"/><rect class="cls-2" x="229.3" y="337.9" width="7" height="4.9"/><rect class="cls-2" x="229.3" y="348.4" width="7" height="4.9"/><rect class="cls-2" x="229.3" y="358.8" width="7" height="4.9"/><rect class="cls-2" x="229.3" y="369.3" width="7" height="4.9"/><rect class="cls-2" x="229.3" y="379.7" width="7" height="4.9"/><rect class="cls-2" x="229.3" y="390.2" width="7" height="4.9"/><path class="cls-2" d="M236.3,400.6v4.2a9.06,9.06,0,0,0-2.4-3.6,2.89,2.89,0,0,0-1-.6Z"/><rect class="cls-2" x="216.1" y="322.7" width="26.5" height="8.3"/><rect class="cls-1" x="225.8" y="317.5" width="16.8" height="5.1"/><polygon class="cls-3" points="270.5 331 270.5 342.8 243.8 342.8 243.8 350.9 270.5 350.9 270.5 352.8 243.8 352.8 243.8 360.9 270.5 360.9 270.5 362.8 243.8 362.8 243.8 370.9 270.5 370.9 270.5 372.8 243.8 372.8 243.8 380.9 270.5 380.9 270.5 382.8 243.8 382.8 243.8 390.9 270.5 390.9 270.5 392.8 243.8 392.8 243.8 400.9 270.5 400.9 270.5 402.8 243.8 402.8 243.8 410.9 242.6 410.9 242.6 331 270.5 331"/><rect class="cls-4" x="262" y="400.9" width="5.7" height="1.9"/><rect class="cls-4" x="262" y="390.9" width="5.7" height="1.9"/><rect class="cls-4" x="262" y="380.9" width="5.7" height="1.9"/><rect class="cls-4" x="262" y="370.9" width="5.7" height="1.9"/><rect class="cls-4" x="262" y="360.9" width="5.7" height="1.9"/><rect class="cls-4" x="262" y="350.9" width="5.7" height="1.6"/><rect class="cls-4" x="262" y="337.1" width="5.7" height="4.9"/><rect class="cls-4" x="253.7" y="400.9" width="5.7" height="1.9"/><rect class="cls-4" x="253.7" y="390.9" width="5.7" height="1.9"/><rect class="cls-4" x="253.7" y="380.9" width="5.7" height="1.9"/><rect class="cls-4" x="253.7" y="370.9" width="5.7" height="1.9"/><rect class="cls-4" x="253.7" y="360.9" width="5.7" height="1.9"/><rect class="cls-4" x="253.7" y="350.9" width="5.7" height="1.6"/><rect class="cls-4" x="253.7" y="337.1" width="5.7" height="4.9"/><rect class="cls-4" x="245.5" y="400.9" width="5.7" height="1.9"/><rect class="cls-4" x="245.5" y="390.9" width="5.7" height="1.9"/><rect class="cls-4" x="245.5" y="380.9" width="5.7" height="1.9"/><rect class="cls-4" x="245.5" y="370.9" width="5.7" height="1.9"/><rect class="cls-4" x="245.5" y="360.9" width="5.7" height="1.9"/><rect class="cls-4" x="245.5" y="350.9" width="5.7" height="1.6"/><rect class="cls-4" x="245.5" y="337.1" width="5.7" height="4.9"/><rect class="cls-4" x="242.6" y="322.7" width="23.7" height="8.3"/><rect class="cls-2" x="242.6" y="317.5" width="12.8" height="5.1"/><polygon class="cls-6" points="420 417.2 367.5 417.5 315 417.6 210 417.7 105 417.6 52.5 417.5 0 417.2 52.5 417 105 416.9 210 416.7 315 416.9 367.5 417 420 417.2"/><path class="cls-4" d="M420,410.9V417H0v-6.1H177.9c4.4.1,9.8.2,15.6.2v0H213c1.5,0,2.9,0,4.3-.1H420Z"/><path class="cls-6" d="M29.4,410.9a9.12,9.12,0,0,1,0,6.1,10.47,10.47,0,0,1-.5-3A10.59,10.59,0,0,1,29.4,410.9Z"/><path class="cls-6" d="M62.3,410.9a9.12,9.12,0,0,1,0,6.1A9.12,9.12,0,0,1,62.3,410.9Z"/><path class="cls-6" d="M95.1,410.9a9.12,9.12,0,0,1,0,6.1,10.47,10.47,0,0,1-.5-3A8.08,8.08,0,0,1,95.1,410.9Z"/><path class="cls-6" d="M128,410.9a9.12,9.12,0,0,1,0,6.1A9.12,9.12,0,0,1,128,410.9Z"/><path class="cls-6" d="M160.7,410.9a9.12,9.12,0,0,1,0,6.1,10.47,10.47,0,0,1-.5-3A10.59,10.59,0,0,1,160.7,410.9Z"/><path class="cls-6" d="M193.7,416.7a.37.37,0,0,1-.1.3c0-.1-.1-.2-.1-.3a8.93,8.93,0,0,1,0-5.6h0v0h0A7.76,7.76,0,0,1,193.7,416.7Z"/><path class="cls-6" d="M226.4,410.9a9.12,9.12,0,0,1,0,6.1,10.47,10.47,0,0,1-.5-3A8.08,8.08,0,0,1,226.4,410.9Z"/><path class="cls-6" d="M259.2,410.9a9.12,9.12,0,0,1,0,6.1A9.12,9.12,0,0,1,259.2,410.9Z"/><path class="cls-6" d="M292,410.9a9.12,9.12,0,0,1,0,6.1,10.47,10.47,0,0,1-.5-3A10.59,10.59,0,0,1,292,410.9Z"/><path class="cls-6" d="M324.9,410.9a9.12,9.12,0,0,1,0,6.1A9.12,9.12,0,0,1,324.9,410.9Z"/><path class="cls-6" d="M357.7,410.9a9.12,9.12,0,0,1,0,6.1,10.47,10.47,0,0,1-.5-3A8.08,8.08,0,0,1,357.7,410.9Z"/><path class="cls-6" d="M390.5,410.9a9.12,9.12,0,0,1,0,6.1A9.12,9.12,0,0,1,390.5,410.9Z"/><path class="cls-7" d="M346,26.6l-1.9.6"/><path class="cls-8" d="M339.4,29.1c-42.6,18.1-47.3,72-92.6,79.5"/><path class="cls-7" d="M244.3,108.9c-.6.1-1.3.1-2,.2"/><polygon class="cls-6" points="358.8 24 358.7 24 346 26.6 358 20.5 358.8 24"/><path class="cls-9" d="M115.3,357.8v1c-.6-.8-1.3-1.6-1.9-2.4-1.1-1.4-2.2-2.8-3.1-4s-1.6-2-2.2-2.9-1.3-1.7-1.8-2.3a6.07,6.07,0,0,1-.7-1s0-.1.1,0a4.35,4.35,0,0,1,.6.7c.6.7,1.4,1.6,2.2,2.6.6.7,1.2,1.4,1.8,2.2,1,1.2,2,2.5,3.1,3.8C114,356.2,114.7,357,115.3,357.8Z"/><path class="cls-9" d="M115.3,121.2v49.3c-.3,1.4-.5,2.8-.8,4v.1c0,.1-.1.3-.1.4a.6.6,0,0,1-.1.4c-.8,4.3-1.3,7.2-1,7.4a6.73,6.73,0,0,0,1-.1c.3,0,.6-.1,1-.1v150l-1.9,1.6v-.1c-1.1.9-2.1,1.8-3.1,2.7-1.5,1.4-2.9,2.6-4,3.6a38.23,38.23,0,0,0-3,3.1,2.79,2.79,0,0,0-.5.9,4.13,4.13,0,0,0,.5,1.1q.9,1.5,3,4.5c.9,1.3,1.9,2.7,3.1,4.2l.9,1.2c1,1.3,2,2.7,3.1,4.1.6.8,1.2,1.7,1.9,2.5v48.4H102.4V177.3h10.2V143.8a14,14,0,0,0-10.2-13.2v-9.4Z"/><path class="cls-10" d="M122.3,121.2v17.7c-1.4,5-2.4,9.2-2.9,11.8-1.2,5.6-2.4,11.3-3.4,16.2-.1.7-.3,1.3-.4,2a5.16,5.16,0,0,0-.2,1.1,4.33,4.33,0,0,1-.1.5V121.2Z"/><path class="cls-10" d="M122.3,371.5v39.3h-7V362.4h0l2.1,2.7c1.1,1.5,2.3,3,3.5,4.5C121.4,370.2,121.8,370.8,122.3,371.5Z"/><path class="cls-10" d="M122.3,366.5v1.2c-.5-.6-.9-1.2-1.4-1.8-1.2-1.5-2.4-3-3.5-4.4l-2.1-2.7v-1c.7.8,1.4,1.7,2.1,2.6,1.1,1.4,2.3,2.9,3.5,4.4C121.4,365.4,121.8,366,122.3,366.5Z"/><path class="cls-10" d="M122.3,181.9V334.7l-1.4-1.7-2.4-2.9h0l-.3.2c-.3.2-.5.5-.8.7l-2.1,1.8v-150a7.72,7.72,0,0,0,1.5-.2.9.9,0,0,0,.5-.1C118.7,182.3,120.4,182.2,122.3,181.9Z"/><rect class="cls-6" x="101.2" y="117.6" width="14.1" height="3.6"/><rect class="cls-9" x="115.3" y="117.6" width="8.2" height="3.6"/><rect class="cls-9" x="104.1" y="114.4" width="11.2" height="3.2"/><rect class="cls-10" x="115.3" y="114.4" width="5.6" height="3.2"/><path class="cls-9" d="M119.8,107.1a7.3,7.3,0,1,1-7.3-7.3h0A7.28,7.28,0,0,1,119.8,107.1Z"/><path class="cls-9" d="M59.9,177.3l-3.4,2.8a86.53,86.53,0,0,1-21.1,13,38.29,38.29,0,0,1-13.3,3.4H18.6c-2.5-.1-4.2-.7-5.1-1.9-.1-.1-.1-.2-.2-.3-1.6-2.6,1-7.4,9.5-13.9l3.7-3.1Z"/><path class="cls-9" d="M59.9,177.3l-3.4,2.8a86.53,86.53,0,0,1-21.1,13,38.29,38.29,0,0,1-13.3,3.4H18.6c-2.4-.1-4.2-.8-5.1-1.9-.1-.1-.1-.2-.2-.3-1.7-2.6.8-7.4,9.4-13.9l3.7-3.1Z"/><path class="cls-10" d="M57.4,177.3,54,180.1a88.89,88.89,0,0,1-20.1,12.6,46.27,46.27,0,0,1-11.6,3.6c-1,.1-1.9.2-2.8.2h-1c-2.4-.1-4.2-.8-5.1-1.9-.1-.1-.1-.2-.2-.3-1.7-2.6.8-7.4,9.4-13.9l3.7-3.1Z"/><polygon class="cls-10" points="107.4 191.1 107.4 199.6 102.4 193.3 89.7 177.3 96.4 177.3 102.4 184.8 107.4 191.1"/><polygon class="cls-9" points="107.4 199.6 104.9 199.6 102.4 196.5 87.2 177.3 89.7 177.3 102.4 193.3 107.4 199.6"/><path class="cls-1" d="M58.2,147v19.6l-3.5-1.5-.9-.4-.5-.2-2.9-1.2-1-.4-.3-.1-.8-.4-.9-.4-.3-.1-.4-.1-.3-.1-7-3,1-2.4.3-.6.3-.7.3-.7,1.3-3.1.5-1.3.2-.5.2-.4.7-1.8,1.1-2.5,4-9.6,5.2,2.2a13,13,0,0,1,3.2,6A15.68,15.68,0,0,1,58.2,147Z"/><path class="cls-2" d="M58.2,152.1v2.2l-.1-.2V154l-.1-.2c0-.1-.1-.1-.1-.2l-1.2-2.5c0-.1-.1-.2-.1-.3l-.9-1.8-.2-.4c-.2-.4-.4-.9-.6-1.3l-.1-.1-1.6-3.3c-.4-.9-.8-1.7-1.2-2.6-.9-2-1.9-4.1-2.8-6.1,1.1,1.9,2.1,3.9,3.1,5.8.5,1,1,1.9,1.5,2.8l1.6,3,.2.4.7,1.3.8,1.6a.31.31,0,0,1,.1.2Z"/><path class="cls-2" d="M58.2,153.9h0l-.1.1-.3.1c-1.3.4-2.5.7-3.8,1.1l-.4.1-.9.2h-.1l-1.1.3-2.1.5c-1.5.3-3,.6-4.6.9h-.2l-.9.1c-1.3.2-2.6.4-3.9.5a33.74,33.74,0,0,1,3.4-1l1-.3.3-.1c1.6-.4,3.1-.8,4.7-1.1l1.4-.3a5,5,0,0,1,1.2-.2,9.92,9.92,0,0,0,1.5-.3l.6-.1.3-.1c1.2-.2,2.3-.4,3.5-.5H58Z"/><rect class="cls-5" x="32.3" y="149" width="25.9" height="25.6"/><path class="cls-2" d="M58.2,160.8V162l-.2.2-.4.4c-.1,0-.1.1-.2.1l-.1.1-.1.1h0l-.1.1-2.4,2.1-1.4,1.2-.7.7-.2-.2-1.9-1.7-1-.8-.6-.5-.1-.1-.7-.6L48,163l-.1-.1h-.1l-.2-.1a12.67,12.67,0,0,0-1.3-1.1l-2.6-2.3-.5-.5-.8-.7-.7-.6h0l-.3-.3-.4-.4a4.35,4.35,0,0,0-.7-.6c-.8-.7-1.5-1.3-2.2-2l-.3-.3a1.38,1.38,0,0,0-.4-.3c-1.6-1.5-3.3-3-4.9-4.6,1.7,1.3,3.4,2.7,5.1,4.1l.4.3.4.4,2.2,1.8.6.5,1,.9.4.3.1.1,1.4,1.1.6.5,3.6,3,.3.2.4.4.1.1c.1,0,.1.1.2.2h0l.3.3.6.5,2.4,2,1.1-1,3.1-2.6.4-.4.8-.8Z"/><path class="cls-2" d="M48.3,162.6h0l-.6.5a37.62,37.62,0,0,1-3.1,2.5c-1.3,1-2.6,1.9-3.9,2.9s-2.6,1.8-4,2.7-2.7,1.7-4.2,2.5a35.73,35.73,0,0,1,3.8-3c1.3-.9,2.6-1.9,3.9-2.9s2.7-1.8,4-2.7c1.1-.7,2.2-1.4,3.3-2l.8-.5Z"/><path class="cls-2" d="M58.2,163.5v.4l-.9-.7-.2-.2h0l-.4-.3h.1l.4.2.1.1c.1.1.2.1.3.2Z"/><path class="cls-11" d="M145.7,396.4v.3c-.6-.7-1.4-1.7-2.3-2.8-.2-.2-.3-.4-.5-.6-1.1-1.4-2.4-3-3.8-4.7a10.59,10.59,0,0,0-1-1.2c-.8-1-1.6-1.9-2.4-3v-.1c-1.2-1.5-2.5-3.1-3.8-4.7l-1.5-1.8-4.8-6c-1.1-1.4-2.2-2.8-3.3-4.1-.5-.6-.9-1.2-1.4-1.8-1.2-1.5-2.4-3-3.5-4.4l-2.1-2.7c-.6-.8-1.3-1.6-1.9-2.4-1.1-1.4-2.2-2.8-3.1-4s-1.6-2-2.2-2.9-1.3-1.7-1.8-2.3a6.07,6.07,0,0,1-.7-1s0-.1.1,0a4.35,4.35,0,0,1,.6.7c.6.7,1.4,1.6,2.2,2.6.6.7,1.2,1.4,1.8,2.2,1,1.2,2,2.5,3.1,3.8.6.8,1.2,1.5,1.9,2.3s1.4,1.7,2.1,2.6c1.1,1.4,2.3,2.9,3.5,4.4.5.6.9,1.2,1.4,1.8,1.1,1.4,2.2,2.8,3.3,4.1,1.6,2,3.2,4.1,4.8,6.1.8,1,1.6,2,2.3,3q2.85,3.6,5.4,6.9c.6.7,1.1,1.4,1.6,2,1.3,1.7,2.6,3.3,3.6,4.7a.1.1,0,0,0,.1.1C144.3,394.6,145.1,395.6,145.7,396.4Z"/><path class="cls-11" d="M144.4,364.6l-.1-.1c-.8-.8-1.7-1.6-2.6-2.4-1.1-1-2.3-1.9-3.5-2.8-.8-.6-1.6-1.2-2.5-1.8-.1-.1-.1-.3.1-.3a10.88,10.88,0,0,1,2.4.7,15.81,15.81,0,0,1,5.3,4c.1.1.2.3.4.4l.4-.2-.3.3h0C143.8,362.5,144,363.3,144.4,364.6Z"/><path class="cls-11" d="M145.4,368.7l-.1-.1-1.8-1.8-.1-.1a80.71,80.71,0,0,0-7.3-5.8c-.1-.1-.1-.3.1-.3a6.64,6.64,0,0,1,2,.6,14.17,14.17,0,0,1,1.8.8,16.18,16.18,0,0,1,4.9,4.5l.2.2A4.65,4.65,0,0,0,145.4,368.7Z"/><path class="cls-11" d="M146.3,372.5h-.1c-.9-.9-1.8-1.8-2.8-2.7-1.2-1.1-2.5-2.1-3.8-3.1a37.12,37.12,0,0,0-3.2-2.3c-.1-.1-.1-.3.1-.3a11.68,11.68,0,0,1,5.5,2.6,4.89,4.89,0,0,1,1.3,1.2,20.11,20.11,0,0,1,2.3,2.8.35.35,0,0,1,.1.2v.1c0,.1.1.1.1.2A3,3,0,0,1,146.3,372.5Z"/><polygon class="cls-11" points="175.2 335.1 166.1 343 162.8 345.9 161.9 346.6 161.9 346.6 160 348.3 158.2 349.8 158 350 157.4 350.5 157.2 350.7 156.8 351 156.7 351.1 155.8 351.9 153.1 354.2 152.8 354.5 150.4 356.6 149 357.8 146.4 360 145.7 360.7 144.3 361.9 143.4 360.8 141 357.8 135.7 351.3 133.8 348.9 129 343 122.3 334.7 120.9 333 118.5 330 118.9 329.7 120.9 328 122.3 326.8 122.3 326.8 146.9 306 147.1 305.8 147.6 305.3 149.9 303.4 150.7 304.3 151.2 305.1 153.7 308.2 153.7 308.2 155.3 310.1 155.3 310.1 175.2 335.1"/><path class="cls-1" d="M145.7,396.4v.3c-.6-.7-1.4-1.7-2.3-2.8-.2-.2-.3-.4-.5-.6-1.1-1.4-2.4-3-3.8-4.7a10.59,10.59,0,0,0-1-1.2c-.8-1-1.6-1.9-2.4-3v-.1c-1.2-1.5-2.5-3.1-3.8-4.7l-1.5-1.8-4.8-6c-1.1-1.4-2.2-2.8-3.3-4.1-.5-.6-.9-1.2-1.4-1.8-1.2-1.5-2.4-3-3.5-4.4l-2.1-2.7c-.6-.8-1.3-1.6-1.9-2.4-1.1-1.4-2.2-2.8-3.1-4s-1.6-2-2.2-2.9-1.3-1.7-1.8-2.3a6.07,6.07,0,0,1-.7-1s0-.1.1,0a4.35,4.35,0,0,1,.6.7c.6.7,1.4,1.6,2.2,2.6.6.7,1.2,1.4,1.8,2.2,1,1.2,2,2.5,3.1,3.8.6.8,1.2,1.5,1.9,2.3s1.4,1.7,2.1,2.6c1.1,1.4,2.3,2.9,3.5,4.4.5.6.9,1.2,1.4,1.8,1.1,1.4,2.2,2.8,3.3,4.1,1.6,2,3.2,4.1,4.8,6.1.8,1,1.6,2,2.3,3q2.85,3.6,5.4,6.9c.6.7,1.1,1.4,1.6,2,1.3,1.7,2.6,3.3,3.6,4.7a.1.1,0,0,0,.1.1C144.3,394.6,145.1,395.6,145.7,396.4Z"/><path class="cls-1" d="M150.5,356.8l-1.2,1-2.8,2.3-.8.6-1.4,1.2-.1.1-.4.3h0a15.35,15.35,0,0,0,.6,2.2l-.1-.1c-.8-.8-1.7-1.6-2.6-2.4-1.1-1-2.3-1.9-3.5-2.8-.8-.6-1.6-1.2-2.5-1.8-.1-.1-.1-.3.1-.3a10.88,10.88,0,0,1,2.4.7,15.81,15.81,0,0,1,5.3,4c.1.1.2.3.4.4l.4-.2.2-.1-.9-1.1-2.4-3-5.3-6.5-1.9-2.4-5-5.9-6.7-8.3-1.4-1.7-2.4-2.9.4-.3,2-1.7h0l1.4-1.2,2.4-2,14.7,18.2,6.3,7.8,1.8,2.2,2.8,3.5Z"/><path class="cls-1" d="M145.4,368.7l-.1-.1-1.8-1.8-.1-.1a80.71,80.71,0,0,0-7.3-5.8c-.1-.1-.1-.3.1-.3a6.64,6.64,0,0,1,2,.6,14.17,14.17,0,0,1,1.8.8,16.18,16.18,0,0,1,4.9,4.5l.2.2A4.65,4.65,0,0,0,145.4,368.7Z"/><path class="cls-1" d="M146.3,372.5h-.1c-.9-.9-1.8-1.8-2.8-2.7-1.2-1.1-2.5-2.1-3.8-3.1a37.12,37.12,0,0,0-3.2-2.3c-.1-.1-.1-.3.1-.3a11.68,11.68,0,0,1,5.5,2.6,4.89,4.89,0,0,1,1.3,1.2,20.11,20.11,0,0,1,2.3,2.8.35.35,0,0,1,.1.2v.1c0,.1.1.1.1.2A3,3,0,0,1,146.3,372.5Z"/><path class="cls-6" d="M145.7,396.4v.3c-.6-.7-1.4-1.7-2.3-2.8-.2-.2-.3-.4-.5-.6-1.1-1.4-2.4-3-3.8-4.7a10.59,10.59,0,0,0-1-1.2c-.8-1-1.6-1.9-2.4-3v-.1c-1.2-1.5-2.5-3.1-3.8-4.7l-1.5-1.8-4.8-6c-1.1-1.4-2.2-2.8-3.3-4.1-.5-.6-.9-1.2-1.4-1.8-1.2-1.5-2.4-3-3.5-4.4l-2.1-2.7c-.6-.8-1.3-1.6-1.9-2.4-1.1-1.4-2.2-2.8-3.1-4s-1.6-2-2.2-2.9-1.3-1.7-1.8-2.3a6.07,6.07,0,0,1-.7-1s0-.1.1,0a4.35,4.35,0,0,1,.6.7c.6.7,1.4,1.6,2.2,2.6.6.7,1.2,1.4,1.8,2.2,1,1.2,2,2.5,3.1,3.8.6.8,1.2,1.5,1.9,2.3s1.4,1.7,2.1,2.6c1.1,1.4,2.3,2.9,3.5,4.4.5.6.9,1.2,1.4,1.8,1.1,1.4,2.2,2.8,3.3,4.1,1.6,2,3.2,4.1,4.8,6.1.8,1,1.6,2,2.3,3q2.85,3.6,5.4,6.9c.6.7,1.1,1.4,1.6,2,1.3,1.7,2.6,3.3,3.6,4.7a.1.1,0,0,0,.1.1C144.3,394.6,145.1,395.6,145.7,396.4Z"/><path class="cls-6" d="M145.7,365.2v.2c-.1.1-.3.2-.4.1l-.9-.9-.1-.1c-.8-.8-1.7-1.6-2.6-2.4-1.1-1-2.3-1.9-3.5-2.8-.8-.6-1.6-1.2-2.5-1.8-.1-.1-.1-.3.1-.3a10.88,10.88,0,0,1,2.4.7,15.81,15.81,0,0,1,5.3,4c.1.1.2.3.4.4h0A28.23,28.23,0,0,1,145.7,365.2Z"/><path class="cls-6" d="M146.1,369a.3.3,0,0,1-.4,0l-.3-.3-.1-.1-1.8-1.8-.1-.1a80.71,80.71,0,0,0-7.3-5.8c-.1-.1-.1-.3.1-.3a6.64,6.64,0,0,1,2,.6,14.17,14.17,0,0,1,1.8.8,16.18,16.18,0,0,1,4.9,4.5l.2.2c.3.4.5.8.8,1.2.1.2.3.5.4.7C146.2,368.8,146.1,368.9,146.1,369Z"/><path class="cls-6" d="M146.6,372.2v.2a.37.37,0,0,1-.3.1h-.1c-.9-.9-1.8-1.8-2.8-2.7-1.2-1.1-2.5-2.1-3.8-3.1a37.12,37.12,0,0,0-3.2-2.3c-.1-.1-.1-.3.1-.3a11.68,11.68,0,0,1,5.5,2.6,4.89,4.89,0,0,1,1.3,1.2,20.11,20.11,0,0,1,2.3,2.8.35.35,0,0,1,.1.2v.1c0,.1.1.1.1.2A2.54,2.54,0,0,1,146.6,372.2Z"/><path class="cls-9" d="M177.1,170.2c-1.7.2-3.9.4-6,.5a22.82,22.82,0,0,1-3.7,0,4.87,4.87,0,0,1-1.2-.1.75.75,0,0,1-.5-.1c-.2,0-.3-.1-.5-.1a8.56,8.56,0,0,1-2.4-1.1,22.48,22.48,0,0,1-4-3.7H160a16.14,16.14,0,0,0,4.3,3.5h0c.3.1.7.2,1.1.3a4.33,4.33,0,0,0,.5.1c.4.1.9.1,1.4.2,1.1.1,2.4.1,3.8.1,2,0,4.1-.1,5.8-.1C177,169.9,177.1,170,177.1,170.2Z"/><path class="cls-9" d="M192.2,319c-6.2,8.5-12.8,16.8-19,24-1.6,1.9-3.1,3.7-4.6,5.4a12.67,12.67,0,0,0-1.1,1.3c-.8,1-1.7,1.9-2.5,2.8-.3.4-.6.7-.9,1.1a4.62,4.62,0,0,1-.7.7l-2.5,2.8c-.6.7-1.2,1.4-1.8,2l-.2.2-.1.1-.4.4-.5.5c-.8.9-1.5,1.7-2.2,2.4-2.2,2.4-3.5,3.7-3.5,3.7l-4.1-4.5-1.7-1.9-.1-.1-.7-.8L140,353l-2-2.2-7-7.8-8.7-9.5-1.4-1.5-2-2.2-.2-.2,2.2-2.2,1.4-1.4c5-5.2,14.5-15.1,23.5-25.2,0-.1.1-.1.2-.2s.1-.2.2-.2c1.5-1.7,2.9-3.3,4.3-5,.3-.3.6-.7.9-1,8-9.4,14.5-18.2,15.3-22.3,1.5-8.6-16.2-65.9-24.6-92.3h0c1.5-.2,2.9-.4,4.4-.5a1.27,1.27,0,0,0,.6-.1c4.4-.5,8.7-1.1,12.8-1.6.3,0,.6-.1.9-.1,2-.3,4-.5,5.8-.8.3,0,.5-.1.8-.1h.1c1.1-.1,2.2-.3,3.3-.4,3.8-.5,6.8-.9,8.3-1.2,9,23.1,31.6,81.5,34.4,98.8C215,283.9,204.7,301.7,192.2,319Z"/><path class="cls-6" d="M155.8,357.4c-4.5-5.3-3.1-3.8-7.6-9.1-2.2-2.6-16.8-19.5-19.3-21.5a.1.1,0,0,0-.1.1c1.7,2.7,16.6,19.4,18.8,21.9,4.6,5.2,3.4,3.6,8.1,8.8C155.8,357.6,156,357.5,155.8,357.4Z"/><path class="cls-6" d="M173,275.8a27,27,0,0,1-3.6,6.7c-1.5,2.2-3,4.4-4.6,6.6-1.3,1.8-5.9,7.2-11.4,13.5a3.92,3.92,0,0,0-.8,1c-.4.5-.9,1-1.3,1.5-.9,1.1-1.9,2.1-2.8,3.2-.2.2-.4.5-.6.7l-.3.3c-6.8,7.7-13.4,15-15.3,16.8-.1.1-.2,0-.1-.1.4-.4,7.5-8.7,15.1-17.7l.3-.3a1.79,1.79,0,0,0,.5-.7c.8-1,1.7-2,2.5-3,.6-.6,1.1-1.3,1.7-1.9a7,7,0,0,0,.8-1c6.2-7.3,11.6-13.9,12.8-15.6,1.5-2.2,3.1-4.4,4.5-6.7a12.71,12.71,0,0,0,2-7.8,61.15,61.15,0,0,0-1.8-8.5c-.6-2.8-1.3-5.5-2-8.3-.8-3.1-1.5-6.2-2.3-9.2-.7-2.5-1.3-5.1-2-7.6-3-11.1-6.2-22.1-9.6-33.1-2.6-8.5-5.5-17-8.4-25.5a1.27,1.27,0,0,0,.6-.1c3.7,9.9,6.9,19.9,10.1,29.9,3.3,10.8,6.4,21.6,9.3,32.6.1.3.2.7.3,1,1.5,5.7,3,11.4,4.3,17.1.7,2.8,1.4,5.6,2,8.4A13.81,13.81,0,0,1,173,275.8Z"/><path class="cls-6" d="M167.3,176.4v.4l-.2,16.7-.1,5.6v.8l-.4,31.4v3.5h0l-.1,6.7v3.8l-.3,19.6c-3.1-18.2-16.9-62.8-24.1-85.3,1.5-.2,2.9-.4,4.4-.5a1.27,1.27,0,0,0,.6-.1c4.4-.5,8.7-1.1,12.8-1.6.3,0,.6-.1.9-.1,2-.3,4-.5,5.8-.8a2,2,0,0,0,.7-.1Z"/><path class="cls-6" d="M167.4,169.8v1a4.87,4.87,0,0,1-1.2-.1.75.75,0,0,1-.5-.1c-.2,0-.3-.1-.5-.1a8.56,8.56,0,0,1-2.4-1.1,22.48,22.48,0,0,1-4-3.7.1.1,0,0,1-.1-.1H160l.1.1H160a16.14,16.14,0,0,0,4.3,3.5h0c.3.1.7.2,1.1.3a4.33,4.33,0,0,0,.5.1C166.4,169.7,166.9,169.7,167.4,169.8Z"/><path class="cls-11" d="M235.3,408.3c-5.4.2-19,.5-32.5.6-9.6.1-19.2.2-25.8.1-2.6,0-4.7-.1-6.2-.1-.1,0-.1-.1,0-.1,1.5-.1,3.6-.2,6.2-.3,6.6-.2,16.2-.4,25.8-.5,13.5-.1,27.1-.2,32.5-.1C235.6,408,235.6,408.1,235.3,408.3Z"/><path class="cls-11" d="M206.8,388l-4,.1-25.8.6-11,.2v-.2l-.2-.8-1-4.2-.3-1.5-2.8-12.1-1-4.2-1.1-4.7-.5-2.2-.5-2-.4-1.5v-.1l-1.1-4.8-.2-.9H177l20.5-.2,5.3,22.1,1.9,8,.1.3.4,1.5,1.6,6.6Z"/><path class="cls-11" d="M209,389.5h-.2c-2,.3-4,.7-6,1.1-1.6.4-3.2.8-4.8,1.3-.2.1-.3-.1-.2-.2a11.61,11.61,0,0,1,5-2.7,18.44,18.44,0,0,1,4.1-.6v.1A13.44,13.44,0,0,0,209,389.5Z"/><path class="cls-11" d="M212.8,391.2h-.2c-1.2.1-2.3.3-3.5.5q-3.15.6-6.3,1.5a12.09,12.09,0,0,1-1.8.5c-.2.1-.3-.1-.2-.2a9.51,9.51,0,0,1,2-1.5,15.28,15.28,0,0,1,6.3-1.8h1.8A8.48,8.48,0,0,0,212.8,391.2Z"/><path class="cls-11" d="M216.6,392.9h-.5a57.34,57.34,0,0,0-7,1.3c-1.7.4-3.4.9-5,1.4-.2.1-.3-.1-.2-.2a11,11,0,0,1,5.2-2.8,17.74,17.74,0,0,1,5.6-.5h.3a4.67,4.67,0,0,1,1,.5A3.33,3.33,0,0,1,216.6,392.9Z"/><path class="cls-1" d="M166.7,402.2a2.49,2.49,0,0,0-.1-.8v0C166.6,401.8,166.7,402,166.7,402.2Z"/><path class="cls-1" d="M235.3,408.3c-5.4.2-19,.5-32.5.6-9.6.1-19.2.2-25.8.1-2.6,0-4.7-.1-6.2-.1-.1,0-.1-.1,0-.1,1.5-.1,3.6-.2,6.2-.3,6.6-.2,16.2-.4,25.8-.5,13.5-.1,27.1-.2,32.5-.1C235.6,408,235.6,408.1,235.3,408.3Z"/><path class="cls-1" d="M207.2,411.1H193.5c-6.5,0-12.6-.1-17.2-.3-.9,0-1.7-.1-2.5-.1H175c.9,0,1.8.1,2.8.1,4.4.1,9.8.2,15.6.2v0C198.1,411.2,202.7,411.2,207.2,411.1Z"/><path class="cls-1" d="M209,389.5h-.2c-2,.3-4,.7-6,1.1-1.6.4-3.2.8-4.8,1.3-.2.1-.3-.1-.2-.2a11.61,11.61,0,0,1,5-2.7,18.44,18.44,0,0,1,4.1-.6l-.1-.5-4,.1-25.8.6-11,.2v-.2l-.2-.8-1-4.2-.3-1.5h0L177,382l25.8-.6,2.4-.1h0l1.6,6.7h0v.2l.1.3v.1A12.29,12.29,0,0,1,209,389.5Z"/><path class="cls-1" d="M217.6,393.3c-.3-.2-.7-.3-1-.5h-.5a57.34,57.34,0,0,0-7,1.3c-1.7.4-3.4.9-5,1.4-.2.1-.3-.1-.2-.2a11,11,0,0,1,5.2-2.8,17.74,17.74,0,0,1,5.6-.5h.3a22.88,22.88,0,0,0-2.3-1h-.2c-1.2.1-2.3.3-3.5.5q-3.15.6-6.3,1.5a12.09,12.09,0,0,1-1.8.5c-.2.1-.3-.1-.2-.2a9.51,9.51,0,0,1,2-1.5A15.28,15.28,0,0,1,209,390h1.9c.6.3,1.2.5,1.9.9s1.5.7,2.3,1h0c.3.1.7.3,1,.4s.3.2.5.2h0A2.16,2.16,0,0,0,217.6,393.3Z"/><path class="cls-1" d="M219.4,394.2c-.1,0-.1-.1-.2-.1h0C219.3,394.1,219.3,394.1,219.4,394.2Z"/><path class="cls-6" d="M235.3,408.3c-5.4.2-19,.5-32.5.6-9.6.1-19.2.2-25.8.1-2.6,0-4.7-.1-6.2-.1-.1,0-.1-.1,0-.1,1.5-.1,3.6-.2,6.2-.3,6.6-.2,16.2-.4,25.8-.5,13.5-.1,27.1-.2,32.5-.1C235.6,408,235.6,408.1,235.3,408.3Z"/><path class="cls-6" d="M210.7,389a.27.27,0,0,1-.3.3c-.5.1-.9.1-1.4.2h-.3c-2,.3-4,.7-6,1.1-1.6.4-3.2.8-4.8,1.3-.2.1-.3-.1-.2-.2a11.61,11.61,0,0,1,5-2.7,18.44,18.44,0,0,1,4.1-.6h.1a18.7,18.7,0,0,1,3.4.3C210.5,388.8,210.6,389,210.7,389Z"/><path class="cls-6" d="M213.7,390.8a.27.27,0,0,1-.3.3c-.2,0-.4.1-.6.1h-.2c-1.2.1-2.3.3-3.5.5q-3.15.6-6.3,1.5a12.09,12.09,0,0,1-1.8.5c-.2.1-.3-.1-.2-.2a9.51,9.51,0,0,1,2-1.5,15.28,15.28,0,0,1,6.3-1.8H211a10.07,10.07,0,0,1,2.5.3A1.44,1.44,0,0,1,213.7,390.8Z"/><path class="cls-6" d="M216.8,392.6c0,.2-.1.2-.2.3h-.5a57.34,57.34,0,0,0-7,1.3c-1.7.4-3.4.9-5,1.4-.2.1-.3-.1-.2-.2a11,11,0,0,1,5.2-2.8,17.74,17.74,0,0,1,5.6-.5h.3c.3,0,.7.1,1,.1a.6.6,0,0,1,.4.1C216.6,392.4,216.7,392.6,216.8,392.6Z"/><path class="cls-9" d="M171.2,169.9a2.2,2.2,0,0,1-.1.8,22.82,22.82,0,0,1-3.7,0,4.87,4.87,0,0,1-1.2-.1.75.75,0,0,1-.5-.1c-.2,0-.3-.1-.5-.1a8.56,8.56,0,0,1-2.4-1.1,22.48,22.48,0,0,1-4-3.7.1.1,0,0,1-.1-.1H160l.1.1H160a16.14,16.14,0,0,0,4.3,3.5h0c.3.1.7.2,1.1.3a4.33,4.33,0,0,0,.5.1c.4.1.9.1,1.4.2C168.6,169.8,169.9,169.9,171.2,169.9Z"/><path class="cls-9" d="M208.4,388h-1.6l-4,.1-25.8.6-11,.2h-1.7s-.8-3.8-2-10.1c-.2-1.2-.5-2.6-.8-4s-.6-3.1-.9-4.7c-.3-1.4-.5-2.8-.8-4.2s-.6-3.1-.9-4.7l-.3-1.5c-.2-.8-.3-1.5-.5-2.3-.4-2.1-.9-4.2-1.3-6.5-.3-1.4-.6-2.9-.9-4.3s-.5-2.5-.8-3.8c-.4-1.8-.7-3.5-1.1-5.3,0-.2-.1-.5-.1-.7-2-9.6-4-19.3-5.9-28a3.55,3.55,0,0,1-.2-1c-.2-.7-.3-1.5-.5-2.2-.4-1.8-.8-3.6-1.2-5.3-.1-.3-.1-.6-.2-.9-1.2-5.2-2.2-9.7-3.1-13.3-3.6-14.3-13.7-47.1-20.3-68.4-3.5-11.4-6.1-19.5-6.1-19.5a28.75,28.75,0,0,1-.9-4,56.24,56.24,0,0,1-1-11.6c.3,0,.6-.1,1-.1a7.72,7.72,0,0,0,1.5-.2.9.9,0,0,0,.5-.1c1.4-.1,3-.3,4.9-.5,5.3-.6,12.3-1.5,19.7-2.3h0c1.5-.2,2.9-.4,4.4-.5a1.27,1.27,0,0,0,.6-.1c4.4-.5,8.7-1.1,12.8-1.6.3,0,.6-.1.9-.1,2-.3,4-.5,5.8-.8.3,0,.5-.1.8-.1h.1c1.1-.1,2.2-.3,3.3-.4-.9,8.7-2.1,19.9-2.9,22.6a3.93,3.93,0,0,0-.2.6c-.1.1-.3.2-.5.4-.7.5-2,1.5-3.3,2.4-.1.1-.3.2-.4.3-1.2.9-2.5,1.8-3.5,2.5-.1.1-.2.2-.3.2a7.3,7.3,0,0,0-1.3.9c-.1,0-.1.1-.2.1s3.9,11.2,8.7,25.3c.4,1.2.9,2.5,1.3,3.8a.35.35,0,0,0,.1.2c5.5,16.4,11.8,35.4,14.5,44.8,2.1,7.4,4.9,18.8,8,31.6v.1c.6,2.3,1.1,4.7,1.7,7.1,3.7,15.4,7.6,31.8,10.6,44.8,1.5,6.2,2.7,11.6,3.7,15.7v.2C207.7,384.9,208.4,388,208.4,388Z"/><path class="cls-6" d="M206.6,379.5c-6.9.1-5,0-11.9.2-3.4.1-25.7.8-28.9,1.4-.1,0-.1.1,0,.1,3.2.4,25.5-.7,28.9-.8,6.9-.3,4.9-.3,11.9-.7.1,0,.1,0,.1-.1A.1.1,0,0,0,206.6,379.5Z"/><path class="cls-6" d="M169.4,197.6a99.34,99.34,0,0,0-12,8.4c-.1.1,0,.4.2.2,4.1-2.7,8.2-5.3,12.1-8.2a.3.3,0,0,0,0-.4S169.5,197.5,169.4,197.6Z"/><path class="cls-6" d="M166.2,170.7a.75.75,0,0,1-.5-.1,4.25,4.25,0,0,0-.2-1.1,4.33,4.33,0,0,0,.5.1A4.25,4.25,0,0,1,166.2,170.7Z"/><path class="cls-6" d="M168.1,186.8a29.94,29.94,0,0,1-1,6.7c-.5,1.9-1.3,3.6-2.5,4.2a2.39,2.39,0,0,1-.9.2h-.1c-3.4,0-2.6-5.1-2.7-8.5-.2-4-.6-8-1.1-12,.3,0,.6-.1.9-.1.4,2.1.6,4.1.8,6.2a73.22,73.22,0,0,1,.4,8.1,17,17,0,0,0,.2,3.9c.3,1,.7,1.6,1.4,1.6,4.1.2,3.7-12.7,3.5-15-.2-1.9-.3-3.7-.5-5.6.3,0,.5-.1.8-.1a.76.76,0,0,0,.1.4C167.8,180.1,168,183.4,168.1,186.8Z"/><path class="cls-6" d="M163.7,197.3a23.58,23.58,0,0,0-.4,2.8,8.1,8.1,0,0,0,0,2.2c0,.1.2.1.3,0a5.85,5.85,0,0,0,.5-2.2,23.81,23.81,0,0,1,.5-2.6.46.46,0,0,0-.5-.4A.3.3,0,0,0,163.7,197.3Z"/><path class="cls-6" d="M158.4,356.3c-.1-1-.3-2-.5-3-.3-2-.7-3.9-1-5.8-.7-3.9-1.5-7.8-2.2-11.7-1.6-7.8-3.4-15.5-5.2-23.2-1-4.4-2.3-8.7-3.5-12.9-.1-.3-.5-.1-.4.1.8,3.9,1.6,7.9,2.5,11.8l2.7,11.7c1.7,7.7,3.3,15.5,5.1,23.2.5,2.2.9,4.4,1.4,6.6.2,1.1.5,2.2.8,3.3s.6,2.1.8,3.2c0,.1.2,0,.2,0A8.17,8.17,0,0,1,158.4,356.3Z"/><path class="cls-6" d="M187.4,297c-1.6-7.3-3.8-14.5-6-21.6-4.3-14.4-9.4-28.6-14.4-42.7l-4.4-12.2c-.7-2-4.3-13-4.8-14.1l-.1-.1-.1.1c1,3.8,2.5,9.2,3.7,12.9s2.5,7.3,3.7,11c2.4,7.2,4.9,14.3,7.2,21.5,4.7,14.2,9.3,28.4,13.1,42.9,1.1,4,2.2,8.1,3.1,12.2s1.9,8.2,2.8,12.2c0,.1.2.1.2,0A165.09,165.09,0,0,0,187.4,297Z"/><path class="cls-6" d="M167.9,377.7c0,.1-.2.1-.2,0-.2-.9-.3-1.9-.5-2.8s-.3-1.8-.4-2.7a14.16,14.16,0,0,0-.4-2c-.3-1.4-.5-2.8-.8-4.2-.3-1.6-.6-3.1-.9-4.7l-.6-3c-.2-1.3-.5-2.7-.8-4-.3-1.5-.6-3-.9-4.6-.1-.5-.2-.9-.3-1.3v-.1c-.1-.6-.2-1.1-.3-1.7h0c-.2-1.2-.5-2.4-.7-3.6-.9-4.4-1.7-8.8-2.6-13.1-1.5-7.2-3.1-14.5-4.9-21.7h0c-.4-1.5-.8-3.1-1.1-4.6-.1-.4-.2-.8-.3-1.1l-1.8-7.2c-.6-2.4-1.2-4.7-1.9-7.1-3.7-13.9-7.8-27.6-12.2-41.2-2.2-6.8-4.5-13.7-6.9-20.5s-4.8-13.3-7.2-19.9c-2.7-7.6-5.2-15.8-5.5-24a.9.9,0,0,0,.5-.1,59.37,59.37,0,0,0,1.7,11.2c.9,3.5,2,7.1,3.2,10.5,1,2.9,2.1,5.8,3.2,8.7,5.1,13.4,9.8,26.8,14.1,40.4s8.3,27.2,11.7,40.9c0,.1,0,.2.1.2.6,2.3,1.2,4.7,1.8,7l.3,1.2,1.8,7.5h0c2,8.6,3.9,17.2,5.6,25.8.5,2.4.9,4.7,1.3,7.1a29.31,29.31,0,0,1,.5,2.9c.2,1.3.5,2.6.7,3.9s.4,2.6.7,3.9.4,2.3.6,3.5c.2,1.4.5,2.8.7,4.2.3,1.6.5,3.1.8,4.7.2,1.4.4,2.8.7,4.2.2,1.6.5,3.1.7,4.7A21.58,21.58,0,0,1,167.9,377.7Z"/><path class="cls-11" d="M156.1,108.4h0a8.36,8.36,0,0,1-4.2-.6,10.44,10.44,0,0,1-.2-4.6,4.68,4.68,0,0,1,1.4-2.8c1.1-1,2.7-1.1,4.5.2h.1v.8C157.7,103.2,159.4,107.6,156.1,108.4Z"/><path class="cls-11" d="M157.6,111.9a8.43,8.43,0,0,1-4.7-.6,3.09,3.09,0,0,1-.2-.8,9.91,9.91,0,0,0,4.5.7c.4-.1.7-.2,1-.3,2.5-1.3,1.8-5.3,1-8.2a3.09,3.09,0,0,1-.2-.8l.3.3h0a17.23,17.23,0,0,1,.7,2.1,15.53,15.53,0,0,1,.4,3.7,3.57,3.57,0,0,1-1.7,3.3A2.38,2.38,0,0,1,157.6,111.9Z"/><path class="cls-11" d="M197.7,135.4h0c0,.1-.1.1-.1.2s-.3.1-.7.2c-1,.3-2.8.8-5,1.4l.3.6c.5,1.1.9,2.3,1.4,3.5a8.4,8.4,0,0,1-.4-1.2V140h.1a11.39,11.39,0,0,1,.9,1.9c-.1.1-.2.2-.3.2h0c-.6.4-1.3.9-1.9,1.3s-1.1.7-1.6,1c-.7.4-1.3.9-2,1.3-.5.3-1,.6-1.4.9l-2-4.8h0l-.7-1.6-.4-.9a3.55,3.55,0,0,1-1,.2,22.5,22.5,0,0,1-2.2.5,3.55,3.55,0,0,0,.4.9c.9,2.3,1.9,4.8,3,7.3-.8.4-1.6.8-2.3,1.1l-3.2-7.9h0l-.3-.8c-2,.5-3.3.8-3.5.8a3.39,3.39,0,0,1-2.9-1.5h0l-.8-.8c-1.2-1.3-13.5-17.1-14.1-18-.3-.6,0-.5.3-.2a9.81,9.81,0,0,1,1.6,1.9c.1.2.3.3.4.5,3.3,4.1,9.7,12.1,12,14.8-1.9-6.5-3.8-13.1-5.8-19l16.8,19.5c1.3-.3,2.7-.7,4.1-1L178,123.4a14.56,14.56,0,0,0,1.6-.9c2.8,4.5,5.8,9.6,8.8,14.5l2.4-.6-9.1-15.3c1.4-1,3-2.2,4.7-3.5,3.2,5.4,6.8,11.6,10.4,17.5a.37.37,0,0,0,.3-.1h0a3.22,3.22,0,0,0,.6-.2v.1C197.7,135,197.8,135.3,197.7,135.4Z"/><path class="cls-11" d="M209.7,130.8h0c-.2.1-.4.3-.6.4H209c-1.1.8-2.3,1.6-3.7,2.6l-.1.1c-.5.4-1,.7-1.5,1.1-.7.5-1.3,1-2,1.5s-1.1.8-1.7,1.2c-.1.1-.1.1-.2.1l-.8.5-1.2-2.6c.1,0,.2-.1.3-.1l-1.2-1.8c-1.1-1.8-8-12.2-9.9-15.9-.1-.1,0-.2.1-.1,2.6,3.2,9.3,13.8,10.4,15.6l1.2,2c.6-.2,1.3-.5,1.9-.7h0c.9-.5,1.8-.9,2.7-1.3a4.07,4.07,0,0,1,.6-1.1c.1-.1.1-.2.2-.2l-5.1-7.5h0L191.8,114l-.3-.4c1.2-.9,2.4-1.8,3.5-2.6h0c.1-.1.3-.2.4-.3,1.2-.8,3.3-.1,5.6,1.5a19.23,19.23,0,0,1,1.7,1.3c3.7,3.1,7.5,7.9,8.5,11.8,0,.2.1.3.1.5h0C211.8,127.9,211.4,129.7,209.7,130.8Z"/><path class="cls-11" d="M203.4,103.2c3.6-1.4,7.5-3.2,11.5-3.2s7.4,5.2,7.5,6.7-1.2,11-5.2,11.1-1.8-7.2-1.9-8-.3-1.9-1.1-1.8-13.8,6.7-13.8,6.7Z"/><path class="cls-11" d="M203.7,103.8c.2,0,10.8-4.5,14.8-4.5s7.4,5.2,7.5,6.7-1.2,11-5.2,11-1.8-7.2-1.9-8-.4-1.9-1.1-1.8-13.7,6.6-13.7,6.6Z"/><path class="cls-6" d="M219.4,116.6a4.81,4.81,0,0,1-.7-2.4,7,7,0,0,1,.1-2.5,17,17,0,0,0,.4-2.2,3.94,3.94,0,0,0-.6-2.1c-.3-.5-.9-.3-1.4-.2a13.55,13.55,0,0,0-2.1,1c-.8.4-1.5.8-2.2,1.2a17.1,17.1,0,0,0-2.3,1.3.1.1,0,0,0,.1.1,12.44,12.44,0,0,0,2-1l2.3-1.1c.7-.3,1.4-.7,2.1-1,.2-.1.8-.4,1-.3a1.91,1.91,0,0,1,.5,1,3.33,3.33,0,0,1-.1,2.2,17,17,0,0,0-.4,2.2,7.49,7.49,0,0,0,.2,2.1,6.19,6.19,0,0,0,1.1,1.7Z"/><path class="cls-11" d="M230.9,111v-.3h0a1.26,1.26,0,0,0-1.7-1l-.9.3a3,3,0,0,0-.8.4h0c-.3.2-.5.4-.8.6a5,5,0,0,0-.8.7l-.7.7h0l-.6.6-.8.8h0a8.62,8.62,0,0,1-2.7,2c-.3.1-.5.2-.8.3s-.3.1-.5.1h-.9a4.83,4.83,0,0,1-3.2-1.7,10.63,10.63,0,0,1-.9-1.1h0a6.09,6.09,0,0,1-1.2-3.3v-.6h0v-.4a2.35,2.35,0,0,1,.2-.8,8.67,8.67,0,0,1,1.7-3.3c.1-.2.3-.3.4-.5s.3-.3.5-.5l.3-.3a1.38,1.38,0,0,1,.4-.3c.1-.1.3-.2.4-.3s.2-.2.3-.2c.3-.2.7-.5,1-.7a.52.52,0,0,1,.4-.2c.7-.4,1.5-.8,2.3-1.2.1,0,.2-.1.3-.2,12.8-6,11.6-11.5,9-11.1s-22,8.8-26.5,12.9c-1.4,1.3-6,5.6-9.3,8.8h0c-1.4,1.3-2.5,2.4-3.2,3l7.2,10.6h0l5.5,7,.8,1,.1.1s1.1-.5,2.7-1.2c.5-.2,1.1-.5,1.7-.8h0c3-1.4,6.8-3.1,8.6-3.8a22,22,0,0,0,5.5-3.4l.1-.1c.3-.3.6-.5.9-.8a6,6,0,0,0,.8-.8,6,6,0,0,1,.8-.8c.4-.5.8-.9,1.2-1.4.1-.2.3-.3.4-.5h0v-.1c0-.1.1-.1.1-.2h0c0-.1.1-.2.1-.3h0c0-.1.1-.2.2-.3v-.1c0-.1.1-.2.1-.3a.1.1,0,0,1,.1-.1c.1-.2.2-.3.2-.5s.3-.6.4-.9l.3-.6v-.1c0-.1,0-.1.1-.2v-.2c0-.1.1-.2.1-.3V115c0-.1.1-.2.1-.3v-.1a1.42,1.42,0,0,0,.2-.6v-.1c0-.1.1-.2.1-.3h0c.1-.2.1-.4.2-.6s.1-.5.2-.8a2,2,0,0,0,.1-.7v-.1c.2-.1.2-.2.2-.4Zm-3.5,6.3-3.2-1v.1l3.1,1c-.1.1-.2.2-.3.2l-3-.9h-.1l3,.9c-.1.1-.2.2-.3.2l-2.9-.9,2.8.9c-.1.1-.2.1-.3.2l-2.7-.8,2.7.8a.76.76,0,0,1-.4.2l-2.5-.8h-.1l2.6.8c-.2.1-.5.3-.7.4l-2.9-.9-1-.3,1.7-.6h0l1-1.3,4,1.2A.79.79,0,0,1,227.4,117.3Z"/><path class="cls-6" d="M224.4,113.3c-1.4,1.1-2.9,2.6-4.8,2.7s-3.2-1.1-4.1-2.6a7.05,7.05,0,0,1-1.1-5.1,7.93,7.93,0,0,1,2.5-4.2,21.46,21.46,0,0,1,5-3.5c.1,0,0-.2-.1-.1-1.7.8-7,3.1-7.9,7.8a6.9,6.9,0,0,0,1.2,5.2c.9,1.5,2.1,2.9,3.9,3,2.2.1,4-1.7,5.6-3.1C224.6,113.3,224.5,113.3,224.4,113.3Z"/><path class="cls-1" d="M195.8,145.3l.6-.3-.6.3h0l-1.8-3.1h0l-.1-.1-.1-.1h0l-2.4-4-.4-.6-.3-.5-.2-.3-9.1-15.3-.7-1.2c.8-.5,1.5-1,2.4-1.6.4-.2.7-.5,1.1-.7s.7-.4,1-.6c.1-.1.3-.2.4-.3.2.3.3.6.5.9,3.2,5.4,6.8,11.6,10.4,17.5h0a2.19,2.19,0,0,0,.3.5c-1,.3-2.8.8-5,1.4l.3.6c.5,1.1.9,2.3,1.4,3.5a8.4,8.4,0,0,1-.4-1.2V140h.1a11.39,11.39,0,0,1,.9,1.9A17.93,17.93,0,0,1,195.8,145.3Z"/><path class="cls-1" d="M201,142.6l-.1.1-.5-1Z"/><path class="cls-1" d="M193.6,146.3c-.6.3-1.1.5-1.7.8l-1.6-2.6-3.1-5.2-.5-.8h0l-.2-.4h0l-.2-.4-8.4-14.2-.7-1.2.2-.1,1.3-.9h0a14.8,14.8,0,0,1,.8,1.3c2.8,4.5,5.8,9.6,8.8,14.5a.52.52,0,0,1,.2.4h0a1.38,1.38,0,0,0,.3.4,2.51,2.51,0,0,1,.4.7c.9,1.6,1.9,3.2,2.8,4.7C192.5,144.4,193.1,145.4,193.6,146.3Z"/><path class="cls-6" d="M156.1,108.4h0a8.36,8.36,0,0,1-4.2-.6c-.6-.2-1.2-.5-1.9-.8a.1.1,0,0,1-.1-.1,27.34,27.34,0,0,1-.5-5v-1.4l.1.2,2.1,2.4Z"/><path class="cls-6" d="M158.7,111.4a3.7,3.7,0,0,1-1.1.5,8.43,8.43,0,0,1-4.7-.6c-.4-.1-.7-.3-1.1-.4s-.6-.3-.9-.4h-.1a1.88,1.88,0,0,1-.2-.8c0-.1,0-.2-.1-.2h.1l1.2.6a3.55,3.55,0,0,0,.9.4,9.91,9.91,0,0,0,4.5.7c.4-.1.7-.2,1-.3Z"/><path class="cls-6" d="M184.7,150a24.13,24.13,0,0,1-2.5.8l-.6-1.4-3.2-7.9h0l-.3-.8c-2,.5-3.3.8-3.5.8a3.39,3.39,0,0,1-2.9-1.5h0l-.8-.8c-1.2-1.3-13.5-17.1-14.1-18-.3-.6,0-.5.3-.2a9.81,9.81,0,0,1,1.6,1.9c.1.2.3.3.4.5,3.3,4.1,9.7,12.1,12,14.8-1.9-6.5-3.8-13.1-5.8-19l16.8,19.5.4.4.3.4a22.5,22.5,0,0,1-2.2.5,3.55,3.55,0,0,0,.4.9c.9,2.3,1.9,4.8,3,7.3C184.2,148.8,184.5,149.4,184.7,150Z"/><path class="cls-6" d="M190.1,147.8c-.8.3-1.6.7-2.3,1l-.9-2.2-2-4.8,3.4,4Z"/><path class="cls-6" d="M200.6,139.1c-.3-.4-.5-.8-.8-1.2a17.1,17.1,0,0,0-1.1-1.4,2.18,2.18,0,0,1-.5-.8l-1.2-1.8c-1.1-1.8-8-12.2-9.9-15.9-.1-.1,0-.2.1-.1,2.6,3.2,9.3,13.8,10.4,15.6l1.2,2,.4.7c.3.5.6,1,.9,1.6a8.34,8.34,0,0,0,.8,1.2C200.8,139.1,200.7,139.2,200.6,139.1Z"/><path class="cls-1" d="M114.4,175.1a.6.6,0,0,1-.1.4h0A.6.6,0,0,1,114.4,175.1Z"/><path class="cls-1" d="M116,166.9c-.1.7-.3,1.3-.4,2a14.16,14.16,0,0,0,.4-2Z"/><path class="cls-1" d="M164.4,169.2c-.5.1-1,.1-1.5.2a22.48,22.48,0,0,1-4-3.7.1.1,0,0,1-.1-.1h0c-1-1.1-1.9-2.4-2.9-3.7l.8-.1h.2c.8,1.1,1.6,2.1,2.3,3l.1.1.7.7h0l.1.1H160A16.41,16.41,0,0,0,164.4,169.2Z"/><path class="cls-1" d="M154.8,158.8h-.3c-.2,0-.5.1-.7.1-.5-.8-1-1.6-1.5-2.3l.6-.1h.3C153.8,157.3,154.3,158,154.8,158.8Z"/><path class="cls-11" d="M159.2,164.8c-.8-.9-1.7-1.9-2.5-3q-1-1.35-2.1-3c-.5-.8-1-1.5-1.5-2.3a149.39,149.39,0,0,1-14-30.3c1.2,3.1,2.4,6.3,3.8,9.4,1,2.5,2.1,4.9,3.2,7.3a149.29,149.29,0,0,0,7.4,13.6c.5.8,1,1.6,1.5,2.3.7,1,1.3,2,2,3S158.5,163.9,159.2,164.8Z"/><path class="cls-11" d="M191,165.1c-.9.2-1.7.5-2.6.7l-6.1-15v-.1l-.6-1.4-3.2-7.9c.8-.1,1.6-.3,2.6-.5.9,2.3,1.9,4.8,3,7.3.2.6.5,1.1.7,1.7v.1C186.8,155,188.9,160.2,191,165.1Z"/><path class="cls-11" d="M201.5,160.3c-.3-.9-.8-1.6-1.1-2.5.5,1.3,1,2.6,1.6,3.8-2.5.9-5.2,1.8-7.9,2.6l-6.2-15.3v-.1l-.9-2.2-2-4.8h0l-.7-1.6c1-.2,2-.5,3-.8.6-.2,1.3-.4,1.9-.6.8-.2,1.5-.5,2.3-.7.2-.1.5-.1.7-.2.5,1.1.9,2.3,1.4,3.5a8.4,8.4,0,0,1-.4-1.2V140h.1a11.39,11.39,0,0,1,.9,1.9c.5,1,1,2.2,1.6,3.4l.6-.3-.6.3c2.1,4.7,4.4,10.6,5,11.9.4.9.8,1.9,1.2,2.9.2.5.3.9.5,1.4-.1,0-.2.1-.3.1A5.39,5.39,0,0,1,201.5,160.3Z"/><path class="cls-11" d="M220.8,153.2a2.19,2.19,0,0,1-.5.3,65.77,65.77,0,0,1-12.1,5.8l-7.3-16.7a2.51,2.51,0,0,0-.7.4c.2-.1.5-.3.7-.4l-.5-1h0l-1.4-3.2-1.2-2.6c.1,0,.2-.1.3-.1s.4-.1.6-.2c.6-.2,1.3-.5,1.9-.7.8-.3,1.7-.7,2.6-1a1.42,1.42,0,0,1,.6-.2,2.33,2.33,0,0,1,1.4.1.35.35,0,0,1,.2.1,13.47,13.47,0,0,1,2.1,1.3h0C213.5,139.5,223.1,151.5,220.8,153.2Z"/><path class="cls-11" d="M244.9,126.3a52.31,52.31,0,0,1-8.6,14.1c-3.1,3.7-13.2,11.5-16,13.1a2.19,2.19,0,0,0-.5.3c-4.2,1.6-11.1-6.9-15.3-13.1-1.1-1.6-2.1-3.1-2.8-4.2-.6-.9-1-1.6-1.1-1.7h0c.9-.5,1.8-.9,2.7-1.3.4-.2.9-.4,1.3-.6l.6-.3c.9-.4,1.9-.7,2.8-1.1.4-.1.7-.3,1.1-.4h.1a61.29,61.29,0,0,1,18.1-3,12.75,12.75,0,0,0,1.9-.1c3.3-.4,6.9-2.1,10.6-8.5q1.2-1.95,2.1-3.6h0c3.9-6.6,5.3-8.5,6.1-8.1.1.1.3.2.4.4a8.93,8.93,0,0,1,.5,1.3C249.7,112.2,248.2,118.2,244.9,126.3Z"/><polygon class="cls-9" points="237.1 96.4 236.9 95.9 237.6 95.7 237.6 95.8 237 96 237.2 96.4 237.1 96.4"/><path class="cls-9" d="M237.8,94.6h0a.22.22,0,0,1,.2-.2v.1C238,94.6,237.9,94.6,237.8,94.6Z"/><path class="cls-9" d="M238.3,94.6c0,.1-.1.1-.2.1v-.1c0-.1.1-.1.2,0Z"/><path class="cls-9" d="M238.7,94.7a.35.35,0,0,1-.2.1c-.1,0-.1,0,0-.1s.1-.1.2-.1S238.8,94.7,238.7,94.7Z"/><path class="cls-9" d="M239,94.9c-.1,0-.2,0-.2-.1a.14.14,0,0,1,.2,0Z"/><path class="cls-9" d="M239.3,94.9c0,.1-.1.1-.2.1v-.1a.35.35,0,0,1,.2-.1Z"/><path class="cls-9" d="M239.9,95.1Z"/><path class="cls-9" d="M239.8,95.3l.1-.1a.1.1,0,0,1,.1.1h-.2Z"/><path class="cls-9" d="M240.1,95.2a.1.1,0,0,1,.1.1l-.1-.1Z"/><path class="cls-9" d="M240.1,95h.1l.1.2Z"/><path class="cls-9" d="M242.6,98.2c.1.1,0,.1,0,0Z"/><path class="cls-9" d="M242.7,97.4a.35.35,0,0,1,.2.1v.1h-.1c0-.1-.1-.1-.1-.2a.31.31,0,0,1-.2.1.35.35,0,0,0-.2.1.19.19,0,0,0,0,.3l.1.1h.3a.1.1,0,0,1-.1.1h-.3c-.4-.1-.4-.2-.3-.5A.62.62,0,0,1,242.7,97.4Z"/><path class="cls-9" d="M243.1,97.7l-.2.2.3.1.2-.2h.1v.1l-.4.6H243v-.1l.2-.2-.3-.1-.3.1.4-.6h.1Z"/><path class="cls-9" d="M244,97.8h0l-.1.7a.1.1,0,0,1-.1.1v-.2l-.3-.1-.1.1h-.1v-.1Z"/><path class="cls-9" d="M244.1,98.7l.4-.5h-.2v-.1h.1l.5.1v.1h-.1l-.5.3-.1.1Z"/><path class="cls-9" d="M249.5,100.3h0C249.6,100.3,249.5,100.4,249.5,100.3Z"/><path class="cls-9" d="M249.8,100h0c-.1.1-.2,0,0,0C249.7,100,249.8,99.9,249.8,100Z"/><path class="cls-9" d="M249.9,99.8h0c0-.1.1-.1,0,0C250,99.8,249.9,99.9,249.9,99.8Z"/><polygon class="cls-9" points="251 98.4 250.8 98.7 250 98.5 250.2 98.2 251 98.4"/><polygon class="cls-9" points="250.9 98.7 250.8 98.7 251 98.5 251.1 98.5 250.9 98.7"/><polygon class="cls-9" points="242.6 103.6 235.5 101.4 235.5 101.3 242.7 103.5 242.6 103.6"/><polygon class="cls-9" points="244.7 102.3 236.7 99.8 244.7 102.2 244.7 102.3"/><polygon class="cls-9" points="244.8 103.5 236 100.8 236 100.7 244.9 103.4 244.8 103.5"/><polygon class="cls-9" points="245.4 104.1 235.7 101.1 235.8 101 245.4 104 245.4 104.1"/><polygon class="cls-9" points="245.8 103.4 236.2 100.5 236.2 100.4 245.9 103.4 245.8 103.4"/><polygon class="cls-9" points="246.1 103.1 236.4 100.2 236.5 100.1 246.1 103.1"/><path class="cls-9" d="M233.8,103.7h0l6.6,2.1h.1Zm.4-.6,7.9,2.5v-.1Zm-.2.3h0l8.7,2.7Zm.5-.6h0l9.5,3,.1-.1Zm0,0h0l9.5,3,.1-.1Zm-.6.6,8.8,2.7-8.8-2.7Zm.3-.3,7.9,2.5v-.1Zm-.5.7,6.7,2h.1l-6.8-2Zm20.1-6.1-.8-.2-13.3-4.1a2.23,2.23,0,0,0-1.8.4,1.7,1.7,0,0,1,.7.1l2.5.8c.1,0,.2.2,0,.4l-.1.1c-.3.4-.1.5.3.6l5.9,1.8a.65.65,0,0,0,.9-.2l.1-.1a.37.37,0,0,1,.5-.2l2.5.8h.1c.5.2.8.5.4,1.2v.1c-.1.1-.2.3-.3.4l-1.4,1.8L235.3,97l-9.8,13h0l-4.1,5.5h0l-.2.2-.3.4-.6.8-2.5,3.3a.85.85,0,0,0-.3.5,1.21,1.21,0,0,0,.3,1,.76.76,0,0,0,.5.2l.7.2,4.9,1.5,6.2,1.9,2.4.7a2.49,2.49,0,0,0,2.4-.9l7-9.2h0l5.7-7.5h0l.4-.6,6.4-8.5a.37.37,0,0,0,.2-.5A1.15,1.15,0,0,0,253.8,97.7Zm-31.6,20.2-1-.3,1.7-.6h0l1-1.3,4,1.2a1,1,0,0,0-.5.4l-3.2-1v.1l3.1,1c-.1.1-.2.2-.3.2l-3-.9h-.1l3,.9c-.1.1-.2.2-.3.2l-2.9-.9,2.8.9c-.1.1-.2.1-.3.2l-2.7-.8,2.7.8a.76.76,0,0,1-.4.2l-2.5-.8h-.1l2.6.8c-.2.1-.5.3-.7.4Zm12.9-17.1,1.3-1.7,10.9,3.4-1.9,2.5-10.9-3.3-1-.3Zm-1.7,2.3.8-1,10.9,3.3-1.5,1.9L232.9,104h-.1l-1-.3Zm10.7,2.6-9.6-2.9h-.1l9.7,2.9ZM234,103.4h0l8.7,2.7Zm8.1,2.1-7.9-2.4,7.9,2.4Zm-1.6.3-6.7-2.1-.1.1,6.8,2Z"/><path class="cls-6" d="M253.2,97.6a.35.35,0,0,0-.2-.1.76.76,0,0,0-.5-.2l-14.1-4.4a2.3,2.3,0,0,0-2.4.9l-10.2,13.5-5,6.7-1.5,2-.1.1h0l-.1.1-.1.1h0l-.1.2-.8,1-1.6,2.2a1,1,0,0,0-.1,1.4.55.55,0,0,0,.5.3l.8.2,1.2.4h0l4.8,1.5,6.2,1.9,1,.3a2.3,2.3,0,0,0,2.4-.9L253.1,99A1,1,0,0,0,253.2,97.6Zm-1.5,1.7c-.1.2-.2.3-.3.5l-18.2,24a2.1,2.1,0,0,1-2.2.8h-.1l-6.1-1.9-4.4-1.4-2.1-.6a1,1,0,0,1-.6-.5,1.13,1.13,0,0,1,.2-1.1l1.1-1.5.6-.8.3-.4.3-.4.1-.2,5.2-7h0l9.1-12.1,1.4-1.8c.7-.9,1.2-1.2,1.7-1.2a1.7,1.7,0,0,1,.7.1l2.5.8c.1,0,.2.2,0,.4l-.1.1c-.3.4-.1.5.3.6l5.9,1.8a.65.65,0,0,0,.9-.2l.1-.1a.37.37,0,0,1,.5-.2l2.5.8h.1c.7.3,1,.6.6,1.5C251.8,99.2,251.7,99.2,251.7,99.3Z"/><path class="cls-5" d="M245.5,96.5l-1.6-.5v-.1h0c0-.1.1-.1.2-.1l1.6.5v.1h0A.31.31,0,0,1,245.5,96.5Z"/><polygon class="cls-5" points="237.1 96.4 236.9 95.9 237.6 95.7 237.6 95.8 237 96 237.2 96.4 237.1 96.4"/><path class="cls-5" d="M237.8,94.6h0a.22.22,0,0,1,.2-.2v.1C238,94.6,237.9,94.6,237.8,94.6Z"/><path class="cls-5" d="M238.1,94.7v-.1c0-.1.1-.1.2-.1v.1C238.3,94.7,238.2,94.7,238.1,94.7Z"/><path class="cls-5" d="M238.5,94.8h0c0-.2.1-.2.2-.2s.1.1,0,.1A.35.35,0,0,1,238.5,94.8Z"/><path class="cls-5" d="M238.8,94.8a.14.14,0,0,1,.2,0v.1C238.9,94.9,238.8,94.9,238.8,94.8Z"/><path class="cls-5" d="M239.1,95h0a.22.22,0,0,1,.2-.2v.1C239.3,95,239.2,95,239.1,95Z"/><path class="cls-5" d="M239.9,95.1Z"/><path class="cls-5" d="M239.8,95.3h0l.1-.1a.1.1,0,0,1,.1.1Z"/><path class="cls-5" d="M240.1,95.3h0c0-.1.1,0,.1,0Z"/><path class="cls-5" d="M240.1,95h.1l.1.2Z"/><path class="cls-5" d="M242.6,98.2c.1.1,0,.1,0,0Z"/><path class="cls-5" d="M242,97.6a.62.62,0,0,1,.7-.2.35.35,0,0,1,.2.1v.1h-.1a.1.1,0,0,0-.1-.1h-.2a.35.35,0,0,0-.2.1.19.19,0,0,0,0,.3l.1.1h.3a.1.1,0,0,1-.1.1h-.3C241.9,98,241.9,97.9,242,97.6Z"/><path class="cls-5" d="M242.6,98.2l.4-.6h.1v.1l-.2.2.3.1.2-.2h.1v.1l-.4.6H243v-.1l.2-.2-.3-.1Z"/><path class="cls-5" d="M243.3,98.3l.7-.5h.1l-.2.7a.1.1,0,0,1-.1.1v-.2l-.3-.1-.1.1h-.1v-.1Z"/><path class="cls-5" d="M244.5,98.2h-.2v-.1h.1l.5.1v.1h-.1l-.5.3-.1.1h-.1Z"/><path class="cls-5" d="M249.5,100.3h0C249.6,100.3,249.5,100.4,249.5,100.3Z"/><path class="cls-5" d="M249.7,100.1h0c0-.1.1-.2,0,0Z"/><path class="cls-5" d="M249.9,99.8h0c0-.1.1-.1,0,0C250,99.8,249.9,99.9,249.9,99.8Z"/><polygon class="cls-5" points="250.8 98.7 250 98.5 250.2 98.2 251 98.4 250.8 98.7"/><polygon class="cls-5" points="250.9 98.7 250.8 98.7 251 98.5 251.1 98.5 250.9 98.7"/><polygon class="cls-5" points="235.5 101.3 242.7 103.5 242.6 103.6 235.5 101.4 235.5 101.3"/><polygon class="cls-5" points="244.7 102.3 236.7 99.8 244.7 102.2 244.7 102.3"/><polygon class="cls-5" points="244.8 103.5 236 100.8 236 100.7 244.9 103.4 244.8 103.5"/><polygon class="cls-5" points="235.8 101 245.4 104 245.4 104.1 235.7 101.1 235.8 101"/><polygon class="cls-5" points="236.2 100.4 245.9 103.4 245.8 103.4 236.2 100.5 236.2 100.4"/><polygon class="cls-5" points="236.4 100.2 236.5 100.1 246.1 103.1 236.4 100.2"/><path class="cls-5" d="M233.8,103.7h0l6.6,2.1h.1Zm.4-.6,7.9,2.5v-.1Zm-.2.3h0l8.7,2.7Zm.5-.6h0l9.5,3,.1-.1Zm0,0h0l9.5,3,.1-.1Zm-.6.6,8.8,2.7-8.8-2.7Zm.3-.3,7.9,2.5v-.1Zm-.5.7,6.7,2h.1l-6.8-2Zm16.3-2.3L235.3,97l-.5-.1L225.7,109h0l-5.2,7-.1.2-.3.4-.3.4-.6.8-1.1,1.5a1.17,1.17,0,0,0-.2,1.1,1,1,0,0,0,.6.5l2.1.6,4.4,1.4,6.1,1.9h.1a2.1,2.1,0,0,0,2.2-.8l18.2-24.1Zm-27.8,16.4-1-.3,1.7-.6h0l1-1.3,4,1.2a1,1,0,0,0-.5.4l-3.2-1v.1l3.1,1c-.1.1-.2.2-.3.2l-3-.9h-.1l3,.9c-.1.1-.2.2-.3.2l-2.9-.9,2.8.9c-.1.1-.2.1-.3.2l-2.7-.8,2.7.8a.76.76,0,0,1-.4.2l-2.5-.8h-.1l2.6.8c-.2.1-.5.3-.7.4Zm21.4-10.6L232.9,104h-.1l-1-.3,1.7-.6.8-1,10.9,3.3Zm1.8-2.3-10.9-3.3-1-.3,1.6-.6,1.3-1.7,10.9,3.4Zm-1.3.7-9.6-2.9h-.1l9.7,2.9Zm-10.2-2.3,8.8,2.7-8.8-2.7Zm8.2,2.1-7.9-2.4,7.9,2.4Zm-8.4-1.7,6.7,2h.1l-6.8-2Z"/><path class="cls-5" d="M251.8,99.2c.3-.8.1-1.1-.4-1.2C251.9,98.1,252.2,98.4,251.8,99.2Z"/><polygon class="cls-5" points="237.6 95.8 237 96 237.2 96.4 237.1 96.4 236.9 95.9 237.6 95.7 237.6 95.8"/><path class="cls-5" d="M250,99.8h0c-.1,0-.2-.1,0,0C249.9,99.7,250,99.7,250,99.8Z"/><path class="cls-5" d="M249.8,100.1h0c-.1,0-.2-.1,0,0-.1-.1,0-.2,0,0Z"/><path class="cls-5" d="M249.6,100.3h0c-.1,0-.2-.1,0,0Z"/><g id="u5Zjqx"><path class="cls-5" d="M240.3,95.2l-.2-.2h.1Z"/><path class="cls-5" d="M239.9,95.1Z"/><path class="cls-5" d="M240.2,95.3h-.1v-.1Z"/><path class="cls-5" d="M240,95.3h-.2c0-.1.1-.1.2,0Z"/></g><path class="cls-5" d="M238,94.4h0c0,.2-.1.2-.2.2v-.1A.35.35,0,0,1,238,94.4Z"/><path class="cls-5" d="M238.3,94.5h0c0,.2-.1.2-.2.2v-.1C238.1,94.5,238.2,94.5,238.3,94.5Z"/><path class="cls-5" d="M238.7,94.7a.35.35,0,0,1-.2.1c-.1,0-.1,0,0-.1s.1-.1.2-.1S238.8,94.7,238.7,94.7Z"/><path class="cls-5" d="M239,94.8v.1c-.1,0-.2,0-.2-.1A.14.14,0,0,1,239,94.8Z"/><path class="cls-5" d="M239.3,94.8v.1c0,.1-.1.1-.2.1v-.1A.35.35,0,0,1,239.3,94.8Z"/><polygon class="cls-12" points="251 98.4 250.8 98.7 250 98.5 250.2 98.2 251 98.4"/><polygon class="cls-5" points="250.8 98.4 250.2 98.2 250.1 98.4 250.6 98.6 250.8 98.4"/><polygon class="cls-5" points="251.1 98.5 250.9 98.7 250.8 98.7 251 98.5 251.1 98.5"/><polygon class="cls-1" points="220.5 119.6 220.4 119.6 220 120.1 219.8 120 220 119.8 219.6 119.6 219.4 119.9 219.2 119.8 219.6 119.3 219.5 119.3 220.4 119 220.5 119.6"/><polygon class="cls-1" points="232.4 122.9 231.1 122.5 231.2 122.3 232.5 122.7 232.4 122.9"/><polygon class="cls-1" points="232.1 123.3 230.8 122.9 231 122.7 232.2 123.1 232.1 123.3"/><polygon class="cls-1" points="231.8 123.7 230.5 123.3 230.7 123.1 231.9 123.5 231.8 123.7"/><polygon class="cls-1" points="226.2 121.3 225.6 121.5 225.5 121.1 225.6 121 225.7 121.4 226.2 121.2 226.2 121.3"/><path class="cls-13" d="M226.4,121.5a1.16,1.16,0,0,1-1,.4c-.2-.1-.4-.3-.3-.5s.1-.1.1-.2a1.16,1.16,0,0,1,1-.4c.2.1.4.3.3.5A.35.35,0,0,0,226.4,121.5Z"/><path class="cls-5" d="M242.9,97.5h0l-.1.1a.1.1,0,0,0-.1-.1h-.2a.35.35,0,0,0-.2.1.19.19,0,0,0,0,.3l.1.1h.3a.1.1,0,0,1-.1.1h-.3c-.4-.1-.4-.2-.3-.5a.62.62,0,0,1,.7-.2A.35.35,0,0,1,242.9,97.5Z"/><path class="cls-5" d="M242.6,98.2c.1.1,0,.1,0,0Z"/><path class="cls-5" d="M243.5,97.8v.1l-.4.6H243v-.1l.2-.2-.3-.1-.3.1.4-.6h.1v.1l-.2.2.3.1.3-.2Z"/><path class="cls-5" d="M244,97.8l-.7.5v.1h.1l.1-.1.3.1v.2a.1.1,0,0,0,.1-.1l.1-.7Zm-.2.5h0l.1-.2Z"/><path class="cls-5" d="M244.4,98.1h-.1v.1h.2l-.4.5.2-.2.3-.3h.2l-.5.3v.1l.5-.3h.1v-.1Zm-.3.6h.1l.1-.1Z"/><polygon class="cls-10" points="228.9 107.4 239.8 110.8 242.1 107.7 231.2 104.4 231.2 104.4 228.9 107.4"/><polygon class="cls-10" points="240.8 111.1 239.8 110.8 240.5 109.8 240.8 111.1"/><polygon class="cls-5" points="241 108.1 231.4 105.2 231.4 105.1 241.1 108.1 241 108.1"/><polygon class="cls-5" points="238.8 107.8 231.2 105.5 231.2 105.4 238.8 107.8"/><polygon class="cls-5" points="239.5 108.8 230.7 106.1 230.7 106 239.6 108.8 239.5 108.8"/><polygon class="cls-5" points="240.1 109.4 230.5 106.4 230.5 106.3 240.1 109.3 240.1 109.4"/><polygon class="cls-5" points="239.9 109.7 230.2 106.7 230.3 106.7 239.9 109.6 239.9 109.7"/><polygon class="cls-5" points="236.9 109.2 230 107 230 107 237 109.1 236.9 109.2"/><polygon class="cls-10" points="223.5 114.6 234.4 117.9 236.7 114.9 225.8 111.6 225.8 111.6 223.5 114.6"/><polygon class="cls-10" points="235.4 118.2 234.4 117.9 235.1 117 235.4 118.2"/><polygon class="cls-5" points="235.6 115.3 226 112.3 226 112.3 235.7 115.2 235.6 115.3"/><polygon class="cls-5" points="233.4 115 225.8 112.6 225.8 112.6 233.4 114.9 233.4 115"/><polygon class="cls-5" points="234.1 116 225.3 113.3 225.3 113.2 234.2 115.9 234.1 116"/><polygon class="cls-5" points="234.7 116.5 225 113.6 225.1 113.5 234.7 116.5"/><polygon class="cls-5" points="234.4 116.8 224.8 113.9 224.9 113.8 234.5 116.8 234.4 116.8"/><polygon class="cls-5" points="231.5 116.3 224.6 114.2 224.6 114.1 231.6 116.3 231.5 116.3"/><polygon class="cls-5" points="244.7 102.2 244.7 102.3 236.7 99.8 244.7 102.2"/><polygon class="cls-5" points="246.1 103.1 236.4 100.2 236.5 100.1 246.1 103.1"/><polygon class="cls-5" points="245.9 103.4 245.8 103.4 236.2 100.5 236.2 100.4 245.9 103.4"/><polygon class="cls-5" points="244.9 103.4 244.8 103.5 236 100.8 236 100.7 244.9 103.4"/><polygon class="cls-5" points="245.4 104 245.4 104.1 235.7 101.1 235.8 101 245.4 104"/><polygon class="cls-5" points="242.7 103.5 242.6 103.6 235.5 101.4 235.5 101.3 242.7 103.5"/><polygon class="cls-5" points="244.1 105.7 244 105.8 234.4 102.8 234.5 102.8 244.1 105.7"/><polygon class="cls-5" points="242.1 105.5 242.1 105.6 234.2 103.1 242.1 105.5"/><polygon class="cls-5" points="242.7 106.1 233.9 103.4 234 103.4 242.7 106.1"/><polygon class="cls-5" points="240.5 105.8 240.4 105.8 233.7 103.8 233.8 103.7 240.5 105.8"/><polygon class="cls-2" points="238.2 114.5 227.3 111.2 229.4 108.5 240.2 111.8 238.2 114.5"/><polygon class="cls-2" points="226.3 110.8 227.3 111.2 228.1 110.2 226.3 110.8"/><polygon class="cls-5" points="238 112.9 228.9 110.1 228.9 110.1 238.1 112.9 238 112.9"/><polygon class="cls-5" points="237 113 228.7 110.4 228.7 110.4 237.1 112.9 237 113"/><polygon class="cls-5" points="237.9 112.1 229.4 109.5 229.4 109.4 238 112.1 237.9 112.1"/><polygon class="cls-5" points="239.1 112.1 229.6 109.2 229.6 109.1 239.2 112.1 239.1 112.1"/><polygon class="cls-5" points="237.1 113.4 228.4 110.8 228.5 110.7 237.1 113.3 237.1 113.4"/><polygon class="cls-5" points="233.9 119.3 233.8 119.4 228.8 117.8 227.3 117.4 224.2 116.4 224.2 116.3 227.4 117.3 228.8 117.7 233.9 119.3"/><polygon class="cls-5" points="233.6 119.6 233.6 119.7 228.6 118.2 226.9 117.6 223.9 116.7 224 116.7 227 117.6 228.6 118.1 233.6 119.6"/><polygon class="cls-5" points="232.6 119.7 232.6 119.8 228.4 118.5 226.5 117.9 223.7 117 226.6 117.9 228.4 118.4 232.6 119.7"/><polygon class="cls-5" points="233.1 120.2 233.1 120.3 228.2 118.8 226.2 118.1 223.5 117.3 226.2 118.1 228.3 118.7 233.1 120.2"/><polygon class="cls-5" points="230.4 119.8 228 119.1 225.8 118.4 223.2 117.6 223.3 117.6 225.8 118.4 228 119.1 230.4 119.8"/><path class="cls-11" d="M237.8,115.6c-.1,2.6-4.1,6.3-6.9,9l-.8.8-.1.1c-1.6,1.6-2.4,2.7-.9,2.6,0,0-14.2,5.8-21.6,7h0c-.5.1-.9.1-1.3.2a5.93,5.93,0,0,1-2.5-.2.85.85,0,0,1-.5-1.2c0-.1.1-.2.1-.4a4.07,4.07,0,0,1,.6-1.1c.1-.1.1-.2.2-.2.1-.2.2-.3.3-.5s.3-.4.5-.6a23.32,23.32,0,0,1,6.5-5.3,3,3,0,0,1,.8-.4,39.45,39.45,0,0,1,4.6-2.2h0c.7-.3,1.4-.7,2.2-1a.1.1,0,0,0,.1-.1h0c.5-.2.9-.5,1.4-.7,1.5-.7,3-1.6,4.6-2.5.2-.1.5-.3.7-.4h0a.52.52,0,0,1,.4-.2h0c.1-.1.2-.1.3-.2h0c.1-.1.2-.2.3-.2h.1c.1-.1.2-.1.3-.2a.1.1,0,0,0,.1-.1,1,1,0,0,0,.5-.4,8.65,8.65,0,0,1,1-.7c.2-.2.5-.3.7-.5h0c.1,0,.1-.1.2-.1l.1-.1.1-.1c.1-.1.2-.1.3-.2h.1c.1-.1.2-.1.3-.2a.1.1,0,0,0,.1-.1c.2-.2.5-.3.7-.5h.1c.1-.1.2-.1.3-.2l.1-.1h0a2.51,2.51,0,0,1,.7-.4,9.74,9.74,0,0,1,1.1-.5,9.29,9.29,0,0,1,1.3-.4h.2a1.93,1.93,0,0,1,2.3,1.6C237.8,114.7,237.8,115.1,237.8,115.6Z"/><path class="cls-6" d="M217.2,123a32.27,32.27,0,0,0-7.2,3,17.36,17.36,0,0,0-5.1,5c-.1.1.1.2.1.1,3.1-4,7.8-6.1,12.2-8.1Z"/><path class="cls-1" d="M203.3,165c-2.4.5-5.2,1.2-8.2,1.8l-1-2.6-6.2-15.3v-.1l-.9-2.2-2-4.8h0l-.7-1.6-.4-.9-.2-.4,1-.3c.6-.2,1.2-.3,1.8-.5s1.3-.3,1.9-.5a19.45,19.45,0,0,1,2-.5c.1,0,.2-.1.4-.1h.1c.3-.1.5-.1.8-.2.1.2.1.3.2.5l.3.6c.5,1.1.9,2.3,1.4,3.5v.1c.1.2.2.5.3.7v.1h0c.5,1.1.9,2.2,1.4,3.3,1.6,3.9,3.3,8,4.9,12.1,0,.1.1.1.1.2h0c.5,1.3,1,2.6,1.6,3.8S202.9,163.9,203.3,165Z"/><path class="cls-1" d="M192,167.5l-1.4.3h-.1l-1.2.2-.9-2.2-6.1-15v-.1l-.6-1.4-3.2-7.9h0l-.3-.8-.2-.5c.8-.1,1.7-.3,2.6-.5.1.1.1.3.2.4a3.55,3.55,0,0,0,.4.9c.9,2.3,1.9,4.8,3,7.3.2.6.5,1.1.7,1.7v.1c2,5,4.2,10.1,6.2,15.1a23.4,23.4,0,0,0,.9,2.4Z"/><path class="cls-6" d="M179.6,169.8h-.2c-.5.1-1.3.2-2.3.3-1.7.2-3.9.4-6,.5a22.82,22.82,0,0,1-3.7,0,4.87,4.87,0,0,1-1.2-.1.75.75,0,0,1-.5-.1c-.2,0-.3-.1-.5-.1a8.56,8.56,0,0,1-2.4-1.1,22.48,22.48,0,0,1-4-3.7.1.1,0,0,1-.1-.1h0c-1-1.1-1.9-2.4-2.9-3.7-.7-1-1.4-2-2-3-.5-.8-1-1.6-1.5-2.3-3.7-6.1-6.4-12-6.7-12.5a109.26,109.26,0,0,1-4.8-11.1,19.21,19.21,0,0,1-2.9-5c0-.1.1-.2.1-.1a36.23,36.23,0,0,0,2.4,4.3,108.36,108.36,0,0,1-3.7-11.4v-.1h.1v.1c.7,1.8,1.3,3.6,2,5.4,1.2,3.1,2.4,6.3,3.8,9.4,1,2.5,2.1,4.9,3.2,7.3a149.29,149.29,0,0,0,7.4,13.6c.5.8,1,1.6,1.5,2.3.7,1,1.3,2,2,3s1.6,2.1,2.3,3l.1.1a4.62,4.62,0,0,0,.7.7l.1.1a16.14,16.14,0,0,0,4.3,3.5h0c.3.1.7.2,1.1.3a4.33,4.33,0,0,0,.5.1c.4.1.9.1,1.4.2,1.1.1,2.4.1,3.8.1,2,0,4.1-.1,5.8-.1h2.4c.3.1.3.1.4.2C179.7,169.7,179.7,169.8,179.6,169.8Z"/><path class="cls-6" d="M202.9,163.2a11.94,11.94,0,0,0-.8-1.6c-.2-.4-.4-.8-.6-1.3-.3-.9-.8-1.6-1.1-2.5h0c0-.1-.1-.1-.1-.2s-.1-.1-.1-.2c-.6-1.2-3.1-7-5-11.8-.5-1.3-.9-2.5-1.3-3.5V142h0c-.1-.2-.1-.4-.2-.6v-.1a8.4,8.4,0,0,1-.4-1.2V140h.1a11.39,11.39,0,0,1,.9,1.9c.5,1,1,2.2,1.6,3.4h0c2.1,4.7,4.4,10.6,5,11.9.4.9.8,1.9,1.2,2.9.2.5.3.9.5,1.4a12.23,12.23,0,0,0,.3,1.7C203.1,163.2,202.9,163.3,202.9,163.2Z"/><path class="cls-6" d="M197.7,135.4h0c0,.1-.1.1-.1.2s-.3.1-.7.2c-1,.3-2.8.8-5,1.4-.3.1-.5.1-.8.2l-2.4.6c-.6.2-1.3.3-1.9.5h0c-1,.2-2,.5-2.9.7a3.55,3.55,0,0,1-1,.2,22.5,22.5,0,0,1-2.2.5c-.9.2-1.8.4-2.5.6-2,.5-3.3.8-3.5.8a3.39,3.39,0,0,1-2.9-1.5h0l-.8-.8c-1.2-1.3-13.5-17.1-14.1-18-.3-.6,0-.5.3-.2a9.81,9.81,0,0,1,1.6,1.9c.1.2.3.3.4.5,3.3,4.1,9.7,12.1,12,14.8h0c.2.2.3.4.4.5l.1.1c0,.1.1.1.1.2l.1.1a2.58,2.58,0,0,0,.9.9,3.38,3.38,0,0,0,1.2.6,7.46,7.46,0,0,0,2.6-.4c1-.3,3.1-.8,5.6-1.4,1.3-.3,2.7-.7,4.1-1,.7-.2,1.3-.3,2-.5l2.4-.6c2.5-.6,4.7-1.1,6-1.3a.37.37,0,0,0,.3-.1h0c.2,0,.4-.1.6-.1h0C197.7,135,197.8,135.3,197.7,135.4Z"/><path class="cls-11" d="M157.6,101.3v.2c.1,1.7,1.8,6.1-1.5,6.9H156a9.42,9.42,0,0,1-4.1-.6c-.6-.2-1.2-.5-1.9-.8a.1.1,0,0,1-.1-.1c-3-1.4-6-3.7-7.1-6.3a20,20,0,0,1,.4-2.6c.2-1.3.6-2.9.9-4.6.3-1.5.6-3.2.8-4.8h0v-.3a13.55,13.55,0,0,0,.2-2v-.2c0-.1.2,0,.5,0s.8.2,1.4.4c3.8,1.2,12.2,4.3,12.8,4.5h0a24,24,0,0,0-1.2,3.8,41,41,0,0,0-1,4.8h0a1.09,1.09,0,0,1-.1.5v.8C157.6,101.2,157.6,101.2,157.6,101.3Z"/><path class="cls-6" d="M159.9,91.1h0c-.5,1.4-.9,2.6-1.3,4h0a41,41,0,0,0-1,4.8h0a.76.76,0,0,1-.1.4c0,.1-.1.3-.1.4a.9.9,0,0,0,.1.5v.2H156a8,8,0,0,1-3.1-.9,12,12,0,0,1-2.6-1.8,17.38,17.38,0,0,1-1.3-1.5,17.67,17.67,0,0,1-2.6-6h0a19.85,19.85,0,0,1-.6-3h0c-.1-.5-.1-.9-.2-1.3v-.6h0c.3.1.8.2,1.4.4C151.1,87.8,159.9,91.1,159.9,91.1Z"/><path class="cls-11" d="M139.1,70.4c-.6,5.6,5.2,20.1,9.6,22.8,6.4,3.8,15.3,2.5,18.2-4.8,2.8-7.1-5.1-26-9.9-28.2C150,56.9,139.9,62.2,139.1,70.4Z"/><path class="cls-6" d="M155.6,76.5h0c.4,1.1.7,2.2,0,2.9h0C156.6,79,156.2,77.4,155.6,76.5Z"/><path class="cls-6" d="M154.4,75.8c-1.6.5-.5,3.7,1,3.3S155.7,75.4,154.4,75.8Z"/><path class="cls-6" d="M161.5,74.7a.1.1,0,0,1,.1.1c.3,1,.8,2.1,1.9,2.1V77C162.3,77.2,161.6,75.7,161.5,74.7Z"/><path class="cls-6" d="M162,73.3c1.6-.7,2.8,2.5,1.4,3.1S160.7,73.9,162,73.3Z"/><path class="cls-6" d="M152.6,74.8c.4-.3.7-.6,1.1-.9a2.66,2.66,0,0,0,1-1.1.74.74,0,0,0-.4-.8,2,2,0,0,0-1.8.4,3.09,3.09,0,0,0-1.1,1.6.78.78,0,0,0,.7.9A.9.9,0,0,0,152.6,74.8Z"/><path class="cls-6" d="M162.7,71.3a6.6,6.6,0,0,1-1.4.1,1.7,1.7,0,0,1-1.4-.2.54.54,0,0,1-.2-.8,1.7,1.7,0,0,1,1.6-.9,3.28,3.28,0,0,1,1.9.4.78.78,0,0,1,.1,1.1C163,71.2,162.9,71.3,162.7,71.3Z"/><path class="cls-6" d="M158,86.1c.3.1.7.4,1,.3a2.07,2.07,0,0,0,1-.6h.1a1.41,1.41,0,0,1-1.1,1,1.15,1.15,0,0,1-1.1-.6C157.8,86.2,157.9,86.1,158,86.1Z"/><path class="cls-6" d="M158,82.8a3.52,3.52,0,0,0,2.8.7,5.64,5.64,0,0,0,1.2-.4l.2-.1c.1,0,.1-.1.2-.1a.37.37,0,0,0,.1-.3h0v-.1h0v-.1a14,14,0,0,0-.7-1.9c.3,0,2,.2,1.8-.2a52.78,52.78,0,0,0-4.9-9.8h-.1v.1c1.2,3.2,2.9,6.1,4.1,9.3a5.46,5.46,0,0,0-1.8.1,24.15,24.15,0,0,0,1.1,2.5h0a4.81,4.81,0,0,1-3.9.1C158,82.6,157.9,82.7,158,82.8Z"/><path class="cls-6" d="M161.4,82.9a3.6,3.6,0,0,1-1.2,1.8,2.22,2.22,0,0,1-1.1.5c-.9.1-1.1-.7-1.2-1.3V82.8A6,6,0,0,0,161.4,82.9Z"/><path class="cls-14" d="M160.2,84.7a2.22,2.22,0,0,1-1.1.5c-.9.1-1.1-.7-1.2-1.3A1.91,1.91,0,0,1,160.2,84.7Z"/><path class="cls-6" d="M144.1,83.9c2.9-1.2-.8-9.1-.8-9.1a6.84,6.84,0,0,0,3.8-6.3s12.3-.9,14-5.8-1.7-10.9-3.2-10.8-3,2.7-3,2.7-1.6-1.9-2.8-1.8c-1.9.2-2.2,2.8-3,3.6-2.1,2.2-9.6,4.6-11.2,6.7A4.25,4.25,0,0,0,137,67a4.73,4.73,0,0,0-2.2,4C134.6,74.7,141.2,85.1,144.1,83.9Z"/><path class="cls-6" d="M144.4,83.2c2.1-3,.1-7.1-1.9-9.7,0,0,0-.1.1,0,2,2.4,4.4,7,2,9.8C144.4,83.4,144.3,83.3,144.4,83.2Z"/><path class="cls-6" d="M145.2,68.1a29.51,29.51,0,0,0,8.4-.1,22.85,22.85,0,0,0,3.7-1.2c1.2-.5,3.2-1.5,3.7-2.8h0a4.68,4.68,0,0,1-2.4,2.4,17,17,0,0,1-4.4,1.8,20.43,20.43,0,0,1-9.2.2c-.1,0-.1-.1,0-.2S145.2,68,145.2,68.1Z"/><path class="cls-6" d="M139.2,61.2a41.11,41.11,0,0,1,4.2-2.1c1.8-.9,3.9-1.7,5.3-3.1h.1a13.14,13.14,0,0,1-3.4,2.4c-1.3.7-2.5,1.3-3.9,1.9a8.52,8.52,0,0,0-4,3c-.9,1.5-.6,3-.4,4.5,0,.1,0,.1-.1.2s-.1,0-.2-.1A5.93,5.93,0,0,1,139.2,61.2Z"/><path class="cls-6" d="M136.4,67.7h0c-3.1,2.3-1.5,6.9.1,9.6a14.51,14.51,0,0,0,6.3,6.2c.1.1,0,.3-.1.2-3.2-1.3-5.7-4.4-7.1-7.5C134.4,73.9,133.2,69.1,136.4,67.7Z"/><path class="cls-11" d="M145.4,82.2s-4.5-4.1-6.4-2.4,2.2,8.2,5,8.6a2.66,2.66,0,0,0,3.2-2.1v-.1Z"/><path class="cls-6" d="M140.2,81.7c2,.3,3.3,1.8,4.4,3.4a1.45,1.45,0,0,0-2.1-.1l-.2.2v.1h.1a1.51,1.51,0,0,1,1.9.2,15.38,15.38,0,0,1,1.2,1.3c.1.1.4,0,.3-.2h0c-.6-2.5-3.1-5.3-5.6-4.9Z"/><path class="cls-6" d="M160.4,108.1a3.57,3.57,0,0,1-1.7,3.3,3.7,3.7,0,0,1-1.1.5,8.43,8.43,0,0,1-4.7-.6c-.4-.1-.7-.3-1.1-.4s-.6-.3-.9-.4h-.1a19.83,19.83,0,0,1-4.3-2.8c-1.7-1.4-3.1-3-4.6-4.5,0-.1,0-.2.1-.1a38,38,0,0,0,4.9,4.1c1.1.8,2.4,1.6,3.6,2.3h.1l1.2.6a3.55,3.55,0,0,0,.9.4,9.91,9.91,0,0,0,4.5.7c.4-.1.7-.2,1-.3,2.5-1.3,1.8-5.3,1-8.2a3.09,3.09,0,0,1-.2-.8h0a3.58,3.58,0,0,0-.4-1.1c.2.5.5.9.7,1.4h0a17.23,17.23,0,0,1,.7,2.1A16.37,16.37,0,0,1,160.4,108.1Z"/><rect class="cls-6" x="249.4" y="410.9" width="162.6" height="0.2"/><rect class="cls-6" x="249.4" y="400.9" width="162.6" height="1.9"/><rect class="cls-6" x="249.4" y="390.9" width="162.6" height="1.9"/><rect class="cls-6" x="249.4" y="380.9" width="162.6" height="1.9"/><rect class="cls-6" x="249.4" y="370.9" width="162.6" height="1.9"/><rect class="cls-6" x="249.4" y="360.9" width="162.6" height="1.9"/><rect class="cls-6" x="249.4" y="350.9" width="162.6" height="1.9"/><path class="cls-9" d="M252.5,342.8s2.2-10,6.7-11.6,7.2,3,7.2,3,1.1-9.6,7.4-12.5,11.1,3,11.1,3,4.9-12.2,13.6-12.2,13.1,17.8,13.1,17.8,5.1-5.3,10.4-2.3,5.3,14.7,5.3,14.7H252.5v.1Z"/><path class="cls-9" d="M409,342.8H341.6a32.38,32.38,0,0,1,1.2-3.4c1.5-3,3.4-4,5-4.2a7.52,7.52,0,0,1,1.5,0,9.47,9.47,0,0,1,1.7.5s.2-1,.6-2.3a6.37,6.37,0,0,0,.2-.7c0-.1,0-.1.1-.2a15.53,15.53,0,0,1,2.3-4.4,2.18,2.18,0,0,1,.4-.5l.9-.9a5.67,5.67,0,0,1,1.8-1.2,6,6,0,0,1,2.7-.7,13.32,13.32,0,0,1,6.1,1.2,19.06,19.06,0,0,1,5.9,4.4l.4.4a3,3,0,0,0,.3-.4,24.15,24.15,0,0,1,2.4-3.1,22.81,22.81,0,0,1,4.6-4,11.37,11.37,0,0,1,5.6-1.9h.1a9.08,9.08,0,0,1,2.3.3,9,9,0,0,1,2.8,1.3,11,11,0,0,1,3.4,4.3,18.15,18.15,0,0,1,1.1,3c.4,1.6.6,3.2.8,4.3s.1,2,.1,2a8.63,8.63,0,0,1,1.5-2,5.83,5.83,0,0,1,1.5-1.1,4.75,4.75,0,0,1,2.4-.6,4.48,4.48,0,0,1,1.1.1,5.42,5.42,0,0,1,2.7,1.6,16.88,16.88,0,0,1,2.1,3.1,33.74,33.74,0,0,1,1.7,4.3A2.77,2.77,0,0,0,409,342.8Z"/><path class="cls-10" d="M363.8,342.8H322.4v-.1c0-.4.1-1.7.3-3.3.4-2.3,1.3-5.1,3-6.1a.37.37,0,0,1,.3-.1c.2-.1.5-.1.7-.2a5.76,5.76,0,0,1,4.4.9,6.73,6.73,0,0,1,1.5,1.4,19.85,19.85,0,0,1,5.1-7.1,8.77,8.77,0,0,1,3.3-1.8,5.77,5.77,0,0,1,1.4-.3,6.6,6.6,0,0,1,1.4-.1,6.45,6.45,0,0,1,3.9,1.2,11.28,11.28,0,0,1,3.8,4.9c.1.2.2.5.3.7s0,.1.1.2a16.57,16.57,0,0,1,1.1,4,4.43,4.43,0,0,1,1.5-1.2,5.19,5.19,0,0,1,2.7-.7,4.79,4.79,0,0,1,2.3.5,6,6,0,0,1,2.8,2.4,11.21,11.21,0,0,1,1.4,4.3A1.34,1.34,0,0,1,363.8,342.8Z"/></svg>