<?xml version="1.0" encoding="utf-8"?>
<!-- Generator: Adobe Illustrator 25.3.1, SVG Export Plug-In . SVG Version: 6.00 Build 0)  -->
<svg version="1.1" id="_819bc1d1-bb32-4204-a2d7-7c72ad58381f"
	 xmlns="http://www.w3.org/2000/svg" xmlns:xlink="http://www.w3.org/1999/xlink" x="0px" y="0px" viewBox="0 0 752.5 823.6"
	 style="enable-background:new 0 0 752.5 823.6;" xml:space="preserve">
<style type="text/css">
	.st0{fill:#F1F1F1;}
	.st1{fill:none;stroke:#444053;stroke-width:2;stroke-miterlimit:10;}
	.st2{fill:#3F8EFF;}
	.st3{fill:#443F52;}
	.st4{fill:#3880E6;}
	.st5{opacity:0.1;fill:#FFFFFF;enable-background:new    ;}
	.st6{opacity:0.1;}
	.st7{fill:url(#SVGID_1_);}
	.st8{fill:#EFB7B9;}
	.st9{fill:#925978;}
	.st10{fill:#4C4981;}
	.st11{fill:#3C3A4C;}
	.st12{fill:#FFFFFF;}
</style>
<ellipse class="st0" cx="76.9" cy="810.8" rx="32.6" ry="5.5"/>
<ellipse class="st0" cx="179" cy="708.1" rx="18.4" ry="3.1"/>
<ellipse class="st0" cx="22.2" cy="728.6" rx="22.2" ry="3.8"/>
<path class="st1" d="M307.7,193.3c-8.3,3.2-17.6,7.6-19.8,16.2c-0.7,3.3-0.5,6.8,0.5,10c2.4,8.4,8.2,15.6,15.9,19.8
	c9.5,5.1,21.3,5.4,30,11.8c5.3,3.9,8.9,9.7,10.1,16.2c0.5,2.7,0.5,5.5,1.5,8.1c2.7,6.9,11.1,9.6,18.5,10c3.6,0.2,7.5,0.2,10.2,2.5
	c1.1,1,2,2.2,2.7,3.5c5.8,9.2,11.7,19,11.8,29.9c0,8.5-3.6,16.6-7.8,24c-5.5,9.6-12.2,19.1-13.5,30.1c-1.5,13,5,25.5,5.8,38.6
	c0.8,14.1-4.9,27.7-15.4,37.1"/>
<path class="st2" d="M274.2,79.5c6.4,46.3,5.3,104.6-36.3,110.3S130,146.5,123.6,100.2S145.8,11.7,187.4,6S267.9,33.2,274.2,79.5z"
	/>
<path class="st2" d="M261.6,206c0,0-6.8,3.1-7.8-3.5c-0.1-0.6-0.1-1.2-0.1-1.8c0-2.1-0.4-4.1-1.1-6c-0.3-0.7-0.5-1.4-0.9-2
	c-1.4-2.9-3.4-5.6-5.7-7.9l16-12.2c0,0-2.8,9.9-0.1,12.2c0.4,0.3,0.9,0.5,1.4,0.5s1-0.1,1.4-0.3c0.5-0.2,1-0.3,1.5-0.5
	c5.4-1.4,5,2.1,5,2.1C275.4,194.1,261.6,206,261.6,206z"/>
<path class="st3" d="M263.2,185.2l-10.7,9.4c-0.3-0.7-0.5-1.4-0.9-2c2.9-2.1,7.3-5.7,10.1-7.9C262.2,185.1,262.7,185.2,263.2,185.2z
	"/>
<path class="st2" d="M261.6,206c0,0-6.8,3.1-7.8-3.5c2.7-1,5.3-2.5,7.4-4.5c2.9-2.9,5.6-9.4,4.9-13.5c5.4-1.4,5,2.1,5,2.1
	C275.4,194.1,261.6,206,261.6,206z"/>
<path class="st4" d="M261.6,206c0,0-6.8,3.1-7.8-3.5c2.7-1,5.3-2.5,7.4-4.5c2.9-2.9,5.6-9.4,4.9-13.5c5.4-1.4,5,2.1,5,2.1
	C275.4,194.1,261.6,206,261.6,206z"/>
<path class="st5" d="M157.8,30.9c0,0-20.2,10.2-17.2,26.1c0,0,3.5-3.3,7-4.1c1.8-0.3,3.5-1,4.9-2.1
	C152.6,50.9,150.9,42.1,157.8,30.9z"/>
<path class="st2" d="M290,309.6c-0.8,5.4-2.4,10.7-4.7,15.7c-0.6,1.4-1.3,2.8-2,4.2c-18.8,36.1-71.2,71.4-110.2,66.1
	c-36.5-5-64.7-30.1-72.3-60.8c-0.4-1.5-0.7-3-1-4.6c-1.2-7-1.4-14.2-0.4-21.3c4.6-33.6,33-58.8,68.3-63.8c3.1-0.5,6.2-0.7,9.4-0.9
	c1.5-0.1,3.1-0.1,4.6-0.1c4,0,7.9,0.3,11.8,0.8c2.2,0.3,4.4,0.6,6.6,1c0.2,0,0.4,0.1,0.6,0.1c13.5,2,26.8,5.1,39.8,9.3
	c4,1.3,7.9,2.7,11.6,4.4c2.6,1.1,5.1,2.3,7.5,3.5c10.9,5.5,19.8,12.5,25.2,21.1c0.5,0.9,1,1.7,1.5,2.6l0.2,0.4
	c1.8,3.6,3,7.6,3.5,11.6C290.5,302.5,290.4,306.1,290,309.6z"/>
<path class="st4" d="M290,309.6c-0.8,5.4-2.4,10.7-4.7,15.7c-0.6,1.4-1.3,2.8-2,4.2c-18.8,36.1-71.2,71.4-110.2,66.1
	c-36.5-5-64.7-30.1-72.3-60.8c-0.4-1.5-0.7-3-1-4.6c-1.2-7-1.4-14.2-0.4-21.3c4.6-33.6,33-58.8,68.3-63.8c3.1-0.5,6.2-0.7,9.4-0.9
	c1.5-0.1,3.1-0.1,4.6-0.1c4,0,7.9,0.3,11.8,0.8c2.2,0.3,4.4,0.6,6.6,1c0.2,0,0.4,0.1,0.6,0.1c13.5,2,26.8,5.1,39.8,9.3
	c4,1.3,7.9,2.7,11.6,4.4c2.6,1.1,5.1,2.3,7.5,3.5c10.9,5.5,19.8,12.5,25.2,21.1c0.5,0.9,1,1.7,1.5,2.6l0.2,0.4
	c1.8,3.6,3,7.6,3.5,11.6C290.5,302.5,290.4,306.1,290,309.6z"/>
<path class="st2" d="M306.4,297.6c-0.6,0-1.2-0.2-1.7-0.3c-2-0.5-4.1-0.7-6.1-0.5c-0.7,0-1.5,0.1-2.2,0.3c-2.2,0.4-4.3,1-6.3,1.9
	c-1,0.4-1.9,0.9-2.9,1.4l-5.2-12.9l-0.1-0.2l-2.3-5.6c1.6,1,3.3,1.8,5.1,2.5c2.5,1,5.2,1.8,6.6,0.8c0.4-0.3,0.7-0.7,0.9-1.2
	c0.1-0.5,0.2-1,0.1-1.5c0-0.6,0-1.1,0-1.6c0.1-5.6,3.4-4.3,3.4-4.3c3.7-0.9,7.3,1.8,10.2,5.1c0.4,0.5,0.8,1,1.2,1.5
	c1.9,2.5,3.5,5.1,4.8,7.8C311.9,291.1,313.1,298.5,306.4,297.6z"/>
<path class="st3" d="M298.6,296.8c-0.7,0-1.5,0.1-2.2,0.3c-1-2.8-2.8-7-4.2-10.2c-0.1-0.2-0.2-0.5-0.3-0.7s-0.3-0.7-0.4-1
	c0.4-0.3,0.7-0.7,0.9-1.2l0.9,1.9l0.4,0.8L298.6,296.8z"/>
<path class="st2" d="M306.4,297.6c-0.2-2.9-1.1-5.8-2.4-8.4c-0.9-1.5-2.1-2.8-3.4-4c-0.4-0.4-0.8-0.7-1.2-1c-2-1.7-4.4-2.9-7-3.4
	c0.1-5.6,3.4-4.3,3.4-4.3c3.7-0.9,7.3,1.8,10.2,5.1c0.4,0.5,0.8,1,1.2,1.5c1.9,2.5,3.5,5.1,4.8,7.8
	C311.9,291.1,313.1,298.5,306.4,297.6z"/>
<path class="st4" d="M306.4,297.6c-0.2-2.9-1.1-5.8-2.4-8.4c-0.9-1.5-2.1-2.8-3.4-4c-0.4-0.4-0.8-0.7-1.2-1c-2-1.7-4.4-2.9-7-3.4
	c0.1-5.6,3.4-4.3,3.4-4.3c3.7-0.9,7.3,1.8,10.2,5.1c0.4,0.5,0.8,1,1.2,1.5c1.9,2.5,3.5,5.1,4.8,7.8
	C311.9,291.1,313.1,298.5,306.4,297.6z"/>
<path class="st5" d="M115.4,344.1c0,0,4.4,22.2,20.6,23.5c0,0-2.2-4.2-2-7.8c0.2-1.8,0-3.6-0.7-5.3
	C133.3,354.6,124.3,353.9,115.4,344.1z"/>
<path class="st2" d="M348.2,113.8c-8.1,18.6-18.6,38.3-31,53.4c-9.5,11.6-20.2,20.4-31.9,23.7c-5,1.5-10.3,1.8-15.5,1
	c-3.5-0.5-6.9-1.5-10.1-3c-22.7-9.9-42.8-40.6-51.6-73c-6.1-22.4-6.8-45.6,0.9-63.1C227.7,10,274.1-11,312.6,5.8
	S366.9,71,348.2,113.8z"/>
<path class="st4" d="M348.2,113.8c-8.1,18.6-18.6,38.3-31,53.4c-9.5,11.6-20.2,20.4-31.9,23.7c-5,1.5-10.3,1.8-15.5,1
	c-3.5-0.5-6.9-1.5-10.1-3c-22.7-9.9-42.8-40.6-51.6-73c-6.1-22.4-6.8-45.6,0.9-63.1C227.7,10,274.1-11,312.6,5.8
	S366.9,71,348.2,113.8z"/>
<path class="st2" d="M289.7,203.5c-0.3,8.6-18.3,11.6-18.3,11.6s-7.4-0.9-4.8-7.1c0.2-0.6,0.5-1.1,0.8-1.6c1.1-1.8,1.8-3.7,2.2-5.8
	c0.1-0.7,0.3-1.4,0.3-2.2c0.2-2.2,0.2-4.4-0.1-6.6c-0.1-1.1-0.3-2.1-0.6-3.1l20-2.1c-1.4,1.3-2.7,2.7-3.9,4.2
	c-1.6,2.1-3.1,4.5-2.6,6.1c0.2,0.5,0.5,0.9,1,1.2c0.4,0.3,0.9,0.4,1.4,0.5s1,0.2,1.5,0.4C291.9,200.8,289.7,203.5,289.7,203.5z"/>
<path class="st3" d="M283.7,198.2l-14,2.5c0.1-0.7,0.3-1.4,0.3-2.2c3.5-0.3,9.2-1,12.8-1.5C282.9,197.5,283.2,197.9,283.7,198.2z"/>
<path class="st2" d="M289.7,203.5c-0.3,8.6-18.3,11.6-18.3,11.6s-7.4-0.9-4.8-7.1c2.9,0.6,5.8,0.6,8.7,0c3.9-1,9.7-5.1,11.2-8.9
	C291.9,200.8,289.7,203.5,289.7,203.5z"/>
<path class="st4" d="M289.7,203.5c-0.3,8.6-18.3,11.6-18.3,11.6s-7.4-0.9-4.8-7.1c2.9,0.6,5.8,0.6,8.7,0c3.9-1,9.7-5.1,11.2-8.9
	C291.9,200.8,289.7,203.5,289.7,203.5z"/>
<path class="st5" d="M274.3,11.6c0,0-22.5-1.8-28.3,13.3c0,0,4.7-1,8.1,0.2c1.7,0.7,3.5,1,5.3,0.8C259.4,25.9,262.5,17.5,274.3,11.6
	z"/>
<g class="st6">
	<path class="st4" d="M44.3,299.1c-0.2,3.6,2.1,7.8,2.1,7.8c-16.1-1.4-20.6-23.5-20.6-23.5c8.9,9.7,17.8,10.4,17.8,10.4
		C44.3,295.5,44.5,297.4,44.3,299.1z"/>
	<path class="st4" d="M197.6,239.7l-7.5-18.6c1.6,1,3.3,1.8,5.1,2.6c2.8,4.4,4.6,9.4,5.2,14.6C199.5,238.7,198.5,239.2,197.6,239.7z
		"/>
	<path class="st4" d="M200.6,246.1c-0.1,0.9-0.2,1.8-0.3,2.7c-0.8,5.4-2.4,10.7-4.7,15.7c-0.6,1.4-1.3,2.8-2,4.2
		c-16.1,31-56.9,61.4-92.9,66c-2.1-8.5-2.6-17.2-1.4-25.9c4.6-33.6,33-58.8,68.3-63.8c8.6-1.2,17.3-1.3,25.8-0.1
		C195.8,245.3,198.2,245.7,200.6,246.1z"/>
	<path class="st4" d="M216.8,236.9c-0.6-0.1-1.2-0.2-1.8-0.4c-2-0.5-4-0.7-6.1-0.5c-0.8,0-1.5,0.1-2.2,0.3c-3.2,0.6-6.3,1.7-9.2,3.4
		l-7.5-18.6c1.6,1,3.3,1.8,5.1,2.6c2.5,1,5.2,1.8,6.6,0.8c0.4-0.3,0.7-0.7,0.9-1.2c0.1-0.5,0.2-1,0.1-1.4v-1.6
		c0.1-5.6,3.4-4.3,3.4-4.3c8.4-2.1,16.2,14.4,16.2,14.4S223.4,237.7,216.8,236.9z"/>
	<path class="st4" d="M208.9,236.1c-0.8,0-1.5,0.1-2.2,0.3c-1.2-3.3-3.5-8.6-4.9-11.9c0.4-0.3,0.7-0.7,0.9-1.2L208.9,236.1z"/>
	<path class="st4" d="M216.8,236.9c-0.3-2.9-1.1-5.7-2.4-8.4c-2-3.5-7.6-7.9-11.6-8.4c0.1-5.6,3.4-4.3,3.4-4.3
		c8.4-2.1,16.2,14.4,16.2,14.4S223.4,237.7,216.8,236.9z"/>
	<path class="st4" d="M216.8,236.9c-0.3-2.9-1.1-5.7-2.4-8.4c-2-3.5-7.6-7.9-11.6-8.4c0.1-5.6,3.4-4.3,3.4-4.3
		c8.4-2.1,16.2,14.4,16.2,14.4S223.4,237.7,216.8,236.9z"/>
	<path class="st4" d="M46.3,306.9c-16.1-1.4-20.6-23.5-20.6-23.5c8.9,9.7,17.8,10.4,17.8,10.4c0.6,1.7,0.9,3.5,0.7,5.3
		C44.1,302.7,46.3,306.9,46.3,306.9z"/>
</g>
<path class="st2" d="M200.3,244.2c-0.1,0.6-0.2,1.2-0.3,1.9c-0.9,4.8-2.4,9.4-4.5,13.9c-0.2,0.4-0.4,0.9-0.6,1.3
	c-0.4,1-0.9,2-1.5,2.9c-16.3,31.3-57.6,61.9-93.8,66.2c-5.4,0.7-11,0.7-16.4,0C37,324,4,285.1,9.6,243.6c4.6-33.6,33-58.8,68.3-63.8
	c1.1-0.2,2.2-0.3,3.3-0.4c7.5-0.8,15.1-0.7,22.5,0.3c15.5,2.1,32.1,5.4,47,10.3c3.2,1.1,6.2,2.2,9.2,3.4c0.8,0.3,1.6,0.7,2.4,1
	c1.5,0.6,2.9,1.3,4.3,1.9c1.1,0.5,2.2,1.1,3.3,1.6c10.9,5.5,19.8,12.5,25.2,21.1c2.8,4.4,4.6,9.4,5.2,14.6
	C200.8,237.1,200.8,240.7,200.3,244.2z"/>
<path class="st2" d="M216.8,232.2c-0.6-0.1-1.2-0.2-1.8-0.4c-2-0.5-4-0.7-6.1-0.5c-0.7,0.1-1.5,0.1-2.2,0.3c-2.2,0.4-4.3,1-6.3,1.9
	c-1,0.4-1.9,0.9-2.9,1.4l-7.5-18.6c1.6,1,3.3,1.8,5.1,2.6c2.5,1,5.2,1.8,6.6,0.8c0.4-0.3,0.7-0.7,0.9-1.2c0.1-0.5,0.2-1,0.1-1.4
	v-1.6c0.1-5.6,3.4-4.3,3.4-4.3c8.4-2.1,16.2,14.4,16.2,14.4S223.4,233,216.8,232.2z"/>
<path class="st3" d="M208.9,231.3c-0.7,0.1-1.5,0.1-2.2,0.3c-1.2-3.4-3.5-8.6-4.9-11.9c0.4-0.3,0.7-0.7,0.9-1.2L208.9,231.3z"/>
<path class="st2" d="M216.8,232.2c-0.3-2.9-1.1-5.8-2.4-8.4c-2-3.5-7.6-7.9-11.6-8.4c0.1-5.6,3.4-4.3,3.4-4.3
	c8.4-2.1,16.2,14.4,16.2,14.4S223.4,233,216.8,232.2z"/>
<path class="st4" d="M216.8,232.2c-0.3-2.9-1.1-5.8-2.4-8.4c-2-3.5-7.6-7.9-11.6-8.4c0.1-5.6,3.4-4.3,3.4-4.3
	c8.4-2.1,16.2,14.4,16.2,14.4S223.4,233,216.8,232.2z"/>
<path class="st5" d="M25.8,278.7c0,0,4.4,22.1,20.6,23.5c0,0-2.2-4.2-2-7.8c0.2-1.8,0-3.6-0.7-5.3C43.7,289.2,34.7,288.5,25.8,278.7
	z"/>
<g class="st6">
	<path class="st4" d="M55.2,89.9c-1,1.5-2.4,2.7-4,3.6c-3.1,1.9-5.3,6.1-5.3,6.1c-8-14.1,7.9-30.3,7.9-30.3
		C50.8,82.1,55.2,89.9,55.2,89.9z"/>
	<path class="st4" d="M162.4,194.3c2.6,1.1,5.1,2.3,7.5,3.5c-3.1,0.8-6.2,1.4-9.3,1.7c-25.2,3-57.5-4.9-82.6-19.8
		c8.6-1.2,17.3-1.3,25.8-0.1c15.5,2.1,32,5.4,47,10.3C154.8,191.3,158.7,192.7,162.4,194.3z"/>
	<path class="st4" d="M198.7,175.4c-2.1,4.8-5.2,9.1-9.1,12.6c-0.9-0.6-1.8-1.1-2.8-1.5l11.2-16.7
		C198,171.6,198.3,173.5,198.7,175.4z"/>
	<path class="st4" d="M208.5,201.5c0,0-5.4,5.1-8.5-0.8c-0.3-0.5-0.5-1.1-0.7-1.7c-0.7-1.9-1.7-3.7-3-5.3c-0.5-0.6-1-1.1-1.5-1.7
		c-1.5-1.6-3.3-3-5.2-4.1c-0.9-0.6-1.8-1.1-2.8-1.5l11.2-16.7c0.1,1.9,0.4,3.8,0.8,5.7c0.5,2.6,1.5,5.3,3.1,6c0.5,0.2,1,0.2,1.5,0
		s0.9-0.4,1.3-0.7c0.5-0.4,0.9-0.7,1.3-0.9c4.7-3,5.4,0.4,5.4,0.4C217.7,185.8,208.5,201.5,208.5,201.5z"/>
	<path class="st4" d="M203.3,181.3l-7,12.4c-0.5-0.6-1-1.1-1.5-1.7c2-2.9,5.1-7.7,7-10.7C202.2,181.5,202.8,181.5,203.3,181.3z"/>
	<path class="st4" d="M208.5,201.5c0,0-5.4,5.1-8.5-0.8c2.3-1.9,4.2-4.1,5.6-6.7c1.8-3.6,2.3-10.7,0.3-14.3c4.7-3,5.4,0.4,5.4,0.4
		C217.7,185.8,208.5,201.5,208.5,201.5z"/>
	<path class="st4" d="M208.5,201.5c0,0-5.4,5.1-8.5-0.8c2.3-1.9,4.2-4.1,5.6-6.7c1.8-3.6,2.3-10.7,0.3-14.3c4.7-3,5.4,0.4,5.4,0.4
		C217.7,185.8,208.5,201.5,208.5,201.5z"/>
	<path class="st4" d="M55.2,89.9c-1,1.5-2.4,2.7-4,3.6c-3.1,1.9-5.3,6.1-5.3,6.1c-8-14.1,7.9-30.3,7.9-30.3
		C50.8,82.1,55.2,89.9,55.2,89.9z"/>
</g>
<path class="st2" d="M198.7,173c-2.1,4.8-5.2,9.1-9.1,12.6c-2.6,2.3-5.6,4.3-8.8,5.9c-4.5,2.2-9.2,3.8-14.1,4.7c-2,0.4-4,0.7-6.1,1
	c-0.1,0-0.3,0-0.4,0.1c-24.1,2.8-54.5-4.4-78.9-18c-16.6-9.3-30.4-21.5-37.5-35.8c-20.9-41.8-7.5-90.9,30-109.7s84.9-0.2,105.8,41.7
	c7,14,13.7,29.5,18,44.6c0.4,1.4,0.8,2.7,1.1,4.1C203.4,142.3,204.6,159.7,198.7,173z"/>
<path class="st4" d="M198.7,173c-2.1,4.8-5.2,9.1-9.1,12.6c-2.6,2.3-5.6,4.3-8.8,5.9c-4.5,2.2-9.2,3.8-14.1,4.7c-2,0.4-4,0.7-6.1,1
	c-0.1,0-0.3,0-0.4,0.1c-24.1,2.8-54.5-4.4-78.9-18c-16.6-9.3-30.4-21.5-37.5-35.8c-20.9-41.8-7.5-90.9,30-109.7s84.9-0.2,105.8,41.7
	c7,14,13.7,29.5,18,44.6c0.4,1.4,0.8,2.7,1.1,4.1C203.4,142.3,204.6,159.7,198.7,173z"/>
<path class="st2" d="M208.5,199.2c0,0-5.4,5.1-8.5-0.8c-0.3-0.5-0.5-1.1-0.7-1.7c-0.7-1.9-1.7-3.7-3-5.3c-0.5-0.6-1-1.1-1.5-1.6
	c-2.3-2.3-5-4.2-8-5.7l11.2-16.8c0.1,1.9,0.4,3.8,0.8,5.7c0.5,2.6,1.5,5.3,3.1,6c0.5,0.2,1,0.2,1.5,0s0.9-0.4,1.3-0.7
	c0.5-0.4,0.9-0.7,1.3-0.9c4.7-3,5.4,0.4,5.4,0.4C217.7,183.5,208.5,199.2,208.5,199.2z"/>
<path class="st3" d="M203.3,179l-7,12.4c-0.5-0.6-1-1.1-1.5-1.6c2-2.9,5.1-7.7,7-10.8C202.2,179.2,202.8,179.2,203.3,179z"/>
<path class="st2" d="M208.5,199.2c0,0-5.4,5.1-8.5-0.8c2.3-1.8,4.2-4.1,5.6-6.7c1.8-3.6,2.3-10.7,0.3-14.4c4.7-3,5.4,0.4,5.4,0.4
	C217.7,183.5,208.5,199.2,208.5,199.2z"/>
<path class="st4" d="M208.5,199.2c0,0-5.4,5.1-8.5-0.8c2.3-1.8,4.2-4.1,5.6-6.7c1.8-3.6,2.3-10.7,0.3-14.4c4.7-3,5.4,0.4,5.4,0.4
	C217.7,183.5,208.5,199.2,208.5,199.2z"/>
<path class="st5" d="M53.8,66.9c0,0-15.8,16.2-7.8,30.3c0,0,2.2-4.2,5.3-6.1c1.6-0.9,3-2.1,4-3.6C55.2,87.6,50.8,79.8,53.8,66.9z"/>
<path class="st2" d="M497.1,201.8c-5.2,41.7-47.1,70.7-93.5,64.9c-22.5-2.8-47.3-8.1-66.3-17.5c-11-5.5-20-12.3-25.5-20.9
	c-2.9-4.4-4.7-9.4-5.4-14.6c-0.5-3.5-0.5-7.1,0-10.6c1.3-10.1,6-20.7,13.1-31c22.3-32.2,67.8-60.7,103-56.3
	C469,121.7,502.4,160.2,497.1,201.8z"/>
<path class="st2" d="M317.1,230.8c-1.7-1-3.4-1.8-5.1-2.5c-2.5-1-5.2-1.7-6.6-0.8c-0.4,0.3-0.8,0.7-0.9,1.3
	c-0.1,0.5-0.2,0.9-0.1,1.4c0,0.6,0.1,1.1,0.1,1.6c-0.1,5.6-3.3,4.3-3.3,4.3c-8.4,2.1-16.4-14.3-16.4-14.3s-1.2-7.4,5.5-6.6
	c0.6,0.1,1.2,0.2,1.8,0.3c2,0.5,4.1,0.7,6.1,0.5c0.7-0.1,1.5-0.2,2.2-0.3c2.2-0.4,4.3-1.1,6.3-2c1-0.4,1.9-0.9,2.9-1.5L317.1,230.8z
	"/>
<path class="st3" d="M305.3,227.5c-0.4,0.3-0.8,0.7-0.9,1.3L298,216c0.7-0.1,1.5-0.2,2.2-0.3C301.5,219,303.8,224.2,305.3,227.5z"/>
<path class="st2" d="M304.4,231.8c-0.1,5.6-3.3,4.3-3.3,4.3c-8.4,2.1-16.4-14.3-16.4-14.3s-1.2-7.4,5.5-6.6c0.3,2.9,1.1,5.7,2.5,8.3
	C294.7,227,300.3,231.3,304.4,231.8z"/>
<path class="st4" d="M304.4,231.8c-0.1,5.6-3.3,4.3-3.3,4.3c-8.4,2.1-16.4-14.3-16.4-14.3s-1.2-7.4,5.5-6.6c0.3,2.9,1.1,5.7,2.5,8.3
	C294.7,227,300.3,231.3,304.4,231.8z"/>
<path class="st5" d="M480.7,166.8c0,0-4.6-22.1-20.8-23.3c0,0,2.3,4.2,2.1,7.8c-0.2,1.8,0.1,3.6,0.7,5.3
	C462.7,156.5,471.7,157.2,480.7,166.8z"/>
<path class="st4" d="M337.4,249.2c-11-5.5-20-12.3-25.5-20.9c-2.5-1-5.2-1.7-6.6-0.8c-0.4,0.3-0.8,0.7-0.9,1.3
	c-0.1,0.5-0.2,0.9-0.1,1.4c0,0.6,0.1,1.1,0.1,1.6c-0.1,5.6-3.3,4.3-3.3,4.3c-8.4,2.1-16.4-14.3-16.4-14.3s-1.2-7.4,5.5-6.6
	c0.6,0.1,1.2,0.2,1.8,0.3c2,0.5,4.1,0.7,6.1,0.5c0.7-0.1,1.5-0.2,2.2-0.3c2.2-0.4,4.3-1.1,6.3-2c-0.5-3.5-0.5-7.1,0-10.6
	c1.3-10.1,6-20.7,13.1-31C331.5,197.8,341,226.9,337.4,249.2z"/>
<path class="st4" d="M305.9,281.8c-2.1,1-4.3,1.8-6.5,2.5c-2,0.6-4.1,1.2-6.2,1.6l-1.4,0.3c-1.8,0.3-3.7,0.6-5.6,0.8
	c-1.4,0.2-2.9,0.3-4.4,0.4c-27.7,1.8-62.4-8.5-86.9-26.2c-6.8-4.8-12.8-10.5-18.1-16.9c-2.7-3.4-5.1-7.1-7.1-11
	c-5.7-11.2-9-23.5-9.7-36c-0.1-1.3-0.1-2.6-0.1-3.9c-0.4-29,13.6-56,38.7-69.2c4.7,18.1,5.8,35.5,0,48.9c0.5,2.6,1.5,5.3,3.1,6
	c0.5,0.2,1,0.2,1.5,0s0.9-0.4,1.3-0.7c0.5-0.4,0.9-0.7,1.3-0.9c4.7-3,5.4,0.4,5.4,0.4c6.5,5.8-2.8,21.5-2.8,21.5s-5.4,5.1-8.5-0.8
	c-0.3-0.5-0.5-1.1-0.7-1.7c-0.7-1.9-1.7-3.7-3-5.3c-0.5-0.6-1-1.1-1.5-1.6c-1.6-1.6-3.3-3-5.2-4.1c-2.6,2.3-5.6,4.3-8.8,5.9
	c-4.5,2.2-9.2,3.8-14.2,4.8c1.1,0.5,2.2,1.1,3.3,1.6c10.9,5.5,19.8,12.5,25.2,21.1c2.5,1,5.2,1.8,6.6,0.8c0.4-0.3,0.7-0.7,0.9-1.2
	c0.1-0.5,0.2-1,0.1-1.4v-1.6c0.1-5.6,3.4-4.3,3.4-4.3c8.4-2.1,16.2,14.4,16.2,14.4s1.1,7.4-5.5,6.6c-0.6-0.1-1.2-0.2-1.8-0.4
	c-2-0.5-4-0.7-6.1-0.5c-0.7,0.1-1.5,0.1-2.2,0.3c-2.2,0.4-4.3,1-6.3,1.9c0.4,3.5,0.4,7.1-0.1,10.6c-0.1,0.6-0.2,1.2-0.3,1.8
	c0.2,0,0.4,0.1,0.6,0.1c13.5,2,26.8,5.1,39.8,9.3c4,1.3,7.9,2.7,11.6,4.4c2.6,1.1,5.1,2.3,7.5,3.5c10.9,5.5,19.8,12.5,25.2,21.1
	c2.5,1,5.2,1.8,6.6,0.8c0.4-0.3,0.7-0.7,0.9-1.2c0.1-0.5,0.2-1,0.1-1.5c0-0.6,0-1.1,0-1.6c0.1-5.6,3.4-4.3,3.4-4.3
	C299.4,275.7,303,278.5,305.9,281.8z"/>
<g class="st6">
	<path class="st4" d="M188.4,170.3c-1,1.5-2.4,2.7-4,3.6c-3.1,1.9-5.3,6.1-5.3,6.1c-8-14.1,7.9-30.2,7.9-30.2
		C183.9,162.5,188.4,170.3,188.4,170.3z"/>
	<path class="st4" d="M312.8,158.1c1.5,2.9,2.9,6,4.4,9c-9.5,11.6-20.2,20.4-31.9,23.7c-1.6,2.1-3.1,4.5-2.6,6.1
		c0.2,0.5,0.5,0.9,1,1.2c0.4,0.3,0.9,0.4,1.4,0.5s1,0.2,1.5,0.4c5.3,1.6,3.2,4.4,3.2,4.4c-0.3,8.6-18.3,11.6-18.3,11.6
		s-7.4-0.9-4.8-7.1c0.2-0.6,0.5-1.1,0.8-1.6c1.1-1.8,1.8-3.7,2.2-5.8c0.1-0.7,0.3-1.4,0.3-2.2c0.2-2.2,0.2-4.4-0.1-6.6
		c-3.5-0.5-6.9-1.5-10.1-3c-22.7-10-42.8-40.6-51.6-73C245.4,98.1,292,116.8,312.8,158.1z"/>
	<path class="st4" d="M331.8,255.7c-2.1,4.8-5.2,9.1-9.1,12.6c-0.9-0.6-1.8-1.1-2.8-1.5l11.2-16.7
		C331.2,252,331.5,253.9,331.8,255.7z"/>
	<path class="st4" d="M341.6,281.9c0,0-5.4,5.1-8.5-0.8c-0.3-0.5-0.5-1.1-0.7-1.7c-0.7-1.9-1.7-3.7-3-5.3c-0.5-0.6-0.9-1.1-1.5-1.7
		c-1.6-1.6-3.3-3-5.2-4.1c-0.9-0.6-1.8-1.1-2.8-1.5l11.2-16.7c0.1,1.9,0.4,3.8,0.7,5.6c0.6,2.6,1.5,5.3,3.1,6c0.5,0.2,1,0.2,1.5,0
		s0.9-0.4,1.3-0.7c0.4-0.3,0.8-0.6,1.3-0.9c4.7-3.1,5.4,0.4,5.4,0.4C350.8,266.2,341.6,281.9,341.6,281.9z"/>
	<path class="st4" d="M336.4,261.7l-7.1,12.4c-0.5-0.6-1-1.1-1.5-1.6c2-2.9,5.1-7.7,7-10.8C335.4,261.9,335.9,261.9,336.4,261.7z"/>
	<path class="st4" d="M341.6,281.9c0,0-5.4,5.1-8.5-0.8c2.3-1.8,4.2-4.1,5.5-6.6c1.8-3.6,2.3-10.7,0.3-14.4c4.7-3,5.4,0.4,5.4,0.4
		C350.8,266.2,341.6,281.9,341.6,281.9z"/>
	<path class="st4" d="M341.6,281.9c0,0-5.4,5.1-8.5-0.8c2.3-1.8,4.2-4.1,5.5-6.6c1.8-3.6,2.3-10.7,0.3-14.4c4.7-3,5.4,0.4,5.4,0.4
		C350.8,266.2,341.6,281.9,341.6,281.9z"/>
	<path class="st4" d="M188.4,170.3c-1,1.5-2.4,2.7-4,3.6c-3.1,1.9-5.3,6.1-5.3,6.1c-8-14.1,7.9-30.2,7.9-30.2
		C183.9,162.5,188.4,170.3,188.4,170.3z"/>
</g>
<path class="st2" d="M310.4,162.8c21,41.8,38.7,97.3,1.2,116.1s-116.1-6.2-137.1-48s-7.5-90.9,30-109.7S289.5,121,310.4,162.8z"/>
<path class="st2" d="M339.3,286.6c0,0-5.4,5.1-8.5-0.8c-0.3-0.5-0.5-1.1-0.7-1.6c-0.7-1.9-1.7-3.7-3-5.3c-0.5-0.6-0.9-1.1-1.5-1.6
	c-2.3-2.3-5-4.2-8-5.7l11.2-16.7c0,0,0.5,10.2,3.8,11.6c0.5,0.2,1,0.2,1.5,0s0.9-0.4,1.3-0.7c0.5-0.4,0.9-0.7,1.3-0.9
	c4.7-3,5.4,0.3,5.4,0.3C348.5,270.9,339.3,286.6,339.3,286.6z"/>
<path class="st3" d="M334.1,266.4l-7.1,12.4c-0.5-0.6-0.9-1.1-1.5-1.6c2-2.9,5.1-7.7,7-10.8C333,266.6,333.6,266.6,334.1,266.4z"/>
<path class="st2" d="M339.3,286.6c0,0-5.4,5.1-8.5-0.8c2.3-1.8,4.2-4.1,5.6-6.7c1.8-3.6,2.3-10.7,0.3-14.3c4.7-3,5.4,0.3,5.4,0.3
	C348.5,270.9,339.3,286.6,339.3,286.6z"/>
<path class="st4" d="M339.3,286.6c0,0-5.4,5.1-8.5-0.8c2.3-1.8,4.2-4.1,5.6-6.7c1.8-3.6,2.3-10.7,0.3-14.3c4.7-3,5.4,0.3,5.4,0.3
	C348.5,270.9,339.3,286.6,339.3,286.6z"/>
<path class="st5" d="M184.6,154.3c0,0-15.8,16.1-7.8,30.3c0,0,2.2-4.2,5.3-6.1c1.6-0.9,3-2.1,4-3.6C186,175,181.6,167.2,184.6,154.3
	z"/>
<path class="st1" d="M329.8,274.3c-6.4,4.5-6.9,15.4-0.8,20.4c7.5,6.2,18.6,2.3,28.3,3.4s18.1,7.4,24.2,14.9
	c11.6,14.6,16.3,33.5,12.6,51.8c-1.9,9.2-5.8,17.9-7.6,27.1c-2.1,11.1-1.1,22.5,0.3,33.7c1,8.3,2.2,16.9,6.3,24.2
	c6.5,11.7,19.1,18.5,31.7,23s25.9,7.2,37.6,13.6c16.1,8.9,27.9,24.1,32.6,41.9c0.5,1.4,0.5,2.8,0.1,4.2c-0.5,1.3-2.3,2.2-3.5,1.4"/>
<path class="st1" d="M296.1,293.9c-0.6,2.9,1.5,5.9,4.2,6.9c2.8,0.9,5.9,0.4,8.4-1.3c3-1.9,5.7-5.1,9.3-5c2.6,0.1,4.8,2,6.4,4
	s2.9,4.4,4.9,6c1.8,1.3,3.8,2.2,5.9,2.7c2.5,0.7,5.2,0.9,7.8,0.4c5.5-1.2,9.6-6.1,15-7.7c7.2-2.1,14.6,2.2,20.4,6.9
	c6.9,5.7,13.1,12.7,15.9,21.2c1.9,5.6,2.3,11.6,3,17.5s2.1,11.9,5.5,16.7s9.5,8.2,15.3,6.9"/>
<linearGradient id="SVGID_1_" gradientUnits="userSpaceOnUse" x1="755.773" y1="16.7875" x2="755.773" y2="602.7542" gradientTransform="matrix(1 0 0 -1 -223.75 837.79)">
	<stop  offset="0" style="stop-color:#808080;stop-opacity:0.25"/>
	<stop  offset="0.54" style="stop-color:#808080;stop-opacity:0.12"/>
	<stop  offset="1" style="stop-color:#808080;stop-opacity:0.1"/>
</linearGradient>
<path class="st7" d="M745.3,303c0,0-31.7-17.8-34.3-19.6s0-4.3,0-4.3c-5.1-3.3-15.6,3.4-15.6,3.4s3.8,1,7.5,2.1
	c-13.1-3.4-35.1-9.9-46.3-17.1c-8.7-5.6-16.3-4-21.6-1.2l-0.1-0.3c-1.3-4.2-1.1-8.7-2.7-12.8c-2.2-5-6.7-8.6-12.1-9.6
	c-3-0.6-3.5-0.3-5.3-2.6c-2.1-2.7-3.8-3.7-7.3-4.5c-4-0.9-8-1.7-12.1-1.4s-8.2,1.9-10.7,5c-1.4,1.8-2.1,3.9-3.4,5.8
	c-6.4,8.7-21.7,4.7-29.8,11.9c-5,4.4-5.8,11.7-6.9,18.2s-3.8,13.8-10.2,16c-3,1-6.4,0.6-9.6,0.9s-6.8,1.3-8.2,4.2
	c-0.5,1.1-0.8,2.4-0.7,3.6c0,0.1,0,0.2,0,0.2v0.1c0.1,1.9,0.4,3.7,0.8,5.5v-0.2c0.4,2.4,0.4,4.7-1.4,6.3c-3.6,3.4-11.3,0.3-13.5,4.6
	c-0.3,0.6-0.4,1.3-0.4,2c0,1.9,0.8,3.7,2.2,4.9c1.7,1.7,3.8,3,5.2,4.9c0.6,0.8,1,1.7,1.2,2.7c0-0.1,0-0.2,0.1-0.3
	c0.4,1.5,0.3,3.1-0.2,4.6c-11.7-0.5-29-1.5-32.5-3.9c-5.4-3.6-30.7-9.7-30.7-9.7l-0.3-0.2l0,0l-0.8-0.5l-0.8-0.4l-0.2-0.1
	c-0.3-0.2-0.6-0.3-1-0.5h-0.1l-1-0.5l-0.2-0.1l-1.2-0.5l-0.2-0.1c-0.4-0.1-0.8-0.3-1.1-0.4h-0.1c-0.4-0.1-0.8-0.3-1.2-0.4l-0.2-0.1
	c-0.8-0.2-1.6-0.4-2.5-0.5h-1.3h-0.3l-0.3,0.1c-0.2,0.1-0.4,0.1-0.6,0.2c-0.4,0.3-0.7,0.6-0.9,1.1l-1.8-0.7l-31.3-12.1
	c-1.9-1-3.7-2.1-5.5-3.3c-5.4-2.9-11.1-5.1-17.1-6.4l-0.2-0.1v0.1c-6.9-1.2-12.8,0-10.7,8.7c4.3,18.3,28.2,16.1,28.2,16.1l33.8,14.4
	l2.2,1c-0.2,10.1,0.8,20.8,3.3,22.2c0.4,0.2,0.8,0.5,1.3,0.6l0.3,0.1c0.4,0.2,0.8,0.3,1.2,0.5h0.1c0.4,0.1,0.8,0.2,1.2,0.4h0.2
	c0.4,0.1,0.8,0.2,1.2,0.3l0,0c1.3,0.2,2.6,0.3,3.8,0.3h0.4l-0.2-12.2c0.4,0.2,0.8,0.3,1.1,0.5l0,0c1.2,0.7,2.4,1.5,3.5,2.4
	c3,2.4,22.9,4.7,22.9,4.7s19,7,20.1,8.5s55.5,3.1,55.5,3.1s-7.4,16.6,13.2,33.3c0,0,3.5,21.7,1.3,27.7c-1.4,3.8-1.7,10.6-1.7,15.2
	c-6.8,2.4-23,8.5-27.1,13.6c-5.3,6.5-9.5,6.5-9.5,6.5s-5.3,10-11.7,12.5s-27.1,13.6-29,16.5s-19.3,13-19.3,13s-17.9,14.1-21.2,19.3
	s-26.8,14.9-26.8,14.9s-6.4,9-4.5,18.5s-15.8,4.3-0.4,20.3c3.6,3.8,10.2,7.8,18.4,12.1c-0.6,0.3-1.2,0.7-1.7,0.9
	c-0.9,0.5-1.9,0.8-2.8,1.1c-9.2,2.4-35.5,44.5-35.5,44.5s-16.1,20.2-28.5,27.5c-0.4,0.2-0.8,0.5-1.2,0.7l0,0c-1-2.4-4.9-4.7-8.8-6.5
	c-4.4-2-9.2-3.3-14-3.8c-3.2-0.4-7.2-1.3-9.8-3.5c-2.3-2-5-3.5-7.8-4.5c-3.9-1.2-7.1-0.2-5.5,7.1c1.5,7.3,4.3,14.3,8.4,20.5
	c0,0,17.2,15.1,18.8,20.4s8.8,11.3,9.9,10.6c0.4-0.2,2.2-1.4,4.6-3c4.8-3.2,11.7-8.3,12.1-11.2c-0.7,0-1.3,0.1-2,0.2
	c0.2-0.3,0.4-0.7,0.6-1.1c2.3-4,7.9-13.1,14.6-16.2l26.5-25.4c0,0,28.2-14.7,33-25.5c2-4.5,9-11.1,16.6-17.3l1.7-1.3
	c22.5,11.1,46.2,24,56.9,39.3c15.3,22,49.9,30.1,66.2,32.8c0.1,1.3,0.2,2.5,0.2,3.6c0.3,4.7,0,9.4-0.8,14.1
	c-0.8,4.9-0.6,42.9-0.6,42.9s1.7,19.5-3.3,25.8c-2.6,3.2-4.6,10.9-5.9,17.5c-0.1,0.4-0.2,0.8-0.2,1.2c-2.3,1.1-4.2,3.4-5.2,7.5
	c0,0-4.3,2.8-3.2,13.9c0.2,2.7,0.3,5,0.5,7c0.4,6.3,1.1,9.3,7.9,9.2c9-0.1,27.8-9.3,27.8-9.3c0.1-1.9,0-3.8-0.2-5.7
	c-0.4-3.6-1.6-7.1-3.6-10.2l0.1-0.2l0.2-0.5c0.2-0.4,0.3-0.9,0.5-1.4l0.1-0.1l0,0c0.4-1.1,0.6-2.3,0.6-3.5v-12.7
	c0,0,0.6-18.5,5-28.2c3.6-7.9,13.2-44.6,13.8-63.3c0.1-1.8,0-3.5-0.1-5.2c1.1-0.3,1.9-1.4,1.9-2.5c-0.3-7.1-5.9-3.8-3.1-17.6
	s4.8-30.9,9.8-39.1c3.5-6,6.6-12.3,9.2-18.7c0,0,10.6-35.8,15.1-44.5s21.5-65.1-5.6-91.4l-1.5-5.7c0-0.1,0-0.1,0.1-0.2l0,0
	c0.2-0.4,0.6-1.3,1.2-2.7l0,0c0.5-1.1,1-2.5,1.6-4l0,0c0.3-0.9,0.6-1.8,0.9-2.7l0,0c0.5-1.4,0.8-2.7,1.2-4l0,0l0.2-0.7
	c8.7,2,13.9-4.2,16-7.4c1.2-0.7,1.7-1.3,1.1-1.9c-3.3-3.3-0.4-10.3-0.4-10.3l0.2-30.8c0,0,3.9-0.7,4.8-11.6
	c0.5-6.5,3.3-12.6,7.8-17.2c8.4-9.2,31.6-19.2,31.6-19.2C722,343,746.9,319,746.9,319C760.3,308,745.3,303,745.3,303z M708.6,315.4
	c-5.2,1.1-16.9,6.9-16.9,6.9s-7.1,1.8-13.4,4.2s-14.6-1.3-14.6-1.3c-4.3-5.8-18.8,2.5-22.2,4.5c-2.5,1.5-4.7,1-7.1-1.1
	c-0.9-0.8-1.7-1.6-2.4-2.5c-0.7-0.8-1.5-1.5-2.5-2.1c1.1-1.9,2.5-3.7,4.1-5.2c3.5-3.4,7.7-6.2,11.3-9.6s6.6-7.7,6.9-12.6V296
	c0.1-3-0.6-6-2.1-8.7c2.9,0.6,5.9,1.1,8.9,1.4c8.5,0.5,19,4.8,25.3,7.7l1.3,0.6l-0.7,0.2l0.2,0.3l-0.2,0.1l0.1,0.1l0,0l0.5,0.6
	l0.1,0.1c0.2,0.3,0.5,0.7,0.9,1.1l0.1,0.1c0.4,0.5,0.8,0.9,1.2,1.5l0.1,0.1c0.5,0.5,1,1.1,1.5,1.6l0.1,0.1c0.5,0.5,1,1,1.5,1.5l0,0
	c0.7,0.6,1.4,1.2,2.2,1.8h0.1c0.6,0.4,1.2,0.8,1.8,1.2l0.2,0.1c0.3,0.2,0.6,0.3,0.9,0.4c5,2,7.6-2.7,7.6-2.7
	c0.7,0.2,1.4,0.5,2.1,0.8C710.5,308.8,713.2,314.5,708.6,315.4L708.6,315.4z"/>
<path class="st8" d="M707.2,288v5.6l-23.4,6.5c0,0-2.1-1.2-5.5-2.8c-6.1-3-16.3-7.2-24.6-7.8c-12.8-0.8-54.8-13.5-42.2-16.3
	s11.7,0,11.7,0s12.3-15.7,28.5-4.9c12.3,8.2,38,15.3,49.6,18.3L707.2,288z"/>
<path class="st9" d="M603.8,237.2c-3.9-0.9-7.8-1.7-11.8-1.4s-8,1.9-10.4,5.1c-1.3,1.8-2,4-3.3,5.8c-6.2,8.7-21.1,4.8-29,11.9
	c-4.9,4.4-5.7,11.7-6.7,18.2s-3.7,13.9-9.9,16c-3,1-6.2,0.6-9.3,0.9s-6.6,1.4-8,4.2c-2.4,4.9,2.7,11.9-1.2,15.7
	c-3.5,3.4-11,0.3-13.2,4.6c-1.1,2.1,0.1,4.7,1.8,6.4s3.8,3,5.1,4.9c2.7,3.8,1.7,9-2.1,11.7c-1.3,0.9-2.9,1.5-4.5,1.5
	c-2.8,0.1-5.9-1.1-8.1,0.6c-1.3,1.2-2,3-1.8,4.8c0.4,6.3,5.8,11.2,12.1,11c4.7-0.3,8.6-3.4,12.5-6s8.5-5.1,13-3.9
	c2.1,0.7,4.1,1.8,5.8,3.1c5.4,3.5,11.4,6,17.7,7.6c5.5,1.4,11.8,1.8,16.5-1.4c5.3-3.6,7.3-11.1,13-14c6-3,13.1,0.2,19.3,2.9
	s14.3,4.5,18.9-0.4c5-5.2,2.1-14.1,4.7-20.9c1.1-2.5,2.7-4.8,4.7-6.7c3.4-3.5,7.5-6.2,11-9.7s6.4-7.8,6.7-12.6
	c0.4-5.9-3.1-11.2-6.8-15.8s-8-8.9-9.8-14.5c-1.3-4.2-1.1-8.8-2.7-12.8c-2.1-5-6.6-8.6-11.9-9.6c-3-0.6-3.4-0.3-5.2-2.6
	C609.2,239.3,606.6,237.7,603.8,237.2z"/>
<g class="st6">
	<path class="st4" d="M514.7,299.7c-0.5,2.4,0.2,5.1,0.5,7.7C515.9,305.1,515.1,302.4,514.7,299.7z"/>
	<path class="st4" d="M507.7,329.9c0.6,0.8,1,1.7,1.2,2.7c0.6-2.4,0.2-4.9-1.2-7c-1.4-1.9-3.5-3.2-5.1-4.9c-0.7-0.7-1.2-1.5-1.6-2.3
		c-0.1,0.1-0.1,0.2-0.2,0.3c-1.1,2.1,0.1,4.7,1.8,6.4S506.3,328,507.7,329.9z"/>
	<path class="st4" d="M640.4,305.8c-3.5,3.4-7.5,6.2-11,9.7c-2,1.9-3.6,4.2-4.7,6.7c-2.6,6.8,0.3,15.6-4.7,20.9
		c-4.7,4.9-12.7,3.1-18.9,0.4s-13.3-5.9-19.3-2.9c-5.7,2.9-7.7,10.4-13,14c-4.7,3.2-11,2.8-16.5,1.4c-6.3-1.6-12.3-4.1-17.7-7.6
		c-1.8-1.3-3.7-2.4-5.8-3.1c-4.5-1.2-9.2,1.2-13,3.9s-7.8,5.7-12.5,6c-5.4,0.4-10.6-3.8-11.8-9c-0.2,0.8-0.3,1.5-0.3,2.3
		c0.4,6.3,5.8,11.2,12.1,11c4.7-0.3,8.6-3.4,12.5-6s8.5-5.1,13-3.9c2.1,0.7,4.1,1.7,5.8,3.1c5.4,3.5,11.4,6.1,17.7,7.6
		c5.5,1.4,11.8,1.8,16.5-1.4c5.3-3.6,7.3-11.1,13-14c6-3.1,13.1,0.2,19.3,2.8s14.3,4.5,18.9-0.4c5-5.2,2.1-14.1,4.7-20.9
		c1.1-2.5,2.7-4.8,4.7-6.7c3.4-3.5,7.5-6.2,11-9.6s6.4-7.8,6.7-12.6c0.1-1,0-2.1-0.2-3.1C646.3,298.8,643.6,302.6,640.4,305.8z"/>
</g>
<path class="st10" d="M647.3,438.1l8.9,0.7c0,0-6.7,15.1-21,7.7S647.3,438.1,647.3,438.1z"/>
<path class="st11" d="M647.3,438.1l8.9,0.7c0,0-6.7,15.1-21,7.7S647.3,438.1,647.3,438.1z"/>
<path class="st8" d="M476.6,593.1c0,0-11.2,7.8-21.4,16.4c-7.3,6.2-14.2,12.8-16.1,17.3c-4.7,10.9-32.2,25.6-32.2,25.6L381,678.1
	c-6.5,3.1-12,12.2-14.2,16.2c-0.7,1.2-1,2-1,2h-11.7l-7.1-7.1c0,0-3.8-17.1,8.2-18.5c2.3-0.4,4.6-1.3,6.5-2.6
	c12.1-7.4,27.8-27.6,27.8-27.6s25.6-42.2,34.6-44.6c1-0.3,1.9-0.6,2.8-1.1c8.9-4.5,20.6-18.2,20.6-18.2L476.6,593.1z"/>
<path class="st8" d="M609.5,688c-0.6,18.7-10,55.6-13.5,63.5c-4.4,9.8-4.9,28.3-4.9,28.3v12.8c-0.1,1.8-0.5,3.5-1.2,5.1
	c-0.4,0.9-0.8,1.9-1.3,2.8l-24-4.1c0,0,0.6-5.5,1.9-11.8c1.3-6.7,3.2-14.4,5.8-17.6c4.9-6.3,3.2-25.9,3.2-25.9s-0.2-38.1,0.6-43
	c0.8-4.7,1-9.4,0.7-14.2c-0.1-2.5-0.3-5.4-0.7-8.7c-1.4-11.4,0-28.3,0-28.3l27.5,1.4l4.6,29.9C609.3,680,609.7,683.5,609.5,688z"/>
<path class="st4" d="M366.8,694.2c-0.7,1.2-1,2-1,2h-11.7l-7.1-7.1c0,0-3.8-17.1,8.2-18.5c2.3-0.4,4.6-1.3,6.5-2.6
	c1.6,5-3.6,10.1-3.6,10.1s-2.2,2.1-0.5,10.2C358.7,693.8,363.7,694.3,366.8,694.2z"/>
<path class="st3" d="M368.2,695.1c-0.4,2.9-7.1,8-11.8,11.2c-2.3,1.6-4.1,2.7-4.5,3c-1.1,0.7-8.1-5.3-9.6-10.6S324,678.2,324,678.2
	c-4-6.3-6.7-13.3-8.2-20.6c-1.5-7.4,1.6-8.4,5.4-7.2c2.8,1,5.4,2.6,7.6,4.5c2.5,2.2,6.5,3.1,9.5,3.5c4.7,0.5,9.3,1.8,13.6,3.8
	c3.8,1.8,7.6,4.1,8.5,6.5c2,5.2-3.5,10.5-3.5,10.5s-2.2,2.1-0.5,10.2S368.3,694.9,368.2,695.1z"/>
<path class="st3" d="M356.4,706.3c-2.3,1.6-4.1,2.7-4.5,3c-1.1,0.7-8.1-5.3-9.6-10.6S324,678.2,324,678.2c-4-6.3-6.7-13.3-8.2-20.6
	c-1.5-7.4,1.6-8.4,5.4-7.2c1.4,5.8,4.4,17.1,8.2,22.7C333.9,679.7,351.6,700.7,356.4,706.3z"/>
<path class="st4" d="M589.7,797.3l0.3,0.4c-0.4,0.9-0.8,1.9-1.3,2.8l-24-4.1c0,0,0.6-5.5,1.9-11.8c8.8-3.8,23.9,10.5,23.9,10.5
	L589.7,797.3z"/>
<path class="st3" d="M593.4,814.2c0,0-18.3,9.2-27.1,9.3c-6.7,0.1-7.3-2.9-7.7-9.3c-0.1-2-0.2-4.4-0.4-7.1c-1-11.2,3.2-14,3.2-14
	c4.8-20.1,29.2,2.8,29.2,2.8l-0.8,2.2c2,3.1,3.2,6.6,3.5,10.2C593.4,810.4,593.5,812.3,593.4,814.2z"/>
<path class="st3" d="M593.4,814.2c0,0-18.3,9.2-27.1,9.3c-6.7,0.1-7.3-2.9-7.7-9.3c4.8,3.1,10.7,3.9,16.2,2.5
	c6.5-1.7,12.8-4.5,18.4-8.2C593.4,810.5,593.5,812.4,593.4,814.2z"/>
<path class="st8" d="M627.9,335.7l-3.2,33.9l-0.7,7l-13.7,3.6l-14.1,3.7l-16.3-3.6c0,0-6.3-14.2-4.1-25.9c0.6-4.1,2.8-7.8,6-10.5
	c1-0.8,1.9-1.7,2.7-2.7c0.9-1.2,1.6-2.5,2-3.9c0.5-1.7,0.8-3.6,0.7-5.4c-0.4-9-7.2-17.9-7.2-17.9s31.6-15.6,29.9-8
	c-1.1,4.9,4.7,12.5,8.8,17.3c2.3,2.6,4,4.3,4,4.3L627.9,335.7z"/>
<circle class="st8" cx="592.7" cy="298.3" r="28.9"/>
<circle class="st8" cx="592.7" cy="297.2" r="28.9"/>
<path class="st3" d="M640,445.1c-0.5,6.5-5.5,17.3-5.5,17.3l-38.8,15.1l-32.5-26.1v-0.2c0.5-2.9,6.8-39.7-2.2-47.4
	c-9.4-8-9.6-33.9-9.6-33.9s12.2-18.4,14.6-22.7s20.6-9.9,20.6-9.9c-0.8,1.4-1.5,2.7-2,3.9c-1.6,3.2-2.7,6.7-3.3,10.3
	c-0.8,5.6,0.7,9,1.8,10.5c0.5,0.8,1,1.7,1.3,2.5c4.9,13.3,18.9,9.5,24.4,7.4c0.8-0.3,1.5-0.6,2.3-1l13.7-1.3l8.6-0.8
	c0,0,4.9,68,6.5,73.3C640.2,443,640.2,444.1,640,445.1z"/>
<path class="st9" d="M584.5,341.2L584.5,341.2c-0.6,1.4-1.2,2.7-1.7,4H568c2.5-1.6,5.1-2.9,7.8-4H584.5z"/>
<path class="st12" d="M582,347.9c-0.3,1.2-0.6,2.4-0.8,3.6c0,0.1,0,0.3,0,0.4h-18c1-1.6,1.9-3,2.5-4H582z"/>
<path class="st12" d="M581.5,358.7h-22.6c0.9-1.4,1.8-2.7,2.6-4H581C581,356,581.1,357.4,581.5,358.7z"/>
<path class="st12" d="M584.6,365.5h-30.1c0.8-1.2,1.7-2.6,2.7-4h25.5c0.1,0.2,0.3,0.5,0.4,0.6c0.5,0.8,1,1.6,1.3,2.5
	C584.4,364.9,584.5,365.1,584.6,365.5z"/>
<path class="st12" d="M551.5,369.9v2.2h38.7c-1.7-1-3.1-2.4-4.2-4h-33.3L551.5,369.9z"/>
<path class="st9" d="M633.6,372.1h-25.3l0.4-0.2c1.4-0.5,2.3-1,2.3-1l13.7-1.3l8.6-0.8C633.3,368.8,633.4,370,633.6,372.1z"/>
<path class="st12" d="M634,378.9h-82c-0.2-1.5-0.3-2.8-0.4-4h82C633.8,376,633.9,377.4,634,378.9z"/>
<path class="st12" d="M634.6,385.6H553c-0.2-1.4-0.5-2.7-0.6-4h81.8C634.3,382.8,634.4,384.2,634.6,385.6z"/>
<path class="st12" d="M635.1,392.3h-80.4c-0.4-1.3-0.7-2.7-1-4h81.2C634.9,389.6,635,390.9,635.1,392.3z"/>
<path class="st12" d="M635.6,399h-78.2c-0.7-1.3-1.3-2.6-1.8-4h79.7C635.4,396.3,635.5,397.7,635.6,399z"/>
<path class="st12" d="M636.1,405.8h-73.5c-0.4-0.7-1-1.4-1.6-1.9c-0.7-0.6-1.4-1.3-2-2.1h76.7C635.9,403.1,636,404.5,636.1,405.8z"
	/>
<path class="st12" d="M636.7,412.5h-71.6c-0.3-1.4-0.6-2.7-1.1-4h72.4C636.5,409.8,636.6,411.1,636.7,412.5z"/>
<path class="st9" d="M637.3,419.2h-71.5c-0.1-1.4-0.2-2.7-0.3-4H637C637,416.5,637.1,417.9,637.3,419.2z"/>
<path class="st9" d="M637.9,425.9h-72v-4h71.6C637.6,423.3,637.8,424.6,637.9,425.9z"/>
<path class="st9" d="M638.6,432.6h-73c0.1-1.3,0.2-2.7,0.2-4h72.3C638.3,430,638.4,431.4,638.6,432.6z"/>
<path class="st9" d="M639.3,439.3H565c0.1-1.3,0.3-2.6,0.4-4h73.5C639,436.9,639.2,438.3,639.3,439.3z"/>
<path class="st12" d="M640,445.2c0,0.3,0,0.6-0.1,0.9h-75.8c0.2-1.2,0.4-2.6,0.5-4h75.2v0.1C640.1,443.1,640.1,444.2,640,445.2z"/>
<path class="st12" d="M639.4,448.8c-0.3,1.3-0.7,2.7-1.1,4h-73.2l-1.8-1.5v-0.2c0.1-0.4,0.2-1.2,0.4-2.4L639.4,448.8z"/>
<path class="st12" d="M637.4,455.5c-0.5,1.5-1.1,2.9-1.6,4h-62.4l-5-4H637.4z"/>
<path class="st12" d="M634.7,462.2l-0.1,0.2l-9.9,3.8h-42.9l-5-4H634.7z"/>
<polygon class="st9" points="617.8,469 607.4,473 590.2,473 585.1,469 "/>
<polygon class="st9" points="600.5,475.7 595.8,477.5 593.5,475.7 "/>
<path class="st11" d="M640,445.1c-6.3,1.5-12.2,2.6-12.2,2.6l-33.2,3.1l-4.6-34.4c0,0,6.3-7.6,12.2-10.5c5.5-2.8,11.5-9.7,8.1-25.6
	c-0.2-0.9-0.4-1.9-0.7-2.8c-0.5-1.8-0.8-3.6-1-5.4c-1.4-12.6,4.6-20.5,6.4-22.4c0.3-0.3,0.4-0.5,0.4-0.5l2.1-25.7c0.4,0,0.7,0,1.1,0
	c2.3,2.6,4,4.3,4,4.3l5.1,8.2l-3.1,33.8l8.6-0.8c0,0,4.9,68,6.5,73.3C640.1,443,640.1,444.1,640,445.1z"/>
<path class="st10" d="M668.3,368.8c-4.4,4.7-7.1,10.8-7.6,17.2c-0.9,10.9-4.7,11.6-4.7,11.6l-0.2,30.9c0,0-2.9,7.1,0.4,10.3
	s-27.2,8.9-27.2,8.9l-33.2,3.1l-4.5-34.4c0,0,6.3-7.6,12.2-10.5s12.2-10.5,7.4-28.5c-4.1-15.7,3.4-25.6,5.4-27.8
	c0.3-0.3,0.4-0.5,0.4-0.5l2.1-25.7c0,0,5.7-0.4,9.2,3.8c0.7,0.9,1.5,1.7,2.3,2.5c2.4,2.1,4.4,2.6,6.9,1.1c3.3-2,17.4-10.3,21.6-4.5
	S668.3,368.8,668.3,368.8z"/>
<path class="st10" d="M630.2,329.5l-3.4,17.6l-10.6,2.3c0.3-0.3,0.4-0.5,0.4-0.5l2.1-25.7c0,0,5.7-0.4,9.2,3.8
	C628.6,327.9,629.4,328.8,630.2,329.5z"/>
<path class="st10" d="M630.2,329.5l-3.4,17.6l-10.6,2.3c0.3-0.3,0.4-0.5,0.4-0.5l2.1-25.7c0,0,5.7-0.4,9.2,3.8
	C628.6,327.9,629.4,328.8,630.2,329.5z"/>
<path class="st10" d="M707.2,288v5.6l-23.4,6.5c0,0-2.1-1.2-5.5-2.8c2.5-0.9,14-5,19.9-7.8c2.2-1,3.6-1.8,3.6-2.2
	c0-0.2-0.2-0.5-0.6-0.7L707.2,288z"/>
<path class="st0" d="M739.8,319.9c0,0-24.3,24-40.6,29.5c0,0-22.7,10-30.8,19.3l-15.2-37.6l5.6-5c0,0,8,3.6,14.2,1.2
	s13.1-4.1,13.1-4.1s11.4-5.8,16.5-6.9c4.5-1,1.9-6.6-3-9.2c-0.6-0.3-1.3-0.6-2-0.8c0,0-2.5,4.7-7.4,2.7c-1.9-0.9-3.6-2.1-5-3.5l0,0
	c-2.2-2.1-4.2-4.5-6-7c0,0,13.7-4.9,20.4-7.9c2.2-1,3.6-1.8,3.6-2.2c0-1.6-13.4-5.1-13.4-5.1s10.2-6.7,15.2-3.5c0,0-2.6,2.5,0,4.4
	s33.4,19.7,33.4,19.7S752.9,308.9,739.8,319.9z"/>
<path class="st10" d="M714,303.1l-14.7,4.1c-0.6-0.3-1.3-0.6-2-0.8c0,0-2.5,4.7-7.4,2.7c-1.9-0.9-3.6-2.1-5-3.5l0,0
	c-1.8-1.8-3.4-3.8-4.9-5.9c0,0,13.7-4.9,20.4-7.9L714,303.1z"/>
<path class="st10" d="M713,302l-15.6,4.4c0,0-2.5,4.7-7.4,2.7s-11-10.5-11-10.5s13.7-4.9,20.4-7.9L713,302z"/>
<path class="st5" d="M713,301.6l-15.6,4.4c0,0-2.5,4.7-7.4,2.7s-11-10.5-11-10.5s13.7-4.9,20.4-7.9L713,301.6z"/>
<path class="st8" d="M447.4,576.5l29.2,16.6c0,0-11.2,7.8-21.4,16.4c-10.6-5.3-20.6-10.2-28.3-14.8
	C435.7,590.2,447.4,576.5,447.4,576.5z"/>
<path class="st8" d="M609.5,688c-7.7,0.6-20-2.1-20-2.1s-5-0.4-12.6-1.9c-0.1-2.5-0.3-5.4-0.7-8.7c-1.4-11.4,0-28.3,0-28.3l27.5,1.4
	l4.6,29.9C609.3,680,609.7,683.5,609.5,688z"/>
<path class="st3" d="M641.5,559.9c-4.3,8.7-14.7,44.6-14.7,44.6c-2.5,6.5-5.5,12.7-9,18.8c-4.9,8.2-6.8,25.3-9.5,39.2
	s2.7,10.6,3,17.7s-26.1,1.4-26.1,1.4s-53.1-4.6-72.9-34s-86.5-49.8-101.6-65.9s2.3-10.9,0.4-20.4s4.3-18.5,4.3-18.5
	s22.9-9.8,26.1-15s20.7-19.3,20.7-19.3s16.9-10.1,18.8-13.1s22-14.1,28.3-16.6c6.3-2.5,11.4-12.5,11.4-12.5s4.1,0,9.3-6.5
	s29.4-14.7,29.4-14.7c46.6,25.6,75.3,17.3,75.3,17.3l1.5,5.8C662.4,494.6,645.8,551.2,641.5,559.9z"/>
<path class="st11" d="M636,468.2c0,0-35.1,16.9-76.7-23.1c46.5,25.6,75.3,17.3,75.3,17.3L636,468.2z"/>
<path class="st11" d="M575.6,497.3c0,0-40,77.6-42.7,80.6S572.9,496.8,575.6,497.3z"/>
<path class="st11" d="M597.7,488.9c0,0-27.2,57.5-25.6,64.5C572.1,553.3,598.5,498.1,597.7,488.9z"/>
<path class="st11" d="M619.4,500.8c0,0-2.4,30.5,9.2,46L619.4,500.8z"/>
<path class="st11" d="M632.8,500.8c0,0,3.8,25.6,7.3,30.5L632.8,500.8z"/>
<polygon class="st11" points="546.2,488.9 503.2,512.5 520.1,512.5 "/>
<path class="st9" d="M609.5,278.8c-2.1,1.8-3.6,4.5-6.3,5.2c-1.9,0.5-3.9-0.1-5.8-0.7c-4.8-1.4-10.1-2.2-14.5-0.1
	c-6.4,3.1-9,11.2-15.4,14.3c-3.2,1.6-6.9,1.6-10.1,0.2c-2.8-1.3-5-3.6-6.1-6.5c-1.9-4.9-0.1-10.7,3.3-14.6s8.3-6.4,13.3-8.2
	c12.9-4.7,26.9-5.5,40.6-6.3c1.1-0.2,2.2,0,3.3,0.4c2.3,1.3,6.8,8.5,6.4,11.3C617.8,277.5,609.5,275.9,609.5,278.8z"/>
<path class="st9" d="M609.5,277.7c-2.1,1.8-3.6,4.5-6.3,5.2c-1.9,0.5-3.9-0.1-5.8-0.7c-4.8-1.4-10.1-2.2-14.5-0.1
	c-6.4,3.1-9,11.2-15.4,14.3c-2,1-4.1,1.4-6.3,1.2c-1.3-0.1-2.6-0.5-3.8-1c-2.8-1.3-5-3.6-6.1-6.5c-1.9-4.9-0.1-10.7,3.3-14.6
	s8.3-6.4,13.3-8.2c12.9-4.7,26.9-5.5,40.6-6.3c1.1-0.2,2.2,0,3.3,0.4c2.3,1.3,6.8,8.5,6.4,11.3C617.8,276.5,609.5,274.8,609.5,277.7
	z"/>
<path class="st8" d="M436.8,321.8l-2,18.1l-6.1-2.7l-33-14.5c0,0-23.3,2.2-27.5-16.2s25.7-3.5,27.3-2.3c1.7,1.2,3.5,2.3,5.3,3.2
	l30.5,12.1L436.8,321.8z"/>
<path class="st8" d="M436.8,321.8l-2,18.1l-6.1-2.7c0.2-8.1,1.2-15.6,2.8-17.6L436.8,321.8z"/>
<path class="st11" d="M602.7,416.6l-1.5,37.4l-37.9-2.9c0.5-2.9,6.8-39.7-2.2-47.4c-9.4-8-9.6-33.9-9.6-33.9s12.1-18.3,14.5-22.7
	s20.6-9.9,20.6-9.9c0.5-1.7,0.8-3.6,0.7-5.4c0.8,1.2,1.4,2.4,1.9,3.7c0.8,6.7-1.2,11.6-7.9,15.9c-0.6,0.4-1.2,0.8-1.9,1.1
	c-1.1,0.6-2.2,1.2-3.5,1.8l-0.6,0.3c-11.4,5.1-13.1,12.5-13.1,12.5c-3.5,6-4.5,13.1-2.9,19.9C562,398.2,602.7,416.6,602.7,416.6z"/>
<path class="st10" d="M600.5,416.6L599,454l-42.6-3.3c0,0-0.5-14,1.6-20s-1.3-27.8-1.3-27.8c-20.1-16.7-12.9-33.4-12.9-33.4
	s-53-1.6-54.1-3.1s-19.6-8.5-19.6-8.5s-19.4-2.3-22.3-4.7c-1.1-0.9-2.2-1.7-3.4-2.4c-0.4-0.2-0.7-0.4-1.1-0.5l0.2,12.2
	c-0.1,0-0.3,0-0.4,0h-0.2c-3.1,0.1-6.1-0.6-8.8-2.1c-4.7-2.7-4-39.4,0-41.2c0.8-0.3,1.6-0.4,2.4-0.3c3.3,0.2,7.6,2.5,9.6,3.7
	l0.8,0.5l0.3,0.2c0,0,24.7,6.1,29.9,9.8s42.5,4.2,42.5,4.2s16.9,1.7,18.7-0.9s26.3-9.7,28.8-6.4s8.3,2,8.3,2
	c3.5-5.3,6.6-3.8,8.7-1.3c1.2,1.5,2.2,3.2,2.9,5c0.9,7.3-1.6,12.5-9.8,17c-1.2,0.7-2.6,1.4-4.1,2c-11.4,5.1-13.1,12.5-13.1,12.5
	c-3.5,6-4.5,13.1-2.9,19.9C559.8,398.2,600.5,416.6,600.5,416.6z"/>
<path class="st10" d="M436.5,318.9c-0.5,0-0.9,0.1-1.3,0.3c-4,1.8-4.7,38.5,0,41.2c2.4,1.3,5,2.1,7.7,2.2h0.7l-0.2-12.2
	c0.4,0.2,0.7,0.3,1.1,0.5v-0.5c-3.4-9-2.5-19.1,2.4-27.4L436.5,318.9z"/>
<path class="st10" d="M443.3,350.5l0.2,12.2c-3.3,0.2-6.6-0.5-9.4-2.2c-4.7-2.7-4-39.4,0-41.2c3.2-1.4,9.5,1.9,12,3.4
	C440.9,331,439.8,341.3,443.3,350.5z"/>
<path class="st5" d="M443.3,350.5l0.2,12.2c-3.3,0.2-6.6-0.5-9.4-2.2c-4.7-2.7-4-39.4,0-41.2c3.2-1.4,9.5,1.9,12,3.4
	C440.9,331,439.8,341.3,443.3,350.5z"/>
<path class="st10" d="M577.1,352.6l-6.7-4.8l13.6-17.2c1.2,1.5,2.2,3.2,2.9,5C587.8,342.8,585.3,348,577.1,352.6z"/>
<path class="st10" d="M577.1,352.2l-6.7-4.8l13.6-17.2c1.2,1.5,2.2,3.2,2.9,5C587.8,342.5,585.3,347.6,577.1,352.2z"/>
<path class="st9" d="M609.5,275.6c-2.1,1.8-3.7,4.5-6.3,5.2c-1.9,0.5-3.9-0.1-5.8-0.6c-4.8-1.4-10.1-2.2-14.5-0.1
	c-6.4,3.1-9,11.2-15.4,14.3c-2,1-4.1,1.4-6.3,1.2c-4.5-0.4-8.3-3.3-9.9-7.5c-0.4-1-0.6-2.1-0.7-3.2c-0.2,1.8,0.1,3.6,0.7,5.3
	c1.1,2.9,3.3,5.2,6.1,6.5c1.2,0.6,2.5,0.9,3.8,1c2.2,0.2,4.3-0.2,6.3-1.2c6.3-3.1,9-11.3,15.4-14.3c4.5-2.1,9.8-1.3,14.5,0.1
	c1.9,0.5,3.9,1.2,5.8,0.7c2.7-0.7,4.2-3.4,6.3-5.2c0-3,8.2-1.3,8.8-5c0-0.5,0-1.1-0.2-1.6C616.9,274.1,609.5,272.8,609.5,275.6z"/>
<path class="st8" d="M378.7,297.7c0,0,23.7,15.7,8.7,20.6S378.7,297.7,378.7,297.7z"/>
<path class="st2" d="M108.6,770.2c0,0-46-2.8-40.6,29.5c0,0-1.1,5.7,4.1,8.3c0,0,0.1-2.4,4.7-1.6c1.7,0.3,3.3,0.4,5,0.2
	c2.3-0.2,4.4-1,6.1-2.5l0,0c0,0,12.9-5.3,18-26.5c0,0,3.7-4.6,3.6-5.8l-7.8,3.3c0,0,2.6,5.6,0.6,10.3c0,0-0.2-10-1.8-9.8
	c-0.3,0-4,1.9-4,1.9s4.6,9.8,1.1,16.8c0,0,1.3-12-2.6-16.2l-5.5,3.2c0,0,5.3,10.1,1.7,18.3c0,0,0.9-12.6-2.9-17.5l-5,3.9
	c0,0,5,9.9,2,16.8c0,0-0.4-14.7-3-15.8c0,0-4.3,3.8-5,5.4c0,0,3.4,7.2,1.3,11c0,0-1.3-9.8-2.4-9.8c0,0-4.3,6.5-4.8,10.9
	c0,0,0.2-6.6,3.7-11.5c0,0-4.2,0.7-6.6,3.4c0,0,0.7-4.6,7.7-5c0,0,3.6-4.9,4.5-5.2c0,0-7-0.6-11.2,1.3c0,0,3.7-4.3,12.5-2.4l4.9-4
	c0,0-9.2-1.3-13.1,0.1c0,0,4.5-3.8,14.4-1l5.3-3.2c0,0-7.8-1.7-12.5-1.1c0,0,4.9-2.7,14,0.2l3.9-1.7c0,0-5.7-1.1-7.4-1.3
	s-1.8-0.6-1.8-0.6c3.6-0.6,7.4-0.2,10.8,1.2C100.7,773.7,108.8,770.7,108.6,770.2z"/>
<path class="st2" d="M196.9,685.2c0,0-26-1.6-22.9,16.6c-0.3,1.9,0.6,3.8,2.3,4.7c0,0,0-1.3,2.7-0.9c0.9,0.1,1.9,0.2,2.8,0.1
	c1.3-0.1,2.5-0.6,3.5-1.4l0,0c0,0,7.3-3,10.1-14.9c0,0,2.1-2.6,2-3.3L193,688c0,0,1.5,3.2,0.3,5.8c0,0-0.1-5.7-1-5.5
	c-0.2,0-2.3,1.1-2.3,1.1s2.6,5.5,0.6,9.5c0,0,0.7-6.8-1.4-9.1l-3.1,1.8c0,0,3,5.7,1,10.3c0,0,0.5-7.1-1.6-9.9l-2.8,2.2
	c0,0,2.8,5.6,1.1,9.5c0,0-0.2-8.3-1.7-8.9c-1.1,0.9-2,1.9-2.8,3c0,0,1.9,4.1,0.7,6.2c0,0-0.7-5.5-1.3-5.5c0,0-2.4,3.7-2.7,6.2
	c0.1-2.3,0.8-4.6,2.1-6.5c-1.4,0.3-2.7,0.9-3.7,1.9c0,0,0.4-2.6,4.3-2.8c0,0,2-2.8,2.5-2.9c0,0-3.9-0.3-6.3,0.7c0,0,2.1-2.4,7-1.3
	l2.8-2.2c0,0-5.2-0.7-7.4,0.1c0,0,2.5-2.2,8.1-0.6l3-1.8c-2.3-0.5-4.7-0.7-7-0.6c0,0,2.8-1.5,7.9,0.1l2.1-1c0,0-3.2-0.6-4.2-0.7
	s-1-0.4-1-0.4c2-0.3,4.1-0.1,6.1,0.7C192.4,687.1,197,685.5,196.9,685.2z"/>
<path class="st2" d="M43.8,701c0,0-31.3-1.9-27.6,20.1c-0.4,2.3,0.7,4.6,2.8,5.6c0,0,0.1-1.6,3.2-1.1c1.1,0.2,2.3,0.2,3.4,0.2
	c1.5-0.1,3-0.7,4.2-1.7l0,0c0,0,8.8-3.6,12.2-18c0,0,2.5-3.1,2.4-4l-5.3,2.3c0,0,1.8,3.8,0.4,7c0,0-0.2-6.8-1.2-6.7
	c-0.2,0-2.8,1.3-2.8,1.3s3.1,6.7,0.8,11.5c0,0,0.9-8.2-1.7-11l-3.7,2.2c0,0,3.6,6.9,1.2,12.5c0,0,0.6-8.6-1.9-11.9l-3.4,2.6
	c0,0,3.4,6.8,1.3,11.4c0,0-0.3-10-2.1-10.8c0,0-2.9,2.6-3.4,3.7c0,0,2.3,4.9,0.9,7.5c0,0-0.9-6.7-1.6-6.7c0,0-2.9,4.4-3.2,7.4
	c0.1-2.8,1-5.5,2.5-7.9c-1.7,0.3-3.3,1.1-4.5,2.3c0,0,0.5-3.1,5.2-3.4c0,0,2.4-3.3,3.1-3.5c0,0-4.8-0.4-7.6,0.9c0,0,2.5-2.9,8.5-1.6
	l3.3-2.7c0,0-6.2-0.9-8.9,0.1c0,0,3-2.6,9.8-0.7l3.6-2.2c0,0-5.3-1.1-8.5-0.7c0,0,3.4-1.8,9.6,0.2l2.6-1.2c0,0-3.9-0.8-5-0.9
	s-1.2-0.4-1.2-0.4c2.5-0.4,5-0.1,7.3,0.8C38.4,703.4,43.8,701.3,43.8,701z"/>
</svg>
