<svg id="Layer_1" data-name="Layer 1" xmlns="http://www.w3.org/2000/svg" viewBox="0 0 27.71 25.38"><defs><style>.cls-1{fill:#a1a1a1;}.cls-2{fill:none;}</style></defs><path class="cls-1" d="M303.62,427.73h0a.75.75,0,0,1-.89.74,12.72,12.72,0,0,1-9.29-7.5,12.89,12.89,0,0,1-1-5.06,13.12,13.12,0,0,1,.7-4.23.76.76,0,0,1,1.09-.41h0a.77.77,0,0,1,.33.91,11.47,11.47,0,0,0,.22,8h0a11.65,11.65,0,0,0,1.47,2.57A11.2,11.2,0,0,0,303,427,.75.75,0,0,1,303.62,427.73Z" transform="translate(-292.41 -403.11)"/><path class="cls-1" d="M317.79,415.91a12.72,12.72,0,0,1-1,5.06,12.31,12.31,0,0,1-1.47,2.57,12.64,12.64,0,0,1-7.82,4.93.75.75,0,0,1-.89-.74h0a.76.76,0,0,1,.61-.74,11.17,11.17,0,0,0,6.79-4.21,10.91,10.91,0,0,0,1.47-2.57h0a11.33,11.33,0,0,0,.22-8,.76.76,0,0,1,.34-.91h0a.75.75,0,0,1,1.08.41A12.86,12.86,0,0,1,317.79,415.91Z" transform="translate(-292.41 -403.11)"/><path class="cls-1" d="M314.52,408.7h0a.74.74,0,0,1-.94-.16,11.14,11.14,0,0,0-7-3.82,10.18,10.18,0,0,0-1.47-.1,10.41,10.41,0,0,0-1.48.1,11.11,11.11,0,0,0-7,3.82.75.75,0,0,1-.95.16h0a.76.76,0,0,1-.19-1.15,12.63,12.63,0,0,1,8.14-4.36,14.52,14.52,0,0,1,1.48-.08,14.17,14.17,0,0,1,1.47.08,12.61,12.61,0,0,1,8.14,4.36A.76.76,0,0,1,314.52,408.7Z" transform="translate(-292.41 -403.11)"/><path class="cls-1" d="M313,413a8.37,8.37,0,0,0-6.39-5.43,8,8,0,0,0-1.47-.13,8.07,8.07,0,0,0-1.48.13,8.31,8.31,0,0,0-4.91,2.86,8.19,8.19,0,0,0-1.47,2.57h0a8.44,8.44,0,0,0,6.38,11.16,9,9,0,0,0,1.48.13,8.93,8.93,0,0,0,1.47-.13,8.32,8.32,0,0,0,4.91-2.87,8.22,8.22,0,0,0,1.48-2.57,8.59,8.59,0,0,0,0-5.72ZM311.63,418a6.91,6.91,0,0,1-5.06,4.67,7,7,0,0,1-1.47.15,6.58,6.58,0,0,1-1.48-.16,6.93,6.93,0,0,1-5.06-8.84,6.87,6.87,0,0,1,5.06-4.66,6.58,6.58,0,0,1,1.48-.16,6.43,6.43,0,0,1,1.47.16,6.79,6.79,0,0,1,3.59,2.09,7,7,0,0,1,1.47,6.75Z" transform="translate(-292.41 -403.11)"/><rect class="cls-2" width="27.71" height="25.38"/></svg>