<svg xmlns="http://www.w3.org/2000/svg" viewBox="0 0 449.79 236.44"><defs><style>.cls-1,.cls-4,.cls-5,.cls-6,.cls-7,.cls-8,.cls-9{opacity:0;}.cls-2{fill:#fff;}.cls-3{fill:#2c4987;}.cls-10,.cls-4{fill:#ffaba4;}.cls-5{fill:#ff776b;}.cls-6{fill:#e5e5e5;}.cls-7{fill:#944f38;}.cls-8{fill:#5f3324;}.cls-9{fill:#263238;}</style></defs><g id="OBJECTS"><g class="cls-1"><path class="cls-2" d="M339,220.81c-3.77,8.46-7.73,16.71-11.79,24.6a48.72,48.72,0,0,1,23.71,20.53c4.26-5.81,8.05-11.15,11.17-15.58Z" transform="translate(-25.11 -131.78)"/><path class="cls-2" d="M433.61,203.46a24.49,24.49,0,0,0-14.79-10.35A80.11,80.11,0,0,0,342,216a14.37,14.37,0,0,0-2.11,16.9,41.65,41.65,0,0,0,8.11,9.86c25.62,23.54,40.57,72.83,36.73,107.4,27.58,9.63,67.5,10.41,89.65-8.63C478.56,301.36,456.11,237.55,433.61,203.46Z" transform="translate(-25.11 -131.78)"/></g><g class="cls-1"><path class="cls-3" d="M311,247c-14.45,3.95-27.44,7.45-41.89,11.39a2.32,2.32,0,0,1-2.68-1.21c-3.06-6-6.62-11.1-8.32-17.64-.27-1.07,1.9-3.22,2.9-3.69a299.92,299.92,0,0,1,43-16.43,2.32,2.32,0,0,1,2.77,1.34,112.82,112.82,0,0,1,6.81,22.2C313.77,244.17,312.11,246.71,311,247Z" transform="translate(-25.11 -131.78)"/><path class="cls-3" d="M310.3,247.33c-14.45,3.95-28.36,8.85-42.81,12.79a2.33,2.33,0,0,1-2.68-1.2,89.38,89.38,0,0,1-6.67-18.68,2.31,2.31,0,0,1,1.24-2.66,300.5,300.5,0,0,1,43-16.43,2.32,2.32,0,0,1,2.77,1.34,112.82,112.82,0,0,1,6.81,22.2A2.31,2.31,0,0,1,310.3,247.33Z" transform="translate(-25.11 -131.78)"/></g><path class="cls-4" d="M319.12,260.45A319.51,319.51,0,0,1,294.06,299c-5.33-1.37-32.59-13.94-37.78-28.17a45.45,45.45,0,0,0-10.12,6.44c9,21.24,23.4,36.72,39.46,49.76a7.78,7.78,0,0,0,9.25.42c8.5-5.73,17.79-14.77,26.88-24.94C324.83,288.47,323.9,272.92,319.12,260.45Z" transform="translate(-25.11 -131.78)"/><path class="cls-5" d="M327.21,245.41c-2.66,5.18-5.37,10.2-8.09,15,4.78,12.47,5.71,28,2.63,42,10.52-11.78,20.76-25.07,29.17-36.53A48.72,48.72,0,0,0,327.21,245.41Z" transform="translate(-25.11 -131.78)"/><path class="cls-6" d="M423.73,247.63c.08-3.34.14-6.68.27-10-12,20.7-23.88,43.24-41.25,58.79a119.83,119.83,0,0,1,2.84,15.28C406.43,298.46,415.76,271.56,423.73,247.63Z" transform="translate(-25.11 -131.78)"/><path class="cls-7" d="M308.74,148.54a25.17,25.17,0,0,1,9-13.44c2.72-2.07,6.45-3.57,9.49-2,1.11.57,2,1.52,3.25,1.87,1.81.54,3.69-.39,5.44-1.11a27.15,27.15,0,0,1,15.35-1.6c2.55.48,5.45,1.81,5.77,4.38.19,1.5-.59,3.14.1,4.5.83,1.63,3.08,1.66,4.79,2.32a7,7,0,0,1,4.11,6,10.59,10.59,0,0,1-2.47,7.11c-.54.69-1.19,1.47-1,2.33.26,1.5,2.34,1.58,3.66,2.32,2,1.1,2.21,4,1.15,6.05s-3,3.37-4.78,4.83a37,37,0,0,0-11.34,16.38c-.06.17-11.91-4.88-13-5.37q-6.4-3-12.54-6.49c-4-2.31-8-4.79-11.83-7.45a15.62,15.62,0,0,1-3.36-2.86,8.06,8.06,0,0,1-1.45-3.16,29.27,29.27,0,0,1-.75-12.89C308.46,149.68,308.59,149.11,308.74,148.54Z" transform="translate(-25.11 -131.78)"/><path class="cls-8" d="M309.11,151.38a23.43,23.43,0,0,1,8.41-12.53c2.54-1.92,6-3.32,8.84-1.88a18.35,18.35,0,0,0,3,1.75c1.69.5,3.44-.37,5.07-1a25.3,25.3,0,0,1,14.31-1.49c2.37.44,5.07,1.69,5.37,4.08.18,1.4-.55,2.93.09,4.19.77,1.52,2.87,1.55,4.46,2.16a6.49,6.49,0,0,1,3.83,5.61,9.84,9.84,0,0,1-2.3,6.62c-.5.65-1.11,1.37-1,2.17.24,1.39,2.18,1.47,3.41,2.16,1.85,1,2.06,3.77,1.07,5.64s-2.81,3.14-4.45,4.49a34.39,34.39,0,0,0-10.56,15.26c-.06.17-11.1-4.54-12.08-5q-6-2.76-11.68-6c-3.77-2.16-7.46-4.47-11-6.95a14.3,14.3,0,0,1-3.14-2.66,7.74,7.74,0,0,1-1.35-2.94,27.25,27.25,0,0,1-.69-12C308.85,152.44,309,151.9,309.11,151.38Z" transform="translate(-25.11 -131.78)"/><path class="cls-4" d="M351.83,180.52c2.28-.48,3.79-3.09,4.8-5.16a5.1,5.1,0,0,0-.67-5.66c-2.61-2.88-7-1.33-10,.78a41,41,0,0,0-4.35-6,7.73,7.73,0,0,1-1.84-5.36c.12-2.69.42-5.63.42-5.63A181.6,181.6,0,0,0,311.86,151c-4.09,13.9-5.85,54.14,10.42,55.27,8.79.61,17.18-6.44,19.51-8.66,7.51,5.64,17.07,10.81,25,16.36,4.52,3.17,11.78,2.89,15.95-.74a16.39,16.39,0,0,0,3.69-4.66,7.54,7.54,0,0,0-3.76-10.43A164.67,164.67,0,0,1,351.83,180.52Z" transform="translate(-25.11 -131.78)"/><path class="cls-5" d="M333,203.81a38.58,38.58,0,0,0,8.79-6.16c2.94,2.21,6.2,4.35,9.55,6.47A48.64,48.64,0,0,0,345.19,191C341.68,195.49,337,199.49,333,203.81Z" transform="translate(-25.11 -131.78)"/><path class="cls-5" d="M353.48,170.51a1.49,1.49,0,0,0-.41-.34,2.37,2.37,0,0,0-.46-.11,3.48,3.48,0,0,0-1,0,6,6,0,0,0-1.89.51,5.78,5.78,0,0,0-2.82,2.72.66.66,0,0,0,.43,1,1.54,1.54,0,0,1,1.29,1.18,1.81,1.81,0,0,1-.76,1.64c-.38.32.07,1,.53.84a2.54,2.54,0,0,0,1.41-2.68,2.72,2.72,0,0,0-1.35-1.95,4.9,4.9,0,0,1,1.76-1.43,4.53,4.53,0,0,1,1.45-.42c.28,0,.56,0,.84,0h.4a1.7,1.7,0,0,0,.45-.15A.4.4,0,0,0,353.48,170.51Z" transform="translate(-25.11 -131.78)"/><path class="cls-9" d="M327.73,168.77a1.82,1.82,0,0,0,.13,3.63A1.82,1.82,0,0,0,327.73,168.77Z" transform="translate(-25.11 -131.78)"/><path class="cls-9" d="M311.86,167.85a1.82,1.82,0,0,0,.13,3.63A1.82,1.82,0,0,0,311.86,167.85Z" transform="translate(-25.11 -131.78)"/><path class="cls-5" d="M330,189.81a15.72,15.72,0,0,1-6.69,3.52c-.94.22-2.22.37-2.52-.8-.23-.89,0-1.85-.22-2.75a2.33,2.33,0,0,0-1.7-1.88A10,10,0,0,0,316,188c-1.15,0-1.51-.78-1.52-1.83a29.56,29.56,0,0,1,.43-4.08c.21-1.59.43-3.17.7-4.74s.65-3.28.9-4.93a.55.55,0,0,0-1.07-.25,43.26,43.26,0,0,0-1,4.78c-.28,1.53-.54,3.07-.74,4.62a37.74,37.74,0,0,0-.46,4.49,3.1,3.1,0,0,0,1.23,2.79c1,.61,2.12.29,3.19.18a1.88,1.88,0,0,1,1.32.18,1.58,1.58,0,0,1,.48,1.23,7.19,7.19,0,0,0,.45,3.06,2.72,2.72,0,0,0,2.81,1.17,15.2,15.2,0,0,0,8.23-4C331.47,190.11,330.55,189.29,330,189.81Z" transform="translate(-25.11 -131.78)"/><path class="cls-5" d="M330,194.3a2.91,2.91,0,0,0-.89.6c-.32.22-.63.46-1,.67a10.07,10.07,0,0,1-2,1,11.86,11.86,0,0,1-2.1.57,11.37,11.37,0,0,1-1.16.11,1.35,1.35,0,0,0-1,.27.32.32,0,0,0,0,.39c.45.59,1.58.4,2.23.34a10.57,10.57,0,0,0,2.48-.54,10.75,10.75,0,0,0,2.23-1.1,7.52,7.52,0,0,0,1-.76,2.27,2.27,0,0,0,.78-1A.47.47,0,0,0,330,194.3Z" transform="translate(-25.11 -131.78)"/><path class="cls-8" d="M316.47,161.18a4.75,4.75,0,0,0-1.85-.45,7.09,7.09,0,0,0-1.66.07,6.86,6.86,0,0,0-1.77.55,2.81,2.81,0,0,0-1.47,1.15.7.7,0,0,0,.81,1,2.32,2.32,0,0,0,.72-.36l.35-.2.16-.08h0l0,0c.22-.09.44-.18.67-.25l.35-.09.17,0,.12,0a5.35,5.35,0,0,1,.7-.07h.6a12.51,12.51,0,0,1,1.47.34A.82.82,0,0,0,316.47,161.18Z" transform="translate(-25.11 -131.78)"/><path class="cls-8" d="M332.78,164.12a1.74,1.74,0,0,0-.32-.6,5.09,5.09,0,0,0-.79-.75,7.49,7.49,0,0,0-2.12-1.14,6.68,6.68,0,0,0-4.52.05.77.77,0,0,0,.46,1.47,5.79,5.79,0,0,1,5.08.8,6.59,6.59,0,0,1,.75.65,3.71,3.71,0,0,0,.41.28c.07,0,.14.11.22.15s.43.13.27.06a.43.43,0,0,0,.63-.39A1.65,1.65,0,0,0,332.78,164.12Z" transform="translate(-25.11 -131.78)"/><path class="cls-6" d="M390.39,203.1c-.2-.89-1.55-.46-1.36.43a13.78,13.78,0,0,1-3.73,12.35,13.1,13.1,0,0,1-12.21,3.38,13.45,13.45,0,0,1-6.6-3.59c-.64-.65-1.59.39-1,1a15.15,15.15,0,0,0,13.76,4.05,14.91,14.91,0,0,0,11.1-17.65Z" transform="translate(-25.11 -131.78)"/><path class="cls-6" d="M463.69,306.63c-1.55,2.18-2.9,4.49-4.47,6.67s-3.23,4.26-5,6.27a85.38,85.38,0,0,1-11.66,11,88.12,88.12,0,0,1-28.33,14.75,87.07,87.07,0,0,1-17.8,3.49.42.42,0,0,0,0,.83,81.88,81.88,0,0,0,31.46-8.31A88.37,88.37,0,0,0,454,322a81.86,81.86,0,0,0,5.77-7,46.19,46.19,0,0,0,5-7.8A.6.6,0,0,0,463.69,306.63Z" transform="translate(-25.11 -131.78)"/><path class="cls-6" d="M464.82,326.74c-1.09,1-2.06,2.19-3.08,3.29s-2.06,2.2-3.1,3.29a81.22,81.22,0,0,1-6.44,6.14A41,41,0,0,1,436.8,348a28.8,28.8,0,0,1-9.69,1c-.4,0-.47.66-.07.71,5.88.77,11.84-.83,17.06-3.48a56.06,56.06,0,0,0,14.35-11.1c1.2-1.22,2.35-2.48,3.5-3.75s2.41-2.63,3.47-4.05A.41.41,0,0,0,464.82,326.74Z" transform="translate(-25.11 -131.78)"/><path class="cls-6" d="M370.89,272.21a40,40,0,0,0-4.68-8.75,93.65,93.65,0,0,0-6-8.28A76.77,76.77,0,0,0,345.87,241c-.16-.11-.36.08-.21.23a188.13,188.13,0,0,1,13.53,14.84q3,3.87,5.74,8c1.83,2.77,3.39,5.8,5.41,8.42C370.54,272.72,371,272.55,370.89,272.21Z" transform="translate(-25.11 -131.78)"/><path class="cls-5" d="M271.13,257.31s-6.18-1.18-9.86,6.27l-1.21-13-8.56,9.56a28.8,28.8,0,0,1,2.17,2.59c2.54,5.18,1.39,12-2.15,16.81C259.56,276.05,271.13,257.31,271.13,257.31Z" transform="translate(-25.11 -131.78)"/><path class="cls-4" d="M253.67,262.72a28.8,28.8,0,0,0-2.17-2.59L244,268.57s-.55,14.4,7.49,11l.08,0C255.06,274.72,256.21,267.9,253.67,262.72Z" transform="translate(-25.11 -131.78)"/><g class="cls-1"><path class="cls-2" d="M268.85,246.34c-2.56.09-2.42,4.07.15,4S271.42,246.24,268.85,246.34Z" transform="translate(-25.11 -131.78)"/></g><g class="cls-1"><path class="cls-10" d="M320.44,234.82l-9.25-17.22-15.3-.27a1.44,1.44,0,0,0-.87.16,1,1,0,0,0-.24,1.27,2.71,2.71,0,0,0,1,1,17,17,0,0,0,11.57,2.6,94.44,94.44,0,0,0,7,13.41" transform="translate(-25.11 -131.78)"/><path class="cls-10" d="M315.6,234.55l-8.83-5c-1.24-.7-2.73-1.42-4-.81a4.38,4.38,0,0,0-1.89,2.63,57,57,0,0,0-2.35,8c-.18.83-.2,1.94.58,2.27a1.79,1.79,0,0,0,1.72-.56,10.64,10.64,0,0,0,3.47-6.17,45.7,45.7,0,0,0,11.62,5.67" transform="translate(-25.11 -131.78)"/><path class="cls-10" d="M318.73,242l-8.83-5c-1.24-.69-2.74-1.41-4-.8a4.38,4.38,0,0,0-1.89,2.63,56.19,56.19,0,0,0-2.34,8c-.18.83-.21,1.94.58,2.27a1.78,1.78,0,0,0,1.71-.56,10.65,10.65,0,0,0,3.48-6.17A45.48,45.48,0,0,0,319,248.07" transform="translate(-25.11 -131.78)"/><path class="cls-10" d="M322.72,246.28l-8.83-5c-1.24-.7-2.74-1.41-4-.8a4.38,4.38,0,0,0-1.89,2.62,56.71,56.71,0,0,0-2.34,8c-.18.83-.21,1.94.58,2.27a1.76,1.76,0,0,0,1.71-.57,10.6,10.6,0,0,0,3.48-6.16A45.48,45.48,0,0,0,323,252.32" transform="translate(-25.11 -131.78)"/><path class="cls-10" d="M314.05,245.49c.55,3.09,1.21,6.41,3.5,8.56s5.37,2.61,8.35,3c1.34-2,2.76-4,4.1-6a124,124,0,0,0-16.32-27.45C313.49,230.7,312.8,238.52,314.05,245.49Z" transform="translate(-25.11 -131.78)"/></g><path class="cls-4" d="M432.92,235.05c-4.66-9.84-15.42-16.31-26.31-16.55-7.13,18.33-18.17,35.32-30.58,50.58a270.61,270.61,0,0,1-52.57-27.28c-1.28,2.31-3.63,4.31-4.91,6.62a167.74,167.74,0,0,0,59.75,50.34,6.92,6.92,0,0,0,8-1.32C405,278.66,423.07,259.65,432.92,235.05Z" transform="translate(-25.11 -131.78)"/><path class="cls-5" d="M380.12,276.59a17.25,17.25,0,0,0-.67-2.82,15.59,15.59,0,0,0-1.08-2.56,8.46,8.46,0,0,0-1.67-2.37.37.37,0,0,0-.6.38c.31.86.83,1.64,1.18,2.49a22,22,0,0,1,.91,2.46,17.21,17.21,0,0,1,.57,2.56c.11.82,0,2,.49,2.67a.47.47,0,0,0,.8,0C380.55,278.63,380.26,277.41,380.12,276.59Z" transform="translate(-25.11 -131.78)"/><path class="cls-6" d="M431.7,232.28a34.22,34.22,0,0,0-2.69-3.44,32.17,32.17,0,0,0-6.51-5.53c-4.75-3.06-10.75-5.3-16.47-5-.55,0-.69.94-.1,1,5.66.63,10.92,2,15.76,5.1a31.74,31.74,0,0,1,6.36,5.42,29.11,29.11,0,0,1,2.56,3.3c.69,1,1.22,2.47,2.25,3.17.27.18.57-.1.58-.36C433.5,234.71,432.37,233.28,431.7,232.28Z" transform="translate(-25.11 -131.78)"/><path class="cls-6" d="M408.44,206.26a.58.58,0,0,0-1.05-.09,3.59,3.59,0,0,0-.29,1.46c-.05.56-.11,1.11-.17,1.67-.12,1-.25,2.09-.39,3.13s-.29,2.08-.46,3.12a24.36,24.36,0,0,0-.48,3.16.57.57,0,0,0,1.07.25,16.25,16.25,0,0,0,.77-3.09c.2-1.07.39-2.14.55-3.22s.27-2.14.37-3.21c.05-.54.1-1.09.14-1.63A3.68,3.68,0,0,0,408.44,206.26Z" transform="translate(-25.11 -131.78)"/><path class="cls-6" d="M438.38,224.18a.43.43,0,0,0-.85-.09,15.08,15.08,0,0,0-.35,1.62c-.12.55-.29,1.08-.42,1.62a27.52,27.52,0,0,1-.94,3.09,27.08,27.08,0,0,1-1.27,3c-.49,1-1.16,1.92-1.57,2.94a.57.57,0,0,0,.91.65,11,11,0,0,0,1.91-2.8,22.66,22.66,0,0,0,1.45-3.22,22.33,22.33,0,0,0,.91-3.32c.1-.54.12-1.08.17-1.63A8.18,8.18,0,0,0,438.38,224.18Z" transform="translate(-25.11 -131.78)"/><path class="cls-4" d="M255,255.75q.06-9.78.11-19.55c4.38-2.43,9-5,13.38-7.41a1.45,1.45,0,0,1,.84-.27,1,1,0,0,1,.81,1,2.64,2.64,0,0,1-.42,1.32,17,17,0,0,1-9,7.72,94.48,94.48,0,0,1,.1,15.14" transform="translate(-25.11 -131.78)"/><path class="cls-4" d="M251.19,253.5a3.74,3.74,0,0,1,1.89-3.09l7-4c1.24-.7,2.73-1.43,4-.83a4.42,4.42,0,0,1,1.91,2.62,56.63,56.63,0,0,1,2.39,8c.18.83.22,1.94-.57,2.27a1.75,1.75,0,0,1-1.71-.55,10.56,10.56,0,0,1-3.51-6.15A46.07,46.07,0,0,1,251,257.47Z" transform="translate(-25.11 -131.78)"/><path class="cls-4" d="M247.16,258.5a3.7,3.7,0,0,1,1.88-3.09l7-4c1.24-.7,2.73-1.43,4-.83a4.38,4.38,0,0,1,1.91,2.62,56.9,56.9,0,0,1,2.39,8c.19.84.22,2-.57,2.28a1.78,1.78,0,0,1-1.71-.55,10.61,10.61,0,0,1-3.51-6.15A45.84,45.84,0,0,1,247,262.47Z" transform="translate(-25.11 -131.78)"/><path class="cls-4" d="M244.12,264.59A3.76,3.76,0,0,1,246,261.5l7-4c1.24-.71,2.73-1.43,4-.83a4.42,4.42,0,0,1,1.91,2.62,56.5,56.5,0,0,1,2.39,8c.18.84.22,1.95-.57,2.28a1.78,1.78,0,0,1-1.71-.55,10.61,10.61,0,0,1-3.51-6.15A45.9,45.9,0,0,1,244,268.57Z" transform="translate(-25.11 -131.78)"/><path d="M79.59,367.32a3.62,3.62,0,0,1-.92-2.71V350.94a3.62,3.62,0,0,1,.92-2.71,3.74,3.74,0,0,1,2.73-.9H95.89a3.76,3.76,0,0,1,2.75.9,3.7,3.7,0,0,1,.91,2.71v13.67a3.7,3.7,0,0,1-.91,2.71,3.76,3.76,0,0,1-2.75.9H82.32A3.74,3.74,0,0,1,79.59,367.32Zm6.3-4.24a1.4,1.4,0,0,0,.42-.66l.77-2.32h4.06l.78,2.32a1.4,1.4,0,0,0,.42.66,1,1,0,0,0,.6.18,1,1,0,0,0,.72-.25.83.83,0,0,0,.27-.65,2,2,0,0,0-.14-.69l-3.18-8.62A1.5,1.5,0,0,0,89.1,352a1.46,1.46,0,0,0-1.47,1.05l-3.19,8.62a2,2,0,0,0-.14.69.83.83,0,0,0,.27.65,1,1,0,0,0,.71.25A1,1,0,0,0,85.89,363.08ZM89,354.21h.15l1.44,4.31h-3Z" transform="translate(-25.11 -131.78)"/><path d="M106.2,367.32a3.66,3.66,0,0,1-.92-2.71V350.94a3.66,3.66,0,0,1,.92-2.71,3.74,3.74,0,0,1,2.73-.9h13.58a3.75,3.75,0,0,1,2.74.9,3.65,3.65,0,0,1,.91,2.71v13.67a3.65,3.65,0,0,1-.91,2.71,3.75,3.75,0,0,1-2.74.9H108.93A3.74,3.74,0,0,1,106.2,367.32Zm12.24-4.72a3.62,3.62,0,0,0,1.64-1.82,1.35,1.35,0,0,0,.08-.3,1.32,1.32,0,0,0,0-.28.84.84,0,0,0-.9-.91,1,1,0,0,0-.87.63,2.89,2.89,0,0,1-1.07,1.21,3,3,0,0,1-1.58.4,2.56,2.56,0,0,1-2.14-1.07,4.59,4.59,0,0,1-.8-2.81,4.66,4.66,0,0,1,.8-2.84,2.54,2.54,0,0,1,2.14-1.08,3,3,0,0,1,1.58.41,2.93,2.93,0,0,1,1.07,1.2,1.38,1.38,0,0,0,.37.48.8.8,0,0,0,.5.15.89.89,0,0,0,.66-.24.92.92,0,0,0,.24-.66,1.32,1.32,0,0,0,0-.29,1.28,1.28,0,0,0-.08-.29,3.69,3.69,0,0,0-1.64-1.83,5.36,5.36,0,0,0-2.71-.66,4.7,4.7,0,0,0-3.7,1.53,5.94,5.94,0,0,0-1.36,4.12,5.87,5.87,0,0,0,1.36,4.09,4.7,4.7,0,0,0,3.7,1.52A5.36,5.36,0,0,0,118.44,362.6Z" transform="translate(-25.11 -131.78)"/><path d="M132.81,367.32a3.66,3.66,0,0,1-.92-2.71V350.94a3.66,3.66,0,0,1,.92-2.71,3.75,3.75,0,0,1,2.74-.9h13.57a3.75,3.75,0,0,1,2.74.9,3.65,3.65,0,0,1,.91,2.71v13.67a3.65,3.65,0,0,1-.91,2.71,3.75,3.75,0,0,1-2.74.9H135.55A3.75,3.75,0,0,1,132.81,367.32Zm10.3-4.46a1.35,1.35,0,0,0,.27-.89v-7.91h2.8a.88.88,0,0,0,.64-.23.86.86,0,0,0,.25-.63.85.85,0,0,0-.25-.64.93.93,0,0,0-.64-.23h-7.7a.9.9,0,0,0-.63.23.91.91,0,0,0,0,1.27.86.86,0,0,0,.63.23h2.78V362a1.39,1.39,0,0,0,.27.89,1,1,0,0,0,.78.33A1,1,0,0,0,143.11,362.86Z" transform="translate(-25.11 -131.78)"/><path d="M159.42,367.32a3.66,3.66,0,0,1-.92-2.71V350.94a3.66,3.66,0,0,1,.92-2.71,3.75,3.75,0,0,1,2.74-.9h13.57a3.75,3.75,0,0,1,2.74.9,3.65,3.65,0,0,1,.91,2.71v13.67a3.65,3.65,0,0,1-.91,2.71,3.75,3.75,0,0,1-2.74.9H162.16A3.75,3.75,0,0,1,159.42,367.32Zm10.32-4.51a1.33,1.33,0,0,0,.27-.89v-8.57a1.38,1.38,0,0,0-.27-.9,1,1,0,0,0-.81-.32.93.93,0,0,0-.78.34,1.4,1.4,0,0,0-.26.88v8.57a1.44,1.44,0,0,0,.26.88,1,1,0,0,0,.78.33A1,1,0,0,0,169.74,362.81Z" transform="translate(-25.11 -131.78)"/><path d="M186,367.32a3.66,3.66,0,0,1-.92-2.71V350.94a3.66,3.66,0,0,1,.92-2.71,3.75,3.75,0,0,1,2.74-.9h13.57a3.74,3.74,0,0,1,2.74.9,3.65,3.65,0,0,1,.91,2.71v13.67a3.65,3.65,0,0,1-.91,2.71,3.74,3.74,0,0,1-2.74.9H188.77A3.75,3.75,0,0,1,186,367.32ZM196.49,363a2.13,2.13,0,0,0,.62-1l3.18-8.29a1.65,1.65,0,0,0,.1-.55,1,1,0,0,0-.31-.74,1.12,1.12,0,0,0-.77-.28,1,1,0,0,0-.7.23,1.67,1.67,0,0,0-.43.69l-2.59,7.67h-.09l-2.59-7.67a1.67,1.67,0,0,0-.43-.69,1,1,0,0,0-.7-.23,1.1,1.1,0,0,0-.77.29.93.93,0,0,0-.31.73,2,2,0,0,0,.1.55L194,362a2.17,2.17,0,0,0,.61,1,1.49,1.49,0,0,0,.95.28A1.44,1.44,0,0,0,196.49,363Z" transform="translate(-25.11 -131.78)"/><path d="M212.64,367.32a3.66,3.66,0,0,1-.92-2.71V350.94a3.66,3.66,0,0,1,.92-2.71,3.77,3.77,0,0,1,2.74-.9H229a3.74,3.74,0,0,1,2.74.9,3.65,3.65,0,0,1,.91,2.71v13.67a3.65,3.65,0,0,1-.91,2.71,3.74,3.74,0,0,1-2.74.9H215.38A3.77,3.77,0,0,1,212.64,367.32ZM223,362.81a1.33,1.33,0,0,0,.27-.89v-8.57a1.38,1.38,0,0,0-.27-.9,1,1,0,0,0-.8-.32.9.9,0,0,0-.78.34,1.34,1.34,0,0,0-.27.88v8.57a1.38,1.38,0,0,0,.27.88.92.92,0,0,0,.78.33A1,1,0,0,0,223,362.81Z" transform="translate(-25.11 -131.78)"/><path d="M239.25,367.32a3.65,3.65,0,0,1-.91-2.71V350.94a3.65,3.65,0,0,1,.91-2.71,3.77,3.77,0,0,1,2.74-.9h13.57a3.74,3.74,0,0,1,2.74.9,3.65,3.65,0,0,1,.91,2.71v13.67a3.65,3.65,0,0,1-.91,2.71,3.74,3.74,0,0,1-2.74.9H242A3.77,3.77,0,0,1,239.25,367.32Zm10.31-4.46a1.35,1.35,0,0,0,.27-.89v-7.91h2.79a.88.88,0,0,0,.64-.23.93.93,0,0,0,0-1.27.93.93,0,0,0-.64-.23h-7.69a.93.93,0,0,0-.64.23.93.93,0,0,0,0,1.27.88.88,0,0,0,.64.23h2.78V362a1.45,1.45,0,0,0,.26.89,1,1,0,0,0,.78.33A1,1,0,0,0,249.56,362.86Z" transform="translate(-25.11 -131.78)"/><path d="M265.86,367.32a3.65,3.65,0,0,1-.91-2.71V350.94a3.65,3.65,0,0,1,.91-2.71,3.79,3.79,0,0,1,2.74-.9h13.57a3.78,3.78,0,0,1,2.75.9,3.7,3.7,0,0,1,.91,2.71v13.67a3.7,3.7,0,0,1-.91,2.71,3.78,3.78,0,0,1-2.75.9H268.6A3.79,3.79,0,0,1,265.86,367.32Zm10.34-4.51a1.33,1.33,0,0,0,.27-.89v-2.77l3.18-5.49a1,1,0,0,0,.17-.57,1,1,0,0,0-.26-.69.94.94,0,0,0-.7-.27.91.91,0,0,0-.56.16,1.37,1.37,0,0,0-.4.51l-2.45,4.39h-.07L273,352.8a1.71,1.71,0,0,0-.43-.52,1,1,0,0,0-.59-.15,1,1,0,0,0-.7.27.9.9,0,0,0-.27.66,1.16,1.16,0,0,0,.18.6l3.2,5.52v2.74a1.44,1.44,0,0,0,.26.88,1,1,0,0,0,.78.33A1,1,0,0,0,276.2,362.81Z" transform="translate(-25.11 -131.78)"/><path d="M103,329.14a3.16,3.16,0,0,1-.79-2.35V315a3.14,3.14,0,0,1,.79-2.34,3.25,3.25,0,0,1,2.37-.78h11.75a3.24,3.24,0,0,1,2.37.78,3.14,3.14,0,0,1,.79,2.34v11.83a3.16,3.16,0,0,1-.79,2.35,3.24,3.24,0,0,1-2.37.78H105.32A3.25,3.25,0,0,1,103,329.14Zm10.69-3.76a.77.77,0,0,0,.54-.2.8.8,0,0,0,0-1.1.76.76,0,0,0-.54-.19h-3.8V321.4h3.53a.8.8,0,0,0,.54-.18.63.63,0,0,0,.22-.52.68.68,0,0,0-.22-.54.8.8,0,0,0-.54-.18h-3.53v-2.36h3.8a.73.73,0,0,0,.54-.21.7.7,0,0,0,.22-.54.68.68,0,0,0-.22-.55.76.76,0,0,0-.54-.19h-4.73a.81.81,0,0,0-.68.28,1.19,1.19,0,0,0-.23.76v7.17a1.18,1.18,0,0,0,.23.75.82.82,0,0,0,.68.29Z" transform="translate(-25.11 -131.78)"/><path d="M126,329.14a3.16,3.16,0,0,1-.79-2.35V315a3.14,3.14,0,0,1,.79-2.34,3.25,3.25,0,0,1,2.37-.78H140.1a3.24,3.24,0,0,1,2.37.78,3.14,3.14,0,0,1,.79,2.34v11.83a3.16,3.16,0,0,1-.79,2.35,3.24,3.24,0,0,1-2.37.78H128.35A3.25,3.25,0,0,1,126,329.14Zm9.06-3.77a2,2,0,0,0,.53-.83l2.75-7.19a1.35,1.35,0,0,0,.09-.47.84.84,0,0,0-.27-.64.94.94,0,0,0-.66-.24.9.9,0,0,0-.61.2,1.32,1.32,0,0,0-.37.6l-2.24,6.63h-.08l-2.24-6.63a1.32,1.32,0,0,0-.38-.6.87.87,0,0,0-.6-.2,1,1,0,0,0-.67.25.86.86,0,0,0-.26.63,1.6,1.6,0,0,0,.08.47l2.77,7.21a2,2,0,0,0,.53.83,1.31,1.31,0,0,0,.82.24A1.29,1.29,0,0,0,135,325.37Z" transform="translate(-25.11 -131.78)"/><path d="M149,329.14a3.16,3.16,0,0,1-.79-2.35V315a3.14,3.14,0,0,1,.79-2.34,3.25,3.25,0,0,1,2.37-.78h11.75a3.22,3.22,0,0,1,2.37.78,3.14,3.14,0,0,1,.79,2.34v11.83a3.16,3.16,0,0,1-.79,2.35,3.22,3.22,0,0,1-2.37.78H151.38A3.25,3.25,0,0,1,149,329.14Zm10.69-3.76a.77.77,0,0,0,.54-.2.8.8,0,0,0,0-1.1.76.76,0,0,0-.54-.19h-3.8V321.4h3.53a.8.8,0,0,0,.54-.18.61.61,0,0,0,.22-.52.65.65,0,0,0-.22-.54.8.8,0,0,0-.54-.18H155.9v-2.36h3.8a.73.73,0,0,0,.54-.21.7.7,0,0,0,.22-.54.68.68,0,0,0-.22-.55.76.76,0,0,0-.54-.19H155a.81.81,0,0,0-.68.28,1.19,1.19,0,0,0-.23.76v7.17a1.18,1.18,0,0,0,.23.75.82.82,0,0,0,.68.29Z" transform="translate(-25.11 -131.78)"/><path d="M172,329.14a3.16,3.16,0,0,1-.79-2.35V315a3.14,3.14,0,0,1,.79-2.34,3.25,3.25,0,0,1,2.37-.78h11.75a3.22,3.22,0,0,1,2.37.78,3.14,3.14,0,0,1,.79,2.34v11.83a3.16,3.16,0,0,1-.79,2.35,3.22,3.22,0,0,1-2.37.78H174.41A3.25,3.25,0,0,1,172,329.14Zm5.85-3.87a.94.94,0,0,0,.23-.67v-5.45h.08l4.22,5.83a1.49,1.49,0,0,0,.41.42.85.85,0,0,0,.46.12.87.87,0,0,0,.65-.25,1,1,0,0,0,.23-.68v-7.68a.92.92,0,0,0-.23-.68.83.83,0,0,0-.64-.24.82.82,0,0,0-.62.25,1,1,0,0,0-.22.67v5.57h-.09l-4.21-6a1.46,1.46,0,0,0-.42-.41.89.89,0,0,0-.47-.12.83.83,0,0,0-.64.25,1,1,0,0,0-.22.68v7.68a1,1,0,0,0,.22.67.82.82,0,0,0,.62.25A.83.83,0,0,0,177.89,325.27Z" transform="translate(-25.11 -131.78)"/><path d="M195.07,329.14a3.21,3.21,0,0,1-.79-2.35V315a3.18,3.18,0,0,1,.79-2.34,3.25,3.25,0,0,1,2.37-.78h11.75a3.22,3.22,0,0,1,2.37.78,3.14,3.14,0,0,1,.79,2.34v11.83a3.16,3.16,0,0,1-.79,2.35,3.22,3.22,0,0,1-2.37.78H197.44A3.25,3.25,0,0,1,195.07,329.14Zm8.92-3.86a1.16,1.16,0,0,0,.24-.77v-6.85h2.42a.76.76,0,0,0,.55-.2.83.83,0,0,0,0-1.1.81.81,0,0,0-.55-.2H200a.82.82,0,0,0-.56.2.83.83,0,0,0,0,1.1.77.77,0,0,0,.56.2h2.4v6.85a1.21,1.21,0,0,0,.23.76.79.79,0,0,0,.68.29A.85.85,0,0,0,204,325.28Z" transform="translate(-25.11 -131.78)"/><path d="M26.05,293.49a3.75,3.75,0,0,1-.94-2.79V276.58a3.75,3.75,0,0,1,.94-2.79,3.88,3.88,0,0,1,2.83-.93h14a3.88,3.88,0,0,1,2.83.93,3.75,3.75,0,0,1,.94,2.79V290.7a3.75,3.75,0,0,1-.94,2.79,3.88,3.88,0,0,1-2.83.94h-14A3.88,3.88,0,0,1,26.05,293.49Zm10.64-4.6A1.36,1.36,0,0,0,37,288v-8.17h2.88a.92.92,0,0,0,.66-.24.87.87,0,0,0,.26-.65.85.85,0,0,0-.26-.66.92.92,0,0,0-.66-.24H31.91a.92.92,0,0,0-.66.24.85.85,0,0,0-.26.66.87.87,0,0,0,.26.65.92.92,0,0,0,.66.24h2.87V288a1.47,1.47,0,0,0,.27.91,1,1,0,0,0,.81.34A1,1,0,0,0,36.69,288.89Z" transform="translate(-25.11 -131.78)"/><path d="M53.52,293.49a3.75,3.75,0,0,1-.94-2.79V276.58a3.75,3.75,0,0,1,.94-2.79,3.89,3.89,0,0,1,2.83-.93h14a3.88,3.88,0,0,1,2.83.93,3.75,3.75,0,0,1,.94,2.79V290.7a3.75,3.75,0,0,1-.94,2.79,3.88,3.88,0,0,1-2.83.94h-14A3.89,3.89,0,0,1,53.52,293.49ZM60,289.11a1.27,1.27,0,0,0,.43-.68l.8-2.39h4.19l.81,2.39a1.27,1.27,0,0,0,.43.68,1,1,0,0,0,.62.2,1.06,1.06,0,0,0,.74-.26.87.87,0,0,0,.28-.68,1.93,1.93,0,0,0-.15-.71l-3.28-8.9a1.64,1.64,0,0,0-3.08,0l-3.28,8.9a1.93,1.93,0,0,0-.15.71.9.9,0,0,0,.27.68,1.14,1.14,0,0,0,1.37.06ZM63.29,280h.14l1.5,4.45H61.79Z" transform="translate(-25.11 -131.78)"/><path d="M81,293.49a3.75,3.75,0,0,1-.94-2.79V276.58a3.75,3.75,0,0,1,.94-2.79,3.91,3.91,0,0,1,2.83-.93h14a3.86,3.86,0,0,1,2.83.93,3.75,3.75,0,0,1,.94,2.79V290.7a3.75,3.75,0,0,1-.94,2.79,3.86,3.86,0,0,1-2.83.94h-14A3.91,3.91,0,0,1,81,293.49Zm13-5.12a2.94,2.94,0,0,0,1.25-2.51,2.44,2.44,0,0,0-.88-2,6.31,6.31,0,0,0-2.47-1.15l-1.6-.43a2.77,2.77,0,0,1-1.17-.56,1.09,1.09,0,0,1-.35-.85,1.33,1.33,0,0,1,.5-1.11,2.26,2.26,0,0,1,1.42-.39,2.66,2.66,0,0,1,1.4.32,2.39,2.39,0,0,1,.88,1,1.31,1.31,0,0,0,.37.5,1.09,1.09,0,0,0,.63.17,1,1,0,0,0,.69-.24.88.88,0,0,0,.27-.7,1.62,1.62,0,0,0-.14-.6,3.18,3.18,0,0,0-1.41-1.58,5.64,5.64,0,0,0-5.71.31,3,3,0,0,0-1.2,2.42,2.41,2.41,0,0,0,.76,1.87A5.21,5.21,0,0,0,89.43,284l1.77.5a4.69,4.69,0,0,1,1.39.6,1.08,1.08,0,0,1,.4.91,1.25,1.25,0,0,1-.62,1.14,3,3,0,0,1-1.55.37,3.19,3.19,0,0,1-1.49-.32,2.23,2.23,0,0,1-.94-1,1.14,1.14,0,0,0-1-.71.93.93,0,0,0-1,1,1.45,1.45,0,0,0,.16.65,3.42,3.42,0,0,0,1.4,1.48,5.06,5.06,0,0,0,2.76.68A5.41,5.41,0,0,0,94,288.37Z" transform="translate(-25.11 -131.78)"/><path d="M108.47,293.49a3.71,3.71,0,0,1-1-2.79V276.58a3.71,3.71,0,0,1,1-2.79,3.87,3.87,0,0,1,2.82-.93h14a3.86,3.86,0,0,1,2.83.93,3.75,3.75,0,0,1,.94,2.79V290.7a3.75,3.75,0,0,1-.94,2.79,3.86,3.86,0,0,1-2.83.94h-14A3.87,3.87,0,0,1,108.47,293.49Zm7.52-4.65a1.37,1.37,0,0,0,.29-.92v-2.24l1.45-1.49,3.32,4.45a1.61,1.61,0,0,0,.44.4,1,1,0,0,0,.5.13,1.07,1.07,0,0,0,.77-.28,1.05,1.05,0,0,0,.29-.75,1.25,1.25,0,0,0-.08-.42,1.9,1.9,0,0,0-.23-.41l-3.43-4.53,3.15-3.24a1.57,1.57,0,0,0,.26-.37,1.11,1.11,0,0,0,.08-.41.88.88,0,0,0-.29-.67,1,1,0,0,0-.72-.28,1,1,0,0,0-.45.11,1.56,1.56,0,0,0-.42.32l-4.57,4.68h-.07v-3.85a1.37,1.37,0,0,0-.29-.92,1,1,0,0,0-.82-.34,1,1,0,0,0-.79.34,1.32,1.32,0,0,0-.29.92v8.85a1.32,1.32,0,0,0,.29.92,1,1,0,0,0,.79.33A1,1,0,0,0,116,288.84Z" transform="translate(-25.11 -131.78)"/><path d="M146.45,260.05a1.92,1.92,0,0,1-.48-1.42v-7.15a1.91,1.91,0,0,1,.48-1.42,1.94,1.94,0,0,1,1.43-.47H155a2,2,0,0,1,1.44.47,1.91,1.91,0,0,1,.48,1.42v7.15a1.92,1.92,0,0,1-.48,1.42,2,2,0,0,1-1.44.47h-7.1A2,2,0,0,1,146.45,260.05Zm5.39-2.34a.67.67,0,0,0,.14-.46v-4.14h1.47a.48.48,0,0,0,.33-.12.43.43,0,0,0,.13-.33.44.44,0,0,0-.13-.34.48.48,0,0,0-.33-.12h-4a.46.46,0,0,0-.33.12.44.44,0,0,0-.13.34.43.43,0,0,0,.13.33.46.46,0,0,0,.33.12h1.46v4.14a.74.74,0,0,0,.13.46.5.5,0,0,0,.41.18A.49.49,0,0,0,151.84,257.71Z" transform="translate(-25.11 -131.78)"/><path d="M160.37,260.05a1.92,1.92,0,0,1-.48-1.42v-7.15a1.91,1.91,0,0,1,.48-1.42,2,2,0,0,1,1.44-.47h7.1a1.94,1.94,0,0,1,1.43.47,1.91,1.91,0,0,1,.48,1.42v7.15a1.92,1.92,0,0,1-.48,1.42,2,2,0,0,1-1.43.47h-7.1A2,2,0,0,1,160.37,260.05Zm6.39-2.5a2.65,2.65,0,0,0,1-1,3.61,3.61,0,0,0,0-3.06,2.56,2.56,0,0,0-2.35-1.42,2.62,2.62,0,0,0-1.4.38,2.5,2.5,0,0,0-.94,1,3.61,3.61,0,0,0,0,3.06,2.56,2.56,0,0,0,.94,1,2.83,2.83,0,0,0,2.8,0Zm-2.54-1.05a2.85,2.85,0,0,1,0-3,1.34,1.34,0,0,1,1.14-.57,1.37,1.37,0,0,1,1.15.57,2.9,2.9,0,0,1,0,3,1.37,1.37,0,0,1-1.15.57A1.34,1.34,0,0,1,164.22,256.5Z" transform="translate(-25.11 -131.78)"/><path d="M177.44,260.05a1.92,1.92,0,0,1-.48-1.42v-7.15a1.91,1.91,0,0,1,.48-1.42,2,2,0,0,1,1.44-.47H186a1.93,1.93,0,0,1,1.43.47,1.91,1.91,0,0,1,.48,1.42v7.15a1.92,1.92,0,0,1-.48,1.42,2,2,0,0,1-1.43.47h-7.1A2,2,0,0,1,177.44,260.05Zm5-2.28a2.73,2.73,0,0,0,2-.72,2.84,2.84,0,0,0,.72-2.09,2.8,2.8,0,0,0-.71-2.06,2.74,2.74,0,0,0-2.05-.72h-1.55a.52.52,0,0,0-.41.17.74.74,0,0,0-.13.46v4.33a.72.72,0,0,0,.13.46.49.49,0,0,0,.41.17Zm-1-4.74h.9a1.66,1.66,0,0,1,1.32.5,2.58,2.58,0,0,1,0,2.91,1.73,1.73,0,0,1-1.32.49h-.9Z" transform="translate(-25.11 -131.78)"/><path d="M191.37,260.05a1.92,1.92,0,0,1-.48-1.42v-7.15a1.91,1.91,0,0,1,.48-1.42,1.93,1.93,0,0,1,1.43-.47h7.1a1.68,1.68,0,0,1,1.91,1.89v7.15a1.92,1.92,0,0,1-.48,1.42,2,2,0,0,1-1.43.47h-7.1A2,2,0,0,1,191.37,260.05Zm6.38-2.5a2.65,2.65,0,0,0,.95-1,3.61,3.61,0,0,0,0-3.06,2.68,2.68,0,0,0-3.74-1,2.52,2.52,0,0,0-1,1,3.61,3.61,0,0,0,0,3.06,2.7,2.7,0,0,0,3.74,1Zm-2.54-1.05a2.9,2.9,0,0,1,0-3,1.44,1.44,0,0,1,2.29,0,2.9,2.9,0,0,1,0,3,1.44,1.44,0,0,1-2.29,0Z" transform="translate(-25.11 -131.78)"/><path d="M105.62,203.45a2.57,2.57,0,0,1-.65-1.9V192a2.57,2.57,0,0,1,.65-1.9,2.62,2.62,0,0,1,1.91-.63H117a2.65,2.65,0,0,1,1.93.63,2.61,2.61,0,0,1,.63,1.9v9.58a2.61,2.61,0,0,1-.63,1.9,2.65,2.65,0,0,1-1.93.63h-9.51A2.62,2.62,0,0,1,105.62,203.45Zm8.55-3.35a3.49,3.49,0,0,0,1.27-1.39,4.44,4.44,0,0,0,.46-2,4.53,4.53,0,0,0-.46-2.06,3.56,3.56,0,0,0-1.27-1.39,3.46,3.46,0,0,0-1.88-.51,3.42,3.42,0,0,0-1.86.51,3.35,3.35,0,0,0-1.27,1.39,4.4,4.4,0,0,0-.46,2.06,4.32,4.32,0,0,0,.46,2,3.29,3.29,0,0,0,1.27,1.39,3.42,3.42,0,0,0,1.86.51A3.46,3.46,0,0,0,114.17,200.1Zm-3.41-1.4a3.92,3.92,0,0,1,0-4.07,1.83,1.83,0,0,1,1.53-.76,1.81,1.81,0,0,1,1.54.76,3.86,3.86,0,0,1,0,4.07,1.81,1.81,0,0,1-1.54.76A1.83,1.83,0,0,1,110.76,198.7Z" transform="translate(-25.11 -131.78)"/><path d="M124.26,203.45a2.57,2.57,0,0,1-.64-1.9V192a2.57,2.57,0,0,1,.64-1.9,2.64,2.64,0,0,1,1.92-.63h9.51a2.64,2.64,0,0,1,1.92.63,2.61,2.61,0,0,1,.64,1.9v9.58a2.61,2.61,0,0,1-.64,1.9,2.64,2.64,0,0,1-1.92.63h-9.51A2.64,2.64,0,0,1,124.26,203.45Zm8.58-3.31a2.58,2.58,0,0,0,1.15-1.27,1,1,0,0,0,0-.22,1.23,1.23,0,0,0,0-.19.66.66,0,0,0-.17-.47.64.64,0,0,0-.46-.17.68.68,0,0,0-.61.45,2.06,2.06,0,0,1-.75.84,2.08,2.08,0,0,1-1.11.28,1.79,1.79,0,0,1-1.5-.75,3.22,3.22,0,0,1-.56-2,3.28,3.28,0,0,1,.56-2,1.79,1.79,0,0,1,1.5-.75,2.08,2.08,0,0,1,1.11.28,2.19,2.19,0,0,1,.75.84.87.87,0,0,0,.26.34.56.56,0,0,0,.35.1.6.6,0,0,0,.46-.17.62.62,0,0,0,.17-.46,1.23,1.23,0,0,0,0-.2.84.84,0,0,0,0-.2,2.56,2.56,0,0,0-1.15-1.28,3.74,3.74,0,0,0-1.9-.47,3.3,3.3,0,0,0-2.59,1.07,4.18,4.18,0,0,0-1,2.89,4.13,4.13,0,0,0,1,2.87,3.3,3.3,0,0,0,2.59,1.07A3.74,3.74,0,0,0,132.84,200.14Z" transform="translate(-25.11 -131.78)"/><path d="M142.91,203.45a2.57,2.57,0,0,1-.65-1.9V192a2.57,2.57,0,0,1,.65-1.9,2.6,2.6,0,0,1,1.91-.63h9.51a2.61,2.61,0,0,1,1.92.63,2.57,2.57,0,0,1,.64,1.9v9.58a2.57,2.57,0,0,1-.64,1.9,2.61,2.61,0,0,1-1.92.63h-9.51A2.6,2.6,0,0,1,142.91,203.45Zm8.57-3.31a2.53,2.53,0,0,0,1.15-1.27,1,1,0,0,0,.06-.22,1.21,1.21,0,0,0,0-.19.59.59,0,0,0-.63-.64.69.69,0,0,0-.61.45,2.06,2.06,0,0,1-.75.84,2.08,2.08,0,0,1-1.11.28,1.76,1.76,0,0,1-1.49-.75,3.16,3.16,0,0,1-.57-2,3.22,3.22,0,0,1,.57-2,1.76,1.76,0,0,1,1.49-.75,2.08,2.08,0,0,1,1.11.28,2.19,2.19,0,0,1,.75.84,1,1,0,0,0,.26.34.56.56,0,0,0,.35.1.59.59,0,0,0,.63-.63,1.27,1.27,0,0,0,0-.2.89.89,0,0,0-.06-.2,2.51,2.51,0,0,0-1.15-1.28,3.72,3.72,0,0,0-1.9-.47,3.31,3.31,0,0,0-2.59,1.07,4.23,4.23,0,0,0-1,2.89,4.18,4.18,0,0,0,1,2.87,3.31,3.31,0,0,0,2.59,1.07A3.72,3.72,0,0,0,151.48,200.14Z" transform="translate(-25.11 -131.78)"/><path d="M161.55,203.45a2.57,2.57,0,0,1-.64-1.9V192a2.57,2.57,0,0,1,.64-1.9,2.64,2.64,0,0,1,1.92-.63H173a2.65,2.65,0,0,1,1.93.63,2.61,2.61,0,0,1,.63,1.9v9.58a2.61,2.61,0,0,1-.63,1.9,2.65,2.65,0,0,1-1.93.63h-9.5A2.64,2.64,0,0,1,161.55,203.45Zm4.42-3a.91.91,0,0,0,.29-.46l.54-1.62h2.84l.55,1.62a.91.91,0,0,0,.29.46.76.76,0,0,0,.93,0,.59.59,0,0,0,.19-.46,1.25,1.25,0,0,0-.1-.48l-2.23-6a1,1,0,0,0-1.05-.74,1,1,0,0,0-1,.74l-2.23,6a1.47,1.47,0,0,0-.1.48.59.59,0,0,0,.19.46.67.67,0,0,0,.49.18A.72.72,0,0,0,166,200.47Zm2.21-6.21h.1l1,3h-2.13Z" transform="translate(-25.11 -131.78)"/><path d="M180.19,203.45a2.57,2.57,0,0,1-.64-1.9V192a2.57,2.57,0,0,1,.64-1.9,2.64,2.64,0,0,1,1.92-.63h9.51a2.63,2.63,0,0,1,1.92.63,2.57,2.57,0,0,1,.64,1.9v9.58a2.57,2.57,0,0,1-.64,1.9,2.63,2.63,0,0,1-1.92.63h-9.51A2.64,2.64,0,0,1,180.19,203.45Zm7.22-3.13a.92.92,0,0,0,.19-.62v-5.54h2A.64.64,0,0,0,190,194a.65.65,0,0,0,0-.88.64.64,0,0,0-.45-.17h-5.39a.64.64,0,0,0-.45.17.65.65,0,0,0,0,.88.64.64,0,0,0,.45.17h2v5.54a1,1,0,0,0,.18.62.66.66,0,0,0,.55.24A.67.67,0,0,0,187.41,200.32Z" transform="translate(-25.11 -131.78)"/><path d="M198.84,203.45a2.57,2.57,0,0,1-.65-1.9V192a2.57,2.57,0,0,1,.65-1.9,2.62,2.62,0,0,1,1.91-.63h9.51a2.61,2.61,0,0,1,1.92.63,2.57,2.57,0,0,1,.64,1.9v9.58a2.57,2.57,0,0,1-.64,1.9,2.61,2.61,0,0,1-1.92.63h-9.51A2.62,2.62,0,0,1,198.84,203.45Zm7.23-3.16a1,1,0,0,0,.19-.63v-6a1,1,0,0,0-.19-.63.72.72,0,0,0-.57-.23.63.63,0,0,0-.54.24.94.94,0,0,0-.19.62v6a.94.94,0,0,0,.19.62.63.63,0,0,0,.54.23A.71.71,0,0,0,206.07,200.29Z" transform="translate(-25.11 -131.78)"/><path d="M217.48,203.45a2.57,2.57,0,0,1-.64-1.9V192a2.57,2.57,0,0,1,.64-1.9,2.64,2.64,0,0,1,1.92-.63h9.51a2.64,2.64,0,0,1,1.92.63,2.61,2.61,0,0,1,.64,1.9v9.58a2.61,2.61,0,0,1-.64,1.9,2.64,2.64,0,0,1-1.92.63H219.4A2.64,2.64,0,0,1,217.48,203.45ZM226,200.1a3.42,3.42,0,0,0,1.27-1.39,4.32,4.32,0,0,0,.46-2,4.4,4.4,0,0,0-.46-2.06,3.49,3.49,0,0,0-1.27-1.39,3.52,3.52,0,0,0-5,1.39,4.53,4.53,0,0,0-.46,2.06,4.44,4.44,0,0,0,.46,2,3.36,3.36,0,0,0,1.27,1.39,3.68,3.68,0,0,0,3.74,0Zm-3.4-1.4a3.86,3.86,0,0,1,0-4.07,1.81,1.81,0,0,1,1.53-.76,1.84,1.84,0,0,1,1.54.76,3.86,3.86,0,0,1,0,4.07,1.84,1.84,0,0,1-1.54.76A1.81,1.81,0,0,1,222.63,198.7Z" transform="translate(-25.11 -131.78)"/><path d="M236.12,203.45a2.61,2.61,0,0,1-.64-1.9V192a2.61,2.61,0,0,1,.64-1.9,2.64,2.64,0,0,1,1.92-.63h9.51a2.61,2.61,0,0,1,1.92.63,2.57,2.57,0,0,1,.64,1.9v9.58a2.57,2.57,0,0,1-.64,1.9,2.61,2.61,0,0,1-1.92.63H238A2.64,2.64,0,0,1,236.12,203.45Zm4.74-3.13a.78.78,0,0,0,.18-.55v-4.41h.06l3.43,4.72a1.18,1.18,0,0,0,.32.34.76.76,0,0,0,.38.09.68.68,0,0,0,.52-.19.76.76,0,0,0,.19-.56v-6.21a.78.78,0,0,0-.18-.55.7.7,0,0,0-.52-.2.63.63,0,0,0-.5.21.8.8,0,0,0-.18.54v4.51h-.07l-3.42-4.82a1.07,1.07,0,0,0-.33-.34.81.81,0,0,0-.39-.1.64.64,0,0,0-.51.21.81.81,0,0,0-.18.55v6.21a.77.77,0,0,0,.18.54.62.62,0,0,0,.5.2A.69.69,0,0,0,240.86,200.32Z" transform="translate(-25.11 -131.78)"/><path d="M79.41,170.12a3.3,3.3,0,0,1-.83-2.45V155.29a3.3,3.3,0,0,1,.83-2.45,3.37,3.37,0,0,1,2.48-.82H94.18a3.36,3.36,0,0,1,2.48.82,3.3,3.3,0,0,1,.83,2.45v12.38a3.3,3.3,0,0,1-.83,2.45,3.36,3.36,0,0,1-2.48.82H81.89A3.37,3.37,0,0,1,79.41,170.12ZM90.35,166a3.44,3.44,0,0,0,1.45-1.29,3.68,3.68,0,0,0,.5-1.91V162a.92.92,0,0,0-1-1H88.66a.6.6,0,0,0-.68.68.72.72,0,0,0,.18.48.63.63,0,0,0,.5.21h1.73v.72a1.69,1.69,0,0,1-.57,1.32,2.54,2.54,0,0,1-1.73.51,2.35,2.35,0,0,1-2-1,4.1,4.1,0,0,1-.74-2.56,4.17,4.17,0,0,1,.74-2.57,2.27,2.27,0,0,1,1.94-1,2.55,2.55,0,0,1,2.4,1.46,1.24,1.24,0,0,0,.34.44.77.77,0,0,0,.45.13.81.81,0,0,0,.6-.22.78.78,0,0,0,.23-.59,1.14,1.14,0,0,0,0-.28c0-.07,0-.16-.09-.26a3.17,3.17,0,0,0-.85-1.2,3.75,3.75,0,0,0-1.35-.78,5.29,5.29,0,0,0-1.74-.27,4.26,4.26,0,0,0-3.35,1.38,5.42,5.42,0,0,0-1.23,3.74,5.32,5.32,0,0,0,1.24,3.73,4.29,4.29,0,0,0,3.38,1.37A5,5,0,0,0,90.35,166Z" transform="translate(-25.11 -131.78)"/><path d="M103.51,170.12a3.3,3.3,0,0,1-.83-2.45V155.29a3.3,3.3,0,0,1,.83-2.45A3.37,3.37,0,0,1,106,152h12.29a3.34,3.34,0,0,1,2.48.82,3.3,3.3,0,0,1,.83,2.45v12.38a3.3,3.3,0,0,1-.83,2.45,3.34,3.34,0,0,1-2.48.82H106A3.37,3.37,0,0,1,103.51,170.12Zm5.71-3.84a1.15,1.15,0,0,0,.38-.6l.7-2.1H114l.71,2.1a1.15,1.15,0,0,0,.38.6.94.94,0,0,0,.55.17.91.91,0,0,0,.64-.23.75.75,0,0,0,.25-.59,1.57,1.57,0,0,0-.13-.62l-2.88-7.81a1.34,1.34,0,0,0-1.36-.95,1.33,1.33,0,0,0-1.34.95L107.91,165a1.57,1.57,0,0,0-.13.62.78.78,0,0,0,.24.59.9.9,0,0,0,.64.23A1,1,0,0,0,109.22,166.28Zm2.86-8h.13l1.31,3.9h-2.76Z" transform="translate(-25.11 -131.78)"/><path d="M127.61,170.12a3.3,3.3,0,0,1-.83-2.45V155.29a3.3,3.3,0,0,1,.83-2.45,3.37,3.37,0,0,1,2.48-.82h12.29a3.38,3.38,0,0,1,2.49.82,3.34,3.34,0,0,1,.82,2.45v12.38a3.34,3.34,0,0,1-.82,2.45,3.38,3.38,0,0,1-2.49.82H130.09A3.37,3.37,0,0,1,127.61,170.12Zm9.33-4a1.21,1.21,0,0,0,.25-.81v-7.16h2.53a.79.79,0,0,0,.58-.22.73.73,0,0,0,.22-.56.77.77,0,0,0-.22-.59.87.87,0,0,0-.58-.2h-7a.87.87,0,0,0-.58.2.77.77,0,0,0-.22.59.73.73,0,0,0,.22.56.79.79,0,0,0,.58.22h2.52v7.16a1.25,1.25,0,0,0,.24.8.85.85,0,0,0,.71.3A.89.89,0,0,0,136.94,166.09Z" transform="translate(-25.11 -131.78)"/><path d="M151.71,170.12a3.3,3.3,0,0,1-.83-2.45V155.29a3.3,3.3,0,0,1,.83-2.45,3.37,3.37,0,0,1,2.48-.82h12.29a3.38,3.38,0,0,1,2.49.82,3.3,3.3,0,0,1,.82,2.45v12.38a3.3,3.3,0,0,1-.82,2.45,3.38,3.38,0,0,1-2.49.82H154.19A3.37,3.37,0,0,1,151.71,170.12Zm6-4.07a1.17,1.17,0,0,0,.25-.81V162h4.77v3.29a1.22,1.22,0,0,0,.24.81,1,1,0,0,0,1.42,0,1.18,1.18,0,0,0,.26-.81v-7.78a1.18,1.18,0,0,0-.26-.81,1,1,0,0,0-1.42,0,1.22,1.22,0,0,0-.24.81v3H158v-3a1.17,1.17,0,0,0-.25-.81.91.91,0,0,0-.72-.28.86.86,0,0,0-.69.28,1.18,1.18,0,0,0-.26.81v7.78a1.18,1.18,0,0,0,.26.81.86.86,0,0,0,.69.28A.91.91,0,0,0,157.7,166.05Z" transform="translate(-25.11 -131.78)"/><path d="M175.81,170.12a3.3,3.3,0,0,1-.83-2.45V155.29a3.3,3.3,0,0,1,.83-2.45,3.39,3.39,0,0,1,2.48-.82h12.29a3.38,3.38,0,0,1,2.49.82,3.3,3.3,0,0,1,.82,2.45v12.38a3.3,3.3,0,0,1-.82,2.45,3.38,3.38,0,0,1-2.49.82H178.29A3.39,3.39,0,0,1,175.81,170.12ZM187,166.19a.79.79,0,0,0,.56-.21.71.71,0,0,0,.23-.57.72.72,0,0,0-.23-.58.83.83,0,0,0-.56-.2h-4V162h3.7a.88.88,0,0,0,.57-.18.65.65,0,0,0,.23-.54.72.72,0,0,0-.23-.57.89.89,0,0,0-.57-.19H183v-2.47h4a.8.8,0,0,0,.56-.22.82.82,0,0,0,0-1.14.79.79,0,0,0-.56-.2h-5a.86.86,0,0,0-.71.3,1.22,1.22,0,0,0-.24.79v7.5a1.22,1.22,0,0,0,.24.79.86.86,0,0,0,.71.3Z" transform="translate(-25.11 -131.78)"/><path d="M199.91,170.12a3.3,3.3,0,0,1-.83-2.45V155.29a3.3,3.3,0,0,1,.83-2.45,3.39,3.39,0,0,1,2.48-.82h12.29a3.38,3.38,0,0,1,2.49.82,3.3,3.3,0,0,1,.82,2.45v12.38a3.3,3.3,0,0,1-.82,2.45,3.38,3.38,0,0,1-2.49.82H202.39A3.39,3.39,0,0,1,199.91,170.12Zm6.62-4.08a1.16,1.16,0,0,0,.25-.8v-2.4h1.83l1.76,2.86a1.64,1.64,0,0,0,.42.49,1,1,0,0,0,.53.14.88.88,0,0,0,.62-.23.79.79,0,0,0,.25-.6,1.26,1.26,0,0,0-.19-.67l-1.5-2.27a3.13,3.13,0,0,0,1-5.2,3.83,3.83,0,0,0-2.65-.87H205.8a.84.84,0,0,0-.69.31,1.25,1.25,0,0,0-.24.8v7.64a1.22,1.22,0,0,0,.24.79.83.83,0,0,0,.69.3A.88.88,0,0,0,206.53,166Zm.25-8.09h1.84a2.17,2.17,0,0,1,1.45.46,1.63,1.63,0,0,1,.55,1.33,1.53,1.53,0,0,1-.55,1.28,2.31,2.31,0,0,1-1.5.45h-1.79Z" transform="translate(-25.11 -131.78)"/><path d="M224,170.12a3.3,3.3,0,0,1-.83-2.45V155.29a3.3,3.3,0,0,1,.83-2.45,3.39,3.39,0,0,1,2.48-.82h12.29a3.38,3.38,0,0,1,2.49.82,3.3,3.3,0,0,1,.82,2.45v12.38a3.3,3.3,0,0,1-.82,2.45,3.38,3.38,0,0,1-2.49.82H226.49A3.39,3.39,0,0,1,224,170.12Zm9.35-4.08a1.22,1.22,0,0,0,.24-.81v-7.76a1.22,1.22,0,0,0-.24-.81.89.89,0,0,0-.73-.29.86.86,0,0,0-.71.3,1.25,1.25,0,0,0-.24.8v7.76a1.27,1.27,0,0,0,.24.8.86.86,0,0,0,.71.3A.89.89,0,0,0,233.36,166Z" transform="translate(-25.11 -131.78)"/><path d="M248.11,170.12a3.3,3.3,0,0,1-.83-2.45V155.29a3.3,3.3,0,0,1,.83-2.45,3.39,3.39,0,0,1,2.48-.82h12.29a3.38,3.38,0,0,1,2.49.82,3.3,3.3,0,0,1,.82,2.45v12.38a3.3,3.3,0,0,1-.82,2.45,3.38,3.38,0,0,1-2.49.82H250.59A3.39,3.39,0,0,1,248.11,170.12Zm6.12-4a1,1,0,0,0,.24-.71v-5.7h.08l4.43,6.1a1.37,1.37,0,0,0,.42.44.91.91,0,0,0,.49.12.88.88,0,0,0,.67-.25,1,1,0,0,0,.25-.72v-8a1,1,0,0,0-.24-.71.88.88,0,0,0-.67-.25.8.8,0,0,0-.65.26,1,1,0,0,0-.23.7v5.82h-.1l-4.41-6.23a1.58,1.58,0,0,0-.43-.43,1,1,0,0,0-.5-.12.8.8,0,0,0-.66.26,1,1,0,0,0-.24.71v8a1,1,0,0,0,.24.7.79.79,0,0,0,.64.26A.87.87,0,0,0,254.23,166.08Z" transform="translate(-25.11 -131.78)"/><path d="M272.21,170.12a3.3,3.3,0,0,1-.83-2.45V155.29a3.3,3.3,0,0,1,.83-2.45,3.39,3.39,0,0,1,2.48-.82H287a3.38,3.38,0,0,1,2.49.82,3.3,3.3,0,0,1,.82,2.45v12.38a3.3,3.3,0,0,1-.82,2.45,3.38,3.38,0,0,1-2.49.82H274.69A3.39,3.39,0,0,1,272.21,170.12Zm11-4.13a3.36,3.36,0,0,0,1.44-1.29,3.58,3.58,0,0,0,.5-1.91V162a.91.91,0,0,0-1-1h-2.61a.61.61,0,0,0-.69.68.72.72,0,0,0,.18.48.64.64,0,0,0,.51.21h1.72v.72a1.69,1.69,0,0,1-.57,1.32,2.51,2.51,0,0,1-1.72.51,2.32,2.32,0,0,1-2-1,4,4,0,0,1-.74-2.56,4.17,4.17,0,0,1,.73-2.57,2.3,2.3,0,0,1,1.94-1,2.67,2.67,0,0,1,1.43.37,2.53,2.53,0,0,1,1,1.09,1.26,1.26,0,0,0,.35.44.72.72,0,0,0,.44.13.83.83,0,0,0,.61-.22.77.77,0,0,0,.22-.59,1.14,1.14,0,0,0,0-.28l-.08-.26a3.29,3.29,0,0,0-.85-1.2,3.92,3.92,0,0,0-1.35-.78,5.4,5.4,0,0,0-1.75-.27,4.28,4.28,0,0,0-3.35,1.38,5.42,5.42,0,0,0-1.23,3.74,5.32,5.32,0,0,0,1.24,3.73,4.31,4.31,0,0,0,3.38,1.37A5.06,5.06,0,0,0,283.16,166Z" transform="translate(-25.11 -131.78)"/><path d="M58,234.74a2.24,2.24,0,0,1-.56-1.65v-8.31a2.22,2.22,0,0,1,.56-1.65,2.26,2.26,0,0,1,1.66-.55H67.9a2,2,0,0,1,2.22,2.2v8.31a2.24,2.24,0,0,1-.56,1.65,2.27,2.27,0,0,1-1.66.55H59.64A2.31,2.31,0,0,1,58,234.74Zm7.42-2.91a3,3,0,0,0,1.1-1.2,4.16,4.16,0,0,0,0-3.56,3,3,0,0,0-1.1-1.21,3.22,3.22,0,0,0-3.25,0,3,3,0,0,0-1.1,1.21,4.16,4.16,0,0,0,0,3.56,3,3,0,0,0,1.1,1.2,3.22,3.22,0,0,0,3.25,0Zm-3-1.22a3.29,3.29,0,0,1,0-3.52,1.55,1.55,0,0,1,1.32-.67,1.58,1.58,0,0,1,1.34.67,3.35,3.35,0,0,1,0,3.52,1.58,1.58,0,0,1-1.34.67A1.55,1.55,0,0,1,62.45,230.61Z" transform="translate(-25.11 -131.78)"/><path d="M74.16,234.74a2.24,2.24,0,0,1-.56-1.65v-8.31a2.22,2.22,0,0,1,.56-1.65,2.27,2.27,0,0,1,1.67-.55h8.25a2.27,2.27,0,0,1,1.67.55,2.22,2.22,0,0,1,.55,1.65v8.31a2.24,2.24,0,0,1-.55,1.65,2.32,2.32,0,0,1-1.67.55H75.83A2.32,2.32,0,0,1,74.16,234.74ZM82,231.59a2.28,2.28,0,0,0,.78-1.81v-3.55c0-.49-.21-.73-.65-.73a.58.58,0,0,0-.47.19.76.76,0,0,0-.17.54v3.42a1.55,1.55,0,0,1-.43,1.14,1.51,1.51,0,0,1-1.14.43,1.46,1.46,0,0,1-1.57-1.57v-3.42a.81.81,0,0,0-.17-.54.6.6,0,0,0-.48-.19c-.43,0-.64.24-.64.73v3.55a2.28,2.28,0,0,0,.78,1.81,3.52,3.52,0,0,0,4.16,0Z" transform="translate(-25.11 -131.78)"/><path d="M90.34,234.74a2.24,2.24,0,0,1-.55-1.65v-8.31a2.22,2.22,0,0,1,.55-1.65,2.27,2.27,0,0,1,1.67-.55h8.25a2.27,2.27,0,0,1,1.67.55,2.22,2.22,0,0,1,.55,1.65v8.31a2.24,2.24,0,0,1-.55,1.65,2.32,2.32,0,0,1-1.67.55H92A2.32,2.32,0,0,1,90.34,234.74ZM96.61,232a.85.85,0,0,0,.16-.54v-4.81h1.7a.53.53,0,0,0,.39-.15.49.49,0,0,0,.15-.38.5.5,0,0,0-.15-.39.56.56,0,0,0-.39-.14H93.79a.56.56,0,0,0-.38.14.47.47,0,0,0-.16.39.46.46,0,0,0,.16.38.52.52,0,0,0,.38.15h1.69v4.81a.8.8,0,0,0,.17.53.54.54,0,0,0,.47.21A.6.6,0,0,0,96.61,232Z" transform="translate(-25.11 -131.78)"/><path d="M106.53,234.74a2.2,2.2,0,0,1-.56-1.65v-8.31a2.18,2.18,0,0,1,.56-1.65,2.25,2.25,0,0,1,1.66-.55h8.25a2.26,2.26,0,0,1,1.67.55,2.22,2.22,0,0,1,.55,1.65v8.31a2.24,2.24,0,0,1-.55,1.65,2.3,2.3,0,0,1-1.67.55h-8.25A2.29,2.29,0,0,1,106.53,234.74ZM112.8,232a.84.84,0,0,0,.16-.55v-5.21a.81.81,0,0,0-.16-.54.58.58,0,0,0-.49-.2.56.56,0,0,0-.47.2.85.85,0,0,0-.16.54v5.21a.85.85,0,0,0,.16.54.56.56,0,0,0,.47.2A.6.6,0,0,0,112.8,232Z" transform="translate(-25.11 -131.78)"/><path d="M122.71,234.74a2.24,2.24,0,0,1-.56-1.65v-8.31a2.22,2.22,0,0,1,.56-1.65,2.25,2.25,0,0,1,1.66-.55h8.25a2.26,2.26,0,0,1,1.67.55,2.22,2.22,0,0,1,.56,1.65v8.31a2.24,2.24,0,0,1-.56,1.65,2.3,2.3,0,0,1-1.67.55h-8.25A2.29,2.29,0,0,1,122.71,234.74Zm4.11-2.72a.68.68,0,0,0,.16-.47v-3.83h0l3,4.1a1.11,1.11,0,0,0,.28.29.67.67,0,0,0,.33.08.57.57,0,0,0,.45-.17.65.65,0,0,0,.17-.48v-5.4a.64.64,0,0,0-.16-.47.61.61,0,0,0-.45-.17.56.56,0,0,0-.44.18.69.69,0,0,0-.15.46v3.92H130l-3-4.19a1,1,0,0,0-.29-.29.7.7,0,0,0-.33-.08.57.57,0,0,0-.45.18.72.72,0,0,0-.16.47v5.4a.72.72,0,0,0,.16.47.59.59,0,0,0,.44.17A.57.57,0,0,0,126.82,232Z" transform="translate(-25.11 -131.78)"/><path d="M138.89,234.74a2.24,2.24,0,0,1-.56-1.65v-8.31a2.22,2.22,0,0,1,.56-1.65,2.26,2.26,0,0,1,1.66-.55h8.26a2,2,0,0,1,2.22,2.2v8.31a2.24,2.24,0,0,1-.56,1.65,2.27,2.27,0,0,1-1.66.55h-8.26A2.31,2.31,0,0,1,138.89,234.74Zm7.35-2.77a2.3,2.3,0,0,0,1-.88,2.44,2.44,0,0,0,.33-1.28v-.52a.62.62,0,0,0-.69-.7H145.1a.4.4,0,0,0-.46.46.47.47,0,0,0,.12.32.44.44,0,0,0,.34.14h1.16V230a1.14,1.14,0,0,1-.38.88,1.69,1.69,0,0,1-1.16.34,1.58,1.58,0,0,1-1.32-.64,3.3,3.3,0,0,1,0-3.46,1.56,1.56,0,0,1,1.3-.65,1.76,1.76,0,0,1,1,.25,1.72,1.72,0,0,1,.65.73.79.79,0,0,0,.23.29.53.53,0,0,0,.3.09.5.5,0,0,0,.56-.54.58.58,0,0,0,0-.19.7.7,0,0,0-.06-.17,1.93,1.93,0,0,0-.57-.81,2.5,2.5,0,0,0-.9-.52,3.34,3.34,0,0,0-1.17-.19,2.85,2.85,0,0,0-2.25.93,4.21,4.21,0,0,0,0,5,2.92,2.92,0,0,0,2.27.92A3.61,3.61,0,0,0,146.24,232Z" transform="translate(-25.11 -131.78)"/></g></svg>