<svg id="Capa_1" data-name="Capa 1" xmlns="http://www.w3.org/2000/svg" viewBox="0 0 144 146.93"><defs><style>.cls-1{fill:#4280ef;}.cls-2{fill:#34a353;}.cls-3{fill:#f6b704;}.cls-4{fill:#e54335;}</style></defs><path class="cls-1" d="M147,76.76a91.85,91.85,0,0,0-1.28-14.88H76.43V90.21h39.69a33.38,33.38,0,0,1-14.72,22.24l23.69,18.41C139,117.89,147,99,147,76.76Z" transform="translate(-3.01 -1.54)"/><path class="cls-2" d="M76.43,148.46c19.85,0,36.49-6.56,48.66-17.76L101.4,112.45c-6.56,4.48-15,7-25,7-19.2,0-35.37-13-41.29-30.25L10.81,108A73.39,73.39,0,0,0,76.43,148.46Z" transform="translate(-3.01 -1.54)"/><path class="cls-3" d="M35.14,89.08a44.62,44.62,0,0,1,0-28.16L10.81,42a73.58,73.58,0,0,0,0,65.94Z" transform="translate(-3.01 -1.54)"/><path class="cls-4" d="M76.43,30.67a40.07,40.07,0,0,1,28.17,11l21-21.13a70.73,70.73,0,0,0-49.14-19A73.39,73.39,0,0,0,10.81,42L35.14,60.92C41.06,43.47,57.23,30.67,76.43,30.67Z" transform="translate(-3.01 -1.54)"/></svg>