<svg id="Layer_1" data-name="Layer 1" xmlns="http://www.w3.org/2000/svg" viewBox="0 0 1000 133.95"><defs><style>.cls-1{fill:#39bb99;}</style></defs><path id="Path_18" data-name="Path 18" class="cls-1" d="M988,1.55a10.6,10.6,0,1,1-7.49,3.11A10.6,10.6,0,0,1,988,1.55Zm0-1.47a12.05,12.05,0,1,0,8.51,3.53A12,12,0,0,0,988,.08Z"/><path id="Path_307" data-name="Path 307" class="cls-1" d="M988.15,5.93h-4.67V18.34H985V13.42H988l2.66,4.92h1.8l-2.92-5.15a3.41,3.41,0,0,0,1.82-1.32A3.62,3.62,0,0,0,992,9.64h0a3.59,3.59,0,0,0-.49-2,3.25,3.25,0,0,0-1.37-1.28A4.55,4.55,0,0,0,988,5.93ZM985,12.06V7.31H988a2.7,2.7,0,0,1,1.89.62,2.35,2.35,0,0,1,.52.8,2.1,2.1,0,0,1,.15.93h0a2.35,2.35,0,0,1-.13.95,2.18,2.18,0,0,1-.49.81,2.63,2.63,0,0,1-1.84.63Z"/><g id="Group_24" data-name="Group 24"><path id="Path_7" data-name="Path 7" class="cls-1" d="M0,26.52H26.86V68H68.93V26.52H95.77V132.06H68.93V89.56H26.87v42.5H0Z"/><path id="Path_8" data-name="Path 8" class="cls-1" d="M156.34,26.52h32.84l35.55,105.54H196.48L173,49.52h-.5L149.16,132.1H120.87ZM144.26,89.59h56.5V109h-56.5Z"/><path id="Path_9" data-name="Path 9" class="cls-1" d="M249.81,26.52h26.87V132.06H249.81Zm13.54,54.35h25a19,19,0,0,0,13.29-4.38A16.13,16.13,0,0,0,306.43,64v-.14a15.87,15.87,0,0,0-4.78-12.51,19.16,19.16,0,0,0-13.29-4.23h-25V26.52h31.44a42.91,42.91,0,0,1,20.44,4.63,33.25,33.25,0,0,1,13.5,13,38.91,38.91,0,0,1,4.79,19.69V64a38.8,38.8,0,0,1-4.79,19.64,32.74,32.74,0,0,1-13.5,12.94,43.39,43.39,0,0,1-20.44,4.58H263.34Z"/><path id="Path_10" data-name="Path 10" class="cls-1" d="M360.47,26.52h26.85V132.06H360.47ZM374,80.87h25a19,19,0,0,0,13.29-4.38A16.13,16.13,0,0,0,417.1,64v-.14a15.87,15.87,0,0,0-4.78-12.51A19.11,19.11,0,0,0,399,47.09H374V26.52h31.46a43,43,0,0,1,20.44,4.63,33.29,33.29,0,0,1,13.49,13,39,39,0,0,1,4.79,19.69V64a38.8,38.8,0,0,1-4.79,19.64A32.66,32.66,0,0,1,425.9,96.59a43.37,43.37,0,0,1-20.44,4.58H374Z"/><path id="Path_11" data-name="Path 11" class="cls-1" d="M471.15,26.52h72.36V48H498V68.92h42.83V89.1H498v21.36h45.51v21.6H471.15Z"/><path id="Path_12" data-name="Path 12" class="cls-1" d="M573.6,26.52h22.77l51.1,73.65L627.93,87.38h11.14V26.52h26.77V132.06H643.32l-51.2-74.33,19.39,12.8h-11v61.53H573.6Z"/><path id="Path_13" data-name="Path 13" class="cls-1" d="M696.85,26.52H723.7V132.06H696.85Z"/><path id="Path_14" data-name="Path 14" class="cls-1" d="M754.69,26.52h22.84l51.09,73.65L809.08,87.38h11.13V26.52H847V132.06H824.41L773.22,57.73l19.38,12.8H781.55v61.53H754.71Z"/><path id="Path_15" data-name="Path 15" class="cls-1" d="M899.25,127.47a43.91,43.91,0,0,1-18-18.77,72.27,72.27,0,0,1,0-58.92A43.75,43.75,0,0,1,899,31.17a60.76,60.76,0,0,1,50.59-1.85,44,44,0,0,1,16.54,12.74,36.63,36.63,0,0,1,7.68,18.34l.15.87H947.44l-.3-.73a18.49,18.49,0,0,0-7.43-10,22.79,22.79,0,0,0-13.14-3.62,22.33,22.33,0,0,0-12.94,3.69,23.25,23.25,0,0,0-8.31,10.83,46.36,46.36,0,0,0-2.91,17.37v.08a45.78,45.78,0,0,0,3.1,17.78A24.9,24.9,0,0,0,914.27,108a23.22,23.22,0,0,0,13.39,3.87,25.74,25.74,0,0,0,10.71-2.08,18,18,0,0,0,7.43-6,17.42,17.42,0,0,0,3.13-9.13l.15-1.33H929.77v-19H975V87.5a51.31,51.31,0,0,1-5.66,24.82A38.68,38.68,0,0,1,953,128.37,54.55,54.55,0,0,1,927.17,134,56.53,56.53,0,0,1,899.25,127.47Z"/></g></svg>