<svg id="Layer_1" data-name="Layer 1" xmlns="http://www.w3.org/2000/svg" viewBox="0 0 27.71 25.38"><defs><style>.cls-1{fill:none;}.cls-2{fill:#a1a1a1;}.cls-3{fill:#eb4d3d;}</style></defs><rect class="cls-1" width="27.71" height="25.38"/><path class="cls-2" d="M303.62,387.73h0a.75.75,0,0,1-.89.74,12.72,12.72,0,0,1-9.29-7.5,12.92,12.92,0,0,1-1-5.06,13.12,13.12,0,0,1,.7-4.23.76.76,0,0,1,1.09-.41h0a.77.77,0,0,1,.33.91,11.47,11.47,0,0,0,.22,8h0a11.88,11.88,0,0,0,1.47,2.57A11.24,11.24,0,0,0,303,387,.74.74,0,0,1,303.62,387.73Z" transform="translate(-292.41 -363.11)"/><path class="cls-2" d="M317.79,375.9a12.89,12.89,0,0,1-1,5.06,12.77,12.77,0,0,1-9.29,7.51.76.76,0,0,1-.29-1.49,11.29,11.29,0,0,0,8.27-6.78,11.36,11.36,0,0,0,.84-4.3c0-.2,0-.4,0-.61a.75.75,0,0,1,.37-.69h0a.75.75,0,0,1,1.13.6C317.78,375.44,317.79,375.67,317.79,375.9Z" transform="translate(-292.41 -363.11)"/><path class="cls-2" d="M311.88,366.4h0a.73.73,0,0,1-.78,0,11.15,11.15,0,0,0-4.53-1.66,10.85,10.85,0,0,0-2.94,0,11.18,11.18,0,0,0-7,3.82.74.74,0,0,1-.94.17.75.75,0,0,1-.38-.66.76.76,0,0,1,.18-.49,12.61,12.61,0,0,1,8.15-4.36,12.05,12.05,0,0,1,2.94,0,12.33,12.33,0,0,1,5.34,1.91A.75.75,0,0,1,311.88,366.4Z" transform="translate(-292.41 -363.11)"/><path class="cls-2" d="M313.46,375.91c0,.19,0,.37,0,.55a8.34,8.34,0,0,1-.48,2.29,8.56,8.56,0,0,1-1.47,2.58,8.34,8.34,0,0,1-4.92,2.86,7.77,7.77,0,0,1-1.46.13,8,8,0,0,1-1.48-.13,7.71,7.71,0,0,1-2.27-.77,8.26,8.26,0,0,1-2.64-2.09,8.41,8.41,0,0,1-2-5.42q0-.39,0-.78a8.39,8.39,0,0,1,.46-2.08,8.56,8.56,0,0,1,1.47-2.58,8.34,8.34,0,0,1,4.92-2.86,9,9,0,0,1,1.48-.13,7.77,7.77,0,0,1,1.46.13,8.16,8.16,0,0,1,2.08.67,7.29,7.29,0,0,1,.78.42.75.75,0,0,1,0,1.28h0a.74.74,0,0,1-.77,0,6.69,6.69,0,0,0-1.67-.72l-.39-.1a7,7,0,0,0-1.46-.16,7.14,7.14,0,0,0-1.48.16,6.81,6.81,0,0,0-3.59,2.1,7,7,0,0,0-1.48,2.57l-.09.33a7.25,7.25,0,0,0-.22,1.76,6.85,6.85,0,0,0,1.79,4.65,6.9,6.9,0,0,0,3,1.91,4.17,4.17,0,0,0,.63.18,7.14,7.14,0,0,0,1.48.16,7,7,0,0,0,1.46-.16,6.82,6.82,0,0,0,3.59-2.09,6.91,6.91,0,0,0,1.48-2.58,5.47,5.47,0,0,0,.15-.58,6.67,6.67,0,0,0,.17-1.49v-.26a.75.75,0,0,1,.37-.68.74.74,0,0,1,.37-.1.75.75,0,0,1,.75.71C313.46,375.69,313.46,375.8,313.46,375.91Z" transform="translate(-292.41 -363.11)"/><circle class="cls-3" cx="24.59" cy="5.82" r="3.12"/></svg>